<svg width="336" height="153" viewBox="0 0 336 153" fill="none" xmlns="http://www.w3.org/2000/svg">
<path d="M25.438 26.398H7.498L3.634 35H0.092L14.812 2.8H18.17L32.89 35H29.302L25.438 26.398ZM24.196 23.638L16.468 6.342L8.74 23.638H24.196ZM49.0727 10.62C51.342 10.62 53.3967 11.1413 55.2367 12.184C57.0767 13.196 58.518 14.6373 59.5607 16.508C60.6033 18.3787 61.1247 20.51 61.1247 22.902C61.1247 25.3247 60.6033 27.4713 59.5607 29.342C58.518 31.2127 57.0767 32.6693 55.2367 33.712C53.4273 34.724 51.3727 35.23 49.0727 35.23C47.11 35.23 45.3313 34.8313 43.7367 34.034C42.1727 33.206 40.8847 32.01 39.8727 30.446V43.924H36.6067V10.804H39.7347V15.588C40.716 13.9933 42.004 12.7667 43.5987 11.908C45.224 11.0493 47.0487 10.62 49.0727 10.62ZM48.8427 32.332C50.5293 32.332 52.0627 31.9487 53.4427 31.182C54.8227 30.3847 55.896 29.2653 56.6627 27.824C57.46 26.3827 57.8587 24.742 57.8587 22.902C57.8587 21.062 57.46 19.4367 56.6627 18.026C55.896 16.5847 54.8227 15.4653 53.4427 14.668C52.0627 13.8707 50.5293 13.472 48.8427 13.472C47.1253 13.472 45.5767 13.8707 44.1967 14.668C42.8473 15.4653 41.774 16.5847 40.9767 18.026C40.21 19.4367 39.8267 21.062 39.8267 22.902C39.8267 24.742 40.21 26.3827 40.9767 27.824C41.774 29.2653 42.8473 30.3847 44.1967 31.182C45.5767 31.9487 47.1253 32.332 48.8427 32.332ZM79.3284 10.62C81.5978 10.62 83.6524 11.1413 85.4924 12.184C87.3324 13.196 88.7738 14.6373 89.8164 16.508C90.8591 18.3787 91.3804 20.51 91.3804 22.902C91.3804 25.3247 90.8591 27.4713 89.8164 29.342C88.7738 31.2127 87.3324 32.6693 85.4924 33.712C83.6831 34.724 81.6284 35.23 79.3284 35.23C77.3658 35.23 75.5871 34.8313 73.9924 34.034C72.4284 33.206 71.1404 32.01 70.1284 30.446V43.924H66.8624V10.804H69.9904V15.588C70.9718 13.9933 72.2598 12.7667 73.8544 11.908C75.4798 11.0493 77.3044 10.62 79.3284 10.62ZM79.0984 32.332C80.7851 32.332 82.3184 31.9487 83.6984 31.182C85.0784 30.3847 86.1518 29.2653 86.9184 27.824C87.7158 26.3827 88.1144 24.742 88.1144 22.902C88.1144 21.062 87.7158 19.4367 86.9184 18.026C86.1518 16.5847 85.0784 15.4653 83.6984 14.668C82.3184 13.8707 80.7851 13.472 79.0984 13.472C77.3811 13.472 75.8324 13.8707 74.4524 14.668C73.1031 15.4653 72.0298 16.5847 71.2324 18.026C70.4658 19.4367 70.0824 21.062 70.0824 22.902C70.0824 24.742 70.4658 26.3827 71.2324 27.824C72.0298 29.2653 73.1031 30.3847 74.4524 31.182C75.8324 31.9487 77.3811 32.332 79.0984 32.332ZM97.1182 0.867998H100.384V35H97.1182V0.867998ZM128.884 10.804L116.786 37.898C115.804 40.1673 114.67 41.7773 113.382 42.728C112.094 43.6787 110.545 44.154 108.736 44.154C107.57 44.154 106.482 43.97 105.47 43.602C104.458 43.234 103.584 42.682 102.848 41.946L104.366 39.508C105.592 40.7347 107.064 41.348 108.782 41.348C109.886 41.348 110.821 41.0413 111.588 40.428C112.385 39.8147 113.121 38.772 113.796 37.3L114.854 34.954L104.044 10.804H107.448L116.556 31.366L125.664 10.804H128.884ZM132.563 10.804H135.829V35H132.563V10.804ZM134.219 5.514C133.545 5.514 132.977 5.284 132.517 4.824C132.057 4.364 131.827 3.812 131.827 3.168C131.827 2.55467 132.057 2.018 132.517 1.558C132.977 1.098 133.545 0.867998 134.219 0.867998C134.894 0.867998 135.461 1.098 135.921 1.558C136.381 1.98733 136.611 2.50866 136.611 3.122C136.611 3.79667 136.381 4.364 135.921 4.824C135.461 5.284 134.894 5.514 134.219 5.514ZM156.325 10.62C159.361 10.62 161.768 11.5093 163.547 13.288C165.356 15.036 166.261 17.5967 166.261 20.97V35H162.995V21.292C162.995 18.7773 162.366 16.8607 161.109 15.542C159.852 14.2233 158.058 13.564 155.727 13.564C153.12 13.564 151.05 14.346 149.517 15.91C148.014 17.4433 147.263 19.5747 147.263 22.304V35H143.997V10.804H147.125V15.266C148.014 13.794 149.241 12.6593 150.805 11.862C152.4 11.034 154.24 10.62 156.325 10.62ZM196.7 10.804V32.056C196.7 36.1653 195.688 39.2013 193.664 41.164C191.67 43.1573 188.65 44.154 184.602 44.154C182.363 44.154 180.232 43.8167 178.208 43.142C176.214 42.498 174.589 41.5933 173.332 40.428L174.988 37.944C176.153 38.9867 177.564 39.7993 179.22 40.382C180.906 40.9647 182.67 41.256 184.51 41.256C187.576 41.256 189.83 40.5353 191.272 39.094C192.713 37.6833 193.434 35.4753 193.434 32.47V29.388C192.422 30.9213 191.088 32.0867 189.432 32.884C187.806 33.6813 185.997 34.08 184.004 34.08C181.734 34.08 179.664 33.5893 177.794 32.608C175.954 31.596 174.497 30.2007 173.424 28.422C172.381 26.6127 171.86 24.5733 171.86 22.304C171.86 20.0347 172.381 18.0107 173.424 16.232C174.497 14.4533 175.954 13.0733 177.794 12.092C179.634 11.1107 181.704 10.62 184.004 10.62C186.058 10.62 187.914 11.034 189.57 11.862C191.226 12.69 192.56 13.886 193.572 15.45V10.804H196.7ZM184.326 31.182C186.074 31.182 187.653 30.814 189.064 30.078C190.474 29.3113 191.563 28.2533 192.33 26.904C193.127 25.5547 193.526 24.0213 193.526 22.304C193.526 20.5867 193.127 19.0687 192.33 17.75C191.563 16.4007 190.474 15.358 189.064 14.622C187.684 13.8553 186.104 13.472 184.326 13.472C182.578 13.472 180.998 13.84 179.588 14.576C178.208 15.312 177.119 16.3547 176.322 17.704C175.555 19.0533 175.172 20.5867 175.172 22.304C175.172 24.0213 175.555 25.5547 176.322 26.904C177.119 28.2533 178.208 29.3113 179.588 30.078C180.998 30.814 182.578 31.182 184.326 31.182ZM224.036 3.398C222.625 3.398 221.552 3.78133 220.816 4.548C220.11 5.31466 219.758 6.44933 219.758 7.952V10.804H227.21V13.564H219.85V35H216.584V13.564H212.26V10.804H216.584V7.814C216.584 5.606 217.212 3.858 218.47 2.57C219.758 1.282 221.567 0.637998 223.898 0.637998C224.818 0.637998 225.707 0.775998 226.566 1.052C227.424 1.29733 228.145 1.66533 228.728 2.156L227.624 4.594C226.673 3.79667 225.477 3.398 224.036 3.398ZM240.185 35.23C237.855 35.23 235.754 34.7087 233.883 33.666C232.013 32.5927 230.541 31.1207 229.467 29.25C228.394 27.3793 227.857 25.2633 227.857 22.902C227.857 20.5407 228.394 18.4247 229.467 16.554C230.541 14.6833 232.013 13.2267 233.883 12.184C235.754 11.1413 237.855 10.62 240.185 10.62C242.516 10.62 244.617 11.1413 246.487 12.184C248.358 13.2267 249.815 14.6833 250.857 16.554C251.931 18.4247 252.467 20.5407 252.467 22.902C252.467 25.2633 251.931 27.3793 250.857 29.25C249.815 31.1207 248.358 32.5927 246.487 33.666C244.617 34.7087 242.516 35.23 240.185 35.23ZM240.185 32.332C241.903 32.332 243.436 31.9487 244.785 31.182C246.165 30.3847 247.239 29.2653 248.005 27.824C248.772 26.3827 249.155 24.742 249.155 22.902C249.155 21.062 248.772 19.4213 248.005 17.98C247.239 16.5387 246.165 15.4347 244.785 14.668C243.436 13.8707 241.903 13.472 240.185 13.472C238.468 13.472 236.919 13.8707 235.539 14.668C234.19 15.4347 233.117 16.5387 232.319 17.98C231.553 19.4213 231.169 21.062 231.169 22.902C231.169 24.742 231.553 26.3827 232.319 27.824C233.117 29.2653 234.19 30.3847 235.539 31.182C236.919 31.9487 238.468 32.332 240.185 32.332ZM261.343 15.542C262.11 13.9167 263.245 12.69 264.747 11.862C266.281 11.034 268.167 10.62 270.405 10.62V13.794L269.623 13.748C267.078 13.748 265.085 14.53 263.643 16.094C262.202 17.658 261.481 19.8507 261.481 22.672V35H258.215V10.804H261.343V15.542ZM295.341 10.62C298.5 10.62 300.923 11.4173 302.609 13.012C304.296 14.576 305.139 16.9067 305.139 20.004V35H302.011V31.228C301.275 32.4853 300.187 33.4667 298.745 34.172C297.335 34.8773 295.648 35.23 293.685 35.23C290.987 35.23 288.84 34.586 287.245 33.298C285.651 32.01 284.853 30.308 284.853 28.192C284.853 26.1373 285.589 24.4813 287.061 23.224C288.564 21.9667 290.941 21.338 294.191 21.338H301.873V19.866C301.873 17.7807 301.291 16.2013 300.125 15.128C298.96 14.024 297.258 13.472 295.019 13.472C293.486 13.472 292.014 13.7327 290.603 14.254C289.193 14.7447 287.981 15.4347 286.969 16.324L285.497 13.886C286.724 12.8433 288.196 12.046 289.913 11.494C291.631 10.9113 293.44 10.62 295.341 10.62ZM294.191 32.654C296.031 32.654 297.611 32.24 298.929 31.412C300.248 30.5533 301.229 29.3267 301.873 27.732V23.776H294.283C290.143 23.776 288.073 25.2173 288.073 28.1C288.073 29.5107 288.61 30.63 289.683 31.458C290.757 32.2553 292.259 32.654 294.191 32.654ZM325.418 10.62C328.454 10.62 330.861 11.5093 332.64 13.288C334.449 15.036 335.354 17.5967 335.354 20.97V35H332.088V21.292C332.088 18.7773 331.459 16.8607 330.202 15.542C328.945 14.2233 327.151 13.564 324.82 13.564C322.213 13.564 320.143 14.346 318.61 15.91C317.107 17.4433 316.356 19.5747 316.356 22.304V35H313.09V10.804H316.218V15.266C317.107 13.794 318.334 12.6593 319.898 11.862C321.493 11.034 323.333 10.62 325.418 10.62ZM19.32 93.276C16.1307 93.276 13.2327 92.5707 10.626 91.16C8.05 89.7187 6.026 87.756 4.554 85.272C3.11267 82.788 2.392 79.9973 2.392 76.9C2.392 73.8027 3.11267 71.012 4.554 68.528C6.026 66.044 8.05 64.0967 10.626 62.686C13.2327 61.2447 16.1307 60.524 19.32 60.524C22.5093 60.524 25.3767 61.2293 27.922 62.64C30.498 64.0507 32.522 66.0133 33.994 68.528C35.466 71.012 36.202 73.8027 36.202 76.9C36.202 79.9973 35.466 82.8033 33.994 85.318C32.522 87.802 30.498 89.7493 27.922 91.16C25.3767 92.5707 22.5093 93.276 19.32 93.276ZM19.32 90.24C21.8653 90.24 24.1653 89.6727 26.22 88.538C28.2747 87.3727 29.8847 85.778 31.05 83.754C32.2153 81.6993 32.798 79.4147 32.798 76.9C32.798 74.3853 32.2153 72.116 31.05 70.092C29.8847 68.0373 28.2747 66.4427 26.22 65.308C24.1653 64.1427 21.8653 63.56 19.32 63.56C16.7747 63.56 14.4593 64.1427 12.374 65.308C10.3193 66.4427 8.694 68.0373 7.498 70.092C6.33267 72.116 5.75 74.3853 5.75 76.9C5.75 79.4147 6.33267 81.6993 7.498 83.754C8.694 85.778 10.3193 87.3727 12.374 88.538C14.4593 89.6727 16.7747 90.24 19.32 90.24ZM50.2259 61.398C48.8152 61.398 47.7419 61.7813 47.0059 62.548C46.3006 63.3147 45.9479 64.4493 45.9479 65.952V68.804H53.3999V71.564H46.0399V93H42.7739V71.564H38.4499V68.804H42.7739V65.814C42.7739 63.606 43.4026 61.858 44.6599 60.57C45.9479 59.282 47.7572 58.638 50.0879 58.638C51.0079 58.638 51.8972 58.776 52.7559 59.052C53.6146 59.2973 54.3352 59.6653 54.9179 60.156L53.8139 62.594C52.8632 61.7967 51.6672 61.398 50.2259 61.398ZM64.8938 61.398C63.4831 61.398 62.4098 61.7813 61.6738 62.548C60.9684 63.3147 60.6158 64.4493 60.6158 65.952V68.804H68.0678V71.564H60.7078V93H57.4418V71.564H53.1178V68.804H57.4418V65.814C57.4418 63.606 58.0704 61.858 59.3278 60.57C60.6158 59.282 62.4251 58.638 64.7558 58.638C65.6758 58.638 66.5651 58.776 67.4238 59.052C68.2824 59.2973 69.0031 59.6653 69.5858 60.156L68.4818 62.594C67.5311 61.7967 66.3351 61.398 64.8938 61.398ZM92.2214 81.914H71.9814C72.1654 84.4287 73.1314 86.468 74.8794 88.032C76.6274 89.5653 78.8354 90.332 81.5034 90.332C83.006 90.332 84.386 90.0713 85.6434 89.55C86.9007 88.998 87.9894 88.2007 88.9094 87.158L90.7494 89.274C89.676 90.562 88.3267 91.5433 86.7014 92.218C85.1067 92.8927 83.3434 93.23 81.4114 93.23C78.9274 93.23 76.7194 92.7087 74.7874 91.666C72.886 90.5927 71.3987 89.1207 70.3254 87.25C69.252 85.3793 68.7154 83.2633 68.7154 80.902C68.7154 78.5407 69.2214 76.4247 70.2334 74.554C71.276 72.6833 72.6867 71.2267 74.4654 70.184C76.2747 69.1413 78.2987 68.62 80.5374 68.62C82.776 68.62 84.7847 69.1413 86.5634 70.184C88.342 71.2267 89.7374 72.6833 90.7494 74.554C91.7614 76.394 92.2674 78.51 92.2674 80.902L92.2214 81.914ZM80.5374 71.426C78.2067 71.426 76.244 72.1773 74.6494 73.68C73.0854 75.152 72.196 77.084 71.9814 79.476H89.1394C88.9247 77.084 88.02 75.152 86.4254 73.68C84.8614 72.1773 82.8987 71.426 80.5374 71.426ZM101.123 73.542C101.89 71.9167 103.024 70.69 104.527 69.862C106.06 69.034 107.946 68.62 110.185 68.62V71.794L109.403 71.748C106.858 71.748 104.864 72.53 103.423 74.094C101.982 75.658 101.261 77.8507 101.261 80.672V93H97.9951V68.804H101.123V73.542ZM136.547 93.23C134.216 93.23 132.116 92.7087 130.245 91.666C128.374 90.5927 126.902 89.1207 125.829 87.25C124.756 85.3793 124.219 83.2633 124.219 80.902C124.219 78.5407 124.756 76.4247 125.829 74.554C126.902 72.6833 128.374 71.2267 130.245 70.184C132.116 69.1413 134.216 68.62 136.547 68.62C138.878 68.62 140.978 69.1413 142.849 70.184C144.72 71.2267 146.176 72.6833 147.219 74.554C148.292 76.4247 148.829 78.5407 148.829 80.902C148.829 83.2633 148.292 85.3793 147.219 87.25C146.176 89.1207 144.72 90.5927 142.849 91.666C140.978 92.7087 138.878 93.23 136.547 93.23ZM136.547 90.332C138.264 90.332 139.798 89.9487 141.147 89.182C142.527 88.3847 143.6 87.2653 144.367 85.824C145.134 84.3827 145.517 82.742 145.517 80.902C145.517 79.062 145.134 77.4213 144.367 75.98C143.6 74.5387 142.527 73.4347 141.147 72.668C139.798 71.8707 138.264 71.472 136.547 71.472C134.83 71.472 133.281 71.8707 131.901 72.668C130.552 73.4347 129.478 74.5387 128.681 75.98C127.914 77.4213 127.531 79.062 127.531 80.902C127.531 82.742 127.914 84.3827 128.681 85.824C129.478 87.2653 130.552 88.3847 131.901 89.182C133.281 89.9487 134.83 90.332 136.547 90.332ZM166.905 68.62C169.941 68.62 172.348 69.5093 174.127 71.288C175.936 73.036 176.841 75.5967 176.841 78.97V93H173.575V79.292C173.575 76.7773 172.946 74.8607 171.689 73.542C170.432 72.2233 168.638 71.564 166.307 71.564C163.7 71.564 161.63 72.346 160.097 73.91C158.594 75.4433 157.843 77.5747 157.843 80.304V93H154.577V68.804H157.705V73.266C158.594 71.794 159.821 70.6593 161.385 69.862C162.98 69.034 164.82 68.62 166.905 68.62ZM208.649 91.528C208.035 92.08 207.269 92.5093 206.349 92.816C205.459 93.092 204.524 93.23 203.543 93.23C201.273 93.23 199.525 92.6167 198.299 91.39C197.072 90.1633 196.459 88.4307 196.459 86.192V71.564H192.135V68.804H196.459V63.514H199.725V68.804H207.085V71.564H199.725V86.008C199.725 87.4493 200.077 88.5533 200.783 89.32C201.519 90.056 202.561 90.424 203.911 90.424C204.585 90.424 205.229 90.3167 205.843 90.102C206.487 89.8873 207.039 89.5807 207.499 89.182L208.649 91.528ZM226.002 68.62C229.038 68.62 231.446 69.5093 233.224 71.288C235.034 73.036 235.938 75.5967 235.938 78.97V93H232.672V79.292C232.672 76.7773 232.044 74.8607 230.786 73.542C229.529 72.2233 227.735 71.564 225.404 71.564C222.798 71.564 220.728 72.346 219.194 73.91C217.692 75.4433 216.94 77.5747 216.94 80.304V93H213.674V58.868H216.94V73.036C217.83 71.6253 219.056 70.5367 220.62 69.77C222.184 69.0033 223.978 68.62 226.002 68.62ZM265.043 81.914H244.803C244.987 84.4287 245.953 86.468 247.701 88.032C249.449 89.5653 251.657 90.332 254.325 90.332C255.828 90.332 257.208 90.0713 258.465 89.55C259.722 88.998 260.811 88.2007 261.731 87.158L263.571 89.274C262.498 90.562 261.148 91.5433 259.523 92.218C257.928 92.8927 256.165 93.23 254.233 93.23C251.749 93.23 249.541 92.7087 247.609 91.666C245.708 90.5927 244.22 89.1207 243.147 87.25C242.074 85.3793 241.537 83.2633 241.537 80.902C241.537 78.5407 242.043 76.4247 243.055 74.554C244.098 72.6833 245.508 71.2267 247.287 70.184C249.096 69.1413 251.12 68.62 253.359 68.62C255.598 68.62 257.606 69.1413 259.385 70.184C261.164 71.2267 262.559 72.6833 263.571 74.554C264.583 76.394 265.089 78.51 265.089 80.902L265.043 81.914ZM253.359 71.426C251.028 71.426 249.066 72.1773 247.471 73.68C245.907 75.152 245.018 77.084 244.803 79.476H261.961C261.746 77.084 260.842 75.152 259.247 73.68C257.683 72.1773 255.72 71.426 253.359 71.426ZM17.296 119.8C21.4053 119.8 24.6253 120.781 26.956 122.744C29.2867 124.707 30.452 127.405 30.452 130.84C30.452 134.275 29.2867 136.973 26.956 138.936C24.6253 140.868 21.4053 141.834 17.296 141.834H8.648V152H5.244V119.8H17.296ZM17.204 138.844C20.3933 138.844 22.8313 138.154 24.518 136.774C26.2047 135.363 27.048 133.385 27.048 130.84C27.048 128.233 26.2047 126.24 24.518 124.86C22.8313 123.449 20.3933 122.744 17.204 122.744H8.648V138.844H17.204ZM45.9576 152.23C43.6269 152.23 41.5263 151.709 39.6556 150.666C37.7849 149.593 36.3129 148.121 35.2396 146.25C34.1663 144.379 33.6296 142.263 33.6296 139.902C33.6296 137.541 34.1663 135.425 35.2396 133.554C36.3129 131.683 37.7849 130.227 39.6556 129.184C41.5263 128.141 43.6269 127.62 45.9576 127.62C48.2883 127.62 50.3889 128.141 52.2596 129.184C54.1303 130.227 55.5869 131.683 56.6296 133.554C57.7029 135.425 58.2396 137.541 58.2396 139.902C58.2396 142.263 57.7029 144.379 56.6296 146.25C55.5869 148.121 54.1303 149.593 52.2596 150.666C50.3889 151.709 48.2883 152.23 45.9576 152.23ZM45.9576 149.332C47.6749 149.332 49.2083 148.949 50.5576 148.182C51.9376 147.385 53.0109 146.265 53.7776 144.824C54.5443 143.383 54.9276 141.742 54.9276 139.902C54.9276 138.062 54.5443 136.421 53.7776 134.98C53.0109 133.539 51.9376 132.435 50.5576 131.668C49.2083 130.871 47.6749 130.472 45.9576 130.472C44.2403 130.472 42.6916 130.871 41.3116 131.668C39.9623 132.435 38.8889 133.539 38.0916 134.98C37.3249 136.421 36.9416 138.062 36.9416 139.902C36.9416 141.742 37.3249 143.383 38.0916 144.824C38.8889 146.265 39.9623 147.385 41.3116 148.182C42.6916 148.949 44.2403 149.332 45.9576 149.332ZM67.1154 132.542C67.8821 130.917 69.0168 129.69 70.5194 128.862C72.0528 128.034 73.9388 127.62 76.1774 127.62V130.794L75.3954 130.748C72.8501 130.748 70.8568 131.53 69.4154 133.094C67.9741 134.658 67.2534 136.851 67.2534 139.672V152H63.9874V127.804H67.1154V132.542ZM94.9462 150.528C94.3328 151.08 93.5662 151.509 92.6462 151.816C91.7568 152.092 90.8215 152.23 89.8402 152.23C87.5708 152.23 85.8228 151.617 84.5962 150.39C83.3695 149.163 82.7562 147.431 82.7562 145.192V130.564H78.4322V127.804H82.7562V122.514H86.0222V127.804H93.3822V130.564H86.0222V145.008C86.0222 146.449 86.3748 147.553 87.0802 148.32C87.8162 149.056 88.8588 149.424 90.2082 149.424C90.8828 149.424 91.5268 149.317 92.1402 149.102C92.7842 148.887 93.3362 148.581 93.7962 148.182L94.9462 150.528ZM108.436 127.62C111.594 127.62 114.017 128.417 115.704 130.012C117.39 131.576 118.234 133.907 118.234 137.004V152H115.106V148.228C114.37 149.485 113.281 150.467 111.84 151.172C110.429 151.877 108.742 152.23 106.78 152.23C104.081 152.23 101.934 151.586 100.34 150.298C98.745 149.01 97.9477 147.308 97.9477 145.192C97.9477 143.137 98.6837 141.481 100.156 140.224C101.658 138.967 104.035 138.338 107.286 138.338H114.968V136.866C114.968 134.781 114.385 133.201 113.22 132.128C112.054 131.024 110.352 130.472 108.114 130.472C106.58 130.472 105.108 130.733 103.698 131.254C102.287 131.745 101.076 132.435 100.064 133.324L98.5917 130.886C99.8183 129.843 101.29 129.046 103.008 128.494C104.725 127.911 106.534 127.62 108.436 127.62ZM107.286 149.654C109.126 149.654 110.705 149.24 112.024 148.412C113.342 147.553 114.324 146.327 114.968 144.732V140.776H107.378C103.238 140.776 101.168 142.217 101.168 145.1C101.168 146.511 101.704 147.63 102.778 148.458C103.851 149.255 105.354 149.654 107.286 149.654ZM126.184 117.868H129.45V152H126.184V117.868Z" fill="url(#paint0_linear)" fill-opacity="0.65"/>
<defs>
<linearGradient id="paint0_linear" x1="396.092" y1="202.02" x2="109.325" y2="-165.589" gradientUnits="userSpaceOnUse">
<stop stop-color="#652C90"/>
<stop offset="0.458333" stop-color="#91268F"/>
<stop offset="1" stop-color="#D91B5B"/>
</linearGradient>
</defs>
</svg>
