<svg width="201" height="92" viewBox="0 0 201 92" fill="none" xmlns="http://www.w3.org/2000/svg">
<path d="M15.1916 16.1012H4.47781L2.17023 21.2383H0.0549425L8.84574 2.00842H10.8511L19.6419 21.2383H17.4992L15.1916 16.1012ZM14.4499 14.4529L9.8347 4.1237L5.21953 14.4529H14.4499ZM29.3062 6.67853C30.6615 6.67853 31.8885 6.98987 32.9874 7.61255C34.0862 8.21692 34.947 9.07768 35.5697 10.1948C36.1923 11.312 36.5037 12.5848 36.5037 14.0133C36.5037 15.4602 36.1923 16.7422 35.5697 17.8593C34.947 18.9765 34.0862 19.8464 32.9874 20.4691C31.9068 21.0735 30.6798 21.3756 29.3062 21.3756C28.1341 21.3756 27.0719 21.1376 26.1196 20.6614C25.1855 20.1669 24.4163 19.4527 23.812 18.5186V26.5677H21.8615V6.78841H23.7296V9.64542C24.3156 8.69308 25.0848 7.96052 26.0371 7.44772C27.0078 6.93492 28.0975 6.67853 29.3062 6.67853ZM29.1689 19.6449C30.1761 19.6449 31.0919 19.416 31.916 18.9582C32.7401 18.482 33.3811 17.8135 33.839 16.9528C34.3151 16.092 34.5532 15.1122 34.5532 14.0133C34.5532 12.9145 34.3151 11.9438 33.839 11.1014C33.3811 10.2406 32.7401 9.57216 31.916 9.096C31.0919 8.61983 30.1761 8.38174 29.1689 8.38174C28.1433 8.38174 27.2184 8.61983 26.3943 9.096C25.5885 9.57216 24.9475 10.2406 24.4713 11.1014C24.0134 11.9438 23.7845 12.9145 23.7845 14.0133C23.7845 15.1122 24.0134 16.092 24.4713 16.9528C24.9475 17.8135 25.5885 18.482 26.3943 18.9582C27.2184 19.416 28.1433 19.6449 29.1689 19.6449ZM47.375 6.67853C48.7302 6.67853 49.9573 6.98987 51.0561 7.61255C52.155 8.21692 53.0158 9.07768 53.6384 10.1948C54.2611 11.312 54.5725 12.5848 54.5725 14.0133C54.5725 15.4602 54.2611 16.7422 53.6384 17.8593C53.0158 18.9765 52.155 19.8464 51.0561 20.4691C49.9756 21.0735 48.7486 21.3756 47.375 21.3756C46.2029 21.3756 45.1407 21.1376 44.1883 20.6614C43.2543 20.1669 42.4851 19.4527 41.8808 18.5186V26.5677H39.9303V6.78841H41.7983V9.64542C42.3844 8.69308 43.1536 7.96052 44.1059 7.44772C45.0766 6.93492 46.1663 6.67853 47.375 6.67853ZM47.2376 19.6449C48.2449 19.6449 49.1606 19.416 49.9848 18.9582C50.8089 18.482 51.4499 17.8135 51.9078 16.9528C52.3839 16.092 52.622 15.1122 52.622 14.0133C52.622 12.9145 52.3839 11.9438 51.9078 11.1014C51.4499 10.2406 50.8089 9.57216 49.9848 9.096C49.1606 8.61983 48.2449 8.38174 47.2376 8.38174C46.2121 8.38174 45.2872 8.61983 44.463 9.096C43.6572 9.57216 43.0162 10.2406 42.5401 11.1014C42.0822 11.9438 41.8533 12.9145 41.8533 14.0133C41.8533 15.1122 42.0822 16.092 42.5401 16.9528C43.0162 17.8135 43.6572 18.482 44.463 18.9582C45.2872 19.416 46.2121 19.6449 47.2376 19.6449ZM57.9991 0.854625H59.9495V21.2383H57.9991V0.854625ZM76.9695 6.78841L69.7445 22.969C69.1585 24.3242 68.4808 25.2857 67.7117 25.8534C66.9425 26.4212 66.0176 26.7051 64.9371 26.7051C64.2411 26.7051 63.591 26.5952 62.9866 26.3754C62.3822 26.1556 61.8603 25.826 61.4207 25.3864L62.3273 23.9305C63.0599 24.663 63.9389 25.0293 64.9645 25.0293C65.6238 25.0293 66.1824 24.8462 66.6403 24.4799C67.1164 24.1136 67.556 23.4909 67.9589 22.6118L68.5907 21.2108L62.135 6.78841H64.1679L69.6072 19.0681L75.0465 6.78841H76.9695ZM79.1669 6.78841H81.1174V21.2383H79.1669V6.78841ZM80.1559 3.62922C79.753 3.62922 79.4142 3.49186 79.1395 3.21715C78.8648 2.94244 78.7274 2.61278 78.7274 2.22819C78.7274 1.8619 78.8648 1.54141 79.1395 1.26669C79.4142 0.991981 79.753 0.854625 80.1559 0.854625C80.5588 0.854625 80.8976 0.991981 81.1723 1.26669C81.4471 1.52309 81.5844 1.83443 81.5844 2.20072C81.5844 2.60363 81.4471 2.94244 81.1723 3.21715C80.8976 3.49186 80.5588 3.62922 80.1559 3.62922ZM93.3573 6.67853C95.1704 6.67853 96.6081 7.20964 97.6703 8.27186C98.7509 9.31577 99.2911 10.845 99.2911 12.8596V21.2383H97.3407V13.0519C97.3407 11.5501 96.9652 10.4055 96.2143 9.61795C95.4635 8.83044 94.3921 8.43669 93.0002 8.43669C91.4435 8.43669 90.2073 8.9037 89.2916 9.83772C88.3942 10.7534 87.9455 12.0263 87.9455 13.6562V21.2383H85.995V6.78841H87.8631V9.45312C88.3942 8.57404 89.1268 7.89642 90.0608 7.42025C91.0131 6.92577 92.112 6.67853 93.3573 6.67853ZM117.469 6.78841V19.4801C117.469 21.9342 116.865 23.7473 115.656 24.9194C114.466 26.1098 112.662 26.7051 110.244 26.7051C108.907 26.7051 107.634 26.5036 106.426 26.1007C105.235 25.7161 104.265 25.1758 103.514 24.4799L104.503 22.9964C105.199 23.6191 106.041 24.1044 107.03 24.4524C108.037 24.8004 109.09 24.9744 110.189 24.9744C112.021 24.9744 113.367 24.544 114.228 23.6832C115.088 22.8408 115.519 21.5222 115.519 19.7274V17.8868C114.914 18.8025 114.118 19.4984 113.129 19.9746C112.158 20.4508 111.077 20.6889 109.887 20.6889C108.532 20.6889 107.296 20.3958 106.178 19.8098C105.08 19.2054 104.21 18.3721 103.569 17.3099C102.946 16.2294 102.635 15.0115 102.635 13.6562C102.635 12.301 102.946 11.0922 103.569 10.03C104.21 8.9678 105.08 8.14366 106.178 7.55761C107.277 6.97155 108.514 6.67853 109.887 6.67853C111.114 6.67853 112.222 6.92577 113.211 7.42025C114.2 7.91473 114.997 8.62898 115.601 9.56301V6.78841H117.469ZM110.079 18.9582C111.123 18.9582 112.066 18.7384 112.909 18.2989C113.751 17.841 114.402 17.2092 114.859 16.4033C115.336 15.5975 115.574 14.6818 115.574 13.6562C115.574 12.6306 115.336 11.7241 114.859 10.9366C114.402 10.1307 113.751 9.50806 112.909 9.06852C112.085 8.61067 111.142 8.38174 110.079 8.38174C109.035 8.38174 108.092 8.60151 107.25 9.04105C106.426 9.48059 105.776 10.1033 105.299 10.9091C104.842 11.7149 104.613 12.6306 104.613 13.6562C104.613 14.6818 104.842 15.5975 105.299 16.4033C105.776 17.2092 106.426 17.841 107.25 18.2989C108.092 18.7384 109.035 18.9582 110.079 18.9582ZM133.794 2.36554C132.952 2.36554 132.311 2.59447 131.871 3.05232C131.45 3.51018 131.24 4.1878 131.24 5.0852V6.78841H135.69V8.43669H131.294V21.2383H129.344V8.43669H126.762V6.78841H129.344V5.00278C129.344 3.68416 129.719 2.64026 130.47 1.87106C131.24 1.10187 132.32 0.717269 133.712 0.717269C134.261 0.717269 134.792 0.799683 135.305 0.96451C135.818 1.11102 136.248 1.33079 136.596 1.62382L135.937 3.0798C135.369 2.60363 134.655 2.36554 133.794 2.36554ZM143.439 21.3756C142.047 21.3756 140.792 21.0643 139.675 20.4416C138.558 19.8006 137.679 18.9215 137.038 17.8044C136.397 16.6872 136.077 15.4235 136.077 14.0133C136.077 12.6032 136.397 11.3395 137.038 10.2223C137.679 9.10515 138.558 8.23523 139.675 7.61255C140.792 6.98987 142.047 6.67853 143.439 6.67853C144.831 6.67853 146.085 6.98987 147.202 7.61255C148.32 8.23523 149.19 9.10515 149.812 10.2223C150.453 11.3395 150.774 12.6032 150.774 14.0133C150.774 15.4235 150.453 16.6872 149.812 17.8044C149.19 18.9215 148.32 19.8006 147.202 20.4416C146.085 21.0643 144.831 21.3756 143.439 21.3756ZM143.439 19.6449C144.464 19.6449 145.38 19.416 146.186 18.9582C147.01 18.482 147.651 17.8135 148.109 16.9528C148.567 16.092 148.796 15.1122 148.796 14.0133C148.796 12.9145 148.567 11.9347 148.109 11.0739C147.651 10.2132 147.01 9.55385 146.186 9.096C145.38 8.61983 144.464 8.38174 143.439 8.38174C142.413 8.38174 141.488 8.61983 140.664 9.096C139.858 9.55385 139.217 10.2132 138.741 11.0739C138.283 11.9347 138.055 12.9145 138.055 14.0133C138.055 15.1122 138.283 16.092 138.741 16.9528C139.217 17.8135 139.858 18.482 140.664 18.9582C141.488 19.416 142.413 19.6449 143.439 19.6449ZM156.074 9.61795C156.532 8.6473 157.21 7.91473 158.107 7.42025C159.023 6.92577 160.149 6.67853 161.486 6.67853V8.57404L161.019 8.54657C159.499 8.54657 158.309 9.01358 157.448 9.9476C156.587 10.8816 156.157 12.1911 156.157 13.876V21.2383H154.206V6.78841H156.074V9.61795ZM176.378 6.67853C178.264 6.67853 179.711 7.15469 180.718 8.10703C181.726 9.04105 182.229 10.4329 182.229 12.2827V21.2383H180.361V18.9856C179.922 19.7365 179.272 20.3226 178.411 20.7438C177.568 21.165 176.561 21.3756 175.389 21.3756C173.777 21.3756 172.495 20.991 171.543 20.2218C170.591 19.4527 170.115 18.4362 170.115 17.1725C170.115 15.9455 170.554 14.9565 171.433 14.2056C172.331 13.4548 173.75 13.0793 175.691 13.0793H180.279V12.2002C180.279 10.9549 179.931 10.0117 179.235 9.37071C178.539 8.7114 177.523 8.38174 176.186 8.38174C175.27 8.38174 174.391 8.53741 173.548 8.84875C172.706 9.14178 171.983 9.55385 171.378 10.085L170.499 8.62898C171.232 8.0063 172.111 7.53013 173.136 7.20048C174.162 6.85251 175.243 6.67853 176.378 6.67853ZM175.691 19.8372C176.79 19.8372 177.733 19.59 178.521 19.0955C179.308 18.5827 179.894 17.8502 180.279 16.8978V14.5353H175.746C173.274 14.5353 172.038 15.3961 172.038 17.1176C172.038 17.96 172.358 18.6285 172.999 19.123C173.64 19.5992 174.537 19.8372 175.691 19.8372ZM194.34 6.67853C196.153 6.67853 197.591 7.20964 198.653 8.27186C199.733 9.31577 200.274 10.845 200.274 12.8596V21.2383H198.323V13.0519C198.323 11.5501 197.948 10.4055 197.197 9.61795C196.446 8.83044 195.375 8.43669 193.983 8.43669C192.426 8.43669 191.19 8.9037 190.274 9.83772C189.377 10.7534 188.928 12.0263 188.928 13.6562V21.2383H186.978V6.78841H188.846V9.45312C189.377 8.57404 190.109 7.89642 191.043 7.42025C191.996 6.92577 193.095 6.67853 194.34 6.67853ZM11.5379 56.4031C9.63325 56.4031 7.90256 55.9819 6.34586 55.1394C4.80747 54.2787 3.59873 53.1066 2.71965 51.6231C1.85889 50.1397 1.4285 48.4731 1.4285 46.6233C1.4285 44.7736 1.85889 43.107 2.71965 41.6236C3.59873 40.1401 4.80747 38.9772 6.34586 38.1347C7.90256 37.274 9.63325 36.8436 11.5379 36.8436C13.4426 36.8436 15.155 37.2648 16.675 38.1073C18.2134 38.9497 19.4222 40.1218 20.3012 41.6236C21.1803 43.107 21.6199 44.7736 21.6199 46.6233C21.6199 48.4731 21.1803 50.1488 20.3012 51.6506C19.4222 53.134 18.2134 54.297 16.675 55.1394C15.155 55.9819 13.4426 56.4031 11.5379 56.4031ZM11.5379 54.59C13.058 54.59 14.4316 54.2512 15.6586 53.5736C16.8857 52.8776 17.8471 51.9253 18.5431 50.7166C19.239 49.4895 19.587 48.1251 19.587 46.6233C19.587 45.1216 19.239 43.7663 18.5431 42.5576C17.8471 41.3306 16.8857 40.3782 15.6586 39.7006C14.4316 39.0047 13.058 38.6567 11.5379 38.6567C10.0178 38.6567 8.63512 39.0047 7.38976 39.7006C6.16271 40.3782 5.19206 41.3306 4.47781 42.5576C3.78187 43.7663 3.4339 45.1216 3.4339 46.6233C3.4339 48.1251 3.78187 49.4895 4.47781 50.7166C5.19206 51.9253 6.16271 52.8776 7.38976 53.5736C8.63512 54.2512 10.0178 54.59 11.5379 54.59ZM29.9949 37.3655C29.1525 37.3655 28.5115 37.5945 28.072 38.0523C27.6507 38.5102 27.4401 39.1878 27.4401 40.0852V41.7884H31.8905V43.4367H27.4951V56.2383H25.5446V43.4367H22.9623V41.7884H25.5446V40.0028C25.5446 38.6842 25.92 37.6403 26.6709 36.8711C27.4401 36.1019 28.5206 35.7173 29.9125 35.7173C30.4619 35.7173 30.9931 35.7997 31.5059 35.9645C32.0187 36.111 32.449 36.3308 32.797 36.6238L32.1377 38.0798C31.57 37.6036 30.8557 37.3655 29.9949 37.3655ZM38.7546 37.3655C37.9122 37.3655 37.2712 37.5945 36.8316 38.0523C36.4104 38.5102 36.1998 39.1878 36.1998 40.0852V41.7884H40.6501V43.4367H36.2547V56.2383H34.3043V43.4367H31.722V41.7884H34.3043V40.0028C34.3043 38.6842 34.6797 37.6403 35.4306 36.8711C36.1998 36.1019 37.2803 35.7173 38.6722 35.7173C39.2216 35.7173 39.7527 35.7997 40.2655 35.9645C40.7783 36.111 41.2087 36.3308 41.5567 36.6238L40.8974 38.0798C40.3296 37.6036 39.6154 37.3655 38.7546 37.3655ZM55.0747 49.6177H42.9873C43.0972 51.1195 43.6741 52.3374 44.718 53.2714C45.7619 54.1871 47.0805 54.6449 48.6739 54.6449C49.5713 54.6449 50.3954 54.4893 51.1463 54.1779C51.8972 53.8483 52.5473 53.3721 53.0967 52.7494L54.1956 54.0131C53.5546 54.7823 52.7488 55.3684 51.7781 55.7713C50.8258 56.1742 49.7727 56.3756 48.6189 56.3756C47.1355 56.3756 45.8169 56.0643 44.6631 55.4416C43.5276 54.8006 42.6394 53.9215 41.9984 52.8044C41.3574 51.6872 41.0369 50.4235 41.0369 49.0133C41.0369 47.6032 41.3391 46.3395 41.9434 45.2223C42.5661 44.1052 43.4086 43.2352 44.4708 42.6125C45.5513 41.9899 46.76 41.6785 48.097 41.6785C49.4339 41.6785 50.6335 41.9899 51.6957 42.6125C52.7579 43.2352 53.5912 44.1052 54.1956 45.2223C54.8 46.3212 55.1021 47.5848 55.1021 49.0133L55.0747 49.6177ZM48.097 43.3543C46.7051 43.3543 45.533 43.803 44.5807 44.7004C43.6466 45.5794 43.1155 46.7332 42.9873 48.1617H53.2341C53.1059 46.7332 52.5656 45.5794 51.6133 44.7004C50.6793 43.803 49.5072 43.3543 48.097 43.3543ZM60.3908 44.6179C60.8486 43.6473 61.5263 42.9147 62.4237 42.4203C63.3394 41.9258 64.4657 41.6785 65.8026 41.6785V43.574L65.3356 43.5466C63.8155 43.5466 62.6251 44.0136 61.7643 44.9476C60.9036 45.8816 60.4732 47.1911 60.4732 48.876V56.2383H58.5227V41.7884H60.3908V44.6179ZM81.546 56.3756C80.1541 56.3756 78.8996 56.0643 77.7824 55.4416C76.6653 54.8006 75.7862 53.9215 75.1452 52.8044C74.5042 51.6872 74.1837 50.4235 74.1837 49.0133C74.1837 47.6032 74.5042 46.3395 75.1452 45.2223C75.7862 44.1052 76.6653 43.2352 77.7824 42.6125C78.8996 41.9899 80.1541 41.6785 81.546 41.6785C82.9379 41.6785 84.1924 41.9899 85.3096 42.6125C86.4267 43.2352 87.2966 44.1052 87.9193 45.2223C88.5603 46.3395 88.8808 47.6032 88.8808 49.0133C88.8808 50.4235 88.5603 51.6872 87.9193 52.8044C87.2966 53.9215 86.4267 54.8006 85.3096 55.4416C84.1924 56.0643 82.9379 56.3756 81.546 56.3756ZM81.546 54.6449C82.5716 54.6449 83.4873 54.416 84.2931 53.9582C85.1173 53.482 85.7583 52.8135 86.2161 51.9528C86.674 51.092 86.9029 50.1122 86.9029 49.0133C86.9029 47.9145 86.674 46.9347 86.2161 46.0739C85.7583 45.2132 85.1173 44.5538 84.2931 44.096C83.4873 43.6198 82.5716 43.3817 81.546 43.3817C80.5204 43.3817 79.5955 43.6198 78.7714 44.096C77.9656 44.5538 77.3246 45.2132 76.8484 46.0739C76.3906 46.9347 76.1616 47.9145 76.1616 49.0133C76.1616 50.1122 76.3906 51.092 76.8484 51.9528C77.3246 52.8135 77.9656 53.482 78.7714 53.9582C79.5955 54.416 80.5204 54.6449 81.546 54.6449ZM99.6757 41.6785C101.489 41.6785 102.926 42.2096 103.989 43.2719C105.069 44.3158 105.61 45.845 105.61 47.8596V56.2383H103.659V48.0519C103.659 46.5501 103.284 45.4055 102.533 44.6179C101.782 43.8304 100.71 43.4367 99.3186 43.4367C97.7619 43.4367 96.5257 43.9037 95.61 44.8377C94.7126 45.7534 94.2639 47.0263 94.2639 48.6562V56.2383H92.3134V41.7884H94.1815V44.4531C94.7126 43.574 95.4452 42.8964 96.3792 42.4203C97.3315 41.9258 98.4304 41.6785 99.6757 41.6785ZM124.605 55.3592C124.239 55.6889 123.781 55.9453 123.232 56.1284C122.701 56.2932 122.142 56.3756 121.556 56.3756C120.201 56.3756 119.157 56.0094 118.424 55.2768C117.692 54.5442 117.325 53.5095 117.325 52.1725V43.4367H114.743V41.7884H117.325V38.6292H119.276V41.7884H123.671V43.4367H119.276V52.0627C119.276 52.9234 119.486 53.5827 119.908 54.0406C120.347 54.4801 120.97 54.6999 121.776 54.6999C122.179 54.6999 122.563 54.6358 122.929 54.5076C123.314 54.3794 123.644 54.1963 123.918 53.9582L124.605 55.3592ZM134.969 41.6785C136.782 41.6785 138.22 42.2096 139.282 43.2719C140.362 44.3158 140.903 45.845 140.903 47.8596V56.2383H138.952V48.0519C138.952 46.5501 138.577 45.4055 137.826 44.6179C137.075 43.8304 136.003 43.4367 134.612 43.4367C133.055 43.4367 131.819 43.9037 130.903 44.8377C130.006 45.7534 129.557 47.0263 129.557 48.6562V56.2383H127.606V35.8546H129.557V44.3158C130.088 43.4733 130.821 42.8232 131.755 42.3653C132.689 41.9075 133.76 41.6785 134.969 41.6785ZM158.284 49.6177H146.197C146.306 51.1195 146.883 52.3374 147.927 53.2714C148.971 54.1871 150.29 54.6449 151.883 54.6449C152.78 54.6449 153.605 54.4893 154.355 54.1779C155.106 53.8483 155.757 53.3721 156.306 52.7494L157.405 54.0131C156.764 54.7823 155.958 55.3684 154.987 55.7713C154.035 56.1742 152.982 56.3756 151.828 56.3756C150.345 56.3756 149.026 56.0643 147.872 55.4416C146.737 54.8006 145.849 53.9215 145.208 52.8044C144.567 51.6872 144.246 50.4235 144.246 49.0133C144.246 47.6032 144.548 46.3395 145.153 45.2223C145.775 44.1052 146.618 43.2352 147.68 42.6125C148.761 41.9899 149.969 41.6785 151.306 41.6785C152.643 41.6785 153.843 41.9899 154.905 42.6125C155.967 43.2352 156.8 44.1052 157.405 45.2223C158.009 46.3212 158.311 47.5848 158.311 49.0133L158.284 49.6177ZM151.306 43.3543C149.914 43.3543 148.742 43.803 147.79 44.7004C146.856 45.5794 146.325 46.7332 146.197 48.1617H156.443C156.315 46.7332 155.775 45.5794 154.823 44.7004C153.888 43.803 152.716 43.3543 151.306 43.3543ZM10.3292 72.0084C12.7833 72.0084 14.7063 72.5945 16.0981 73.7666C17.49 74.9387 18.186 76.5503 18.186 78.6015C18.186 80.6527 17.49 82.2643 16.0981 83.4365C14.7063 84.5902 12.7833 85.1671 10.3292 85.1671H5.16459V91.2383H3.13172V72.0084H10.3292ZM10.2742 83.3815C12.1789 83.3815 13.6349 82.9694 14.6422 82.1453C15.6494 81.3029 16.1531 80.1216 16.1531 78.6015C16.1531 77.0448 15.6494 75.8544 14.6422 75.0303C13.6349 74.1878 12.1789 73.7666 10.2742 73.7666H5.16459V83.3815H10.2742ZM27.4459 91.3756C26.054 91.3756 24.7995 91.0643 23.6823 90.4416C22.5652 89.8006 21.6861 88.9215 21.0451 87.8044C20.4041 86.6872 20.0836 85.4235 20.0836 84.0133C20.0836 82.6032 20.4041 81.3395 21.0451 80.2223C21.6861 79.1052 22.5652 78.2352 23.6823 77.6125C24.7995 76.9899 26.054 76.6785 27.4459 76.6785C28.8378 76.6785 30.0923 76.9899 31.2095 77.6125C32.3266 78.2352 33.1966 79.1052 33.8192 80.2223C34.4602 81.3395 34.7807 82.6032 34.7807 84.0133C34.7807 85.4235 34.4602 86.6872 33.8192 87.8044C33.1966 88.9215 32.3266 89.8006 31.2095 90.4416C30.0923 91.0643 28.8378 91.3756 27.4459 91.3756ZM27.4459 89.6449C28.4715 89.6449 29.3872 89.416 30.193 88.9582C31.0172 88.482 31.6582 87.8135 32.116 86.9528C32.5739 86.092 32.8028 85.1122 32.8028 84.0133C32.8028 82.9145 32.5739 81.9347 32.116 81.0739C31.6582 80.2132 31.0172 79.5538 30.193 79.096C29.3872 78.6198 28.4715 78.3817 27.4459 78.3817C26.4203 78.3817 25.4955 78.6198 24.6713 79.096C23.8655 79.5538 23.2245 80.2132 22.7483 81.0739C22.2905 81.9347 22.0615 82.9145 22.0615 84.0133C22.0615 85.1122 22.2905 86.092 22.7483 86.9528C23.2245 87.8135 23.8655 88.482 24.6713 88.9582C25.4955 89.416 26.4203 89.6449 27.4459 89.6449ZM40.0814 79.6179C40.5392 78.6473 41.2169 77.9147 42.1143 77.4203C43.03 76.9258 44.1563 76.6785 45.4932 76.6785V78.574L45.0262 78.5466C43.5061 78.5466 42.3157 79.0136 41.4549 79.9476C40.5942 80.8816 40.1638 82.1911 40.1638 83.876V91.2383H38.2133V76.7884H40.0814V79.6179ZM56.7019 90.3592C56.3356 90.6889 55.8778 90.9453 55.3284 91.1284C54.7972 91.2932 54.2387 91.3756 53.6526 91.3756C52.2974 91.3756 51.2535 91.0094 50.5209 90.2768C49.7883 89.5442 49.422 88.5095 49.422 87.1725V78.4367H46.8397V76.7884H49.422V73.6292H51.3725V76.7884H55.7679V78.4367H51.3725V87.0627C51.3725 87.9234 51.5831 88.5827 52.0043 89.0406C52.4439 89.4801 53.0666 89.6999 53.8724 89.6999C54.2753 89.6999 54.6599 89.6358 55.0262 89.5076C55.4108 89.3794 55.7404 89.1963 56.0151 88.9582L56.7019 90.3592ZM64.7579 76.6785C66.6442 76.6785 68.091 77.1547 69.0983 78.107C70.1056 79.0411 70.6092 80.4329 70.6092 82.2827V91.2383H68.7412V88.9856C68.3016 89.7365 67.6515 90.3226 66.7907 90.7438C65.9483 91.165 64.941 91.3756 63.7689 91.3756C62.1572 91.3756 60.8753 90.991 59.9229 90.2218C58.9706 89.4527 58.4944 88.4362 58.4944 87.1725C58.4944 85.9455 58.934 84.9565 59.813 84.2056C60.7104 83.4548 62.1298 83.0793 64.0711 83.0793H68.6588V82.2002C68.6588 80.9549 68.3108 80.0117 67.6149 79.3707C66.9189 78.7114 65.9025 78.3817 64.5656 78.3817C63.6498 78.3817 62.7708 78.5374 61.9283 78.8488C61.0859 79.1418 60.3625 79.5538 59.7581 80.085L58.879 78.629C59.6116 78.0063 60.4907 77.5301 61.5162 77.2005C62.5418 76.8525 63.6224 76.6785 64.7579 76.6785ZM64.0711 89.8372C65.1699 89.8372 66.1131 89.59 66.9006 89.0955C67.6881 88.5827 68.2742 87.8502 68.6588 86.8978V84.5353H64.126C61.6536 84.5353 60.4174 85.3961 60.4174 87.1176C60.4174 87.96 60.7379 88.6285 61.3789 89.123C62.0199 89.5992 62.9173 89.8372 64.0711 89.8372ZM75.3575 70.8546H77.3079V91.2383H75.3575V70.8546Z" fill="url(#paint0_linear)" fill-opacity="0.65"/>
<defs>
<linearGradient id="paint0_linear" x1="236.546" y1="121.454" x2="65.2887" y2="-98.0826" gradientUnits="userSpaceOnUse">
<stop stop-color="#652C90"/>
<stop offset="0.458333" stop-color="#91268F"/>
<stop offset="1" stop-color="#D91B5B"/>
</linearGradient>
</defs>
</svg>
