<svg width="197" height="40" viewBox="0 0 197 40" fill="none" xmlns="http://www.w3.org/2000/svg">
<path d="M11.9944 11.26H4.19437L2.51437 15H0.974372L7.37437 0.999999H8.83437L15.2344 15H13.6744L11.9944 11.26ZM11.4544 10.06L8.09437 2.54L4.73437 10.06H11.4544ZM22.2703 4.4C23.257 4.4 24.1503 4.62667 24.9503 5.08C25.7503 5.52 26.377 6.14667 26.8303 6.96C27.2836 7.77333 27.5103 8.7 27.5103 9.74C27.5103 10.7933 27.2836 11.7267 26.8303 12.54C26.377 13.3533 25.7503 13.9867 24.9503 14.44C24.1636 14.88 23.2703 15.1 22.2703 15.1C21.417 15.1 20.6436 14.9267 19.9503 14.58C19.2703 14.22 18.7103 13.7 18.2703 13.02V18.88H16.8503V4.48H18.2103V6.56C18.637 5.86667 19.197 5.33333 19.8903 4.96C20.597 4.58667 21.3903 4.4 22.2703 4.4ZM22.1703 13.84C22.9036 13.84 23.5703 13.6733 24.1703 13.34C24.7703 12.9933 25.237 12.5067 25.5703 11.88C25.917 11.2533 26.0903 10.54 26.0903 9.74C26.0903 8.94 25.917 8.23333 25.5703 7.62C25.237 6.99333 24.7703 6.50667 24.1703 6.16C23.5703 5.81333 22.9036 5.64 22.1703 5.64C21.4236 5.64 20.7503 5.81333 20.1503 6.16C19.5636 6.50667 19.097 6.99333 18.7503 7.62C18.417 8.23333 18.2503 8.94 18.2503 9.74C18.2503 10.54 18.417 11.2533 18.7503 11.88C19.097 12.5067 19.5636 12.9933 20.1503 13.34C20.7503 13.6733 21.4236 13.84 22.1703 13.84ZM35.425 4.4C36.4117 4.4 37.305 4.62667 38.105 5.08C38.905 5.52 39.5317 6.14667 39.985 6.96C40.4383 7.77333 40.665 8.7 40.665 9.74C40.665 10.7933 40.4383 11.7267 39.985 12.54C39.5317 13.3533 38.905 13.9867 38.105 14.44C37.3183 14.88 36.425 15.1 35.425 15.1C34.5717 15.1 33.7983 14.9267 33.105 14.58C32.425 14.22 31.865 13.7 31.425 13.02V18.88H30.005V4.48H31.365V6.56C31.7917 5.86667 32.3517 5.33333 33.045 4.96C33.7517 4.58667 34.545 4.4 35.425 4.4ZM35.325 13.84C36.0583 13.84 36.725 13.6733 37.325 13.34C37.925 12.9933 38.3917 12.5067 38.725 11.88C39.0717 11.2533 39.245 10.54 39.245 9.74C39.245 8.94 39.0717 8.23333 38.725 7.62C38.3917 6.99333 37.925 6.50667 37.325 6.16C36.725 5.81333 36.0583 5.64 35.325 5.64C34.5783 5.64 33.905 5.81333 33.305 6.16C32.7183 6.50667 32.2517 6.99333 31.905 7.62C31.5717 8.23333 31.405 8.94 31.405 9.74C31.405 10.54 31.5717 11.2533 31.905 11.88C32.2517 12.5067 32.7183 12.9933 33.305 13.34C33.905 13.6733 34.5783 13.84 35.325 13.84ZM43.1597 0.159999H44.5797V15H43.1597V0.159999ZM56.9708 4.48L51.7108 16.26C51.2841 17.2467 50.7908 17.9467 50.2308 18.36C49.6708 18.7733 48.9974 18.98 48.2108 18.98C47.7041 18.98 47.2308 18.9 46.7908 18.74C46.3508 18.58 45.9708 18.34 45.6508 18.02L46.3108 16.96C46.8441 17.4933 47.4841 17.76 48.2308 17.76C48.7108 17.76 49.1174 17.6267 49.4508 17.36C49.7974 17.0933 50.1174 16.64 50.4108 16L50.8708 14.98L46.1708 4.48H47.6508L51.6108 13.42L55.5708 4.48H56.9708ZM58.5706 4.48H59.9906V15H58.5706V4.48ZM59.2906 2.18C58.9973 2.18 58.7506 2.08 58.5506 1.88C58.3506 1.68 58.2506 1.44 58.2506 1.16C58.2506 0.893333 58.3506 0.659999 58.5506 0.459999C58.7506 0.259999 58.9973 0.159999 59.2906 0.159999C59.584 0.159999 59.8306 0.259999 60.0306 0.459999C60.2306 0.646665 60.3306 0.873332 60.3306 1.14C60.3306 1.43333 60.2306 1.68 60.0306 1.88C59.8306 2.08 59.584 2.18 59.2906 2.18ZM68.9017 4.4C70.2217 4.4 71.2684 4.78667 72.0417 5.56C72.8284 6.32 73.2217 7.43333 73.2217 8.9V15H71.8017V9.04C71.8017 7.94667 71.5284 7.11333 70.9817 6.54C70.435 5.96667 69.655 5.68 68.6417 5.68C67.5084 5.68 66.6084 6.02 65.9417 6.7C65.2884 7.36667 64.9617 8.29333 64.9617 9.48V15H63.5417V4.48H64.9017V6.42C65.2884 5.78 65.8217 5.28667 66.5017 4.94C67.195 4.58 67.995 4.4 68.9017 4.4ZM86.4559 4.48V13.72C86.4559 15.5067 86.0159 16.8267 85.1359 17.68C84.2693 18.5467 82.9559 18.98 81.1959 18.98C80.2226 18.98 79.2959 18.8333 78.4159 18.54C77.5493 18.26 76.8426 17.8667 76.2959 17.36L77.0159 16.28C77.5226 16.7333 78.1359 17.0867 78.8559 17.34C79.5893 17.5933 80.3559 17.72 81.1559 17.72C82.4893 17.72 83.4693 17.4067 84.0959 16.78C84.7226 16.1667 85.0359 15.2067 85.0359 13.9V12.56C84.5959 13.2267 84.0159 13.7333 83.2959 14.08C82.5893 14.4267 81.8026 14.6 80.9359 14.6C79.9493 14.6 79.0493 14.3867 78.2359 13.96C77.4359 13.52 76.8026 12.9133 76.3359 12.14C75.8826 11.3533 75.6559 10.4667 75.6559 9.48C75.6559 8.49333 75.8826 7.61333 76.3359 6.84C76.8026 6.06667 77.4359 5.46667 78.2359 5.04C79.0359 4.61333 79.9359 4.4 80.9359 4.4C81.8293 4.4 82.6359 4.58 83.3559 4.94C84.0759 5.3 84.6559 5.82 85.0959 6.5V4.48H86.4559ZM81.0759 13.34C81.8359 13.34 82.5226 13.18 83.1359 12.86C83.7493 12.5267 84.2226 12.0667 84.5559 11.48C84.9026 10.8933 85.0759 10.2267 85.0759 9.48C85.0759 8.73333 84.9026 8.07333 84.5559 7.5C84.2226 6.91333 83.7493 6.46 83.1359 6.14C82.5359 5.80667 81.8493 5.64 81.0759 5.64C80.3159 5.64 79.6293 5.8 79.0159 6.12C78.4159 6.44 77.9426 6.89333 77.5959 7.48C77.2626 8.06667 77.0959 8.73333 77.0959 9.48C77.0959 10.2267 77.2626 10.8933 77.5959 11.48C77.9426 12.0667 78.4159 12.5267 79.0159 12.86C79.6293 13.18 80.3159 13.34 81.0759 13.34ZM98.3412 1.26C97.7279 1.26 97.2612 1.42667 96.9412 1.76C96.6346 2.09333 96.4812 2.58667 96.4812 3.24V4.48H99.7212V5.68H96.5212V15H95.1012V5.68H93.2212V4.48H95.1012V3.18C95.1012 2.22 95.3746 1.46 95.9212 0.899999C96.4812 0.339999 97.2679 0.0599992 98.2812 0.0599992C98.6812 0.0599992 99.0679 0.119999 99.4412 0.239999C99.8146 0.346666 100.128 0.506666 100.381 0.719999L99.9012 1.78C99.4879 1.43333 98.9679 1.26 98.3412 1.26ZM105.363 15.1C104.349 15.1 103.436 14.8733 102.623 14.42C101.809 13.9533 101.169 13.3133 100.703 12.5C100.236 11.6867 100.003 10.7667 100.003 9.74C100.003 8.71333 100.236 7.79333 100.703 6.98C101.169 6.16667 101.809 5.53333 102.623 5.08C103.436 4.62667 104.349 4.4 105.363 4.4C106.376 4.4 107.289 4.62667 108.103 5.08C108.916 5.53333 109.549 6.16667 110.003 6.98C110.469 7.79333 110.703 8.71333 110.703 9.74C110.703 10.7667 110.469 11.6867 110.003 12.5C109.549 13.3133 108.916 13.9533 108.103 14.42C107.289 14.8733 106.376 15.1 105.363 15.1ZM105.363 13.84C106.109 13.84 106.776 13.6733 107.363 13.34C107.963 12.9933 108.429 12.5067 108.763 11.88C109.096 11.2533 109.263 10.54 109.263 9.74C109.263 8.94 109.096 8.22667 108.763 7.6C108.429 6.97333 107.963 6.49333 107.363 6.16C106.776 5.81333 106.109 5.64 105.363 5.64C104.616 5.64 103.943 5.81333 103.343 6.16C102.756 6.49333 102.289 6.97333 101.943 7.6C101.609 8.22667 101.443 8.94 101.443 9.74C101.443 10.54 101.609 11.2533 101.943 11.88C102.289 12.5067 102.756 12.9933 103.343 13.34C103.943 13.6733 104.616 13.84 105.363 13.84ZM114.562 6.54C114.895 5.83333 115.389 5.3 116.042 4.94C116.709 4.58 117.529 4.4 118.502 4.4V5.78L118.162 5.76C117.055 5.76 116.189 6.1 115.562 6.78C114.935 7.46 114.622 8.41333 114.622 9.64V15H113.202V4.48H114.562V6.54ZM129.344 4.4C130.717 4.4 131.77 4.74667 132.504 5.44C133.237 6.12 133.604 7.13333 133.604 8.48V15H132.244V13.36C131.924 13.9067 131.45 14.3333 130.824 14.64C130.21 14.9467 129.477 15.1 128.624 15.1C127.45 15.1 126.517 14.82 125.824 14.26C125.13 13.7 124.784 12.96 124.784 12.04C124.784 11.1467 125.104 10.4267 125.744 9.88C126.397 9.33333 127.43 9.06 128.844 9.06H132.184V8.42C132.184 7.51333 131.93 6.82667 131.424 6.36C130.917 5.88 130.177 5.64 129.204 5.64C128.537 5.64 127.897 5.75333 127.284 5.98C126.67 6.19333 126.144 6.49333 125.704 6.88L125.064 5.82C125.597 5.36667 126.237 5.02 126.984 4.78C127.73 4.52667 128.517 4.4 129.344 4.4ZM128.844 13.98C129.644 13.98 130.33 13.8 130.904 13.44C131.477 13.0667 131.904 12.5333 132.184 11.84V10.12H128.884C127.084 10.12 126.184 10.7467 126.184 12C126.184 12.6133 126.417 13.1 126.884 13.46C127.35 13.8067 128.004 13.98 128.844 13.98ZM142.42 4.4C143.74 4.4 144.787 4.78667 145.56 5.56C146.347 6.32 146.74 7.43333 146.74 8.9V15H145.32V9.04C145.32 7.94667 145.047 7.11333 144.5 6.54C143.954 5.96667 143.174 5.68 142.16 5.68C141.027 5.68 140.127 6.02 139.46 6.7C138.807 7.36667 138.48 8.29333 138.48 9.48V15H137.06V4.48H138.42V6.42C138.807 5.78 139.34 5.28667 140.02 4.94C140.714 4.58 141.514 4.4 142.42 4.4ZM159.33 15.1C158.317 15.1 157.403 14.8733 156.59 14.42C155.777 13.9533 155.137 13.3133 154.67 12.5C154.203 11.6867 153.97 10.7667 153.97 9.74C153.97 8.71333 154.203 7.79333 154.67 6.98C155.137 6.16667 155.777 5.53333 156.59 5.08C157.403 4.62667 158.317 4.4 159.33 4.4C160.343 4.4 161.257 4.62667 162.07 5.08C162.883 5.53333 163.517 6.16667 163.97 6.98C164.437 7.79333 164.67 8.71333 164.67 9.74C164.67 10.7667 164.437 11.6867 163.97 12.5C163.517 13.3133 162.883 13.9533 162.07 14.42C161.257 14.8733 160.343 15.1 159.33 15.1ZM159.33 13.84C160.077 13.84 160.743 13.6733 161.33 13.34C161.93 12.9933 162.397 12.5067 162.73 11.88C163.063 11.2533 163.23 10.54 163.23 9.74C163.23 8.94 163.063 8.22667 162.73 7.6C162.397 6.97333 161.93 6.49333 161.33 6.16C160.743 5.81333 160.077 5.64 159.33 5.64C158.583 5.64 157.91 5.81333 157.31 6.16C156.723 6.49333 156.257 6.97333 155.91 7.6C155.577 8.22667 155.41 8.94 155.41 9.74C155.41 10.54 155.577 11.2533 155.91 11.88C156.257 12.5067 156.723 12.9933 157.31 13.34C157.91 13.6733 158.583 13.84 159.33 13.84ZM170.649 1.26C170.036 1.26 169.569 1.42667 169.249 1.76C168.942 2.09333 168.789 2.58667 168.789 3.24V4.48H172.029V5.68H168.829V15H167.409V5.68H165.529V4.48H167.409V3.18C167.409 2.22 167.682 1.46 168.229 0.899999C168.789 0.339999 169.576 0.0599992 170.589 0.0599992C170.989 0.0599992 171.376 0.119999 171.749 0.239999C172.122 0.346666 172.436 0.506666 172.689 0.719999L172.209 1.78C171.796 1.43333 171.276 1.26 170.649 1.26ZM177.026 1.26C176.413 1.26 175.946 1.42667 175.626 1.76C175.32 2.09333 175.166 2.58667 175.166 3.24V4.48H178.406V5.68H175.206V15H173.786V5.68H171.906V4.48H173.786V3.18C173.786 2.22 174.06 1.46 174.606 0.899999C175.166 0.339999 175.953 0.0599992 176.966 0.0599992C177.366 0.0599992 177.753 0.119999 178.126 0.239999C178.5 0.346666 178.813 0.506666 179.066 0.719999L178.586 1.78C178.173 1.43333 177.653 1.26 177.026 1.26ZM188.908 10.18H180.108C180.188 11.2733 180.608 12.16 181.368 12.84C182.128 13.5067 183.088 13.84 184.248 13.84C184.901 13.84 185.501 13.7267 186.048 13.5C186.595 13.26 187.068 12.9133 187.468 12.46L188.268 13.38C187.801 13.94 187.215 14.3667 186.508 14.66C185.815 14.9533 185.048 15.1 184.208 15.1C183.128 15.1 182.168 14.8733 181.328 14.42C180.501 13.9533 179.855 13.3133 179.388 12.5C178.921 11.6867 178.688 10.7667 178.688 9.74C178.688 8.71333 178.908 7.79333 179.348 6.98C179.801 6.16667 180.415 5.53333 181.188 5.08C181.975 4.62667 182.855 4.4 183.828 4.4C184.801 4.4 185.675 4.62667 186.448 5.08C187.221 5.53333 187.828 6.16667 188.268 6.98C188.708 7.78 188.928 8.7 188.928 9.74L188.908 10.18ZM183.828 5.62C182.815 5.62 181.961 5.94667 181.268 6.6C180.588 7.24 180.201 8.08 180.108 9.12H187.568C187.475 8.08 187.081 7.24 186.388 6.6C185.708 5.94667 184.855 5.62 183.828 5.62ZM192.778 6.54C193.112 5.83333 193.605 5.3 194.258 4.94C194.925 4.58 195.745 4.4 196.718 4.4V5.78L196.378 5.76C195.272 5.76 194.405 6.1 193.778 6.78C193.152 7.46 192.838 8.41333 192.838 9.64V15H191.418V4.48H192.778V6.54ZM42.3968 39.1C41.3835 39.1 40.4701 38.8733 39.6568 38.42C38.8435 37.9533 38.2035 37.3133 37.7368 36.5C37.2701 35.6867 37.0368 34.7667 37.0368 33.74C37.0368 32.7133 37.2701 31.7933 37.7368 30.98C38.2035 30.1667 38.8435 29.5333 39.6568 29.08C40.4701 28.6267 41.3835 28.4 42.3968 28.4C43.4101 28.4 44.3235 28.6267 45.1368 29.08C45.9501 29.5333 46.5835 30.1667 47.0368 30.98C47.5035 31.7933 47.7368 32.7133 47.7368 33.74C47.7368 34.7667 47.5035 35.6867 47.0368 36.5C46.5835 37.3133 45.9501 37.9533 45.1368 38.42C44.3235 38.8733 43.4101 39.1 42.3968 39.1ZM42.3968 37.84C43.1435 37.84 43.8101 37.6733 44.3968 37.34C44.9968 36.9933 45.4635 36.5067 45.7968 35.88C46.1301 35.2533 46.2968 34.54 46.2968 33.74C46.2968 32.94 46.1301 32.2267 45.7968 31.6C45.4635 30.9733 44.9968 30.4933 44.3968 30.16C43.8101 29.8133 43.1435 29.64 42.3968 29.64C41.6501 29.64 40.9768 29.8133 40.3768 30.16C39.7901 30.4933 39.3235 30.9733 38.9768 31.6C38.6435 32.2267 38.4768 32.94 38.4768 33.74C38.4768 34.54 38.6435 35.2533 38.9768 35.88C39.3235 36.5067 39.7901 36.9933 40.3768 37.34C40.9768 37.6733 41.6501 37.84 42.3968 37.84ZM55.5959 28.4C56.9159 28.4 57.9625 28.7867 58.7359 29.56C59.5225 30.32 59.9159 31.4333 59.9159 32.9V39H58.4959V33.04C58.4959 31.9467 58.2225 31.1133 57.6759 30.54C57.1292 29.9667 56.3492 29.68 55.3359 29.68C54.2025 29.68 53.3025 30.02 52.6359 30.7C51.9825 31.3667 51.6559 32.2933 51.6559 33.48V39H50.2359V28.48H51.5959V30.42C51.9825 29.78 52.5159 29.2867 53.1959 28.94C53.8892 28.58 54.6892 28.4 55.5959 28.4ZM73.7454 38.36C73.4787 38.6 73.1454 38.7867 72.7454 38.92C72.3587 39.04 71.9521 39.1 71.5254 39.1C70.5387 39.1 69.7787 38.8333 69.2454 38.3C68.7121 37.7667 68.4454 37.0133 68.4454 36.04V29.68H66.5654V28.48H68.4454V26.18H69.8654V28.48H73.0654V29.68H69.8654V35.96C69.8654 36.5867 70.0187 37.0667 70.3254 37.4C70.6454 37.72 71.0987 37.88 71.6854 37.88C71.9787 37.88 72.2587 37.8333 72.5254 37.74C72.8054 37.6467 73.0454 37.5133 73.2454 37.34L73.7454 38.36ZM81.2904 28.4C82.6104 28.4 83.6571 28.7867 84.4304 29.56C85.2171 30.32 85.6104 31.4333 85.6104 32.9V39H84.1904V33.04C84.1904 31.9467 83.9171 31.1133 83.3704 30.54C82.8237 29.9667 82.0437 29.68 81.0304 29.68C79.8971 29.68 78.9971 30.02 78.3304 30.7C77.6771 31.3667 77.3504 32.2933 77.3504 33.48V39H75.9304V24.16H77.3504V30.32C77.7371 29.7067 78.2704 29.2333 78.9504 28.9C79.6304 28.5667 80.4104 28.4 81.2904 28.4ZM98.2646 34.18H89.4646C89.5446 35.2733 89.9646 36.16 90.7246 36.84C91.4846 37.5067 92.4446 37.84 93.6046 37.84C94.2579 37.84 94.8579 37.7267 95.4046 37.5C95.9513 37.26 96.4246 36.9133 96.8246 36.46L97.6246 37.38C97.1579 37.94 96.5713 38.3667 95.8646 38.66C95.1713 38.9533 94.4046 39.1 93.5646 39.1C92.4846 39.1 91.5246 38.8733 90.6846 38.42C89.8579 37.9533 89.2113 37.3133 88.7446 36.5C88.2779 35.6867 88.0446 34.7667 88.0446 33.74C88.0446 32.7133 88.2646 31.7933 88.7046 30.98C89.1579 30.1667 89.7713 29.5333 90.5446 29.08C91.3313 28.6267 92.2113 28.4 93.1846 28.4C94.1579 28.4 95.0313 28.6267 95.8046 29.08C96.5779 29.5333 97.1846 30.1667 97.6246 30.98C98.0646 31.78 98.2846 32.7 98.2846 33.74L98.2646 34.18ZM93.1846 29.62C92.1713 29.62 91.3179 29.9467 90.6246 30.6C89.9446 31.24 89.5579 32.08 89.4646 33.12H96.9246C96.8313 32.08 96.4379 31.24 95.7446 30.6C95.0646 29.9467 94.2113 29.62 93.1846 29.62ZM111.149 25C112.936 25 114.336 25.4267 115.349 26.28C116.363 27.1333 116.869 28.3067 116.869 29.8C116.869 31.2933 116.363 32.4667 115.349 33.32C114.336 34.16 112.936 34.58 111.149 34.58H107.389V39H105.909V25H111.149ZM111.109 33.28C112.496 33.28 113.556 32.98 114.289 32.38C115.023 31.7667 115.389 30.9067 115.389 29.8C115.389 28.6667 115.023 27.8 114.289 27.2C113.556 26.5867 112.496 26.28 111.109 26.28H107.389V33.28H111.109ZM123.611 39.1C122.598 39.1 121.684 38.8733 120.871 38.42C120.058 37.9533 119.418 37.3133 118.951 36.5C118.484 35.6867 118.251 34.7667 118.251 33.74C118.251 32.7133 118.484 31.7933 118.951 30.98C119.418 30.1667 120.058 29.5333 120.871 29.08C121.684 28.6267 122.598 28.4 123.611 28.4C124.624 28.4 125.538 28.6267 126.351 29.08C127.164 29.5333 127.798 30.1667 128.251 30.98C128.718 31.7933 128.951 32.7133 128.951 33.74C128.951 34.7667 128.718 35.6867 128.251 36.5C127.798 37.3133 127.164 37.9533 126.351 38.42C125.538 38.8733 124.624 39.1 123.611 39.1ZM123.611 37.84C124.358 37.84 125.024 37.6733 125.611 37.34C126.211 36.9933 126.678 36.5067 127.011 35.88C127.344 35.2533 127.511 34.54 127.511 33.74C127.511 32.94 127.344 32.2267 127.011 31.6C126.678 30.9733 126.211 30.4933 125.611 30.16C125.024 29.8133 124.358 29.64 123.611 29.64C122.864 29.64 122.191 29.8133 121.591 30.16C121.004 30.4933 120.538 30.9733 120.191 31.6C119.858 32.2267 119.691 32.94 119.691 33.74C119.691 34.54 119.858 35.2533 120.191 35.88C120.538 36.5067 121.004 36.9933 121.591 37.34C122.191 37.6733 122.864 37.84 123.611 37.84ZM132.81 30.54C133.143 29.8333 133.637 29.3 134.29 28.94C134.957 28.58 135.777 28.4 136.75 28.4V29.78L136.41 29.76C135.303 29.76 134.437 30.1 133.81 30.78C133.183 31.46 132.87 32.4133 132.87 33.64V39H131.45V28.48H132.81V30.54ZM144.91 38.36C144.644 38.6 144.31 38.7867 143.91 38.92C143.524 39.04 143.117 39.1 142.69 39.1C141.704 39.1 140.944 38.8333 140.41 38.3C139.877 37.7667 139.61 37.0133 139.61 36.04V29.68H137.73V28.48H139.61V26.18H141.03V28.48H144.23V29.68H141.03V35.96C141.03 36.5867 141.184 37.0667 141.49 37.4C141.81 37.72 142.264 37.88 142.85 37.88C143.144 37.88 143.424 37.8333 143.69 37.74C143.97 37.6467 144.21 37.5133 144.41 37.34L144.91 38.36ZM150.775 28.4C152.149 28.4 153.202 28.7467 153.935 29.44C154.669 30.12 155.035 31.1333 155.035 32.48V39H153.675V37.36C153.355 37.9067 152.882 38.3333 152.255 38.64C151.642 38.9467 150.909 39.1 150.055 39.1C148.882 39.1 147.949 38.82 147.255 38.26C146.562 37.7 146.215 36.96 146.215 36.04C146.215 35.1467 146.535 34.4267 147.175 33.88C147.829 33.3333 148.862 33.06 150.275 33.06H153.615V32.42C153.615 31.5133 153.362 30.8267 152.855 30.36C152.349 29.88 151.609 29.64 150.635 29.64C149.969 29.64 149.329 29.7533 148.715 29.98C148.102 30.1933 147.575 30.4933 147.135 30.88L146.495 29.82C147.029 29.3667 147.669 29.02 148.415 28.78C149.162 28.5267 149.949 28.4 150.775 28.4ZM150.275 37.98C151.075 37.98 151.762 37.8 152.335 37.44C152.909 37.0667 153.335 36.5333 153.615 35.84V34.12H150.315C148.515 34.12 147.615 34.7467 147.615 36C147.615 36.6133 147.849 37.1 148.315 37.46C148.782 37.8067 149.435 37.98 150.275 37.98ZM158.492 24.16H159.912V39H158.492V24.16Z" fill="url(#paint0_linear)" fill-opacity="0.65"/>
<defs>
<linearGradient id="paint0_linear" x1="241.163" y1="55.7952" x2="189.791" y2="-92.3765" gradientUnits="userSpaceOnUse">
<stop stop-color="#652C90"/>
<stop offset="0.458333" stop-color="#91268F"/>
<stop offset="1" stop-color="#D91B5B"/>
</linearGradient>
</defs>
</svg>
