<svg width="511" height="229" viewBox="0 0 511 229" fill="none" xmlns="http://www.w3.org/2000/svg">
<path d="M38.71 39.91H11.41L5.53 53H0.14L22.54 4H27.65L50.05 53H44.59L38.71 39.91ZM36.82 35.71L25.06 9.39L13.3 35.71H36.82ZM74.6758 15.9C78.1291 15.9 81.2558 16.6933 84.0558 18.28C86.8558 19.82 89.0491 22.0133 90.6358 24.86C92.2224 27.7067 93.0158 30.95 93.0158 34.59C93.0158 38.2767 92.2224 41.5433 90.6358 44.39C89.0491 47.2367 86.8558 49.4533 84.0558 51.04C81.3024 52.58 78.1758 53.35 74.6758 53.35C71.6891 53.35 68.9824 52.7433 66.5558 51.53C64.1758 50.27 62.2158 48.45 60.6758 46.07V66.58H55.7058V16.18H60.4658V23.46C61.9591 21.0333 63.9191 19.1667 66.3458 17.86C68.8191 16.5533 71.5958 15.9 74.6758 15.9ZM74.3258 48.94C76.8924 48.94 79.2258 48.3567 81.3258 47.19C83.4258 45.9767 85.0591 44.2733 86.2258 42.08C87.4391 39.8867 88.0458 37.39 88.0458 34.59C88.0458 31.79 87.4391 29.3167 86.2258 27.17C85.0591 24.9767 83.4258 23.2733 81.3258 22.06C79.2258 20.8467 76.8924 20.24 74.3258 20.24C71.7124 20.24 69.3558 20.8467 67.2558 22.06C65.2024 23.2733 63.5691 24.9767 62.3558 27.17C61.1891 29.3167 60.6058 31.79 60.6058 34.59C60.6058 37.39 61.1891 39.8867 62.3558 42.08C63.5691 44.2733 65.2024 45.9767 67.2558 47.19C69.3558 48.3567 71.7124 48.94 74.3258 48.94ZM120.717 15.9C124.171 15.9 127.297 16.6933 130.097 18.28C132.897 19.82 135.091 22.0133 136.677 24.86C138.264 27.7067 139.057 30.95 139.057 34.59C139.057 38.2767 138.264 41.5433 136.677 44.39C135.091 47.2367 132.897 49.4533 130.097 51.04C127.344 52.58 124.217 53.35 120.717 53.35C117.731 53.35 115.024 52.7433 112.597 51.53C110.217 50.27 108.257 48.45 106.717 46.07V66.58H101.747V16.18H106.507V23.46C108.001 21.0333 109.961 19.1667 112.387 17.86C114.861 16.5533 117.637 15.9 120.717 15.9ZM120.367 48.94C122.934 48.94 125.267 48.3567 127.367 47.19C129.467 45.9767 131.101 44.2733 132.267 42.08C133.481 39.8867 134.087 37.39 134.087 34.59C134.087 31.79 133.481 29.3167 132.267 27.17C131.101 24.9767 129.467 23.2733 127.367 22.06C125.267 20.8467 122.934 20.24 120.367 20.24C117.754 20.24 115.397 20.8467 113.297 22.06C111.244 23.2733 109.611 24.9767 108.397 27.17C107.231 29.3167 106.647 31.79 106.647 34.59C106.647 37.39 107.231 39.8867 108.397 42.08C109.611 44.2733 111.244 45.9767 113.297 47.19C115.397 48.3567 117.754 48.94 120.367 48.94ZM147.789 1.06H152.759V53H147.789V1.06ZM196.127 16.18L177.717 57.41C176.224 60.8633 174.497 63.3133 172.537 64.76C170.577 66.2067 168.221 66.93 165.467 66.93C163.694 66.93 162.037 66.65 160.497 66.09C158.957 65.53 157.627 64.69 156.507 63.57L158.817 59.86C160.684 61.7267 162.924 62.66 165.537 62.66C167.217 62.66 168.641 62.1933 169.807 61.26C171.021 60.3267 172.141 58.74 173.167 56.5L174.777 52.93L158.327 16.18H163.507L177.367 47.47L191.227 16.18H196.127ZM201.727 16.18H206.697V53H201.727V16.18ZM204.247 8.13C203.22 8.13 202.357 7.78 201.657 7.08C200.957 6.38 200.607 5.54 200.607 4.56C200.607 3.62667 200.957 2.81 201.657 2.11C202.357 1.41 203.22 1.06 204.247 1.06C205.274 1.06 206.137 1.41 206.837 2.11C207.537 2.76333 207.887 3.55666 207.887 4.49C207.887 5.51667 207.537 6.38 206.837 7.08C206.137 7.78 205.274 8.13 204.247 8.13ZM237.886 15.9C242.506 15.9 246.169 17.2533 248.876 19.96C251.629 22.62 253.006 26.5167 253.006 31.65V53H248.036V32.14C248.036 28.3133 247.079 25.3967 245.166 23.39C243.252 21.3833 240.522 20.38 236.976 20.38C233.009 20.38 229.859 21.57 227.526 23.95C225.239 26.2833 224.096 29.5267 224.096 33.68V53H219.126V16.18H223.886V22.97C225.239 20.73 227.106 19.0033 229.486 17.79C231.912 16.53 234.712 15.9 237.886 15.9ZM299.325 16.18V48.52C299.325 54.7733 297.785 59.3933 294.705 62.38C291.672 65.4133 287.075 66.93 280.915 66.93C277.509 66.93 274.265 66.4167 271.185 65.39C268.152 64.41 265.679 63.0333 263.765 61.26L266.285 57.48C268.059 59.0667 270.205 60.3033 272.725 61.19C275.292 62.0767 277.975 62.52 280.775 62.52C285.442 62.52 288.872 61.4233 291.065 59.23C293.259 57.0833 294.355 53.7233 294.355 49.15V44.46C292.815 46.7933 290.785 48.5667 288.265 49.78C285.792 50.9933 283.039 51.6 280.005 51.6C276.552 51.6 273.402 50.8533 270.555 49.36C267.755 47.82 265.539 45.6967 263.905 42.99C262.319 40.2367 261.525 37.1333 261.525 33.68C261.525 30.2267 262.319 27.1467 263.905 24.44C265.539 21.7333 267.755 19.6333 270.555 18.14C273.355 16.6467 276.505 15.9 280.005 15.9C283.132 15.9 285.955 16.53 288.475 17.79C290.995 19.05 293.025 20.87 294.565 23.25V16.18H299.325ZM280.495 47.19C283.155 47.19 285.559 46.63 287.705 45.51C289.852 44.3433 291.509 42.7333 292.675 40.68C293.889 38.6267 294.495 36.2933 294.495 33.68C294.495 31.0667 293.889 28.7567 292.675 26.75C291.509 24.6967 289.852 23.11 287.705 21.99C285.605 20.8233 283.202 20.24 280.495 20.24C277.835 20.24 275.432 20.8 273.285 21.92C271.185 23.04 269.529 24.6267 268.315 26.68C267.149 28.7333 266.565 31.0667 266.565 33.68C266.565 36.2933 267.149 38.6267 268.315 40.68C269.529 42.7333 271.185 44.3433 273.285 45.51C275.432 46.63 277.835 47.19 280.495 47.19ZM340.924 4.91C338.777 4.91 337.144 5.49333 336.024 6.66C334.951 7.82666 334.414 9.55333 334.414 11.84V16.18H345.754V20.38H334.554V53H329.584V20.38H323.004V16.18H329.584V11.63C329.584 8.27 330.541 5.61 332.454 3.65C334.414 1.69 337.167 0.709997 340.714 0.709997C342.114 0.709997 343.467 0.919997 344.774 1.34C346.081 1.71333 347.177 2.27333 348.064 3.02L346.384 6.73C344.937 5.51666 343.117 4.91 340.924 4.91ZM365.5 53.35C361.953 53.35 358.756 52.5567 355.91 50.97C353.063 49.3367 350.823 47.0967 349.19 44.25C347.556 41.4033 346.74 38.1833 346.74 34.59C346.74 30.9967 347.556 27.7767 349.19 24.93C350.823 22.0833 353.063 19.8667 355.91 18.28C358.756 16.6933 361.953 15.9 365.5 15.9C369.046 15.9 372.243 16.6933 375.09 18.28C377.936 19.8667 380.153 22.0833 381.74 24.93C383.373 27.7767 384.19 30.9967 384.19 34.59C384.19 38.1833 383.373 41.4033 381.74 44.25C380.153 47.0967 377.936 49.3367 375.09 50.97C372.243 52.5567 369.046 53.35 365.5 53.35ZM365.5 48.94C368.113 48.94 370.446 48.3567 372.5 47.19C374.6 45.9767 376.233 44.2733 377.4 42.08C378.566 39.8867 379.15 37.39 379.15 34.59C379.15 31.79 378.566 29.2933 377.4 27.1C376.233 24.9067 374.6 23.2267 372.5 22.06C370.446 20.8467 368.113 20.24 365.5 20.24C362.886 20.24 360.53 20.8467 358.43 22.06C356.376 23.2267 354.743 24.9067 353.53 27.1C352.363 29.2933 351.78 31.79 351.78 34.59C351.78 37.39 352.363 39.8867 353.53 42.08C354.743 44.2733 356.376 45.9767 358.43 47.19C360.53 48.3567 362.886 48.94 365.5 48.94ZM397.696 23.39C398.863 20.9167 400.59 19.05 402.876 17.79C405.21 16.53 408.08 15.9 411.486 15.9V20.73L410.296 20.66C406.423 20.66 403.39 21.85 401.196 24.23C399.003 26.61 397.906 29.9467 397.906 34.24V53H392.936V16.18H397.696V23.39ZM449.432 15.9C454.239 15.9 457.926 17.1133 460.492 19.54C463.059 21.92 464.342 25.4667 464.342 30.18V53H459.582V47.26C458.462 49.1733 456.806 50.6667 454.612 51.74C452.466 52.8133 449.899 53.35 446.912 53.35C442.806 53.35 439.539 52.37 437.112 50.41C434.686 48.45 433.472 45.86 433.472 42.64C433.472 39.5133 434.592 36.9933 436.832 35.08C439.119 33.1667 442.736 32.21 447.682 32.21H459.372V29.97C459.372 26.7967 458.486 24.3933 456.712 22.76C454.939 21.08 452.349 20.24 448.942 20.24C446.609 20.24 444.369 20.6367 442.222 21.43C440.076 22.1767 438.232 23.2267 436.692 24.58L434.452 20.87C436.319 19.2833 438.559 18.07 441.172 17.23C443.786 16.3433 446.539 15.9 449.432 15.9ZM447.682 49.43C450.482 49.43 452.886 48.8 454.892 47.54C456.899 46.2333 458.392 44.3667 459.372 41.94V35.92H447.822C441.522 35.92 438.372 38.1133 438.372 42.5C438.372 44.6467 439.189 46.35 440.822 47.61C442.456 48.8233 444.742 49.43 447.682 49.43ZM495.201 15.9C499.821 15.9 503.485 17.2533 506.191 19.96C508.945 22.62 510.321 26.5167 510.321 31.65V53H505.351V32.14C505.351 28.3133 504.395 25.3967 502.481 23.39C500.568 21.3833 497.838 20.38 494.291 20.38C490.325 20.38 487.175 21.57 484.841 23.95C482.555 26.2833 481.411 29.5267 481.411 33.68V53H476.441V16.18H481.201V22.97C482.555 20.73 484.421 19.0033 486.801 17.79C489.228 16.53 492.028 15.9 495.201 15.9ZM29.4 140.42C24.5467 140.42 20.1367 139.347 16.17 137.2C12.25 135.007 9.17 132.02 6.93 128.24C4.73667 124.46 3.64 120.213 3.64 115.5C3.64 110.787 4.73667 106.54 6.93 102.76C9.17 98.98 12.25 96.0167 16.17 93.87C20.1367 91.6767 24.5467 90.58 29.4 90.58C34.2533 90.58 38.6167 91.6533 42.49 93.8C46.41 95.9467 49.49 98.9333 51.73 102.76C53.97 106.54 55.09 110.787 55.09 115.5C55.09 120.213 53.97 124.483 51.73 128.31C49.49 132.09 46.41 135.053 42.49 137.2C38.6167 139.347 34.2533 140.42 29.4 140.42ZM29.4 135.8C33.2733 135.8 36.7733 134.937 39.9 133.21C43.0267 131.437 45.4767 129.01 47.25 125.93C49.0233 122.803 49.91 119.327 49.91 115.5C49.91 111.673 49.0233 108.22 47.25 105.14C45.4767 102.013 43.0267 99.5867 39.9 97.86C36.7733 96.0867 33.2733 95.2 29.4 95.2C25.5267 95.2 22.0033 96.0867 18.83 97.86C15.7033 99.5867 13.23 102.013 11.41 105.14C9.63667 108.22 8.75 111.673 8.75 115.5C8.75 119.327 9.63667 122.803 11.41 125.93C13.23 129.01 15.7033 131.437 18.83 133.21C22.0033 134.937 25.5267 135.8 29.4 135.8ZM76.4307 91.91C74.284 91.91 72.6507 92.4933 71.5307 93.66C70.4574 94.8267 69.9207 96.5533 69.9207 98.84V103.18H81.2607V107.38H70.0607V140H65.0907V107.38H58.5107V103.18H65.0907V98.63C65.0907 95.27 66.0474 92.61 67.9607 90.65C69.9207 88.69 72.674 87.71 76.2207 87.71C77.6207 87.71 78.974 87.92 80.2807 88.34C81.5874 88.7133 82.684 89.2733 83.5707 90.02L81.8907 93.73C80.444 92.5167 78.624 91.91 76.4307 91.91ZM98.7514 91.91C96.6047 91.91 94.9714 92.4933 93.8514 93.66C92.7781 94.8267 92.2414 96.5533 92.2414 98.84V103.18H103.581V107.38H92.3814V140H87.4114V107.38H80.8314V103.18H87.4114V98.63C87.4114 95.27 88.3681 92.61 90.2814 90.65C92.2414 88.69 94.9947 87.71 98.5414 87.71C99.9414 87.71 101.295 87.92 102.601 88.34C103.908 88.7133 105.005 89.2733 105.891 90.02L104.211 93.73C102.765 92.5167 100.945 91.91 98.7514 91.91ZM140.337 123.13H109.537C109.817 126.957 111.287 130.06 113.947 132.44C116.607 134.773 119.967 135.94 124.027 135.94C126.314 135.94 128.414 135.543 130.327 134.75C132.24 133.91 133.897 132.697 135.297 131.11L138.097 134.33C136.464 136.29 134.41 137.783 131.937 138.81C129.51 139.837 126.827 140.35 123.887 140.35C120.107 140.35 116.747 139.557 113.807 137.97C110.914 136.337 108.65 134.097 107.017 131.25C105.384 128.403 104.567 125.183 104.567 121.59C104.567 117.997 105.337 114.777 106.877 111.93C108.464 109.083 110.61 106.867 113.317 105.28C116.07 103.693 119.15 102.9 122.557 102.9C125.964 102.9 129.02 103.693 131.727 105.28C134.434 106.867 136.557 109.083 138.097 111.93C139.637 114.73 140.407 117.95 140.407 121.59L140.337 123.13ZM122.557 107.17C119.01 107.17 116.024 108.313 113.597 110.6C111.217 112.84 109.864 115.78 109.537 119.42H135.647C135.32 115.78 133.944 112.84 131.517 110.6C129.137 108.313 126.15 107.17 122.557 107.17ZM153.883 110.39C155.05 107.917 156.776 106.05 159.063 104.79C161.396 103.53 164.266 102.9 167.673 102.9V107.73L166.483 107.66C162.61 107.66 159.576 108.85 157.383 111.23C155.19 113.61 154.093 116.947 154.093 121.24V140H149.123V103.18H153.883V110.39ZM207.789 140.35C204.242 140.35 201.046 139.557 198.199 137.97C195.352 136.337 193.112 134.097 191.479 131.25C189.846 128.403 189.029 125.183 189.029 121.59C189.029 117.997 189.846 114.777 191.479 111.93C193.112 109.083 195.352 106.867 198.199 105.28C201.046 103.693 204.242 102.9 207.789 102.9C211.336 102.9 214.532 103.693 217.379 105.28C220.226 106.867 222.442 109.083 224.029 111.93C225.662 114.777 226.479 117.997 226.479 121.59C226.479 125.183 225.662 128.403 224.029 131.25C222.442 134.097 220.226 136.337 217.379 137.97C214.532 139.557 211.336 140.35 207.789 140.35ZM207.789 135.94C210.402 135.94 212.736 135.357 214.789 134.19C216.889 132.977 218.522 131.273 219.689 129.08C220.856 126.887 221.439 124.39 221.439 121.59C221.439 118.79 220.856 116.293 219.689 114.1C218.522 111.907 216.889 110.227 214.789 109.06C212.736 107.847 210.402 107.24 207.789 107.24C205.176 107.24 202.819 107.847 200.719 109.06C198.666 110.227 197.032 111.907 195.819 114.1C194.652 116.293 194.069 118.79 194.069 121.59C194.069 124.39 194.652 126.887 195.819 129.08C197.032 131.273 198.666 132.977 200.719 134.19C202.819 135.357 205.176 135.94 207.789 135.94ZM253.986 102.9C258.606 102.9 262.269 104.253 264.976 106.96C267.729 109.62 269.106 113.517 269.106 118.65V140H264.136V119.14C264.136 115.313 263.179 112.397 261.266 110.39C259.352 108.383 256.622 107.38 253.076 107.38C249.109 107.38 245.959 108.57 243.626 110.95C241.339 113.283 240.196 116.527 240.196 120.68V140H235.226V103.18H239.986V109.97C241.339 107.73 243.206 106.003 245.586 104.79C248.012 103.53 250.812 102.9 253.986 102.9ZM317.509 137.76C316.576 138.6 315.409 139.253 314.009 139.72C312.656 140.14 311.232 140.35 309.739 140.35C306.286 140.35 303.626 139.417 301.759 137.55C299.892 135.683 298.959 133.047 298.959 129.64V107.38H292.379V103.18H298.959V95.13H303.929V103.18H315.129V107.38H303.929V129.36C303.929 131.553 304.466 133.233 305.539 134.4C306.659 135.52 308.246 136.08 310.299 136.08C311.326 136.08 312.306 135.917 313.239 135.59C314.219 135.263 315.059 134.797 315.759 134.19L317.509 137.76ZM343.917 102.9C348.537 102.9 352.2 104.253 354.907 106.96C357.66 109.62 359.037 113.517 359.037 118.65V140H354.067V119.14C354.067 115.313 353.11 112.397 351.197 110.39C349.283 108.383 346.553 107.38 343.007 107.38C339.04 107.38 335.89 108.57 333.557 110.95C331.27 113.283 330.127 116.527 330.127 120.68V140H325.157V88.06H330.127V109.62C331.48 107.473 333.347 105.817 335.727 104.65C338.107 103.483 340.837 102.9 343.917 102.9ZM403.326 123.13H372.526C372.806 126.957 374.276 130.06 376.936 132.44C379.596 134.773 382.956 135.94 387.016 135.94C389.303 135.94 391.403 135.543 393.316 134.75C395.23 133.91 396.886 132.697 398.286 131.11L401.086 134.33C399.453 136.29 397.4 137.783 394.926 138.81C392.5 139.837 389.816 140.35 386.876 140.35C383.096 140.35 379.736 139.557 376.796 137.97C373.903 136.337 371.64 134.097 370.006 131.25C368.373 128.403 367.556 125.183 367.556 121.59C367.556 117.997 368.326 114.777 369.866 111.93C371.453 109.083 373.6 106.867 376.306 105.28C379.06 103.693 382.14 102.9 385.546 102.9C388.953 102.9 392.01 103.693 394.716 105.28C397.423 106.867 399.546 109.083 401.086 111.93C402.626 114.73 403.396 117.95 403.396 121.59L403.326 123.13ZM385.546 107.17C382 107.17 379.013 108.313 376.586 110.6C374.206 112.84 372.853 115.78 372.526 119.42H398.636C398.31 115.78 396.933 112.84 394.506 110.6C392.126 108.313 389.14 107.17 385.546 107.17ZM26.32 179C32.5733 179 37.4733 180.493 41.02 183.48C44.5667 186.467 46.34 190.573 46.34 195.8C46.34 201.027 44.5667 205.133 41.02 208.12C37.4733 211.06 32.5733 212.53 26.32 212.53H13.16V228H7.98V179H26.32ZM26.18 207.98C31.0333 207.98 34.7433 206.93 37.31 204.83C39.8767 202.683 41.16 199.673 41.16 195.8C41.16 191.833 39.8767 188.8 37.31 186.7C34.7433 184.553 31.0333 183.48 26.18 183.48H13.16V207.98H26.18ZM69.9355 228.35C66.3888 228.35 63.1921 227.557 60.3455 225.97C57.4988 224.337 55.2588 222.097 53.6255 219.25C51.9921 216.403 51.1755 213.183 51.1755 209.59C51.1755 205.997 51.9921 202.777 53.6255 199.93C55.2588 197.083 57.4988 194.867 60.3455 193.28C63.1921 191.693 66.3888 190.9 69.9355 190.9C73.4821 190.9 76.6788 191.693 79.5255 193.28C82.3721 194.867 84.5888 197.083 86.1755 199.93C87.8088 202.777 88.6255 205.997 88.6255 209.59C88.6255 213.183 87.8088 216.403 86.1755 219.25C84.5888 222.097 82.3721 224.337 79.5255 225.97C76.6788 227.557 73.4821 228.35 69.9355 228.35ZM69.9355 223.94C72.5488 223.94 74.8821 223.357 76.9355 222.19C79.0355 220.977 80.6688 219.273 81.8355 217.08C83.0021 214.887 83.5855 212.39 83.5855 209.59C83.5855 206.79 83.0021 204.293 81.8355 202.1C80.6688 199.907 79.0355 198.227 76.9355 197.06C74.8821 195.847 72.5488 195.24 69.9355 195.24C67.3221 195.24 64.9655 195.847 62.8655 197.06C60.8121 198.227 59.1788 199.907 57.9655 202.1C56.7988 204.293 56.2155 206.79 56.2155 209.59C56.2155 212.39 56.7988 214.887 57.9655 217.08C59.1788 219.273 60.8121 220.977 62.8655 222.19C64.9655 223.357 67.3221 223.94 69.9355 223.94ZM102.132 198.39C103.299 195.917 105.026 194.05 107.312 192.79C109.646 191.53 112.516 190.9 115.922 190.9V195.73L114.732 195.66C110.859 195.66 107.826 196.85 105.632 199.23C103.439 201.61 102.342 204.947 102.342 209.24V228H97.3722V191.18H102.132V198.39ZM144.483 225.76C143.55 226.6 142.383 227.253 140.983 227.72C139.63 228.14 138.207 228.35 136.713 228.35C133.26 228.35 130.6 227.417 128.733 225.55C126.867 223.683 125.933 221.047 125.933 217.64V195.38H119.353V191.18H125.933V183.13H130.903V191.18H142.103V195.38H130.903V217.36C130.903 219.553 131.44 221.233 132.513 222.4C133.633 223.52 135.22 224.08 137.273 224.08C138.3 224.08 139.28 223.917 140.213 223.59C141.193 223.263 142.033 222.797 142.733 222.19L144.483 225.76ZM165.011 190.9C169.817 190.9 173.504 192.113 176.071 194.54C178.637 196.92 179.921 200.467 179.921 205.18V228H175.161V222.26C174.041 224.173 172.384 225.667 170.191 226.74C168.044 227.813 165.477 228.35 162.491 228.35C158.384 228.35 155.117 227.37 152.691 225.41C150.264 223.45 149.051 220.86 149.051 217.64C149.051 214.513 150.171 211.993 152.411 210.08C154.697 208.167 158.314 207.21 163.261 207.21H174.951V204.97C174.951 201.797 174.064 199.393 172.291 197.76C170.517 196.08 167.927 195.24 164.521 195.24C162.187 195.24 159.947 195.637 157.801 196.43C155.654 197.177 153.811 198.227 152.271 199.58L150.031 195.87C151.897 194.283 154.137 193.07 156.751 192.23C159.364 191.343 162.117 190.9 165.011 190.9ZM163.261 224.43C166.061 224.43 168.464 223.8 170.471 222.54C172.477 221.233 173.971 219.367 174.951 216.94V210.92H163.401C157.101 210.92 153.951 213.113 153.951 217.5C153.951 219.647 154.767 221.35 156.401 222.61C158.034 223.823 160.321 224.43 163.261 224.43ZM192.02 176.06H196.99V228H192.02V176.06Z" fill="url(#paint0_linear)" fill-opacity="0.65"/>
<defs>
<linearGradient id="paint0_linear" x1="741.224" y1="311.628" x2="328.004" y2="-332.889" gradientUnits="userSpaceOnUse">
<stop stop-color="#652C90"/>
<stop offset="0.458333" stop-color="#91268F"/>
<stop offset="1" stop-color="#D91B5B"/>
</linearGradient>
</defs>
</svg>
