<svg width="541" height="41" viewBox="0 0 541 41" fill="none" xmlns="http://www.w3.org/2000/svg">
<path d="M19.67 40.495C15.8567 40.495 12.52 39.6883 9.66 38.075C6.8 36.4617 4.6 34.1517 3.06 31.145C1.52 28.1383 0.75 24.6183 0.75 20.585C0.75 16.5517 1.52 13.05 3.06 10.08C4.6 7.07333 6.8 4.76333 9.66 3.15C12.52 1.53666 15.8567 0.729997 19.67 0.729997C24.4733 0.729997 28.6167 2.05 32.1 4.69C32.65 5.13 33.035 5.57 33.255 6.01C33.475 6.45 33.585 7 33.585 7.66C33.585 8.61333 33.31 9.43833 32.76 10.135C32.2467 10.795 31.605 11.125 30.835 11.125C30.3217 11.125 29.8633 11.07 29.46 10.96C29.0933 10.8133 28.6717 10.575 28.195 10.245C26.7283 9.29167 25.3717 8.61333 24.125 8.21C22.8783 7.77 21.54 7.55 20.11 7.55C16.59 7.55 13.9317 8.65 12.135 10.85C10.375 13.0133 9.495 16.2583 9.495 20.585C9.495 29.3117 13.0333 33.675 20.11 33.675C21.4667 33.675 22.75 33.4733 23.96 33.07C25.17 32.63 26.5817 31.9333 28.195 30.98C28.745 30.65 29.2033 30.43 29.57 30.32C29.9367 30.1733 30.3583 30.1 30.835 30.1C31.605 30.1 32.2467 30.4483 32.76 31.145C33.31 31.805 33.585 32.6117 33.585 33.565C33.585 34.225 33.4567 34.7933 33.2 35.27C32.98 35.71 32.6133 36.1317 32.1 36.535C28.6167 39.175 24.4733 40.495 19.67 40.495ZM67.1397 40.495C63.2897 40.495 59.9347 39.6883 57.0747 38.075C54.2514 36.425 52.0697 34.115 50.5297 31.145C48.9897 28.1383 48.2197 24.6183 48.2197 20.585C48.2197 16.5517 48.9897 13.05 50.5297 10.08C52.0697 7.07333 54.2514 4.76333 57.0747 3.15C59.9347 1.53666 63.2897 0.729997 67.1397 0.729997C70.9897 0.729997 74.3264 1.53666 77.1497 3.15C80.0097 4.76333 82.2097 7.07333 83.7497 10.08C85.2897 13.05 86.0597 16.5517 86.0597 20.585C86.0597 24.6183 85.2897 28.1383 83.7497 31.145C82.2097 34.115 80.0097 36.425 77.1497 38.075C74.3264 39.6883 70.9897 40.495 67.1397 40.495ZM67.1397 33.84C70.3664 33.84 72.8964 32.7033 74.7297 30.43C76.5997 28.1567 77.5347 24.875 77.5347 20.585C77.5347 16.295 76.6181 13.0317 74.7847 10.795C72.9514 8.52166 70.4031 7.385 67.1397 7.385C63.8764 7.385 61.3281 8.52166 59.4947 10.795C57.6981 13.0317 56.7997 16.295 56.7997 20.585C56.7997 24.875 57.7164 28.1567 59.5497 30.43C61.3831 32.7033 63.9131 33.84 67.1397 33.84ZM133.201 0.949998C134.411 0.949998 135.382 1.35333 136.116 2.16C136.886 2.93 137.271 3.93833 137.271 5.185V36.04C137.271 37.3233 136.886 38.3683 136.116 39.175C135.382 39.945 134.411 40.33 133.201 40.33C131.881 40.33 130.817 39.8533 130.011 38.9L111.586 15.305V36.04C111.586 37.3233 111.219 38.3683 110.486 39.175C109.789 39.945 108.836 40.33 107.626 40.33C106.416 40.33 105.444 39.945 104.711 39.175C103.977 38.3683 103.611 37.3233 103.611 36.04V5.185C103.611 3.93833 103.977 2.93 104.711 2.16C105.481 1.35333 106.471 0.949998 107.681 0.949998C109.037 0.949998 110.082 1.42666 110.816 2.38L129.241 25.81V5.185C129.241 3.93833 129.607 2.93 130.341 2.16C131.074 1.35333 132.027 0.949998 133.201 0.949998ZM160.258 40.33C158.975 40.33 157.93 39.945 157.123 39.175C156.353 38.3683 155.968 37.3233 155.968 36.04V5.24C155.968 3.95666 156.316 2.96666 157.013 2.27C157.71 1.57333 158.7 1.225 159.983 1.225H178.903C180.296 1.225 181.323 1.5 181.983 2.05C182.643 2.6 182.973 3.46167 182.973 4.635C182.973 5.77166 182.643 6.615 181.983 7.165C181.323 7.715 180.296 7.99 178.903 7.99H164.438V16.9H177.803C179.196 16.9 180.223 17.175 180.883 17.725C181.543 18.275 181.873 19.1367 181.873 20.31C181.873 21.4467 181.543 22.29 180.883 22.84C180.223 23.39 179.196 23.665 177.803 23.665H164.438V36.04C164.438 37.36 164.053 38.405 163.283 39.175C162.55 39.945 161.541 40.33 160.258 40.33ZM202.733 40.33C201.413 40.33 200.368 39.945 199.598 39.175C198.828 38.405 198.443 37.36 198.443 36.04V5.185C198.443 3.90166 198.828 2.875 199.598 2.105C200.368 1.335 201.413 0.949998 202.733 0.949998C204.053 0.949998 205.098 1.335 205.868 2.105C206.638 2.875 207.023 3.90166 207.023 5.185V36.04C207.023 37.36 206.638 38.405 205.868 39.175C205.098 39.945 204.053 40.33 202.733 40.33ZM257.507 34.555C258.057 35.3617 258.332 36.15 258.332 36.92C258.332 37.9467 257.911 38.79 257.067 39.45C256.261 40.11 255.307 40.44 254.207 40.44C253.511 40.44 252.832 40.275 252.172 39.945C251.512 39.615 250.962 39.1017 250.522 38.405L243.262 27.625C242.639 26.6717 241.979 25.9933 241.282 25.59C240.586 25.15 239.706 24.93 238.642 24.93H234.187V36.04C234.187 37.36 233.802 38.405 233.032 39.175C232.299 39.945 231.291 40.33 230.007 40.33C228.687 40.33 227.642 39.945 226.872 39.175C226.102 38.405 225.717 37.36 225.717 36.04V5.24C225.717 3.95666 226.066 2.96666 226.762 2.27C227.459 1.57333 228.449 1.225 229.732 1.225H243.537C248.084 1.225 251.512 2.23333 253.822 4.25C256.169 6.23 257.342 9.10833 257.342 12.885C257.342 15.855 256.517 18.33 254.867 20.31C253.217 22.29 250.889 23.5917 247.882 24.215C248.982 24.435 249.954 24.875 250.797 25.535C251.677 26.1583 252.521 27.075 253.327 28.285L257.507 34.555ZM242.272 18.44C244.729 18.44 246.507 18.0183 247.607 17.175C248.707 16.295 249.257 14.9383 249.257 13.105C249.257 11.235 248.707 9.87833 247.607 9.035C246.507 8.19167 244.729 7.77 242.272 7.77H234.077V18.44H242.272ZM309.712 0.949998C310.922 0.949998 311.893 1.35333 312.627 2.16C313.397 2.93 313.782 3.93833 313.782 5.185V36.425C313.782 37.635 313.433 38.5883 312.737 39.285C312.04 39.9817 311.123 40.33 309.987 40.33C308.887 40.33 307.988 39.9817 307.292 39.285C306.595 38.5883 306.247 37.635 306.247 36.425V17.01L298.437 31.695C297.923 32.6483 297.355 33.345 296.732 33.785C296.145 34.225 295.43 34.445 294.587 34.445C293.78 34.445 293.065 34.225 292.442 33.785C291.818 33.345 291.25 32.6483 290.737 31.695L282.927 17.285V36.425C282.927 37.5983 282.578 38.5517 281.882 39.285C281.185 39.9817 280.268 40.33 279.132 40.33C278.032 40.33 277.133 39.9817 276.437 39.285C275.74 38.5883 275.392 37.635 275.392 36.425V5.185C275.392 3.93833 275.758 2.93 276.492 2.16C277.262 1.35333 278.252 0.949998 279.462 0.949998C281.222 0.949998 282.56 1.885 283.477 3.755L294.642 24.93L305.752 3.755C306.742 1.885 308.062 0.949998 309.712 0.949998ZM368.715 34.775C369.009 35.435 369.155 36.0217 369.155 36.535C369.155 37.5617 368.734 38.4417 367.89 39.175C367.084 39.8717 366.149 40.22 365.085 40.22C364.389 40.22 363.729 40.0367 363.105 39.67C362.482 39.2667 362.005 38.68 361.675 37.91L358.76 31.42H340.115L337.2 37.91C336.87 38.68 336.394 39.2667 335.77 39.67C335.184 40.0367 334.524 40.22 333.79 40.22C332.727 40.22 331.774 39.8717 330.93 39.175C330.087 38.4417 329.665 37.5617 329.665 36.535C329.665 36.0217 329.812 35.435 330.105 34.775L344.955 3.59C345.359 2.71 345.964 2.05 346.77 1.61C347.577 1.13333 348.439 0.894999 349.355 0.894999C350.309 0.894999 351.189 1.13333 351.995 1.61C352.802 2.08666 353.425 2.74666 353.865 3.59L368.715 34.775ZM343.03 24.93H355.845L349.465 10.63L343.03 24.93ZM393.198 40.275C391.914 40.275 390.869 39.89 390.063 39.12C389.293 38.35 388.908 37.3233 388.908 36.04V8.21H379.998C377.284 8.21 375.928 7.03667 375.928 4.69C375.928 2.38 377.284 1.225 379.998 1.225H406.398C409.111 1.225 410.468 2.38 410.468 4.69C410.468 7.03667 409.111 8.21 406.398 8.21H397.488V36.04C397.488 37.3233 397.103 38.35 396.333 39.12C395.563 39.89 394.518 40.275 393.198 40.275ZM429.447 40.33C428.127 40.33 427.082 39.945 426.312 39.175C425.542 38.405 425.157 37.36 425.157 36.04V5.185C425.157 3.90166 425.542 2.875 426.312 2.105C427.082 1.335 428.127 0.949998 429.447 0.949998C430.767 0.949998 431.812 1.335 432.582 2.105C433.352 2.875 433.737 3.90166 433.737 5.185V36.04C433.737 37.36 433.352 38.405 432.582 39.175C431.812 39.945 430.767 40.33 429.447 40.33ZM470.251 40.495C466.401 40.495 463.046 39.6883 460.186 38.075C457.363 36.425 455.181 34.115 453.641 31.145C452.101 28.1383 451.331 24.6183 451.331 20.585C451.331 16.5517 452.101 13.05 453.641 10.08C455.181 7.07333 457.363 4.76333 460.186 3.15C463.046 1.53666 466.401 0.729997 470.251 0.729997C474.101 0.729997 477.438 1.53666 480.261 3.15C483.121 4.76333 485.321 7.07333 486.861 10.08C488.401 13.05 489.171 16.5517 489.171 20.585C489.171 24.6183 488.401 28.1383 486.861 31.145C485.321 34.115 483.121 36.425 480.261 38.075C477.438 39.6883 474.101 40.495 470.251 40.495ZM470.251 33.84C473.478 33.84 476.008 32.7033 477.841 30.43C479.711 28.1567 480.646 24.875 480.646 20.585C480.646 16.295 479.729 13.0317 477.896 10.795C476.063 8.52166 473.514 7.385 470.251 7.385C466.988 7.385 464.439 8.52166 462.606 10.795C460.809 13.0317 459.911 16.295 459.911 20.585C459.911 24.875 460.828 28.1567 462.661 30.43C464.494 32.7033 467.024 33.84 470.251 33.84ZM536.312 0.949998C537.522 0.949998 538.494 1.35333 539.227 2.16C539.997 2.93 540.382 3.93833 540.382 5.185V36.04C540.382 37.3233 539.997 38.3683 539.227 39.175C538.494 39.945 537.522 40.33 536.312 40.33C534.992 40.33 533.929 39.8533 533.122 38.9L514.697 15.305V36.04C514.697 37.3233 514.33 38.3683 513.597 39.175C512.9 39.945 511.947 40.33 510.737 40.33C509.527 40.33 508.555 39.945 507.822 39.175C507.089 38.3683 506.722 37.3233 506.722 36.04V5.185C506.722 3.93833 507.089 2.93 507.822 2.16C508.592 1.35333 509.582 0.949998 510.792 0.949998C512.149 0.949998 513.194 1.42666 513.927 2.38L532.352 25.81V5.185C532.352 3.93833 532.719 2.93 533.452 2.16C534.185 1.35333 535.139 0.949998 536.312 0.949998Z" fill="url(#paint0_linear)" fill-opacity="0.54"/>
<defs>
<linearGradient id="paint0_linear" x1="631.515" y1="63.5154" x2="602.396" y2="-122.105" gradientUnits="userSpaceOnUse">
<stop stop-color="#652C90"/>
<stop offset="0.458333" stop-color="#91268F"/>
<stop offset="1" stop-color="#D91B5B"/>
</linearGradient>
</defs>
</svg>
