<svg width="218" height="17" viewBox="0 0 218 17" fill="none" xmlns="http://www.w3.org/2000/svg">
<path d="M8.18939 16.1246C6.65737 16.1246 5.31686 15.8006 4.16784 15.1524C3.01883 14.5042 2.13497 13.5762 1.51627 12.3683C0.89757 11.1603 0.58822 9.74615 0.58822 8.12574C0.58822 6.50534 0.89757 5.09853 1.51627 3.90532C2.13497 2.69739 3.01883 1.76934 4.16784 1.12117C5.31686 0.473012 6.65737 0.148931 8.18939 0.148931C10.1191 0.148931 11.7837 0.679245 13.1832 1.73987C13.4041 1.91664 13.5588 2.09342 13.6472 2.27019C13.7356 2.44696 13.7798 2.66792 13.7798 2.93308C13.7798 3.31609 13.6693 3.64753 13.4483 3.92742C13.2421 4.19258 12.9843 4.32516 12.675 4.32516C12.4687 4.32516 12.2846 4.30306 12.1226 4.25887C11.9752 4.19994 11.8058 4.10419 11.6143 3.97161C11.0251 3.58861 10.4801 3.31609 9.9792 3.15405C9.47835 2.97727 8.94067 2.88889 8.36616 2.88889C6.95199 2.88889 5.884 3.33082 5.16218 4.21467C4.45509 5.0838 4.10155 6.38749 4.10155 8.12574C4.10155 11.6317 5.52309 13.3847 8.36616 13.3847C8.91121 13.3847 9.42679 13.3037 9.91291 13.1416C10.399 12.9649 10.9662 12.685 11.6143 12.302C11.8353 12.1694 12.0194 12.081 12.1667 12.0368C12.3141 11.9779 12.4835 11.9484 12.675 11.9484C12.9843 11.9484 13.2421 12.0884 13.4483 12.3683C13.6693 12.6334 13.7798 12.9575 13.7798 13.3405C13.7798 13.6057 13.7282 13.834 13.6251 14.0255C13.5367 14.2023 13.3894 14.3717 13.1832 14.5337C11.7837 15.5943 10.1191 16.1246 8.18939 16.1246ZM27.2605 16.1246C25.7138 16.1246 24.3659 15.8006 23.2169 15.1524C22.0826 14.4895 21.2061 13.5615 20.5874 12.3683C19.9687 11.1603 19.6593 9.74615 19.6593 8.12574C19.6593 6.50534 19.9687 5.09853 20.5874 3.90532C21.2061 2.69739 22.0826 1.76934 23.2169 1.12117C24.3659 0.473012 25.7138 0.148931 27.2605 0.148931C28.8073 0.148931 30.1478 0.473012 31.2821 1.12117C32.4311 1.76934 33.3149 2.69739 33.9336 3.90532C34.5523 5.09853 34.8617 6.50534 34.8617 8.12574C34.8617 9.74615 34.5523 11.1603 33.9336 12.3683C33.3149 13.5615 32.4311 14.4895 31.2821 15.1524C30.1478 15.8006 28.8073 16.1246 27.2605 16.1246ZM27.2605 13.451C28.5568 13.451 29.5733 12.9943 30.3098 12.081C31.0611 11.1677 31.4367 9.84926 31.4367 8.12574C31.4367 6.40222 31.0685 5.09117 30.3319 4.19258C29.5954 3.27926 28.5716 2.8226 27.2605 2.8226C25.9495 2.8226 24.9257 3.27926 24.1891 4.19258C23.4673 5.09117 23.1064 6.40222 23.1064 8.12574C23.1064 9.84926 23.4747 11.1677 24.2112 12.081C24.9477 12.9943 25.9642 13.451 27.2605 13.451ZM53.8007 0.237317C54.2869 0.237317 54.6772 0.399357 54.9718 0.723438C55.2812 1.03279 55.4359 1.43789 55.4359 1.93874V14.3348C55.4359 14.8504 55.2812 15.2703 54.9718 15.5943C54.6772 15.9037 54.2869 16.0584 53.8007 16.0584C53.2704 16.0584 52.8432 15.8669 52.5191 15.4839L45.1168 6.00448V14.3348C45.1168 14.8504 44.9695 15.2703 44.6749 15.5943C44.395 15.9037 44.012 16.0584 43.5259 16.0584C43.0398 16.0584 42.6494 15.9037 42.3548 15.5943C42.0602 15.2703 41.9129 14.8504 41.9129 14.3348V1.93874C41.9129 1.43789 42.0602 1.03279 42.3548 0.723438C42.6641 0.399357 43.0619 0.237317 43.548 0.237317C44.093 0.237317 44.5129 0.428819 44.8075 0.811824L52.2098 10.2249V1.93874C52.2098 1.43789 52.3571 1.03279 52.6517 0.723438C52.9463 0.399357 53.3293 0.237317 53.8007 0.237317ZM64.6711 16.0584C64.1556 16.0584 63.7357 15.9037 63.4116 15.5943C63.1023 15.2703 62.9476 14.8504 62.9476 14.3348V1.96084C62.9476 1.44525 63.0876 1.04752 63.3675 0.767631C63.6473 0.487743 64.0451 0.347799 64.5607 0.347799H72.1618C72.7216 0.347799 73.1341 0.458281 73.3992 0.679245C73.6644 0.90021 73.797 1.24639 73.797 1.71778C73.797 2.17444 73.6644 2.51325 73.3992 2.73421C73.1341 2.95518 72.7216 3.06566 72.1618 3.06566H66.3505V6.64528H71.7199C72.2797 6.64528 72.6921 6.75576 72.9573 6.97673C73.2225 7.19769 73.355 7.54387 73.355 8.01526C73.355 8.47192 73.2225 8.81073 72.9573 9.0317C72.6921 9.25266 72.2797 9.36314 71.7199 9.36314H66.3505V14.3348C66.3505 14.8652 66.1958 15.285 65.8864 15.5943C65.5918 15.9037 65.1867 16.0584 64.6711 16.0584ZM81.7355 16.0584C81.2051 16.0584 80.7853 15.9037 80.476 15.5943C80.1666 15.285 80.0119 14.8652 80.0119 14.3348V1.93874C80.0119 1.42316 80.1666 1.01069 80.476 0.701342C80.7853 0.391992 81.2051 0.237317 81.7355 0.237317C82.2658 0.237317 82.6856 0.391992 82.9949 0.701342C83.3043 1.01069 83.459 1.42316 83.459 1.93874V14.3348C83.459 14.8652 83.3043 15.285 82.9949 15.5943C82.6856 15.9037 82.2658 16.0584 81.7355 16.0584ZM103.741 13.7382C103.962 14.0623 104.073 14.379 104.073 14.6884C104.073 15.1008 103.903 15.4397 103.564 15.7048C103.24 15.97 102.857 16.1026 102.415 16.1026C102.136 16.1026 101.863 16.0363 101.598 15.9037C101.333 15.7711 101.112 15.5649 100.935 15.285L98.0183 10.9541C97.7679 10.5711 97.5027 10.2986 97.2228 10.1365C96.9429 9.95975 96.5894 9.87136 96.1622 9.87136H94.3724V14.3348C94.3724 14.8652 94.2177 15.285 93.9083 15.5943C93.6137 15.9037 93.2086 16.0584 92.693 16.0584C92.1627 16.0584 91.7429 15.9037 91.4335 15.5943C91.1242 15.285 90.9695 14.8652 90.9695 14.3348V1.96084C90.9695 1.44525 91.1095 1.04752 91.3893 0.767631C91.6692 0.487743 92.067 0.347799 92.5826 0.347799H98.1288C99.9554 0.347799 101.333 0.7529 102.261 1.5631C103.204 2.35857 103.675 3.51495 103.675 5.03224C103.675 6.22545 103.344 7.21979 102.681 8.01526C102.018 8.81073 101.082 9.33368 99.8744 9.58411C100.316 9.67249 100.707 9.84926 101.045 10.1144C101.399 10.3648 101.738 10.7331 102.062 11.2192L103.741 13.7382ZM97.6205 7.26398C98.6075 7.26398 99.322 7.09458 99.7639 6.75576C100.206 6.40222 100.427 5.85718 100.427 5.12063C100.427 4.36935 100.206 3.8243 99.7639 3.48549C99.322 3.14668 98.6075 2.97727 97.6205 2.97727H94.3282V7.26398H97.6205ZM124.715 0.237317C125.201 0.237317 125.591 0.399357 125.886 0.723438C126.195 1.03279 126.35 1.43789 126.35 1.93874V14.4895C126.35 14.9756 126.21 15.3586 125.93 15.6385C125.65 15.9184 125.282 16.0584 124.825 16.0584C124.383 16.0584 124.022 15.9184 123.742 15.6385C123.462 15.3586 123.322 14.9756 123.322 14.4895V6.68947L120.185 12.5892C119.979 12.9722 119.75 13.2521 119.5 13.4289C119.264 13.6057 118.977 13.694 118.638 13.694C118.314 13.694 118.027 13.6057 117.776 13.4289C117.526 13.2521 117.298 12.9722 117.091 12.5892L113.954 6.79996V14.4895C113.954 14.9609 113.814 15.3439 113.534 15.6385C113.254 15.9184 112.886 16.0584 112.429 16.0584C111.987 16.0584 111.626 15.9184 111.346 15.6385C111.066 15.3586 110.926 14.9756 110.926 14.4895V1.93874C110.926 1.43789 111.074 1.03279 111.368 0.723438C111.678 0.399357 112.075 0.237317 112.562 0.237317C113.269 0.237317 113.806 0.612956 114.175 1.36423L118.66 9.87136L123.124 1.36423C123.521 0.612956 124.052 0.237317 124.715 0.237317ZM148.42 13.8266C148.537 14.0918 148.596 14.3275 148.596 14.5337C148.596 14.9462 148.427 15.2997 148.088 15.5943C147.764 15.8742 147.388 16.0142 146.961 16.0142C146.681 16.0142 146.416 15.9405 146.166 15.7932C145.915 15.6312 145.724 15.3955 145.591 15.0861L144.42 12.4787H136.929L135.758 15.0861C135.626 15.3955 135.434 15.6312 135.184 15.7932C134.948 15.9405 134.683 16.0142 134.388 16.0142C133.961 16.0142 133.578 15.8742 133.239 15.5943C132.9 15.2997 132.731 14.9462 132.731 14.5337C132.731 14.3275 132.79 14.0918 132.908 13.8266L138.874 1.29794C139.036 0.944402 139.279 0.679245 139.603 0.502474C139.927 0.310972 140.273 0.21522 140.642 0.21522C141.025 0.21522 141.378 0.310972 141.702 0.502474C142.026 0.693976 142.277 0.959133 142.454 1.29794L148.42 13.8266ZM138.101 9.87136H143.249L140.686 4.12629L138.101 9.87136ZM158.255 16.0363C157.74 16.0363 157.32 15.8816 156.996 15.5722C156.687 15.2629 156.532 14.8504 156.532 14.3348V3.15405H152.952C151.862 3.15405 151.317 2.68266 151.317 1.73987C151.317 0.811824 151.862 0.347799 152.952 0.347799H163.559C164.649 0.347799 165.194 0.811824 165.194 1.73987C165.194 2.68266 164.649 3.15405 163.559 3.15405H159.979V14.3348C159.979 14.8504 159.824 15.2629 159.515 15.5722C159.206 15.8816 158.786 16.0363 158.255 16.0363ZM172.818 16.0584C172.288 16.0584 171.868 15.9037 171.559 15.5943C171.25 15.285 171.095 14.8652 171.095 14.3348V1.93874C171.095 1.42316 171.25 1.01069 171.559 0.701342C171.868 0.391992 172.288 0.237317 172.818 0.237317C173.349 0.237317 173.769 0.391992 174.078 0.701342C174.387 1.01069 174.542 1.42316 174.542 1.93874V14.3348C174.542 14.8652 174.387 15.285 174.078 15.5943C173.769 15.9037 173.349 16.0584 172.818 16.0584ZM189.212 16.1246C187.665 16.1246 186.317 15.8006 185.168 15.1524C184.034 14.4895 183.157 13.5615 182.539 12.3683C181.92 11.1603 181.611 9.74615 181.611 8.12574C181.611 6.50534 181.92 5.09853 182.539 3.90532C183.157 2.69739 184.034 1.76934 185.168 1.12117C186.317 0.473012 187.665 0.148931 189.212 0.148931C190.759 0.148931 192.099 0.473012 193.233 1.12117C194.382 1.76934 195.266 2.69739 195.885 3.90532C196.504 5.09853 196.813 6.50534 196.813 8.12574C196.813 9.74615 196.504 11.1603 195.885 12.3683C195.266 13.5615 194.382 14.4895 193.233 15.1524C192.099 15.8006 190.759 16.1246 189.212 16.1246ZM189.212 13.451C190.508 13.451 191.525 12.9943 192.261 12.081C193.012 11.1677 193.388 9.84926 193.388 8.12574C193.388 6.40222 193.02 5.09117 192.283 4.19258C191.547 3.27926 190.523 2.8226 189.212 2.8226C187.901 2.8226 186.877 3.27926 186.14 4.19258C185.419 5.09117 185.058 6.40222 185.058 8.12574C185.058 9.84926 185.426 11.1677 186.162 12.081C186.899 12.9943 187.915 13.451 189.212 13.451ZM215.752 0.237317C216.238 0.237317 216.629 0.399357 216.923 0.723438C217.232 1.03279 217.387 1.43789 217.387 1.93874V14.3348C217.387 14.8504 217.232 15.2703 216.923 15.5943C216.629 15.9037 216.238 16.0584 215.752 16.0584C215.222 16.0584 214.794 15.8669 214.47 15.4839L207.068 6.00448V14.3348C207.068 14.8504 206.921 15.2703 206.626 15.5943C206.346 15.9037 205.963 16.0584 205.477 16.0584C204.991 16.0584 204.601 15.9037 204.306 15.5943C204.011 15.2703 203.864 14.8504 203.864 14.3348V1.93874C203.864 1.43789 204.011 1.03279 204.306 0.723438C204.615 0.399357 205.013 0.237317 205.499 0.237317C206.044 0.237317 206.464 0.428819 206.759 0.811824L214.161 10.2249V1.93874C214.161 1.43789 214.308 1.03279 214.603 0.723438C214.898 0.399357 215.281 0.237317 215.752 0.237317Z" fill="url(#paint0_linear)" fill-opacity="0.54"/>
<defs>
<linearGradient id="paint0_linear" x1="255.396" y1="22.6839" x2="241.849" y2="-57.6352" gradientUnits="userSpaceOnUse">
<stop stop-color="#652C90"/>
<stop offset="0.458333" stop-color="#91268F"/>
<stop offset="1" stop-color="#D91B5B"/>
</linearGradient>
</defs>
</svg>
