<svg width="364" height="28" viewBox="0 0 364 28" fill="none" xmlns="http://www.w3.org/2000/svg">
<path d="M13.578 27.333C11.0127 27.333 8.768 26.7903 6.844 25.705C4.92 24.6197 3.44 23.0657 2.404 21.043C1.368 19.0203 0.85 16.6523 0.85 13.939C0.85 11.2257 1.368 8.87 2.404 6.872C3.44 4.84933 4.92 3.29533 6.844 2.21C8.768 1.12467 11.0127 0.581998 13.578 0.581998C16.8093 0.581998 19.5967 1.47 21.94 3.246C22.31 3.542 22.569 3.838 22.717 4.134C22.865 4.43 22.939 4.8 22.939 5.244C22.939 5.88533 22.754 6.44033 22.384 6.909C22.0387 7.353 21.607 7.575 21.089 7.575C20.7437 7.575 20.4353 7.538 20.164 7.464C19.9173 7.36533 19.6337 7.205 19.313 6.983C18.3263 6.34167 17.4137 5.88533 16.575 5.614C15.7363 5.318 14.836 5.17 13.874 5.17C11.506 5.17 9.71767 5.91 8.509 7.39C7.325 8.84533 6.733 11.0283 6.733 13.939C6.733 19.8097 9.11333 22.745 13.874 22.745C14.7867 22.745 15.65 22.6093 16.464 22.338C17.278 22.042 18.2277 21.5733 19.313 20.932C19.683 20.71 19.9913 20.562 20.238 20.488C20.4847 20.3893 20.7683 20.34 21.089 20.34C21.607 20.34 22.0387 20.5743 22.384 21.043C22.754 21.487 22.939 22.0297 22.939 22.671C22.939 23.115 22.8527 23.4973 22.68 23.818C22.532 24.114 22.2853 24.3977 21.94 24.669C19.5967 26.445 16.8093 27.333 13.578 27.333ZM45.5122 27.333C42.9222 27.333 40.6652 26.7903 38.7412 25.705C36.8418 24.595 35.3742 23.041 34.3382 21.043C33.3022 19.0203 32.7842 16.6523 32.7842 13.939C32.7842 11.2257 33.3022 8.87 34.3382 6.872C35.3742 4.84933 36.8418 3.29533 38.7412 2.21C40.6652 1.12467 42.9222 0.581998 45.5122 0.581998C48.1022 0.581998 50.3468 1.12467 52.2462 2.21C54.1702 3.29533 55.6502 4.84933 56.6862 6.872C57.7222 8.87 58.2402 11.2257 58.2402 13.939C58.2402 16.6523 57.7222 19.0203 56.6862 21.043C55.6502 23.041 54.1702 24.595 52.2462 25.705C50.3468 26.7903 48.1022 27.333 45.5122 27.333ZM45.5122 22.856C47.6828 22.856 49.3848 22.0913 50.6182 20.562C51.8762 19.0327 52.5052 16.825 52.5052 13.939C52.5052 11.053 51.8885 8.85767 50.6552 7.353C49.4218 5.82367 47.7075 5.059 45.5122 5.059C43.3168 5.059 41.6025 5.82367 40.3692 7.353C39.1605 8.85767 38.5562 11.053 38.5562 13.939C38.5562 16.825 39.1728 19.0327 40.4062 20.562C41.6395 22.0913 43.3415 22.856 45.5122 22.856ZM89.9532 0.729999C90.7672 0.729999 91.4209 1.00133 91.9142 1.544C92.4322 2.062 92.6912 2.74033 92.6912 3.579V24.336C92.6912 25.1993 92.4322 25.9023 91.9142 26.445C91.4209 26.963 90.7672 27.222 89.9532 27.222C89.0652 27.222 88.3499 26.9013 87.8072 26.26L75.4122 10.387V24.336C75.4122 25.1993 75.1656 25.9023 74.6722 26.445C74.2036 26.963 73.5622 27.222 72.7482 27.222C71.9342 27.222 71.2806 26.963 70.7872 26.445C70.2939 25.9023 70.0472 25.1993 70.0472 24.336V3.579C70.0472 2.74033 70.2939 2.062 70.7872 1.544C71.3052 1.00133 71.9712 0.729999 72.7852 0.729999C73.6979 0.729999 74.4009 1.05067 74.8942 1.692L87.2892 17.454V3.579C87.2892 2.74033 87.5359 2.062 88.0292 1.544C88.5226 1.00133 89.1639 0.729999 89.9532 0.729999ZM108.155 27.222C107.292 27.222 106.589 26.963 106.046 26.445C105.528 25.9023 105.269 25.1993 105.269 24.336V3.616C105.269 2.75266 105.504 2.08666 105.972 1.618C106.441 1.14933 107.107 0.914998 107.97 0.914998H120.698C121.636 0.914998 122.326 1.1 122.77 1.47C123.214 1.84 123.436 2.41967 123.436 3.209C123.436 3.97367 123.214 4.541 122.77 4.911C122.326 5.281 121.636 5.466 120.698 5.466H110.967V11.46H119.958C120.896 11.46 121.586 11.645 122.03 12.015C122.474 12.385 122.696 12.9647 122.696 13.754C122.696 14.5187 122.474 15.086 122.03 15.456C121.586 15.826 120.896 16.011 119.958 16.011H110.967V24.336C110.967 25.224 110.708 25.927 110.19 26.445C109.697 26.963 109.019 27.222 108.155 27.222ZM136.729 27.222C135.841 27.222 135.138 26.963 134.62 26.445C134.102 25.927 133.843 25.224 133.843 24.336V3.579C133.843 2.71567 134.102 2.025 134.62 1.507C135.138 0.988999 135.841 0.729999 136.729 0.729999C137.617 0.729999 138.32 0.988999 138.838 1.507C139.356 2.025 139.615 2.71567 139.615 3.579V24.336C139.615 25.224 139.356 25.927 138.838 26.445C138.32 26.963 137.617 27.222 136.729 27.222ZM173.578 23.337C173.948 23.8797 174.133 24.41 174.133 24.928C174.133 25.6187 173.849 26.186 173.282 26.63C172.739 27.074 172.098 27.296 171.358 27.296C170.889 27.296 170.433 27.185 169.989 26.963C169.545 26.741 169.175 26.3957 168.879 25.927L163.995 18.675C163.575 18.0337 163.131 17.5773 162.663 17.306C162.194 17.01 161.602 16.862 160.887 16.862H157.89V24.336C157.89 25.224 157.631 25.927 157.113 26.445C156.619 26.963 155.941 27.222 155.078 27.222C154.19 27.222 153.487 26.963 152.969 26.445C152.451 25.927 152.192 25.224 152.192 24.336V3.616C152.192 2.75266 152.426 2.08666 152.895 1.618C153.363 1.14933 154.029 0.914998 154.893 0.914998H164.18C167.238 0.914998 169.545 1.59333 171.099 2.95C172.677 4.282 173.467 6.21833 173.467 8.759C173.467 10.757 172.912 12.422 171.802 13.754C170.692 15.086 169.125 15.9617 167.103 16.381C167.843 16.529 168.496 16.825 169.064 17.269C169.656 17.6883 170.223 18.305 170.766 19.119L173.578 23.337ZM163.329 12.496C164.981 12.496 166.178 12.2123 166.918 11.645C167.658 11.053 168.028 10.1403 168.028 8.907C168.028 7.649 167.658 6.73633 166.918 6.169C166.178 5.60167 164.981 5.318 163.329 5.318H157.816V12.496H163.329ZM208.697 0.729999C209.511 0.729999 210.165 1.00133 210.658 1.544C211.176 2.062 211.435 2.74033 211.435 3.579V24.595C211.435 25.409 211.201 26.0503 210.732 26.519C210.263 26.9877 209.647 27.222 208.882 27.222C208.142 27.222 207.538 26.9877 207.069 26.519C206.6 26.0503 206.366 25.409 206.366 24.595V11.534L201.112 21.413C200.767 22.0543 200.384 22.523 199.965 22.819C199.57 23.115 199.089 23.263 198.522 23.263C197.979 23.263 197.498 23.115 197.079 22.819C196.66 22.523 196.277 22.0543 195.932 21.413L190.678 11.719V24.595C190.678 25.3843 190.444 26.0257 189.975 26.519C189.506 26.9877 188.89 27.222 188.125 27.222C187.385 27.222 186.781 26.9877 186.312 26.519C185.843 26.0503 185.609 25.409 185.609 24.595V3.579C185.609 2.74033 185.856 2.062 186.349 1.544C186.867 1.00133 187.533 0.729999 188.347 0.729999C189.531 0.729999 190.431 1.359 191.048 2.617L198.559 16.862L206.033 2.617C206.699 1.359 207.587 0.729999 208.697 0.729999ZM248.39 23.485C248.588 23.929 248.686 24.3237 248.686 24.669C248.686 25.3597 248.403 25.9517 247.835 26.445C247.293 26.9137 246.664 27.148 245.948 27.148C245.48 27.148 245.036 27.0247 244.616 26.778C244.197 26.5067 243.876 26.112 243.654 25.594L241.693 21.228H229.15L227.189 25.594C226.967 26.112 226.647 26.5067 226.227 26.778C225.833 27.0247 225.389 27.148 224.895 27.148C224.18 27.148 223.539 26.9137 222.971 26.445C222.404 25.9517 222.12 25.3597 222.12 24.669C222.12 24.3237 222.219 23.929 222.416 23.485L232.406 2.506C232.678 1.914 233.085 1.47 233.627 1.174C234.17 0.853333 234.75 0.692999 235.366 0.692999C236.008 0.692999 236.6 0.853333 237.142 1.174C237.685 1.49466 238.104 1.93866 238.4 2.506L248.39 23.485ZM231.111 16.862H239.732L235.44 7.242L231.111 16.862ZM264.86 27.185C263.997 27.185 263.294 26.926 262.751 26.408C262.233 25.89 261.974 25.1993 261.974 24.336V5.614H255.98C254.155 5.614 253.242 4.82467 253.242 3.246C253.242 1.692 254.155 0.914998 255.98 0.914998H273.74C275.566 0.914998 276.478 1.692 276.478 3.246C276.478 4.82467 275.566 5.614 273.74 5.614H267.746V24.336C267.746 25.1993 267.487 25.89 266.969 26.408C266.451 26.926 265.748 27.185 264.86 27.185ZM289.246 27.222C288.358 27.222 287.655 26.963 287.137 26.445C286.619 25.927 286.36 25.224 286.36 24.336V3.579C286.36 2.71567 286.619 2.025 287.137 1.507C287.655 0.988999 288.358 0.729999 289.246 0.729999C290.134 0.729999 290.837 0.988999 291.355 1.507C291.873 2.025 292.132 2.71567 292.132 3.579V24.336C292.132 25.224 291.873 25.927 291.355 26.445C290.837 26.963 290.134 27.222 289.246 27.222ZM316.696 27.333C314.106 27.333 311.849 26.7903 309.925 25.705C308.026 24.595 306.558 23.041 305.522 21.043C304.486 19.0203 303.968 16.6523 303.968 13.939C303.968 11.2257 304.486 8.87 305.522 6.872C306.558 4.84933 308.026 3.29533 309.925 2.21C311.849 1.12467 314.106 0.581998 316.696 0.581998C319.286 0.581998 321.531 1.12467 323.43 2.21C325.354 3.29533 326.834 4.84933 327.87 6.872C328.906 8.87 329.424 11.2257 329.424 13.939C329.424 16.6523 328.906 19.0203 327.87 21.043C326.834 23.041 325.354 24.595 323.43 25.705C321.531 26.7903 319.286 27.333 316.696 27.333ZM316.696 22.856C318.867 22.856 320.569 22.0913 321.802 20.562C323.06 19.0327 323.689 16.825 323.689 13.939C323.689 11.053 323.072 8.85767 321.839 7.353C320.606 5.82367 318.891 5.059 316.696 5.059C314.501 5.059 312.786 5.82367 311.553 7.353C310.344 8.85767 309.74 11.053 309.74 13.939C309.74 16.825 310.357 19.0327 311.59 20.562C312.823 22.0913 314.525 22.856 316.696 22.856ZM361.137 0.729999C361.951 0.729999 362.605 1.00133 363.098 1.544C363.616 2.062 363.875 2.74033 363.875 3.579V24.336C363.875 25.1993 363.616 25.9023 363.098 26.445C362.605 26.963 361.951 27.222 361.137 27.222C360.249 27.222 359.534 26.9013 358.991 26.26L346.596 10.387V24.336C346.596 25.1993 346.35 25.9023 345.856 26.445C345.388 26.963 344.746 27.222 343.932 27.222C343.118 27.222 342.465 26.963 341.971 26.445C341.478 25.9023 341.231 25.1993 341.231 24.336V3.579C341.231 2.74033 341.478 2.062 341.971 1.544C342.489 1.00133 343.155 0.729999 343.969 0.729999C344.882 0.729999 345.585 1.05067 346.078 1.692L358.473 17.454V3.579C358.473 2.74033 358.72 2.062 359.213 1.544C359.707 1.00133 360.348 0.729999 361.137 0.729999Z" fill="url(#paint0_linear)" fill-opacity="0.54"/>
<defs>
<linearGradient id="paint0_linear" x1="427.52" y1="37.8294" x2="404.836" y2="-96.6633" gradientUnits="userSpaceOnUse">
<stop stop-color="#652C90"/>
<stop offset="0.458333" stop-color="#91268F"/>
<stop offset="1" stop-color="#D91B5B"/>
</linearGradient>
</defs>
</svg>
