<svg width="139" height="11" viewBox="0 0 139 11" fill="none" xmlns="http://www.w3.org/2000/svg">
<path d="M5.516 10.126C4.54533 10.126 3.696 9.92067 2.968 9.51C2.24 9.09933 1.68 8.51133 1.288 7.746C0.896 6.98067 0.7 6.08467 0.7 5.058C0.7 4.03133 0.896 3.14 1.288 2.384C1.68 1.61867 2.24 1.03067 2.968 0.62C3.696 0.209333 4.54533 0.00399935 5.516 0.00399935C6.73867 0.00399935 7.79333 0.339999 8.68 1.012C8.82 1.124 8.918 1.236 8.974 1.348C9.03 1.46 9.058 1.6 9.058 1.768C9.058 2.01067 8.988 2.22067 8.848 2.398C8.71733 2.566 8.554 2.65 8.358 2.65C8.22733 2.65 8.11067 2.636 8.008 2.608C7.91467 2.57067 7.80733 2.51 7.686 2.426C7.31267 2.18333 6.96733 2.01067 6.65 1.908C6.33267 1.796 5.992 1.74 5.628 1.74C4.732 1.74 4.05533 2.02 3.598 2.58C3.15 3.13067 2.926 3.95667 2.926 5.058C2.926 7.27933 3.82667 8.39 5.628 8.39C5.97333 8.39 6.3 8.33867 6.608 8.236C6.916 8.124 7.27533 7.94667 7.686 7.704C7.826 7.62 7.94267 7.564 8.036 7.536C8.12933 7.49867 8.23667 7.48 8.358 7.48C8.554 7.48 8.71733 7.56867 8.848 7.746C8.988 7.914 9.058 8.11933 9.058 8.362C9.058 8.53 9.02533 8.67467 8.96 8.796C8.904 8.908 8.81067 9.01533 8.68 9.118C7.79333 9.79 6.73867 10.126 5.516 10.126ZM17.5992 10.126C16.6192 10.126 15.7652 9.92067 15.0372 9.51C14.3185 9.09 13.7632 8.502 13.3712 7.746C12.9792 6.98067 12.7832 6.08467 12.7832 5.058C12.7832 4.03133 12.9792 3.14 13.3712 2.384C13.7632 1.61867 14.3185 1.03067 15.0372 0.62C15.7652 0.209333 16.6192 0.00399935 17.5992 0.00399935C18.5792 0.00399935 19.4285 0.209333 20.1472 0.62C20.8752 1.03067 21.4352 1.61867 21.8272 2.384C22.2192 3.14 22.4152 4.03133 22.4152 5.058C22.4152 6.08467 22.2192 6.98067 21.8272 7.746C21.4352 8.502 20.8752 9.09 20.1472 9.51C19.4285 9.92067 18.5792 10.126 17.5992 10.126ZM17.5992 8.432C18.4205 8.432 19.0645 8.14267 19.5312 7.564C20.0072 6.98533 20.2452 6.15 20.2452 5.058C20.2452 3.966 20.0119 3.13533 19.5452 2.566C19.0785 1.98733 18.4299 1.698 17.5992 1.698C16.7685 1.698 16.1199 1.98733 15.6532 2.566C15.1959 3.13533 14.9672 3.966 14.9672 5.058C14.9672 6.15 15.2005 6.98533 15.6672 7.564C16.1339 8.14267 16.7779 8.432 17.5992 8.432ZM34.4147 0.0599995C34.7227 0.0599995 34.9701 0.162666 35.1567 0.368C35.3527 0.563999 35.4507 0.820666 35.4507 1.138V8.992C35.4507 9.31867 35.3527 9.58467 35.1567 9.79C34.9701 9.986 34.7227 10.084 34.4147 10.084C34.0787 10.084 33.8081 9.96267 33.6027 9.72L28.9127 3.714V8.992C28.9127 9.31867 28.8194 9.58467 28.6327 9.79C28.4554 9.986 28.2127 10.084 27.9047 10.084C27.5967 10.084 27.3494 9.986 27.1627 9.79C26.9761 9.58467 26.8827 9.31867 26.8827 8.992V1.138C26.8827 0.820666 26.9761 0.563999 27.1627 0.368C27.3587 0.162666 27.6107 0.0599995 27.9187 0.0599995C28.2641 0.0599995 28.5301 0.181333 28.7167 0.424L33.4067 6.388V1.138C33.4067 0.820666 33.5001 0.563999 33.6867 0.368C33.8734 0.162666 34.1161 0.0599995 34.4147 0.0599995ZM41.3021 10.084C40.9754 10.084 40.7094 9.986 40.5041 9.79C40.3081 9.58467 40.2101 9.31867 40.2101 8.992V1.152C40.2101 0.825333 40.2987 0.573333 40.4761 0.395999C40.6534 0.218666 40.9054 0.129999 41.2321 0.129999H46.0481C46.4027 0.129999 46.6641 0.199999 46.8321 0.339999C47.0001 0.48 47.0841 0.699333 47.0841 0.998C47.0841 1.28733 47.0001 1.502 46.8321 1.642C46.6641 1.782 46.4027 1.852 46.0481 1.852H42.3661V4.12H45.7681C46.1227 4.12 46.3841 4.19 46.5521 4.33C46.7201 4.47 46.8041 4.68933 46.8041 4.988C46.8041 5.27733 46.7201 5.492 46.5521 5.632C46.3841 5.772 46.1227 5.842 45.7681 5.842H42.3661V8.992C42.3661 9.328 42.2681 9.594 42.0721 9.79C41.8854 9.986 41.6287 10.084 41.3021 10.084ZM52.1138 10.084C51.7778 10.084 51.5118 9.986 51.3158 9.79C51.1198 9.594 51.0218 9.328 51.0218 8.992V1.138C51.0218 0.811333 51.1198 0.55 51.3158 0.354C51.5118 0.158 51.7778 0.0599995 52.1138 0.0599995C52.4498 0.0599995 52.7158 0.158 52.9118 0.354C53.1078 0.55 53.2058 0.811333 53.2058 1.138V8.992C53.2058 9.328 53.1078 9.594 52.9118 9.79C52.7158 9.986 52.4498 10.084 52.1138 10.084ZM66.0564 8.614C66.1964 8.81933 66.2664 9.02 66.2664 9.216C66.2664 9.47733 66.159 9.692 65.9444 9.86C65.739 10.028 65.4964 10.112 65.2164 10.112C65.039 10.112 64.8664 10.07 64.6984 9.986C64.5304 9.902 64.3904 9.77133 64.2784 9.594L62.4304 6.85C62.2717 6.60733 62.1037 6.43467 61.9264 6.332C61.749 6.22 61.525 6.164 61.2544 6.164H60.1204V8.992C60.1204 9.328 60.0224 9.594 59.8264 9.79C59.6397 9.986 59.383 10.084 59.0564 10.084C58.7204 10.084 58.4544 9.986 58.2584 9.79C58.0624 9.594 57.9644 9.328 57.9644 8.992V1.152C57.9644 0.825333 58.053 0.573333 58.2304 0.395999C58.4077 0.218666 58.6597 0.129999 58.9864 0.129999H62.5004C63.6577 0.129999 64.5304 0.386666 65.1184 0.899999C65.7157 1.404 66.0144 2.13667 66.0144 3.098C66.0144 3.854 65.8044 4.484 65.3844 4.988C64.9644 5.492 64.3717 5.82333 63.6064 5.982C63.8864 6.038 64.1337 6.15 64.3484 6.318C64.5724 6.47667 64.787 6.71 64.9924 7.018L66.0564 8.614ZM62.1784 4.512C62.8037 4.512 63.2564 4.40467 63.5364 4.19C63.8164 3.966 63.9564 3.62067 63.9564 3.154C63.9564 2.678 63.8164 2.33267 63.5364 2.118C63.2564 1.90333 62.8037 1.796 62.1784 1.796H60.0924V4.512H62.1784ZM79.3448 0.0599995C79.6528 0.0599995 79.9001 0.162666 80.0868 0.368C80.2828 0.563999 80.3808 0.820666 80.3808 1.138V9.09C80.3808 9.398 80.2921 9.64067 80.1148 9.818C79.9375 9.99533 79.7041 10.084 79.4148 10.084C79.1348 10.084 78.9061 9.99533 78.7288 9.818C78.5515 9.64067 78.4628 9.398 78.4628 9.09V4.148L76.4748 7.886C76.3441 8.12867 76.1995 8.306 76.0408 8.418C75.8915 8.53 75.7095 8.586 75.4948 8.586C75.2895 8.586 75.1075 8.53 74.9488 8.418C74.7901 8.306 74.6455 8.12867 74.5148 7.886L72.5268 4.218V9.09C72.5268 9.38867 72.4381 9.63133 72.2608 9.818C72.0835 9.99533 71.8501 10.084 71.5608 10.084C71.2808 10.084 71.0521 9.99533 70.8748 9.818C70.6975 9.64067 70.6088 9.398 70.6088 9.09V1.138C70.6088 0.820666 70.7021 0.563999 70.8888 0.368C71.0848 0.162666 71.3368 0.0599995 71.6448 0.0599995C72.0928 0.0599995 72.4335 0.297999 72.6668 0.773999L75.5088 6.164L78.3368 0.773999C78.5888 0.297999 78.9248 0.0599995 79.3448 0.0599995ZM94.3639 8.67C94.4386 8.838 94.4759 8.98733 94.4759 9.118C94.4759 9.37933 94.3686 9.60333 94.1539 9.79C93.9486 9.96733 93.7106 10.056 93.4399 10.056C93.2626 10.056 93.0946 10.0093 92.9359 9.916C92.7773 9.81333 92.6559 9.664 92.5719 9.468L91.8299 7.816H87.0839L86.3419 9.468C86.2579 9.664 86.1366 9.81333 85.9779 9.916C85.8286 10.0093 85.6606 10.056 85.4739 10.056C85.2033 10.056 84.9606 9.96733 84.7459 9.79C84.5313 9.60333 84.4239 9.37933 84.4239 9.118C84.4239 8.98733 84.4613 8.838 84.5359 8.67L88.3159 0.731999C88.4186 0.507999 88.5726 0.339999 88.7779 0.228C88.9833 0.106666 89.2026 0.0459996 89.4359 0.0459996C89.6786 0.0459996 89.9026 0.106666 90.1079 0.228C90.3133 0.349333 90.4719 0.517332 90.5839 0.731999L94.3639 8.67ZM87.8259 6.164H91.0879L89.4639 2.524L87.8259 6.164ZM100.596 10.07C100.269 10.07 100.003 9.972 99.7978 9.776C99.6018 9.58 99.5038 9.31867 99.5038 8.992V1.908H97.2358C96.5451 1.908 96.1998 1.60933 96.1998 1.012C96.1998 0.424 96.5451 0.129999 97.2358 0.129999H103.956C104.646 0.129999 104.992 0.424 104.992 1.012C104.992 1.60933 104.646 1.908 103.956 1.908H101.688V8.992C101.688 9.31867 101.59 9.58 101.394 9.776C101.198 9.972 100.932 10.07 100.596 10.07ZM109.823 10.084C109.487 10.084 109.221 9.986 109.025 9.79C108.829 9.594 108.731 9.328 108.731 8.992V1.138C108.731 0.811333 108.829 0.55 109.025 0.354C109.221 0.158 109.487 0.0599995 109.823 0.0599995C110.159 0.0599995 110.425 0.158 110.621 0.354C110.817 0.55 110.915 0.811333 110.915 1.138V8.992C110.915 9.328 110.817 9.594 110.621 9.79C110.425 9.986 110.159 10.084 109.823 10.084ZM120.209 10.126C119.229 10.126 118.375 9.92067 117.647 9.51C116.929 9.09 116.373 8.502 115.981 7.746C115.589 6.98067 115.393 6.08467 115.393 5.058C115.393 4.03133 115.589 3.14 115.981 2.384C116.373 1.61867 116.929 1.03067 117.647 0.62C118.375 0.209333 119.229 0.00399935 120.209 0.00399935C121.189 0.00399935 122.039 0.209333 122.757 0.62C123.485 1.03067 124.045 1.61867 124.437 2.384C124.829 3.14 125.025 4.03133 125.025 5.058C125.025 6.08467 124.829 6.98067 124.437 7.746C124.045 8.502 123.485 9.09 122.757 9.51C122.039 9.92067 121.189 10.126 120.209 10.126ZM120.209 8.432C121.031 8.432 121.675 8.14267 122.141 7.564C122.617 6.98533 122.855 6.15 122.855 5.058C122.855 3.966 122.622 3.13533 122.155 2.566C121.689 1.98733 121.04 1.698 120.209 1.698C119.379 1.698 118.73 1.98733 118.263 2.566C117.806 3.13533 117.577 3.966 117.577 5.058C117.577 6.15 117.811 6.98533 118.277 7.564C118.744 8.14267 119.388 8.432 120.209 8.432ZM137.025 0.0599995C137.333 0.0599995 137.58 0.162666 137.767 0.368C137.963 0.563999 138.061 0.820666 138.061 1.138V8.992C138.061 9.31867 137.963 9.58467 137.767 9.79C137.58 9.986 137.333 10.084 137.025 10.084C136.689 10.084 136.418 9.96267 136.213 9.72L131.523 3.714V8.992C131.523 9.31867 131.43 9.58467 131.243 9.79C131.066 9.986 130.823 10.084 130.515 10.084C130.207 10.084 129.96 9.986 129.773 9.79C129.586 9.58467 129.493 9.31867 129.493 8.992V1.138C129.493 0.820666 129.586 0.563999 129.773 0.368C129.969 0.162666 130.221 0.0599995 130.529 0.0599995C130.874 0.0599995 131.14 0.181333 131.327 0.424L136.017 6.388V1.138C136.017 0.820666 136.11 0.563999 136.297 0.368C136.484 0.162666 136.726 0.0599995 137.025 0.0599995Z" fill="url(#paint0_linear)" fill-opacity="0.54"/>
<defs>
<linearGradient id="paint0_linear" x1="162.143" y1="19.6689" x2="148.828" y2="-43.2133" gradientUnits="userSpaceOnUse">
<stop stop-color="#652C90"/>
<stop offset="0.458333" stop-color="#91268F"/>
<stop offset="1" stop-color="#D91B5B"/>
</linearGradient>
</defs>
</svg>
