<svg width="724" height="27" viewBox="0 0 724 27" fill="none" xmlns="http://www.w3.org/2000/svg">
<path d="M2.48876 3.192V10.892H12.6248V12.684H2.48876V21H0.416762V1.4H13.8568V3.192H2.48876ZM16.8821 6.272H18.8701V21H16.8821V6.272ZM17.8901 3.052C17.4794 3.052 17.1341 2.912 16.8541 2.632C16.5741 2.352 16.4341 2.016 16.4341 1.624C16.4341 1.25067 16.5741 0.923999 16.8541 0.643998C17.1341 0.363999 17.4794 0.223999 17.8901 0.223999C18.3007 0.223999 18.6461 0.363999 18.9261 0.643998C19.2061 0.905332 19.3461 1.22267 19.3461 1.596C19.3461 2.00667 19.2061 2.352 18.9261 2.632C18.6461 2.912 18.3007 3.052 17.8901 3.052ZM31.3456 6.16C33.1936 6.16 34.6589 6.70133 35.7416 7.784C36.8429 8.848 37.3936 10.4067 37.3936 12.46V21H35.4056V12.656C35.4056 11.1253 35.0229 9.95867 34.2576 9.156C33.4923 8.35333 32.4003 7.952 30.9816 7.952C29.3949 7.952 28.1349 8.428 27.2016 9.38C26.2869 10.3133 25.8296 11.6107 25.8296 13.272V21H23.8416V6.272H25.7456V8.988C26.2869 8.092 27.0336 7.40133 27.9856 6.916C28.9563 6.412 30.0763 6.16 31.3456 6.16ZM55.7255 0.223999V21H53.8215V18.088C53.2242 19.0773 52.4308 19.8333 51.4415 20.356C50.4708 20.8787 49.3695 21.14 48.1375 21.14C46.7562 21.14 45.5055 20.8227 44.3855 20.188C43.2655 19.5533 42.3882 18.6667 41.7535 17.528C41.1188 16.3893 40.8015 15.092 40.8015 13.636C40.8015 12.18 41.1188 10.8827 41.7535 9.744C42.3882 8.60533 43.2655 7.728 44.3855 7.112C45.5055 6.47733 46.7562 6.16 48.1375 6.16C49.3322 6.16 50.4055 6.412 51.3575 6.916C52.3282 7.40133 53.1215 8.12 53.7375 9.072V0.223999H55.7255ZM48.3055 19.376C49.3322 19.376 50.2562 19.1427 51.0775 18.676C51.9175 18.1907 52.5708 17.5093 53.0375 16.632C53.5228 15.7547 53.7655 14.756 53.7655 13.636C53.7655 12.516 53.5228 11.5173 53.0375 10.64C52.5708 9.76267 51.9175 9.09067 51.0775 8.624C50.2562 8.13867 49.3322 7.896 48.3055 7.896C47.2602 7.896 46.3175 8.13867 45.4775 8.624C44.6562 9.09067 44.0028 9.76267 43.5175 10.64C43.0508 11.5173 42.8175 12.516 42.8175 13.636C42.8175 14.756 43.0508 15.7547 43.5175 16.632C44.0028 17.5093 44.6562 18.1907 45.4775 18.676C46.3175 19.1427 47.2602 19.376 48.3055 19.376ZM73.4902 21.14C72.0715 21.14 70.7929 20.8227 69.6542 20.188C68.5155 19.5347 67.6195 18.6387 66.9662 17.5C66.3129 16.3613 65.9862 15.0733 65.9862 13.636C65.9862 12.1987 66.3129 10.9107 66.9662 9.772C67.6195 8.63333 68.5155 7.74667 69.6542 7.112C70.7929 6.47733 72.0715 6.16 73.4902 6.16C74.9089 6.16 76.1875 6.47733 77.3262 7.112C78.4649 7.74667 79.3515 8.63333 79.9862 9.772C80.6395 10.9107 80.9662 12.1987 80.9662 13.636C80.9662 15.0733 80.6395 16.3613 79.9862 17.5C79.3515 18.6387 78.4649 19.5347 77.3262 20.188C76.1875 20.8227 74.9089 21.14 73.4902 21.14ZM73.4902 19.376C74.5355 19.376 75.4689 19.1427 76.2902 18.676C77.1302 18.1907 77.7835 17.5093 78.2502 16.632C78.7169 15.7547 78.9502 14.756 78.9502 13.636C78.9502 12.516 78.7169 11.5173 78.2502 10.64C77.7835 9.76267 77.1302 9.09067 76.2902 8.624C75.4689 8.13867 74.5355 7.896 73.4902 7.896C72.4449 7.896 71.5022 8.13867 70.6622 8.624C69.8409 9.09067 69.1875 9.76267 68.7022 10.64C68.2355 11.5173 68.0022 12.516 68.0022 13.636C68.0022 14.756 68.2355 15.7547 68.7022 16.632C69.1875 17.5093 69.8409 18.1907 70.6622 18.676C71.5022 19.1427 72.4449 19.376 73.4902 19.376ZM97.7369 6.272V21H95.8329V18.312C95.3102 19.208 94.5916 19.908 93.6769 20.412C92.7622 20.8973 91.7169 21.14 90.5409 21.14C88.6182 21.14 87.0969 20.608 85.9769 19.544C84.8756 18.4613 84.3249 16.884 84.3249 14.812V6.272H86.3129V14.616C86.3129 16.1653 86.6956 17.3413 87.4609 18.144C88.2262 18.9467 89.3182 19.348 90.7369 19.348C92.2862 19.348 93.5089 18.8813 94.4049 17.948C95.3009 16.996 95.7489 15.68 95.7489 14V6.272H97.7369ZM110.501 20.104C110.127 20.44 109.661 20.7013 109.101 20.888C108.559 21.056 107.99 21.14 107.393 21.14C106.011 21.14 104.947 20.7667 104.201 20.02C103.454 19.2733 103.081 18.2187 103.081 16.856V7.952H100.449V6.272H103.081V3.052H105.069V6.272H109.549V7.952H105.069V16.744C105.069 17.6213 105.283 18.2933 105.713 18.76C106.161 19.208 106.795 19.432 107.617 19.432C108.027 19.432 108.419 19.3667 108.793 19.236C109.185 19.1053 109.521 18.9187 109.801 18.676L110.501 20.104ZM141.944 6.272L136.372 21H134.496L129.848 8.932L125.2 21H123.324L117.78 6.272H119.684L124.304 18.788L129.036 6.272H130.744L135.448 18.788L140.124 6.272H141.944ZM151.881 6.16C153.729 6.16 155.195 6.70133 156.277 7.784C157.379 8.848 157.929 10.4067 157.929 12.46V21H155.941V12.656C155.941 11.1253 155.559 9.95867 154.793 9.156C154.028 8.35333 152.936 7.952 151.517 7.952C149.931 7.952 148.671 8.428 147.737 9.38C146.823 10.3133 146.365 11.6107 146.365 13.272V21H144.377V0.223999H146.365V8.848C146.907 7.98933 147.653 7.32667 148.605 6.86C149.557 6.39333 150.649 6.16 151.881 6.16ZM162.766 6.272H164.754V21H162.766V6.272ZM163.774 3.052C163.364 3.052 163.018 2.912 162.738 2.632C162.458 2.352 162.318 2.016 162.318 1.624C162.318 1.25067 162.458 0.923999 162.738 0.643998C163.018 0.363999 163.364 0.223999 163.774 0.223999C164.185 0.223999 164.53 0.363999 164.81 0.643998C165.09 0.905332 165.23 1.22267 165.23 1.596C165.23 2.00667 165.09 2.352 164.81 2.632C164.53 2.912 164.185 3.052 163.774 3.052ZM175.83 21.14C174.374 21.14 173.067 20.8227 171.91 20.188C170.771 19.5533 169.875 18.6667 169.222 17.528C168.569 16.3707 168.242 15.0733 168.242 13.636C168.242 12.1987 168.569 10.9107 169.222 9.772C169.875 8.63333 170.771 7.74667 171.91 7.112C173.067 6.47733 174.374 6.16 175.83 6.16C177.099 6.16 178.229 6.412 179.218 6.916C180.226 7.40133 181.019 8.12 181.598 9.072L180.114 10.08C179.629 9.352 179.013 8.81067 178.266 8.456C177.519 8.08267 176.707 7.896 175.83 7.896C174.766 7.896 173.805 8.13867 172.946 8.624C172.106 9.09067 171.443 9.76267 170.958 10.64C170.491 11.5173 170.258 12.516 170.258 13.636C170.258 14.7747 170.491 15.7827 170.958 16.66C171.443 17.5187 172.106 18.1907 172.946 18.676C173.805 19.1427 174.766 19.376 175.83 19.376C176.707 19.376 177.519 19.1987 178.266 18.844C179.013 18.4893 179.629 17.948 180.114 17.22L181.598 18.228C181.019 19.18 180.226 19.908 179.218 20.412C178.21 20.8973 177.081 21.14 175.83 21.14ZM192.229 6.16C194.077 6.16 195.542 6.70133 196.625 7.784C197.726 8.848 198.277 10.4067 198.277 12.46V21H196.289V12.656C196.289 11.1253 195.906 9.95867 195.141 9.156C194.375 8.35333 193.283 7.952 191.865 7.952C190.278 7.952 189.018 8.428 188.085 9.38C187.17 10.3133 186.713 11.6107 186.713 13.272V21H184.725V0.223999H186.713V8.848C187.254 7.98933 188.001 7.32667 188.953 6.86C189.905 6.39333 190.997 6.16 192.229 6.16ZM217.638 20.104C217.265 20.44 216.798 20.7013 216.238 20.888C215.697 21.056 215.127 21.14 214.53 21.14C213.149 21.14 212.085 20.7667 211.338 20.02C210.591 19.2733 210.218 18.2187 210.218 16.856V7.952H207.586V6.272H210.218V3.052H212.206V6.272H216.686V7.952H212.206V16.744C212.206 17.6213 212.421 18.2933 212.85 18.76C213.298 19.208 213.933 19.432 214.754 19.432C215.165 19.432 215.557 19.3667 215.93 19.236C216.322 19.1053 216.658 18.9187 216.938 18.676L217.638 20.104ZM232.799 6.272L225.435 22.764C224.838 24.1453 224.147 25.1253 223.363 25.704C222.579 26.2827 221.637 26.572 220.535 26.572C219.826 26.572 219.163 26.46 218.547 26.236C217.931 26.012 217.399 25.676 216.951 25.228L217.875 23.744C218.622 24.4907 219.518 24.864 220.563 24.864C221.235 24.864 221.805 24.6773 222.271 24.304C222.757 23.9307 223.205 23.296 223.615 22.4L224.259 20.972L217.679 6.272H219.751L225.295 18.788L230.839 6.272H232.799ZM242.627 6.16C244.009 6.16 245.259 6.47733 246.379 7.112C247.499 7.728 248.377 8.60533 249.011 9.744C249.646 10.8827 249.963 12.18 249.963 13.636C249.963 15.1107 249.646 16.4173 249.011 17.556C248.377 18.6947 247.499 19.5813 246.379 20.216C245.278 20.832 244.027 21.14 242.627 21.14C241.433 21.14 240.35 20.8973 239.379 20.412C238.427 19.908 237.643 19.18 237.027 18.228V26.432H235.039V6.272H236.943V9.184C237.541 8.21333 238.325 7.46667 239.295 6.944C240.285 6.42133 241.395 6.16 242.627 6.16ZM242.487 19.376C243.514 19.376 244.447 19.1427 245.287 18.676C246.127 18.1907 246.781 17.5093 247.247 16.632C247.733 15.7547 247.975 14.756 247.975 13.636C247.975 12.516 247.733 11.5267 247.247 10.668C246.781 9.79067 246.127 9.10933 245.287 8.624C244.447 8.13867 243.514 7.896 242.487 7.896C241.442 7.896 240.499 8.13867 239.659 8.624C238.838 9.10933 238.185 9.79067 237.699 10.668C237.233 11.5267 236.999 12.516 236.999 13.636C236.999 14.756 237.233 15.7547 237.699 16.632C238.185 17.5093 238.838 18.1907 239.659 18.676C240.499 19.1427 241.442 19.376 242.487 19.376ZM266.28 14.252H253.96C254.072 15.7827 254.66 17.024 255.724 17.976C256.788 18.9093 258.132 19.376 259.756 19.376C260.67 19.376 261.51 19.2173 262.276 18.9C263.041 18.564 263.704 18.0787 264.264 17.444L265.384 18.732C264.73 19.516 263.909 20.1133 262.92 20.524C261.949 20.9347 260.876 21.14 259.7 21.14C258.188 21.14 256.844 20.8227 255.668 20.188C254.51 19.5347 253.605 18.6387 252.952 17.5C252.298 16.3613 251.972 15.0733 251.972 13.636C251.972 12.1987 252.28 10.9107 252.896 9.772C253.53 8.63333 254.389 7.74667 255.472 7.112C256.573 6.47733 257.805 6.16 259.168 6.16C260.53 6.16 261.753 6.47733 262.836 7.112C263.918 7.74667 264.768 8.63333 265.384 9.772C266 10.892 266.308 12.18 266.308 13.636L266.28 14.252ZM259.168 7.868C257.749 7.868 256.554 8.32533 255.584 9.24C254.632 10.136 254.09 11.312 253.96 12.768H264.404C264.273 11.312 263.722 10.136 262.752 9.24C261.8 8.32533 260.605 7.868 259.168 7.868ZM282.582 21.14C281.164 21.14 279.885 20.8227 278.746 20.188C277.608 19.5347 276.712 18.6387 276.058 17.5C275.405 16.3613 275.078 15.0733 275.078 13.636C275.078 12.1987 275.405 10.9107 276.058 9.772C276.712 8.63333 277.608 7.74667 278.746 7.112C279.885 6.47733 281.164 6.16 282.582 6.16C284.001 6.16 285.28 6.47733 286.418 7.112C287.557 7.74667 288.444 8.63333 289.078 9.772C289.732 10.9107 290.058 12.1987 290.058 13.636C290.058 15.0733 289.732 16.3613 289.078 17.5C288.444 18.6387 287.557 19.5347 286.418 20.188C285.28 20.8227 284.001 21.14 282.582 21.14ZM282.582 19.376C283.628 19.376 284.561 19.1427 285.382 18.676C286.222 18.1907 286.876 17.5093 287.342 16.632C287.809 15.7547 288.042 14.756 288.042 13.636C288.042 12.516 287.809 11.5173 287.342 10.64C286.876 9.76267 286.222 9.09067 285.382 8.624C284.561 8.13867 283.628 7.896 282.582 7.896C281.537 7.896 280.594 8.13867 279.754 8.624C278.933 9.09067 278.28 9.76267 277.794 10.64C277.328 11.5173 277.094 12.516 277.094 13.636C277.094 14.756 277.328 15.7547 277.794 16.632C278.28 17.5093 278.933 18.1907 279.754 18.676C280.594 19.1427 281.537 19.376 282.582 19.376ZM298.429 1.764C297.57 1.764 296.917 1.99733 296.469 2.464C296.04 2.93067 295.825 3.62133 295.825 4.536V6.272H300.361V7.952H295.881V21H293.893V7.952H291.261V6.272H293.893V4.452C293.893 3.108 294.276 2.044 295.041 1.26C295.825 0.475999 296.926 0.0839989 298.345 0.0839989C298.905 0.0839989 299.446 0.167999 299.969 0.335999C300.492 0.485333 300.93 0.709333 301.285 1.008L300.613 2.492C300.034 2.00667 299.306 1.764 298.429 1.764ZM327.621 6.16C329.469 6.16 330.916 6.692 331.961 7.756C333.025 8.82 333.557 10.388 333.557 12.46V21H331.569V12.656C331.569 11.1253 331.196 9.95867 330.449 9.156C329.721 8.35333 328.685 7.952 327.341 7.952C325.811 7.952 324.607 8.428 323.729 9.38C322.852 10.3133 322.413 11.6107 322.413 13.272V21H320.425V12.656C320.425 11.1253 320.052 9.95867 319.305 9.156C318.577 8.35333 317.532 7.952 316.169 7.952C314.657 7.952 313.453 8.428 312.557 9.38C311.68 10.3133 311.241 11.6107 311.241 13.272V21H309.253V6.272H311.157V8.96C311.68 8.064 312.408 7.37333 313.341 6.888C314.275 6.40267 315.348 6.16 316.561 6.16C317.793 6.16 318.857 6.42133 319.753 6.944C320.668 7.46667 321.349 8.24133 321.797 9.268C322.339 8.29733 323.113 7.54133 324.121 7C325.148 6.44 326.315 6.16 327.621 6.16ZM351.267 14.252H338.947C339.059 15.7827 339.647 17.024 340.711 17.976C341.775 18.9093 343.119 19.376 344.743 19.376C345.658 19.376 346.498 19.2173 347.263 18.9C348.029 18.564 348.691 18.0787 349.251 17.444L350.371 18.732C349.718 19.516 348.897 20.1133 347.907 20.524C346.937 20.9347 345.863 21.14 344.687 21.14C343.175 21.14 341.831 20.8227 340.655 20.188C339.498 19.5347 338.593 18.6387 337.939 17.5C337.286 16.3613 336.959 15.0733 336.959 13.636C336.959 12.1987 337.267 10.9107 337.883 9.772C338.518 8.63333 339.377 7.74667 340.459 7.112C341.561 6.47733 342.793 6.16 344.155 6.16C345.518 6.16 346.741 6.47733 347.823 7.112C348.906 7.74667 349.755 8.63333 350.371 9.772C350.987 10.892 351.295 12.18 351.295 13.636L351.267 14.252ZM344.155 7.868C342.737 7.868 341.542 8.32533 340.571 9.24C339.619 10.136 339.078 11.312 338.947 12.768H349.391C349.261 11.312 348.71 10.136 347.739 9.24C346.787 8.32533 345.593 7.868 344.155 7.868ZM373.15 6.16C374.998 6.16 376.445 6.692 377.49 7.756C378.554 8.82 379.086 10.388 379.086 12.46V21H377.098V12.656C377.098 11.1253 376.725 9.95867 375.978 9.156C375.25 8.35333 374.214 7.952 372.87 7.952C371.339 7.952 370.135 8.428 369.258 9.38C368.381 10.3133 367.942 11.6107 367.942 13.272V21H365.954V12.656C365.954 11.1253 365.581 9.95867 364.834 9.156C364.106 8.35333 363.061 7.952 361.698 7.952C360.186 7.952 358.982 8.428 358.086 9.38C357.209 10.3133 356.77 11.6107 356.77 13.272V21H354.782V6.272H356.686V8.96C357.209 8.064 357.937 7.37333 358.87 6.888C359.803 6.40267 360.877 6.16 362.09 6.16C363.322 6.16 364.386 6.42133 365.282 6.944C366.197 7.46667 366.878 8.24133 367.326 9.268C367.867 8.29733 368.642 7.54133 369.65 7C370.677 6.44 371.843 6.16 373.15 6.16ZM391.505 6.16C392.887 6.16 394.137 6.47733 395.257 7.112C396.377 7.728 397.255 8.60533 397.889 9.744C398.524 10.8827 398.841 12.18 398.841 13.636C398.841 15.092 398.524 16.3893 397.889 17.528C397.255 18.6667 396.377 19.5533 395.257 20.188C394.137 20.8227 392.887 21.14 391.505 21.14C390.273 21.14 389.163 20.8787 388.173 20.356C387.203 19.8333 386.419 19.0773 385.821 18.088V21H383.917V0.223999H385.905V9.072C386.521 8.12 387.305 7.40133 388.257 6.916C389.228 6.412 390.311 6.16 391.505 6.16ZM391.365 19.376C392.392 19.376 393.325 19.1427 394.165 18.676C395.005 18.1907 395.659 17.5093 396.125 16.632C396.611 15.7547 396.853 14.756 396.853 13.636C396.853 12.516 396.611 11.5173 396.125 10.64C395.659 9.76267 395.005 9.09067 394.165 8.624C393.325 8.13867 392.392 7.896 391.365 7.896C390.32 7.896 389.377 8.13867 388.537 8.624C387.716 9.09067 387.063 9.76267 386.577 10.64C386.111 11.5173 385.877 12.516 385.877 13.636C385.877 14.756 386.111 15.7547 386.577 16.632C387.063 17.5093 387.716 18.1907 388.537 18.676C389.377 19.1427 390.32 19.376 391.365 19.376ZM415.158 14.252H402.838C402.95 15.7827 403.538 17.024 404.602 17.976C405.666 18.9093 407.01 19.376 408.634 19.376C409.548 19.376 410.388 19.2173 411.154 18.9C411.919 18.564 412.582 18.0787 413.142 17.444L414.262 18.732C413.608 19.516 412.787 20.1133 411.798 20.524C410.827 20.9347 409.754 21.14 408.578 21.14C407.066 21.14 405.722 20.8227 404.546 20.188C403.388 19.5347 402.483 18.6387 401.83 17.5C401.176 16.3613 400.85 15.0733 400.85 13.636C400.85 12.1987 401.158 10.9107 401.774 9.772C402.408 8.63333 403.267 7.74667 404.35 7.112C405.451 6.47733 406.683 6.16 408.046 6.16C409.408 6.16 410.631 6.47733 411.714 7.112C412.796 7.74667 413.646 8.63333 414.262 9.772C414.878 10.892 415.186 12.18 415.186 13.636L415.158 14.252ZM408.046 7.868C406.627 7.868 405.432 8.32533 404.462 9.24C403.51 10.136 402.968 11.312 402.838 12.768H413.282C413.151 11.312 412.6 10.136 411.63 9.24C410.678 8.32533 409.483 7.868 408.046 7.868ZM420.576 9.156C421.043 8.16667 421.734 7.42 422.648 6.916C423.582 6.412 424.73 6.16 426.092 6.16V8.092L425.616 8.064C424.067 8.064 422.854 8.54 421.976 9.492C421.099 10.444 420.66 11.7787 420.66 13.496V21H418.672V6.272H420.576V9.156ZM433.189 21.14C431.994 21.14 430.846 20.972 429.745 20.636C428.662 20.2813 427.813 19.8427 427.197 19.32L428.093 17.752C428.709 18.2373 429.484 18.6387 430.417 18.956C431.35 19.2547 432.321 19.404 433.329 19.404C434.673 19.404 435.662 19.1987 436.297 18.788C436.95 18.3587 437.277 17.7613 437.277 16.996C437.277 16.4547 437.1 16.0347 436.745 15.736C436.39 15.4187 435.942 15.1853 435.401 15.036C434.86 14.868 434.141 14.7093 433.245 14.56C432.05 14.336 431.089 14.112 430.361 13.888C429.633 13.6453 429.008 13.244 428.485 12.684C427.981 12.124 427.729 11.3493 427.729 10.36C427.729 9.128 428.242 8.12 429.269 7.336C430.296 6.552 431.724 6.16 433.553 6.16C434.505 6.16 435.457 6.29067 436.409 6.552C437.361 6.79467 438.145 7.12133 438.761 7.532L437.893 9.128C436.68 8.288 435.233 7.868 433.553 7.868C432.284 7.868 431.322 8.092 430.669 8.54C430.034 8.988 429.717 9.576 429.717 10.304C429.717 10.864 429.894 11.312 430.249 11.648C430.622 11.984 431.08 12.236 431.621 12.404C432.162 12.5533 432.909 12.712 433.861 12.88C435.037 13.104 435.98 13.328 436.689 13.552C437.398 13.776 438.005 14.1587 438.509 14.7C439.013 15.2413 439.265 15.988 439.265 16.94C439.265 18.228 438.724 19.2547 437.641 20.02C436.577 20.7667 435.093 21.14 433.189 21.14ZM449.884 6.16C451.732 6.16 453.198 6.70133 454.28 7.784C455.382 8.848 455.932 10.4067 455.932 12.46V21H453.944V12.656C453.944 11.1253 453.562 9.95867 452.796 9.156C452.031 8.35333 450.939 7.952 449.52 7.952C447.934 7.952 446.674 8.428 445.74 9.38C444.826 10.3133 444.368 11.6107 444.368 13.272V21H442.38V0.223999H444.368V8.848C444.91 7.98933 445.656 7.32667 446.608 6.86C447.56 6.39333 448.652 6.16 449.884 6.16ZM460.77 6.272H462.758V21H460.77V6.272ZM461.778 3.052C461.367 3.052 461.022 2.912 460.742 2.632C460.462 2.352 460.322 2.016 460.322 1.624C460.322 1.25067 460.462 0.923999 460.742 0.643998C461.022 0.363999 461.367 0.223999 461.778 0.223999C462.188 0.223999 462.534 0.363999 462.814 0.643998C463.094 0.905332 463.234 1.22267 463.234 1.596C463.234 2.00667 463.094 2.352 462.814 2.632C462.534 2.912 462.188 3.052 461.778 3.052ZM475.317 6.16C476.698 6.16 477.949 6.47733 479.069 7.112C480.189 7.728 481.066 8.60533 481.701 9.744C482.336 10.8827 482.653 12.18 482.653 13.636C482.653 15.1107 482.336 16.4173 481.701 17.556C481.066 18.6947 480.189 19.5813 479.069 20.216C477.968 20.832 476.717 21.14 475.317 21.14C474.122 21.14 473.04 20.8973 472.069 20.412C471.117 19.908 470.333 19.18 469.717 18.228V26.432H467.729V6.272H469.633V9.184C470.23 8.21333 471.014 7.46667 471.985 6.944C472.974 6.42133 474.085 6.16 475.317 6.16ZM475.177 19.376C476.204 19.376 477.137 19.1427 477.977 18.676C478.817 18.1907 479.47 17.5093 479.937 16.632C480.422 15.7547 480.665 14.756 480.665 13.636C480.665 12.516 480.422 11.5267 479.937 10.668C479.47 9.79067 478.817 9.10933 477.977 8.624C477.137 8.13867 476.204 7.896 475.177 7.896C474.132 7.896 473.189 8.13867 472.349 8.624C471.528 9.10933 470.874 9.79067 470.389 10.668C469.922 11.5267 469.689 12.516 469.689 13.636C469.689 14.756 469.922 15.7547 470.389 16.632C470.874 17.5093 471.528 18.1907 472.349 18.676C473.189 19.1427 474.132 19.376 475.177 19.376ZM505.29 6.272L497.926 22.764C497.328 24.1453 496.638 25.1253 495.854 25.704C495.07 26.2827 494.127 26.572 493.026 26.572C492.316 26.572 491.654 26.46 491.038 26.236C490.422 26.012 489.89 25.676 489.442 25.228L490.366 23.744C491.112 24.4907 492.008 24.864 493.054 24.864C493.726 24.864 494.295 24.6773 494.762 24.304C495.247 23.9307 495.695 23.296 496.106 22.4L496.75 20.972L490.17 6.272H492.242L497.786 18.788L503.33 6.272H505.29ZM513.139 21.14C511.721 21.14 510.442 20.8227 509.303 20.188C508.165 19.5347 507.269 18.6387 506.615 17.5C505.962 16.3613 505.635 15.0733 505.635 13.636C505.635 12.1987 505.962 10.9107 506.615 9.772C507.269 8.63333 508.165 7.74667 509.303 7.112C510.442 6.47733 511.721 6.16 513.139 6.16C514.558 6.16 515.837 6.47733 516.975 7.112C518.114 7.74667 519.001 8.63333 519.635 9.772C520.289 10.9107 520.615 12.1987 520.615 13.636C520.615 15.0733 520.289 16.3613 519.635 17.5C519.001 18.6387 518.114 19.5347 516.975 20.188C515.837 20.8227 514.558 21.14 513.139 21.14ZM513.139 19.376C514.185 19.376 515.118 19.1427 515.939 18.676C516.779 18.1907 517.433 17.5093 517.899 16.632C518.366 15.7547 518.599 14.756 518.599 13.636C518.599 12.516 518.366 11.5173 517.899 10.64C517.433 9.76267 516.779 9.09067 515.939 8.624C515.118 8.13867 514.185 7.896 513.139 7.896C512.094 7.896 511.151 8.13867 510.311 8.624C509.49 9.09067 508.837 9.76267 508.351 10.64C507.885 11.5173 507.651 12.516 507.651 13.636C507.651 14.756 507.885 15.7547 508.351 16.632C508.837 17.5093 509.49 18.1907 510.311 18.676C511.151 19.1427 512.094 19.376 513.139 19.376ZM537.386 6.272V21H535.482V18.312C534.959 19.208 534.241 19.908 533.326 20.412C532.411 20.8973 531.366 21.14 530.19 21.14C528.267 21.14 526.746 20.608 525.626 19.544C524.525 18.4613 523.974 16.884 523.974 14.812V6.272H525.962V14.616C525.962 16.1653 526.345 17.3413 527.11 18.144C527.875 18.9467 528.967 19.348 530.386 19.348C531.935 19.348 533.158 18.8813 534.054 17.948C534.95 16.996 535.398 15.68 535.398 14V6.272H537.386ZM542.618 0.0839989C543.047 0.0839989 543.402 0.233333 543.682 0.532C543.962 0.812 544.102 1.16667 544.102 1.596C544.102 1.82 544.065 2.06267 543.99 2.324C543.934 2.56667 543.85 2.856 543.738 3.192L542.534 7.056H541.19L542.17 3.024C541.853 2.93067 541.601 2.76267 541.414 2.52C541.227 2.25867 541.134 1.95067 541.134 1.596C541.134 1.148 541.274 0.783999 541.554 0.503999C541.834 0.223999 542.189 0.0839989 542.618 0.0839989ZM549.671 9.156C550.138 8.16667 550.829 7.42 551.743 6.916C552.677 6.412 553.825 6.16 555.187 6.16V8.092L554.711 8.064C553.162 8.064 551.949 8.54 551.071 9.492C550.194 10.444 549.755 11.7787 549.755 13.496V21H547.767V6.272H549.671V9.156ZM570.914 14.252H558.594C558.706 15.7827 559.294 17.024 560.358 17.976C561.422 18.9093 562.766 19.376 564.39 19.376C565.305 19.376 566.145 19.2173 566.91 18.9C567.676 18.564 568.338 18.0787 568.898 17.444L570.018 18.732C569.365 19.516 568.544 20.1133 567.554 20.524C566.584 20.9347 565.51 21.14 564.334 21.14C562.822 21.14 561.478 20.8227 560.302 20.188C559.145 19.5347 558.24 18.6387 557.586 17.5C556.933 16.3613 556.606 15.0733 556.606 13.636C556.606 12.1987 556.914 10.9107 557.53 9.772C558.165 8.63333 559.024 7.74667 560.106 7.112C561.208 6.47733 562.44 6.16 563.802 6.16C565.165 6.16 566.388 6.47733 567.47 7.112C568.553 7.74667 569.402 8.63333 570.018 9.772C570.634 10.892 570.942 12.18 570.942 13.636L570.914 14.252ZM563.802 7.868C562.384 7.868 561.189 8.32533 560.218 9.24C559.266 10.136 558.725 11.312 558.594 12.768H569.038C568.908 11.312 568.357 10.136 567.386 9.24C566.434 8.32533 565.24 7.868 563.802 7.868ZM594.021 14.252H581.701C581.813 15.7827 582.401 17.024 583.465 17.976C584.529 18.9093 585.873 19.376 587.497 19.376C588.412 19.376 589.252 19.2173 590.017 18.9C590.782 18.564 591.445 18.0787 592.005 17.444L593.125 18.732C592.472 19.516 591.65 20.1133 590.661 20.524C589.69 20.9347 588.617 21.14 587.441 21.14C585.929 21.14 584.585 20.8227 583.409 20.188C582.252 19.5347 581.346 18.6387 580.693 17.5C580.04 16.3613 579.713 15.0733 579.713 13.636C579.713 12.1987 580.021 10.9107 580.637 9.772C581.272 8.63333 582.13 7.74667 583.213 7.112C584.314 6.47733 585.546 6.16 586.909 6.16C588.272 6.16 589.494 6.47733 590.577 7.112C591.66 7.74667 592.509 8.63333 593.125 9.772C593.741 10.892 594.049 12.18 594.049 13.636L594.021 14.252ZM586.909 7.868C585.49 7.868 584.296 8.32533 583.325 9.24C582.373 10.136 581.832 11.312 581.701 12.768H592.145C592.014 11.312 591.464 10.136 590.493 9.24C589.541 8.32533 588.346 7.868 586.909 7.868ZM597.535 0.223999H599.523V21H597.535V0.223999ZM604.495 6.272H606.483V21H604.495V6.272ZM605.503 3.052C605.092 3.052 604.747 2.912 604.467 2.632C604.187 2.352 604.047 2.016 604.047 1.624C604.047 1.25067 604.187 0.923999 604.467 0.643998C604.747 0.363999 605.092 0.223999 605.503 0.223999C605.914 0.223999 606.259 0.363999 606.539 0.643998C606.819 0.905332 606.959 1.22267 606.959 1.596C606.959 2.00667 606.819 2.352 606.539 2.632C606.259 2.912 605.914 3.052 605.503 3.052ZM625.09 6.272V19.208C625.09 21.7093 624.474 23.5573 623.242 24.752C622.029 25.9653 620.19 26.572 617.726 26.572C616.364 26.572 615.066 26.3667 613.834 25.956C612.621 25.564 611.632 25.0133 610.866 24.304L611.874 22.792C612.584 23.4267 613.442 23.9213 614.45 24.276C615.477 24.6307 616.55 24.808 617.67 24.808C619.537 24.808 620.909 24.3693 621.786 23.492C622.664 22.6333 623.102 21.2893 623.102 19.46V17.584C622.486 18.5173 621.674 19.2267 620.666 19.712C619.677 20.1973 618.576 20.44 617.362 20.44C615.981 20.44 614.721 20.1413 613.582 19.544C612.462 18.928 611.576 18.0787 610.922 16.996C610.288 15.8947 609.97 14.6533 609.97 13.272C609.97 11.8907 610.288 10.6587 610.922 9.576C611.576 8.49333 612.462 7.65333 613.582 7.056C614.702 6.45867 615.962 6.16 617.362 6.16C618.613 6.16 619.742 6.412 620.75 6.916C621.758 7.42 622.57 8.148 623.186 9.1V6.272H625.09ZM617.558 18.676C618.622 18.676 619.584 18.452 620.442 18.004C621.301 17.5373 621.964 16.8933 622.43 16.072C622.916 15.2507 623.158 14.3173 623.158 13.272C623.158 12.2267 622.916 11.3027 622.43 10.5C621.964 9.67867 621.301 9.044 620.442 8.596C619.602 8.12933 618.641 7.896 617.558 7.896C616.494 7.896 615.533 8.12 614.674 8.568C613.834 9.016 613.172 9.65067 612.686 10.472C612.22 11.2933 611.986 12.2267 611.986 13.272C611.986 14.3173 612.22 15.2507 612.686 16.072C613.172 16.8933 613.834 17.5373 614.674 18.004C615.533 18.452 616.494 18.676 617.558 18.676ZM630.09 6.272H632.078V21H630.09V6.272ZM631.098 3.052C630.687 3.052 630.342 2.912 630.062 2.632C629.782 2.352 629.642 2.016 629.642 1.624C629.642 1.25067 629.782 0.923999 630.062 0.643998C630.342 0.363999 630.687 0.223999 631.098 0.223999C631.508 0.223999 631.854 0.363999 632.134 0.643998C632.414 0.905332 632.554 1.22267 632.554 1.596C632.554 2.00667 632.414 2.352 632.134 2.632C631.854 2.912 631.508 3.052 631.098 3.052ZM644.637 6.16C646.019 6.16 647.269 6.47733 648.389 7.112C649.509 7.728 650.387 8.60533 651.021 9.744C651.656 10.8827 651.973 12.18 651.973 13.636C651.973 15.092 651.656 16.3893 651.021 17.528C650.387 18.6667 649.509 19.5533 648.389 20.188C647.269 20.8227 646.019 21.14 644.637 21.14C643.405 21.14 642.295 20.8787 641.305 20.356C640.335 19.8333 639.551 19.0773 638.953 18.088V21H637.049V0.223999H639.037V9.072C639.653 8.12 640.437 7.40133 641.389 6.916C642.36 6.412 643.443 6.16 644.637 6.16ZM644.497 19.376C645.524 19.376 646.457 19.1427 647.297 18.676C648.137 18.1907 648.791 17.5093 649.257 16.632C649.743 15.7547 649.985 14.756 649.985 13.636C649.985 12.516 649.743 11.5173 649.257 10.64C648.791 9.76267 648.137 9.09067 647.297 8.624C646.457 8.13867 645.524 7.896 644.497 7.896C643.452 7.896 642.509 8.13867 641.669 8.624C640.848 9.09067 640.195 9.76267 639.709 10.64C639.243 11.5173 639.009 12.516 639.009 13.636C639.009 14.756 639.243 15.7547 639.709 16.632C640.195 17.5093 640.848 18.1907 641.669 18.676C642.509 19.1427 643.452 19.376 644.497 19.376ZM655.466 0.223999H657.454V21H655.466V0.223999ZM675.249 14.252H662.929C663.041 15.7827 663.629 17.024 664.693 17.976C665.757 18.9093 667.101 19.376 668.725 19.376C669.64 19.376 670.48 19.2173 671.245 18.9C672.011 18.564 672.673 18.0787 673.233 17.444L674.353 18.732C673.7 19.516 672.879 20.1133 671.889 20.524C670.919 20.9347 669.845 21.14 668.669 21.14C667.157 21.14 665.813 20.8227 664.637 20.188C663.48 19.5347 662.575 18.6387 661.921 17.5C661.268 16.3613 660.941 15.0733 660.941 13.636C660.941 12.1987 661.249 10.9107 661.865 9.772C662.5 8.63333 663.359 7.74667 664.441 7.112C665.543 6.47733 666.775 6.16 668.137 6.16C669.5 6.16 670.723 6.47733 671.805 7.112C672.888 7.74667 673.737 8.63333 674.353 9.772C674.969 10.892 675.277 12.18 675.277 13.636L675.249 14.252ZM668.137 7.868C666.719 7.868 665.524 8.32533 664.553 9.24C663.601 10.136 663.06 11.312 662.929 12.768H673.373C673.243 11.312 672.692 10.136 671.721 9.24C670.769 8.32533 669.575 7.868 668.137 7.868ZM690.404 1.764C689.545 1.764 688.892 1.99733 688.444 2.464C688.015 2.93067 687.8 3.62133 687.8 4.536V6.272H692.336V7.952H687.856V21H685.868V7.952H683.236V6.272H685.868V4.452C685.868 3.108 686.251 2.044 687.016 1.26C687.8 0.475999 688.901 0.0839989 690.32 0.0839989C690.88 0.0839989 691.421 0.167999 691.944 0.335999C692.467 0.485333 692.905 0.709333 693.26 1.008L692.588 2.492C692.009 2.00667 691.281 1.764 690.404 1.764ZM700.234 21.14C698.815 21.14 697.537 20.8227 696.398 20.188C695.259 19.5347 694.363 18.6387 693.71 17.5C693.057 16.3613 692.73 15.0733 692.73 13.636C692.73 12.1987 693.057 10.9107 693.71 9.772C694.363 8.63333 695.259 7.74667 696.398 7.112C697.537 6.47733 698.815 6.16 700.234 6.16C701.653 6.16 702.931 6.47733 704.07 7.112C705.209 7.74667 706.095 8.63333 706.73 9.772C707.383 10.9107 707.71 12.1987 707.71 13.636C707.71 15.0733 707.383 16.3613 706.73 17.5C706.095 18.6387 705.209 19.5347 704.07 20.188C702.931 20.8227 701.653 21.14 700.234 21.14ZM700.234 19.376C701.279 19.376 702.213 19.1427 703.034 18.676C703.874 18.1907 704.527 17.5093 704.994 16.632C705.461 15.7547 705.694 14.756 705.694 13.636C705.694 12.516 705.461 11.5173 704.994 10.64C704.527 9.76267 703.874 9.09067 703.034 8.624C702.213 8.13867 701.279 7.896 700.234 7.896C699.189 7.896 698.246 8.13867 697.406 8.624C696.585 9.09067 695.931 9.76267 695.446 10.64C694.979 11.5173 694.746 12.516 694.746 13.636C694.746 14.756 694.979 15.7547 695.446 16.632C695.931 17.5093 696.585 18.1907 697.406 18.676C698.246 19.1427 699.189 19.376 700.234 19.376ZM713.113 9.156C713.579 8.16667 714.27 7.42 715.185 6.916C716.118 6.412 717.266 6.16 718.629 6.16V8.092L718.153 8.064C716.603 8.064 715.39 8.54 714.513 9.492C713.635 10.444 713.197 11.7787 713.197 13.496V21H711.209V6.272H713.113V9.156ZM721.81 21.14C721.399 21.14 721.044 20.9907 720.746 20.692C720.466 20.3933 720.326 20.0293 720.326 19.6C720.326 19.1707 720.466 18.816 720.746 18.536C721.044 18.2373 721.399 18.088 721.81 18.088C722.22 18.088 722.575 18.2373 722.874 18.536C723.172 18.816 723.322 19.1707 723.322 19.6C723.322 20.0293 723.172 20.3933 722.874 20.692C722.575 20.9907 722.22 21.14 721.81 21.14Z" fill="white"/>
</svg>
