<svg width="237" height="9" viewBox="0 0 237 9" fill="none" xmlns="http://www.w3.org/2000/svg">
<path d="M0.966071 1.483V3.679H4.12507V4.453H0.966071V7H0.0660709V0.7H4.51207V1.483H0.966071ZM5.38507 2.23H6.24907V7H5.38507V2.23ZM5.81707 1.312C5.64907 1.312 5.50807 1.258 5.39407 1.15C5.28607 1.042 5.23207 0.91 5.23207 0.754C5.23207 0.598 5.28607 0.466 5.39407 0.358C5.50807 0.244 5.64907 0.187 5.81707 0.187C5.98507 0.187 6.12307 0.241 6.23107 0.349C6.34507 0.451 6.40207 0.58 6.40207 0.736C6.40207 0.898 6.34507 1.036 6.23107 1.15C6.12307 1.258 5.98507 1.312 5.81707 1.312ZM10.2657 2.185C10.8717 2.185 11.3517 2.362 11.7057 2.716C12.0657 3.064 12.2457 3.577 12.2457 4.255V7H11.3817V4.354C11.3817 3.892 11.2707 3.544 11.0487 3.31C10.8267 3.076 10.5087 2.959 10.0947 2.959C9.62674 2.959 9.25774 3.097 8.98774 3.373C8.71774 3.643 8.58274 4.033 8.58274 4.543V7H7.71874V2.23H8.54674V2.95C8.72074 2.704 8.95474 2.515 9.24874 2.383C9.54874 2.251 9.88774 2.185 10.2657 2.185ZM18.1911 0.322V7H17.3631V6.244C17.1711 6.508 16.9281 6.709 16.6341 6.847C16.3401 6.985 16.0161 7.054 15.6621 7.054C15.2001 7.054 14.7861 6.952 14.4201 6.748C14.0541 6.544 13.7661 6.259 13.5561 5.893C13.3521 5.521 13.2501 5.095 13.2501 4.615C13.2501 4.135 13.3521 3.712 13.5561 3.346C13.7661 2.98 14.0541 2.695 14.4201 2.491C14.7861 2.287 15.2001 2.185 15.6621 2.185C16.0041 2.185 16.3191 2.251 16.6071 2.383C16.8951 2.509 17.1351 2.698 17.3271 2.95V0.322H18.1911ZM15.7341 6.298C16.0341 6.298 16.3071 6.229 16.5531 6.091C16.7991 5.947 16.9911 5.749 17.1291 5.497C17.2671 5.239 17.3361 4.945 17.3361 4.615C17.3361 4.285 17.2671 3.994 17.1291 3.742C16.9911 3.484 16.7991 3.286 16.5531 3.148C16.3071 3.01 16.0341 2.941 15.7341 2.941C15.4281 2.941 15.1521 3.01 14.9061 3.148C14.6661 3.286 14.4741 3.484 14.3301 3.742C14.1921 3.994 14.1231 4.285 14.1231 4.615C14.1231 4.945 14.1921 5.239 14.3301 5.497C14.4741 5.749 14.6661 5.947 14.9061 6.091C15.1521 6.229 15.4281 6.298 15.7341 6.298ZM23.9258 7.054C23.4518 7.054 23.0258 6.949 22.6478 6.739C22.2698 6.529 21.9728 6.241 21.7568 5.875C21.5468 5.503 21.4418 5.083 21.4418 4.615C21.4418 4.147 21.5468 3.73 21.7568 3.364C21.9728 2.992 22.2698 2.704 22.6478 2.5C23.0258 2.29 23.4518 2.185 23.9258 2.185C24.3998 2.185 24.8228 2.29 25.1948 2.5C25.5728 2.704 25.8668 2.992 26.0768 3.364C26.2928 3.73 26.4008 4.147 26.4008 4.615C26.4008 5.083 26.2928 5.503 26.0768 5.875C25.8668 6.241 25.5728 6.529 25.1948 6.739C24.8228 6.949 24.3998 7.054 23.9258 7.054ZM23.9258 6.298C24.2318 6.298 24.5048 6.229 24.7448 6.091C24.9908 5.947 25.1828 5.749 25.3208 5.497C25.4588 5.239 25.5278 4.945 25.5278 4.615C25.5278 4.285 25.4588 3.994 25.3208 3.742C25.1828 3.484 24.9908 3.286 24.7448 3.148C24.5048 3.01 24.2318 2.941 23.9258 2.941C23.6198 2.941 23.3438 3.01 23.0978 3.148C22.8578 3.286 22.6658 3.484 22.5218 3.742C22.3838 3.994 22.3148 4.285 22.3148 4.615C22.3148 4.945 22.3838 5.239 22.5218 5.497C22.6658 5.749 22.8578 5.947 23.0978 6.091C23.3438 6.229 23.6198 6.298 23.9258 6.298ZM31.8617 2.23V7H31.0427V6.28C30.8687 6.526 30.6377 6.718 30.3497 6.856C30.0677 6.988 29.7587 7.054 29.4227 7.054C28.7867 7.054 28.2857 6.88 27.9197 6.532C27.5537 6.178 27.3707 5.659 27.3707 4.975V2.23H28.2347V4.876C28.2347 5.338 28.3457 5.689 28.5677 5.929C28.7897 6.163 29.1077 6.28 29.5217 6.28C29.9777 6.28 30.3377 6.142 30.6017 5.866C30.8657 5.59 30.9977 5.2 30.9977 4.696V2.23H31.8617ZM36.0086 6.721C35.8826 6.829 35.7266 6.913 35.5406 6.973C35.3546 7.027 35.1626 7.054 34.9646 7.054C34.4846 7.054 34.1126 6.925 33.8486 6.667C33.5846 6.409 33.4526 6.04 33.4526 5.56V2.941H32.6426V2.23H33.4526V1.186H34.3166V2.23H35.6846V2.941H34.3166V5.524C34.3166 5.782 34.3796 5.98 34.5056 6.118C34.6376 6.256 34.8236 6.325 35.0636 6.325C35.3276 6.325 35.5526 6.25 35.7386 6.1L36.0086 6.721ZM46.3281 2.23L44.5461 7H43.7181L42.3411 3.382L40.9461 7H40.1181L38.3451 2.23H39.1641L40.5501 6.028L41.9901 2.23H42.7191L44.1321 6.046L45.5541 2.23H46.3281ZM49.5718 2.185C50.1778 2.185 50.6578 2.362 51.0118 2.716C51.3718 3.064 51.5518 3.577 51.5518 4.255V7H50.6878V4.354C50.6878 3.892 50.5768 3.544 50.3548 3.31C50.1328 3.076 49.8148 2.959 49.4008 2.959C48.9328 2.959 48.5638 3.097 48.2938 3.373C48.0238 3.643 47.8888 4.033 47.8888 4.543V7H47.0248V0.322H47.8888V2.905C48.0688 2.677 48.3028 2.5 48.5908 2.374C48.8848 2.248 49.2118 2.185 49.5718 2.185ZM52.9708 2.23H53.8348V7H52.9708V2.23ZM53.4028 1.312C53.2348 1.312 53.0938 1.258 52.9798 1.15C52.8718 1.042 52.8178 0.91 52.8178 0.754C52.8178 0.598 52.8718 0.466 52.9798 0.358C53.0938 0.244 53.2348 0.187 53.4028 0.187C53.5708 0.187 53.7088 0.241 53.8168 0.349C53.9308 0.451 53.9878 0.58 53.9878 0.736C53.9878 0.898 53.9308 1.036 53.8168 1.15C53.7088 1.258 53.5708 1.312 53.4028 1.312ZM57.3835 7.054C56.8975 7.054 56.4625 6.949 56.0785 6.739C55.7005 6.529 55.4035 6.241 55.1875 5.875C54.9715 5.503 54.8635 5.083 54.8635 4.615C54.8635 4.147 54.9715 3.73 55.1875 3.364C55.4035 2.992 55.7005 2.704 56.0785 2.5C56.4625 2.29 56.8975 2.185 57.3835 2.185C57.8155 2.185 58.1995 2.272 58.5355 2.446C58.8775 2.62 59.1415 2.872 59.3275 3.202L58.6705 3.625C58.5205 3.397 58.3345 3.226 58.1125 3.112C57.8905 2.998 57.6445 2.941 57.3745 2.941C57.0625 2.941 56.7805 3.01 56.5285 3.148C56.2825 3.286 56.0875 3.484 55.9435 3.742C55.8055 3.994 55.7365 4.285 55.7365 4.615C55.7365 4.951 55.8055 5.248 55.9435 5.506C56.0875 5.758 56.2825 5.953 56.5285 6.091C56.7805 6.229 57.0625 6.298 57.3745 6.298C57.6445 6.298 57.8905 6.241 58.1125 6.127C58.3345 6.013 58.5205 5.842 58.6705 5.614L59.3275 6.028C59.1415 6.358 58.8775 6.613 58.5355 6.793C58.1995 6.967 57.8155 7.054 57.3835 7.054ZM62.7516 2.185C63.3576 2.185 63.8376 2.362 64.1916 2.716C64.5516 3.064 64.7316 3.577 64.7316 4.255V7H63.8676V4.354C63.8676 3.892 63.7566 3.544 63.5346 3.31C63.3126 3.076 62.9946 2.959 62.5806 2.959C62.1126 2.959 61.7436 3.097 61.4736 3.373C61.2036 3.643 61.0686 4.033 61.0686 4.543V7H60.2046V0.322H61.0686V2.905C61.2486 2.677 61.4826 2.5 61.7706 2.374C62.0646 2.248 62.3916 2.185 62.7516 2.185ZM71.0695 6.721C70.9435 6.829 70.7875 6.913 70.6015 6.973C70.4155 7.027 70.2235 7.054 70.0255 7.054C69.5455 7.054 69.1735 6.925 68.9095 6.667C68.6455 6.409 68.5135 6.04 68.5135 5.56V2.941H67.7035V2.23H68.5135V1.186H69.3775V2.23H70.7455V2.941H69.3775V5.524C69.3775 5.782 69.4405 5.98 69.5665 6.118C69.6985 6.256 69.8845 6.325 70.1245 6.325C70.3885 6.325 70.6135 6.25 70.7995 6.1L71.0695 6.721ZM76.0672 2.23L73.7542 7.477C73.5502 7.963 73.3102 8.305 73.0342 8.503C72.7642 8.701 72.4372 8.8 72.0532 8.8C71.8192 8.8 71.5912 8.761 71.3692 8.683C71.1532 8.611 70.9732 8.503 70.8292 8.359L71.1982 7.711C71.4442 7.945 71.7292 8.062 72.0532 8.062C72.2632 8.062 72.4372 8.005 72.5752 7.891C72.7192 7.783 72.8482 7.594 72.9622 7.324L73.1152 6.991L71.0092 2.23H71.9092L73.5742 6.046L75.2212 2.23H76.0672ZM79.2225 2.185C79.6846 2.185 80.0986 2.287 80.4646 2.491C80.8306 2.695 81.1156 2.98 81.3196 3.346C81.5296 3.712 81.6346 4.135 81.6346 4.615C81.6346 5.095 81.5296 5.521 81.3196 5.893C81.1156 6.259 80.8306 6.544 80.4646 6.748C80.0986 6.952 79.6846 7.054 79.2225 7.054C78.8806 7.054 78.5656 6.988 78.2776 6.856C77.9956 6.724 77.7555 6.532 77.5575 6.28V8.746H76.6935V2.23H77.5215V2.986C77.7135 2.722 77.9565 2.524 78.2505 2.392C78.5446 2.254 78.8686 2.185 79.2225 2.185ZM79.1506 6.298C79.4566 6.298 79.7296 6.229 79.9695 6.091C80.2156 5.947 80.4076 5.749 80.5456 5.497C80.6896 5.239 80.7616 4.945 80.7616 4.615C80.7616 4.285 80.6896 3.994 80.5456 3.742C80.4076 3.484 80.2156 3.286 79.9695 3.148C79.7296 3.01 79.4566 2.941 79.1506 2.941C78.8505 2.941 78.5775 3.013 78.3315 3.157C78.0915 3.295 77.8995 3.49 77.7555 3.742C77.6175 3.994 77.5485 4.285 77.5485 4.615C77.5485 4.945 77.6175 5.239 77.7555 5.497C77.8935 5.749 78.0855 5.947 78.3315 6.091C78.5775 6.229 78.8505 6.298 79.1506 6.298ZM86.9593 4.642C86.9593 4.708 86.9533 4.795 86.9413 4.903H83.0713C83.1253 5.323 83.3083 5.662 83.6203 5.92C83.9383 6.172 84.3313 6.298 84.7993 6.298C85.3693 6.298 85.8283 6.106 86.1763 5.722L86.6533 6.28C86.4373 6.532 86.1673 6.724 85.8433 6.856C85.5253 6.988 85.1683 7.054 84.7723 7.054C84.2683 7.054 83.8213 6.952 83.4313 6.748C83.0413 6.538 82.7383 6.247 82.5223 5.875C82.3123 5.503 82.2073 5.083 82.2073 4.615C82.2073 4.153 82.3093 3.736 82.5133 3.364C82.7233 2.992 83.0083 2.704 83.3683 2.5C83.7343 2.29 84.1453 2.185 84.6013 2.185C85.0573 2.185 85.4623 2.29 85.8163 2.5C86.1763 2.704 86.4553 2.992 86.6533 3.364C86.8573 3.736 86.9593 4.162 86.9593 4.642ZM84.6013 2.914C84.1873 2.914 83.8393 3.04 83.5573 3.292C83.2813 3.544 83.1193 3.874 83.0713 4.282H86.1313C86.0833 3.88 85.9183 3.553 85.6363 3.301C85.3603 3.043 85.0153 2.914 84.6013 2.914ZM92.259 7.054C91.785 7.054 91.359 6.949 90.981 6.739C90.603 6.529 90.306 6.241 90.09 5.875C89.88 5.503 89.775 5.083 89.775 4.615C89.775 4.147 89.88 3.73 90.09 3.364C90.306 2.992 90.603 2.704 90.981 2.5C91.359 2.29 91.785 2.185 92.259 2.185C92.733 2.185 93.156 2.29 93.528 2.5C93.906 2.704 94.2 2.992 94.41 3.364C94.626 3.73 94.734 4.147 94.734 4.615C94.734 5.083 94.626 5.503 94.41 5.875C94.2 6.241 93.906 6.529 93.528 6.739C93.156 6.949 92.733 7.054 92.259 7.054ZM92.259 6.298C92.565 6.298 92.838 6.229 93.078 6.091C93.324 5.947 93.516 5.749 93.654 5.497C93.792 5.239 93.861 4.945 93.861 4.615C93.861 4.285 93.792 3.994 93.654 3.742C93.516 3.484 93.324 3.286 93.078 3.148C92.838 3.01 92.565 2.941 92.259 2.941C91.953 2.941 91.677 3.01 91.431 3.148C91.191 3.286 90.999 3.484 90.855 3.742C90.717 3.994 90.648 4.285 90.648 4.615C90.648 4.945 90.717 5.239 90.855 5.497C90.999 5.749 91.191 5.947 91.431 6.091C91.677 6.229 91.953 6.298 92.259 6.298ZM97.4949 0.979C96.9789 0.979 96.7209 1.258 96.7209 1.816V2.23H98.1069V2.941H96.7389V7H95.8749V2.941H95.0649V2.23H95.8749V1.807C95.8749 1.333 96.0129 0.958 96.2889 0.682C96.5649 0.406 96.9519 0.268 97.4499 0.268C97.6419 0.268 97.8219 0.292 97.9899 0.34C98.1579 0.388 98.3019 0.457 98.4219 0.547L98.1609 1.204C97.9629 1.054 97.7409 0.979 97.4949 0.979ZM106.946 2.185C107.546 2.185 108.02 2.359 108.368 2.707C108.722 3.055 108.899 3.571 108.899 4.255V7H108.035V4.354C108.035 3.892 107.927 3.544 107.711 3.31C107.501 3.076 107.198 2.959 106.802 2.959C106.364 2.959 106.016 3.097 105.758 3.373C105.5 3.643 105.371 4.033 105.371 4.543V7H104.507V4.354C104.507 3.892 104.399 3.544 104.183 3.31C103.973 3.076 103.67 2.959 103.274 2.959C102.836 2.959 102.488 3.097 102.23 3.373C101.972 3.643 101.843 4.033 101.843 4.543V7H100.979V2.23H101.807V2.941C101.981 2.695 102.209 2.509 102.491 2.383C102.773 2.251 103.094 2.185 103.454 2.185C103.826 2.185 104.156 2.26 104.444 2.41C104.732 2.56 104.954 2.779 105.11 3.067C105.29 2.791 105.539 2.575 105.857 2.419C106.181 2.263 106.544 2.185 106.946 2.185ZM114.646 4.642C114.646 4.708 114.64 4.795 114.628 4.903H110.758C110.812 5.323 110.995 5.662 111.307 5.92C111.625 6.172 112.018 6.298 112.486 6.298C113.056 6.298 113.515 6.106 113.863 5.722L114.34 6.28C114.124 6.532 113.854 6.724 113.53 6.856C113.212 6.988 112.855 7.054 112.459 7.054C111.955 7.054 111.508 6.952 111.118 6.748C110.728 6.538 110.425 6.247 110.209 5.875C109.999 5.503 109.894 5.083 109.894 4.615C109.894 4.153 109.996 3.736 110.2 3.364C110.41 2.992 110.695 2.704 111.055 2.5C111.421 2.29 111.832 2.185 112.288 2.185C112.744 2.185 113.149 2.29 113.503 2.5C113.863 2.704 114.142 2.992 114.34 3.364C114.544 3.736 114.646 4.162 114.646 4.642ZM112.288 2.914C111.874 2.914 111.526 3.04 111.244 3.292C110.968 3.544 110.806 3.874 110.758 4.282H113.818C113.77 3.88 113.605 3.553 113.323 3.301C113.047 3.043 112.702 2.914 112.288 2.914ZM121.633 2.185C122.233 2.185 122.707 2.359 123.055 2.707C123.409 3.055 123.586 3.571 123.586 4.255V7H122.722V4.354C122.722 3.892 122.614 3.544 122.398 3.31C122.188 3.076 121.885 2.959 121.489 2.959C121.051 2.959 120.703 3.097 120.445 3.373C120.187 3.643 120.058 4.033 120.058 4.543V7H119.194V4.354C119.194 3.892 119.086 3.544 118.87 3.31C118.66 3.076 118.357 2.959 117.961 2.959C117.523 2.959 117.175 3.097 116.917 3.373C116.659 3.643 116.53 4.033 116.53 4.543V7H115.666V2.23H116.494V2.941C116.668 2.695 116.896 2.509 117.178 2.383C117.46 2.251 117.781 2.185 118.141 2.185C118.513 2.185 118.843 2.26 119.131 2.41C119.419 2.56 119.641 2.779 119.797 3.067C119.977 2.791 120.226 2.575 120.544 2.419C120.868 2.263 121.231 2.185 121.633 2.185ZM127.524 2.185C127.986 2.185 128.4 2.287 128.766 2.491C129.132 2.695 129.417 2.98 129.621 3.346C129.831 3.712 129.936 4.135 129.936 4.615C129.936 5.095 129.831 5.521 129.621 5.893C129.417 6.259 129.132 6.544 128.766 6.748C128.4 6.952 127.986 7.054 127.524 7.054C127.17 7.054 126.846 6.985 126.552 6.847C126.258 6.709 126.015 6.508 125.823 6.244V7H124.995V0.322H125.859V2.95C126.051 2.698 126.291 2.509 126.579 2.383C126.867 2.251 127.182 2.185 127.524 2.185ZM127.452 6.298C127.758 6.298 128.031 6.229 128.271 6.091C128.517 5.947 128.709 5.749 128.847 5.497C128.991 5.239 129.063 4.945 129.063 4.615C129.063 4.285 128.991 3.994 128.847 3.742C128.709 3.484 128.517 3.286 128.271 3.148C128.031 3.01 127.758 2.941 127.452 2.941C127.152 2.941 126.879 3.01 126.633 3.148C126.387 3.286 126.195 3.484 126.057 3.742C125.919 3.994 125.85 4.285 125.85 4.615C125.85 4.945 125.919 5.239 126.057 5.497C126.195 5.749 126.387 5.947 126.633 6.091C126.879 6.229 127.152 6.298 127.452 6.298ZM135.261 4.642C135.261 4.708 135.255 4.795 135.243 4.903H131.373C131.427 5.323 131.61 5.662 131.922 5.92C132.24 6.172 132.633 6.298 133.101 6.298C133.671 6.298 134.13 6.106 134.478 5.722L134.955 6.28C134.739 6.532 134.469 6.724 134.145 6.856C133.827 6.988 133.47 7.054 133.074 7.054C132.57 7.054 132.123 6.952 131.733 6.748C131.343 6.538 131.04 6.247 130.824 5.875C130.614 5.503 130.509 5.083 130.509 4.615C130.509 4.153 130.611 3.736 130.815 3.364C131.025 2.992 131.31 2.704 131.67 2.5C132.036 2.29 132.447 2.185 132.903 2.185C133.359 2.185 133.764 2.29 134.118 2.5C134.478 2.704 134.757 2.992 134.955 3.364C135.159 3.736 135.261 4.162 135.261 4.642ZM132.903 2.914C132.489 2.914 132.141 3.04 131.859 3.292C131.583 3.544 131.421 3.874 131.373 4.282H134.433C134.385 3.88 134.22 3.553 133.938 3.301C133.662 3.043 133.317 2.914 132.903 2.914ZM137.109 3.031C137.259 2.755 137.481 2.545 137.775 2.401C138.069 2.257 138.426 2.185 138.846 2.185V3.022C138.798 3.016 138.732 3.013 138.648 3.013C138.18 3.013 137.811 3.154 137.541 3.436C137.277 3.712 137.145 4.108 137.145 4.624V7H136.281V2.23H137.109V3.031ZM141.134 7.054C140.744 7.054 140.369 7.003 140.009 6.901C139.649 6.793 139.367 6.658 139.163 6.496L139.523 5.812C139.733 5.962 139.988 6.082 140.288 6.172C140.588 6.262 140.891 6.307 141.197 6.307C141.953 6.307 142.331 6.091 142.331 5.659C142.331 5.515 142.28 5.401 142.178 5.317C142.076 5.233 141.947 5.173 141.791 5.137C141.641 5.095 141.425 5.05 141.143 5.002C140.759 4.942 140.444 4.873 140.198 4.795C139.958 4.717 139.751 4.585 139.577 4.399C139.403 4.213 139.316 3.952 139.316 3.616C139.316 3.184 139.496 2.839 139.856 2.581C140.216 2.317 140.699 2.185 141.305 2.185C141.623 2.185 141.941 2.224 142.259 2.302C142.577 2.38 142.838 2.485 143.042 2.617L142.673 3.301C142.283 3.049 141.824 2.923 141.296 2.923C140.93 2.923 140.651 2.983 140.459 3.103C140.267 3.223 140.171 3.382 140.171 3.58C140.171 3.736 140.225 3.859 140.333 3.949C140.441 4.039 140.573 4.105 140.729 4.147C140.891 4.189 141.116 4.237 141.404 4.291C141.788 4.357 142.097 4.429 142.331 4.507C142.571 4.579 142.775 4.705 142.943 4.885C143.111 5.065 143.195 5.317 143.195 5.641C143.195 6.073 143.009 6.418 142.637 6.676C142.271 6.928 141.77 7.054 141.134 7.054ZM146.642 2.185C147.248 2.185 147.728 2.362 148.082 2.716C148.442 3.064 148.622 3.577 148.622 4.255V7H147.758V4.354C147.758 3.892 147.647 3.544 147.425 3.31C147.203 3.076 146.885 2.959 146.471 2.959C146.003 2.959 145.634 3.097 145.364 3.373C145.094 3.643 144.959 4.033 144.959 4.543V7H144.095V0.322H144.959V2.905C145.139 2.677 145.373 2.5 145.661 2.374C145.955 2.248 146.282 2.185 146.642 2.185ZM150.041 2.23H150.905V7H150.041V2.23ZM150.473 1.312C150.305 1.312 150.164 1.258 150.05 1.15C149.942 1.042 149.888 0.91 149.888 0.754C149.888 0.598 149.942 0.466 150.05 0.358C150.164 0.244 150.305 0.187 150.473 0.187C150.641 0.187 150.779 0.241 150.887 0.349C151.001 0.451 151.058 0.58 151.058 0.736C151.058 0.898 151.001 1.036 150.887 1.15C150.779 1.258 150.641 1.312 150.473 1.312ZM154.903 2.185C155.365 2.185 155.779 2.287 156.145 2.491C156.511 2.695 156.796 2.98 157 3.346C157.21 3.712 157.315 4.135 157.315 4.615C157.315 5.095 157.21 5.521 157 5.893C156.796 6.259 156.511 6.544 156.145 6.748C155.779 6.952 155.365 7.054 154.903 7.054C154.561 7.054 154.246 6.988 153.958 6.856C153.676 6.724 153.436 6.532 153.238 6.28V8.746H152.374V2.23H153.202V2.986C153.394 2.722 153.637 2.524 153.931 2.392C154.225 2.254 154.549 2.185 154.903 2.185ZM154.831 6.298C155.137 6.298 155.41 6.229 155.65 6.091C155.896 5.947 156.088 5.749 156.226 5.497C156.37 5.239 156.442 4.945 156.442 4.615C156.442 4.285 156.37 3.994 156.226 3.742C156.088 3.484 155.896 3.286 155.65 3.148C155.41 3.01 155.137 2.941 154.831 2.941C154.531 2.941 154.258 3.013 154.012 3.157C153.772 3.295 153.58 3.49 153.436 3.742C153.298 3.994 153.229 4.285 153.229 4.615C153.229 4.945 153.298 5.239 153.436 5.497C153.574 5.749 153.766 5.947 154.012 6.091C154.258 6.229 154.531 6.298 154.831 6.298ZM164.787 2.23L162.474 7.477C162.27 7.963 162.03 8.305 161.754 8.503C161.484 8.701 161.157 8.8 160.773 8.8C160.539 8.8 160.311 8.761 160.089 8.683C159.873 8.611 159.693 8.503 159.549 8.359L159.918 7.711C160.164 7.945 160.449 8.062 160.773 8.062C160.983 8.062 161.157 8.005 161.295 7.891C161.439 7.783 161.568 7.594 161.682 7.324L161.835 6.991L159.729 2.23H160.629L162.294 6.046L163.941 2.23H164.787ZM167.325 7.054C166.851 7.054 166.425 6.949 166.047 6.739C165.669 6.529 165.372 6.241 165.156 5.875C164.946 5.503 164.841 5.083 164.841 4.615C164.841 4.147 164.946 3.73 165.156 3.364C165.372 2.992 165.669 2.704 166.047 2.5C166.425 2.29 166.851 2.185 167.325 2.185C167.799 2.185 168.222 2.29 168.594 2.5C168.972 2.704 169.266 2.992 169.476 3.364C169.692 3.73 169.8 4.147 169.8 4.615C169.8 5.083 169.692 5.503 169.476 5.875C169.266 6.241 168.972 6.529 168.594 6.739C168.222 6.949 167.799 7.054 167.325 7.054ZM167.325 6.298C167.631 6.298 167.904 6.229 168.144 6.091C168.39 5.947 168.582 5.749 168.72 5.497C168.858 5.239 168.927 4.945 168.927 4.615C168.927 4.285 168.858 3.994 168.72 3.742C168.582 3.484 168.39 3.286 168.144 3.148C167.904 3.01 167.631 2.941 167.325 2.941C167.019 2.941 166.743 3.01 166.497 3.148C166.257 3.286 166.065 3.484 165.921 3.742C165.783 3.994 165.714 4.285 165.714 4.615C165.714 4.945 165.783 5.239 165.921 5.497C166.065 5.749 166.257 5.947 166.497 6.091C166.743 6.229 167.019 6.298 167.325 6.298ZM175.261 2.23V7H174.442V6.28C174.268 6.526 174.037 6.718 173.749 6.856C173.467 6.988 173.158 7.054 172.822 7.054C172.186 7.054 171.685 6.88 171.319 6.532C170.953 6.178 170.77 5.659 170.77 4.975V2.23H171.634V4.876C171.634 5.338 171.745 5.689 171.967 5.929C172.189 6.163 172.507 6.28 172.921 6.28C173.377 6.28 173.737 6.142 174.001 5.866C174.265 5.59 174.397 5.2 174.397 4.696V2.23H175.261ZM176.941 0.268C177.109 0.268 177.247 0.328 177.355 0.448C177.469 0.562 177.526 0.706 177.526 0.88C177.526 0.97 177.517 1.06 177.499 1.15C177.481 1.234 177.442 1.357 177.382 1.519L176.95 2.779H176.383L176.716 1.438C176.602 1.396 176.509 1.327 176.437 1.231C176.371 1.129 176.338 1.012 176.338 0.88C176.338 0.7 176.395 0.553 176.509 0.439C176.623 0.325 176.767 0.268 176.941 0.268ZM179.412 3.031C179.562 2.755 179.784 2.545 180.078 2.401C180.372 2.257 180.729 2.185 181.149 2.185V3.022C181.101 3.016 181.035 3.013 180.951 3.013C180.483 3.013 180.114 3.154 179.844 3.436C179.58 3.712 179.448 4.108 179.448 4.624V7H178.584V2.23H179.412V3.031ZM186.301 4.642C186.301 4.708 186.295 4.795 186.283 4.903H182.413C182.467 5.323 182.65 5.662 182.962 5.92C183.28 6.172 183.673 6.298 184.141 6.298C184.711 6.298 185.17 6.106 185.518 5.722L185.995 6.28C185.779 6.532 185.509 6.724 185.185 6.856C184.867 6.988 184.51 7.054 184.114 7.054C183.61 7.054 183.163 6.952 182.773 6.748C182.383 6.538 182.08 6.247 181.864 5.875C181.654 5.503 181.549 5.083 181.549 4.615C181.549 4.153 181.651 3.736 181.855 3.364C182.065 2.992 182.35 2.704 182.71 2.5C183.076 2.29 183.487 2.185 183.943 2.185C184.399 2.185 184.804 2.29 185.158 2.5C185.518 2.704 185.797 2.992 185.995 3.364C186.199 3.736 186.301 4.162 186.301 4.642ZM183.943 2.914C183.529 2.914 183.181 3.04 182.899 3.292C182.623 3.544 182.461 3.874 182.413 4.282H185.473C185.425 3.88 185.26 3.553 184.978 3.301C184.702 3.043 184.357 2.914 183.943 2.914ZM193.869 4.642C193.869 4.708 193.863 4.795 193.851 4.903H189.981C190.035 5.323 190.218 5.662 190.53 5.92C190.848 6.172 191.241 6.298 191.709 6.298C192.279 6.298 192.738 6.106 193.086 5.722L193.563 6.28C193.347 6.532 193.077 6.724 192.753 6.856C192.435 6.988 192.078 7.054 191.682 7.054C191.178 7.054 190.731 6.952 190.341 6.748C189.951 6.538 189.648 6.247 189.432 5.875C189.222 5.503 189.117 5.083 189.117 4.615C189.117 4.153 189.219 3.736 189.423 3.364C189.633 2.992 189.918 2.704 190.278 2.5C190.644 2.29 191.055 2.185 191.511 2.185C191.967 2.185 192.372 2.29 192.726 2.5C193.086 2.704 193.365 2.992 193.563 3.364C193.767 3.736 193.869 4.162 193.869 4.642ZM191.511 2.914C191.097 2.914 190.749 3.04 190.467 3.292C190.191 3.544 190.029 3.874 189.981 4.282H193.041C192.993 3.88 192.828 3.553 192.546 3.301C192.27 3.043 191.925 2.914 191.511 2.914ZM194.889 0.322H195.753V7H194.889V0.322ZM197.223 2.23H198.087V7H197.223V2.23ZM197.655 1.312C197.487 1.312 197.346 1.258 197.232 1.15C197.124 1.042 197.07 0.91 197.07 0.754C197.07 0.598 197.124 0.466 197.232 0.358C197.346 0.244 197.487 0.187 197.655 0.187C197.823 0.187 197.961 0.241 198.069 0.349C198.183 0.451 198.24 0.58 198.24 0.736C198.24 0.898 198.183 1.036 198.069 1.15C197.961 1.258 197.823 1.312 197.655 1.312ZM204.119 2.23V6.352C204.119 7.186 203.912 7.801 203.498 8.197C203.084 8.599 202.466 8.8 201.644 8.8C201.194 8.8 200.765 8.737 200.357 8.611C199.949 8.491 199.619 8.317 199.367 8.089L199.781 7.423C200.003 7.615 200.276 7.765 200.6 7.873C200.93 7.987 201.269 8.044 201.617 8.044C202.175 8.044 202.586 7.912 202.85 7.648C203.12 7.384 203.255 6.982 203.255 6.442V6.064C203.051 6.31 202.799 6.496 202.499 6.622C202.205 6.742 201.884 6.802 201.536 6.802C201.08 6.802 200.666 6.706 200.294 6.514C199.928 6.316 199.64 6.043 199.43 5.695C199.22 5.341 199.115 4.939 199.115 4.489C199.115 4.039 199.22 3.64 199.43 3.292C199.64 2.938 199.928 2.665 200.294 2.473C200.666 2.281 201.08 2.185 201.536 2.185C201.896 2.185 202.229 2.251 202.535 2.383C202.847 2.515 203.102 2.71 203.3 2.968V2.23H204.119ZM201.635 6.046C201.947 6.046 202.226 5.98 202.472 5.848C202.724 5.716 202.919 5.533 203.057 5.299C203.201 5.059 203.273 4.789 203.273 4.489C203.273 4.027 203.12 3.655 202.814 3.373C202.508 3.085 202.115 2.941 201.635 2.941C201.149 2.941 200.753 3.085 200.447 3.373C200.141 3.655 199.988 4.027 199.988 4.489C199.988 4.789 200.057 5.059 200.195 5.299C200.339 5.533 200.534 5.716 200.78 5.848C201.032 5.98 201.317 6.046 201.635 6.046ZM205.59 2.23H206.454V7H205.59V2.23ZM206.022 1.312C205.854 1.312 205.713 1.258 205.599 1.15C205.491 1.042 205.437 0.91 205.437 0.754C205.437 0.598 205.491 0.466 205.599 0.358C205.713 0.244 205.854 0.187 206.022 0.187C206.19 0.187 206.328 0.241 206.436 0.349C206.55 0.451 206.607 0.58 206.607 0.736C206.607 0.898 206.55 1.036 206.436 1.15C206.328 1.258 206.19 1.312 206.022 1.312ZM210.453 2.185C210.915 2.185 211.329 2.287 211.695 2.491C212.061 2.695 212.346 2.98 212.55 3.346C212.76 3.712 212.865 4.135 212.865 4.615C212.865 5.095 212.76 5.521 212.55 5.893C212.346 6.259 212.061 6.544 211.695 6.748C211.329 6.952 210.915 7.054 210.453 7.054C210.099 7.054 209.775 6.985 209.481 6.847C209.187 6.709 208.944 6.508 208.752 6.244V7H207.924V0.322H208.788V2.95C208.98 2.698 209.22 2.509 209.508 2.383C209.796 2.251 210.111 2.185 210.453 2.185ZM210.381 6.298C210.687 6.298 210.96 6.229 211.2 6.091C211.446 5.947 211.638 5.749 211.776 5.497C211.92 5.239 211.992 4.945 211.992 4.615C211.992 4.285 211.92 3.994 211.776 3.742C211.638 3.484 211.446 3.286 211.2 3.148C210.96 3.01 210.687 2.941 210.381 2.941C210.081 2.941 209.808 3.01 209.562 3.148C209.316 3.286 209.124 3.484 208.986 3.742C208.848 3.994 208.779 4.285 208.779 4.615C208.779 4.945 208.848 5.239 208.986 5.497C209.124 5.749 209.316 5.947 209.562 6.091C209.808 6.229 210.081 6.298 210.381 6.298ZM213.879 0.322H214.743V7H213.879V0.322ZM220.523 4.642C220.523 4.708 220.517 4.795 220.505 4.903H216.635C216.689 5.323 216.872 5.662 217.184 5.92C217.502 6.172 217.895 6.298 218.363 6.298C218.933 6.298 219.392 6.106 219.74 5.722L220.217 6.28C220.001 6.532 219.731 6.724 219.407 6.856C219.089 6.988 218.732 7.054 218.336 7.054C217.832 7.054 217.385 6.952 216.995 6.748C216.605 6.538 216.302 6.247 216.086 5.875C215.876 5.503 215.771 5.083 215.771 4.615C215.771 4.153 215.873 3.736 216.077 3.364C216.287 2.992 216.572 2.704 216.932 2.5C217.298 2.29 217.709 2.185 218.165 2.185C218.621 2.185 219.026 2.29 219.38 2.5C219.74 2.704 220.019 2.992 220.217 3.364C220.421 3.736 220.523 4.162 220.523 4.642ZM218.165 2.914C217.751 2.914 217.403 3.04 217.121 3.292C216.845 3.544 216.683 3.874 216.635 4.282H219.695C219.647 3.88 219.482 3.553 219.2 3.301C218.924 3.043 218.579 2.914 218.165 2.914ZM225.526 0.979C225.01 0.979 224.752 1.258 224.752 1.816V2.23H226.138V2.941H224.77V7H223.906V2.941H223.096V2.23H223.906V1.807C223.906 1.333 224.044 0.958 224.32 0.682C224.596 0.406 224.983 0.268 225.481 0.268C225.673 0.268 225.853 0.292 226.021 0.34C226.189 0.388 226.333 0.457 226.453 0.547L226.192 1.204C225.994 1.054 225.772 0.979 225.526 0.979ZM228.745 7.054C228.271 7.054 227.845 6.949 227.467 6.739C227.089 6.529 226.792 6.241 226.576 5.875C226.366 5.503 226.261 5.083 226.261 4.615C226.261 4.147 226.366 3.73 226.576 3.364C226.792 2.992 227.089 2.704 227.467 2.5C227.845 2.29 228.271 2.185 228.745 2.185C229.219 2.185 229.642 2.29 230.014 2.5C230.392 2.704 230.686 2.992 230.896 3.364C231.112 3.73 231.22 4.147 231.22 4.615C231.22 5.083 231.112 5.503 230.896 5.875C230.686 6.241 230.392 6.529 230.014 6.739C229.642 6.949 229.219 7.054 228.745 7.054ZM228.745 6.298C229.051 6.298 229.324 6.229 229.564 6.091C229.81 5.947 230.002 5.749 230.14 5.497C230.278 5.239 230.347 4.945 230.347 4.615C230.347 4.285 230.278 3.994 230.14 3.742C230.002 3.484 229.81 3.286 229.564 3.148C229.324 3.01 229.051 2.941 228.745 2.941C228.439 2.941 228.163 3.01 227.917 3.148C227.677 3.286 227.485 3.484 227.341 3.742C227.203 3.994 227.134 4.285 227.134 4.615C227.134 4.945 227.203 5.239 227.341 5.497C227.485 5.749 227.677 5.947 227.917 6.091C228.163 6.229 228.439 6.298 228.745 6.298ZM233.063 3.031C233.213 2.755 233.435 2.545 233.729 2.401C234.023 2.257 234.38 2.185 234.8 2.185V3.022C234.752 3.016 234.686 3.013 234.602 3.013C234.134 3.013 233.765 3.154 233.495 3.436C233.231 3.712 233.099 4.108 233.099 4.624V7H232.235V2.23H233.063V3.031ZM235.866 7.054C235.698 7.054 235.554 6.997 235.434 6.883C235.314 6.763 235.254 6.613 235.254 6.433C235.254 6.259 235.314 6.115 235.434 6.001C235.554 5.881 235.698 5.821 235.866 5.821C236.034 5.821 236.175 5.878 236.289 5.992C236.403 6.106 236.46 6.253 236.46 6.433C236.46 6.613 236.4 6.763 236.28 6.883C236.166 6.997 236.028 7.054 235.866 7.054Z" fill="white"/>
</svg>
