<svg width="1034" height="38" viewBox="0 0 1034 38" fill="none" xmlns="http://www.w3.org/2000/svg">
<path d="M3.52 4.56V15.56H18V18.12H3.52V30H0.56V2H19.76V4.56H3.52ZM24.0819 8.96H26.9219V30H24.0819V8.96ZM25.5219 4.36C24.9352 4.36 24.4419 4.16 24.0419 3.76C23.6419 3.36 23.4419 2.88 23.4419 2.32C23.4419 1.78667 23.6419 1.32 24.0419 0.919998C24.4419 0.519998 24.9352 0.319998 25.5219 0.319998C26.1085 0.319998 26.6019 0.519998 27.0019 0.919998C27.4019 1.29333 27.6019 1.74666 27.6019 2.28C27.6019 2.86667 27.4019 3.36 27.0019 3.76C26.6019 4.16 26.1085 4.36 25.5219 4.36ZM44.7441 8.8C47.3841 8.8 49.4774 9.57333 51.0241 11.12C52.5974 12.64 53.3841 14.8667 53.3841 17.8V30H50.5441V18.08C50.5441 15.8933 49.9974 14.2267 48.9041 13.08C47.8107 11.9333 46.2507 11.36 44.2241 11.36C41.9574 11.36 40.1574 12.04 38.8241 13.4C37.5174 14.7333 36.8641 16.5867 36.8641 18.96V30H34.0241V8.96H36.7441V12.84C37.5174 11.56 38.5841 10.5733 39.9441 9.88C41.3307 9.16 42.9307 8.8 44.7441 8.8ZM79.5725 0.319998V30H76.8525V25.84C75.9992 27.2533 74.8658 28.3333 73.4525 29.08C72.0658 29.8267 70.4925 30.2 68.7325 30.2C66.7592 30.2 64.9725 29.7467 63.3725 28.84C61.7725 27.9333 60.5192 26.6667 59.6125 25.04C58.7058 23.4133 58.2525 21.56 58.2525 19.48C58.2525 17.4 58.7058 15.5467 59.6125 13.92C60.5192 12.2933 61.7725 11.04 63.3725 10.16C64.9725 9.25333 66.7592 8.8 68.7325 8.8C70.4392 8.8 71.9725 9.16 73.3325 9.88C74.7192 10.5733 75.8525 11.6 76.7325 12.96V0.319998H79.5725ZM68.9725 27.68C70.4392 27.68 71.7592 27.3467 72.9325 26.68C74.1325 25.9867 75.0658 25.0133 75.7325 23.76C76.4258 22.5067 76.7725 21.08 76.7725 19.48C76.7725 17.88 76.4258 16.4533 75.7325 15.2C75.0658 13.9467 74.1325 12.9867 72.9325 12.32C71.7592 11.6267 70.4392 11.28 68.9725 11.28C67.4792 11.28 66.1325 11.6267 64.9325 12.32C63.7592 12.9867 62.8258 13.9467 62.1325 15.2C61.4658 16.4533 61.1325 17.88 61.1325 19.48C61.1325 21.08 61.4658 22.5067 62.1325 23.76C62.8258 25.0133 63.7592 25.9867 64.9325 26.68C66.1325 27.3467 67.4792 27.68 68.9725 27.68ZM104.951 30.2C102.924 30.2 101.097 29.7467 99.4706 28.84C97.844 27.9067 96.564 26.6267 95.6306 25C94.6973 23.3733 94.2306 21.5333 94.2306 19.48C94.2306 17.4267 94.6973 15.5867 95.6306 13.96C96.564 12.3333 97.844 11.0667 99.4706 10.16C101.097 9.25333 102.924 8.8 104.951 8.8C106.977 8.8 108.804 9.25333 110.431 10.16C112.057 11.0667 113.324 12.3333 114.231 13.96C115.164 15.5867 115.631 17.4267 115.631 19.48C115.631 21.5333 115.164 23.3733 114.231 25C113.324 26.6267 112.057 27.9067 110.431 28.84C108.804 29.7467 106.977 30.2 104.951 30.2ZM104.951 27.68C106.444 27.68 107.777 27.3467 108.951 26.68C110.151 25.9867 111.084 25.0133 111.751 23.76C112.417 22.5067 112.751 21.08 112.751 19.48C112.751 17.88 112.417 16.4533 111.751 15.2C111.084 13.9467 110.151 12.9867 108.951 12.32C107.777 11.6267 106.444 11.28 104.951 11.28C103.457 11.28 102.111 11.6267 100.911 12.32C99.7373 12.9867 98.804 13.9467 98.1106 15.2C97.444 16.4533 97.1106 17.88 97.1106 19.48C97.1106 21.08 97.444 22.5067 98.1106 23.76C98.804 25.0133 99.7373 25.9867 100.911 26.68C102.111 27.3467 103.457 27.68 104.951 27.68ZM139.589 8.96V30H136.869V26.16C136.122 27.44 135.095 28.44 133.789 29.16C132.482 29.8533 130.989 30.2 129.309 30.2C126.562 30.2 124.389 29.44 122.789 27.92C121.215 26.3733 120.429 24.12 120.429 21.16V8.96H123.269V20.88C123.269 23.0933 123.815 24.7733 124.909 25.92C126.002 27.0667 127.562 27.64 129.589 27.64C131.802 27.64 133.549 26.9733 134.829 25.64C136.109 24.28 136.749 22.4 136.749 20V8.96H139.589ZM157.823 28.72C157.289 29.2 156.623 29.5733 155.823 29.84C155.049 30.08 154.236 30.2 153.383 30.2C151.409 30.2 149.889 29.6667 148.823 28.6C147.756 27.5333 147.223 26.0267 147.223 24.08V11.36H143.463V8.96H147.223V4.36H150.063V8.96H156.463V11.36H150.063V23.92C150.063 25.1733 150.369 26.1333 150.983 26.8C151.623 27.44 152.529 27.76 153.703 27.76C154.289 27.76 154.849 27.6667 155.383 27.48C155.943 27.2933 156.423 27.0267 156.823 26.68L157.823 28.72ZM202.742 8.96L194.782 30H192.102L185.462 12.76L178.822 30H176.142L168.222 8.96H170.942L177.542 26.84L184.302 8.96H186.742L193.462 26.84L200.142 8.96H202.742ZM216.938 8.8C219.578 8.8 221.671 9.57333 223.218 11.12C224.791 12.64 225.578 14.8667 225.578 17.8V30H222.738V18.08C222.738 15.8933 222.191 14.2267 221.098 13.08C220.004 11.9333 218.444 11.36 216.418 11.36C214.151 11.36 212.351 12.04 211.018 13.4C209.711 14.7333 209.058 16.5867 209.058 18.96V30H206.218V0.319998H209.058V12.64C209.831 11.4133 210.898 10.4667 212.258 9.8C213.618 9.13333 215.178 8.8 216.938 8.8ZM232.488 8.96H235.328V30H232.488V8.96ZM233.928 4.36C233.341 4.36 232.848 4.16 232.448 3.76C232.048 3.36 231.848 2.88 231.848 2.32C231.848 1.78667 232.048 1.32 232.448 0.919998C232.848 0.519998 233.341 0.319998 233.928 0.319998C234.515 0.319998 235.008 0.519998 235.408 0.919998C235.808 1.29333 236.008 1.74666 236.008 2.28C236.008 2.86667 235.808 3.36 235.408 3.76C235.008 4.16 234.515 4.36 233.928 4.36ZM251.15 30.2C249.07 30.2 247.204 29.7467 245.55 28.84C243.924 27.9333 242.644 26.6667 241.71 25.04C240.777 23.3867 240.31 21.5333 240.31 19.48C240.31 17.4267 240.777 15.5867 241.71 13.96C242.644 12.3333 243.924 11.0667 245.55 10.16C247.204 9.25333 249.07 8.8 251.15 8.8C252.964 8.8 254.577 9.16 255.99 9.88C257.43 10.5733 258.564 11.6 259.39 12.96L257.27 14.4C256.577 13.36 255.697 12.5867 254.63 12.08C253.564 11.5467 252.404 11.28 251.15 11.28C249.63 11.28 248.257 11.6267 247.03 12.32C245.83 12.9867 244.884 13.9467 244.19 15.2C243.524 16.4533 243.19 17.88 243.19 19.48C243.19 21.1067 243.524 22.5467 244.19 23.8C244.884 25.0267 245.83 25.9867 247.03 26.68C248.257 27.3467 249.63 27.68 251.15 27.68C252.404 27.68 253.564 27.4267 254.63 26.92C255.697 26.4133 256.577 25.64 257.27 24.6L259.39 26.04C258.564 27.4 257.43 28.44 255.99 29.16C254.55 29.8533 252.937 30.2 251.15 30.2ZM274.577 8.8C277.217 8.8 279.31 9.57333 280.857 11.12C282.43 12.64 283.217 14.8667 283.217 17.8V30H280.377V18.08C280.377 15.8933 279.83 14.2267 278.737 13.08C277.644 11.9333 276.084 11.36 274.057 11.36C271.79 11.36 269.99 12.04 268.657 13.4C267.35 14.7333 266.697 16.5867 266.697 18.96V30H263.857V0.319998H266.697V12.64C267.47 11.4133 268.537 10.4667 269.897 9.8C271.257 9.13333 272.817 8.8 274.577 8.8ZM310.876 28.72C310.343 29.2 309.676 29.5733 308.876 29.84C308.103 30.08 307.289 30.2 306.436 30.2C304.463 30.2 302.943 29.6667 301.876 28.6C300.809 27.5333 300.276 26.0267 300.276 24.08V11.36H296.516V8.96H300.276V4.36H303.116V8.96H309.516V11.36H303.116V23.92C303.116 25.1733 303.423 26.1333 304.036 26.8C304.676 27.44 305.583 27.76 306.756 27.76C307.343 27.76 307.903 27.6667 308.436 27.48C308.996 27.2933 309.476 27.0267 309.876 26.68L310.876 28.72ZM332.535 8.96L322.015 32.52C321.162 34.4933 320.175 35.8933 319.055 36.72C317.935 37.5467 316.589 37.96 315.015 37.96C314.002 37.96 313.055 37.8 312.175 37.48C311.295 37.16 310.535 36.68 309.895 36.04L311.215 33.92C312.282 34.9867 313.562 35.52 315.055 35.52C316.015 35.52 316.829 35.2533 317.495 34.72C318.189 34.1867 318.829 33.28 319.415 32L320.335 29.96L310.935 8.96H313.895L321.815 26.84L329.735 8.96H332.535ZM346.575 8.8C348.548 8.8 350.335 9.25333 351.935 10.16C353.535 11.04 354.788 12.2933 355.695 13.92C356.602 15.5467 357.055 17.4 357.055 19.48C357.055 21.5867 356.602 23.4533 355.695 25.08C354.788 26.7067 353.535 27.9733 351.935 28.88C350.362 29.76 348.575 30.2 346.575 30.2C344.868 30.2 343.322 29.8533 341.935 29.16C340.575 28.44 339.455 27.4 338.575 26.04V37.76H335.735V8.96H338.455V13.12C339.308 11.7333 340.428 10.6667 341.815 9.92C343.228 9.17333 344.815 8.8 346.575 8.8ZM346.375 27.68C347.842 27.68 349.175 27.3467 350.375 26.68C351.575 25.9867 352.508 25.0133 353.175 23.76C353.868 22.5067 354.215 21.08 354.215 19.48C354.215 17.88 353.868 16.4667 353.175 15.24C352.508 13.9867 351.575 13.0133 350.375 12.32C349.175 11.6267 347.842 11.28 346.375 11.28C344.882 11.28 343.535 11.6267 342.335 12.32C341.162 13.0133 340.228 13.9867 339.535 15.24C338.868 16.4667 338.535 17.88 338.535 19.48C338.535 21.08 338.868 22.5067 339.535 23.76C340.228 25.0133 341.162 25.9867 342.335 26.68C343.535 27.3467 344.882 27.68 346.375 27.68ZM380.364 20.36H362.764C362.924 22.5467 363.764 24.32 365.284 25.68C366.804 27.0133 368.724 27.68 371.044 27.68C372.351 27.68 373.551 27.4533 374.644 27C375.738 26.52 376.684 25.8267 377.484 24.92L379.084 26.76C378.151 27.88 376.978 28.7333 375.564 29.32C374.178 29.9067 372.644 30.2 370.964 30.2C368.804 30.2 366.884 29.7467 365.204 28.84C363.551 27.9067 362.258 26.6267 361.324 25C360.391 23.3733 359.924 21.5333 359.924 19.48C359.924 17.4267 360.364 15.5867 361.244 13.96C362.151 12.3333 363.378 11.0667 364.924 10.16C366.498 9.25333 368.258 8.8 370.204 8.8C372.151 8.8 373.898 9.25333 375.444 10.16C376.991 11.0667 378.204 12.3333 379.084 13.96C379.964 15.56 380.404 17.4 380.404 19.48L380.364 20.36ZM370.204 11.24C368.178 11.24 366.471 11.8933 365.084 13.2C363.724 14.48 362.951 16.16 362.764 18.24H377.684C377.498 16.16 376.711 14.48 375.324 13.2C373.964 11.8933 372.258 11.24 370.204 11.24ZM403.654 30.2C401.627 30.2 399.8 29.7467 398.174 28.84C396.547 27.9067 395.267 26.6267 394.334 25C393.4 23.3733 392.934 21.5333 392.934 19.48C392.934 17.4267 393.4 15.5867 394.334 13.96C395.267 12.3333 396.547 11.0667 398.174 10.16C399.8 9.25333 401.627 8.8 403.654 8.8C405.68 8.8 407.507 9.25333 409.134 10.16C410.76 11.0667 412.027 12.3333 412.934 13.96C413.867 15.5867 414.334 17.4267 414.334 19.48C414.334 21.5333 413.867 23.3733 412.934 25C412.027 26.6267 410.76 27.9067 409.134 28.84C407.507 29.7467 405.68 30.2 403.654 30.2ZM403.654 27.68C405.147 27.68 406.48 27.3467 407.654 26.68C408.854 25.9867 409.787 25.0133 410.454 23.76C411.12 22.5067 411.454 21.08 411.454 19.48C411.454 17.88 411.12 16.4533 410.454 15.2C409.787 13.9467 408.854 12.9867 407.654 12.32C406.48 11.6267 405.147 11.28 403.654 11.28C402.16 11.28 400.814 11.6267 399.614 12.32C398.44 12.9867 397.507 13.9467 396.814 15.2C396.147 16.4533 395.814 17.88 395.814 19.48C395.814 21.08 396.147 22.5067 396.814 23.76C397.507 25.0133 398.44 25.9867 399.614 26.68C400.814 27.3467 402.16 27.68 403.654 27.68ZM426.292 2.52C425.065 2.52 424.132 2.85333 423.492 3.52C422.879 4.18667 422.572 5.17333 422.572 6.48V8.96H429.052V11.36H422.652V30H419.812V11.36H416.052V8.96H419.812V6.36C419.812 4.44 420.359 2.92 421.452 1.8C422.572 0.679998 424.145 0.119998 426.172 0.119998C426.972 0.119998 427.745 0.239998 428.492 0.479999C429.239 0.693332 429.865 1.01333 430.372 1.44L429.412 3.56C428.585 2.86667 427.545 2.52 426.292 2.52ZM467.995 8.8C470.635 8.8 472.702 9.56 474.195 11.08C475.715 12.6 476.475 14.84 476.475 17.8V30H473.635V18.08C473.635 15.8933 473.102 14.2267 472.035 13.08C470.995 11.9333 469.515 11.36 467.595 11.36C465.409 11.36 463.689 12.04 462.435 13.4C461.182 14.7333 460.555 16.5867 460.555 18.96V30H457.715V18.08C457.715 15.8933 457.182 14.2267 456.115 13.08C455.075 11.9333 453.582 11.36 451.635 11.36C449.475 11.36 447.755 12.04 446.475 13.4C445.222 14.7333 444.595 16.5867 444.595 18.96V30H441.755V8.96H444.475V12.8C445.222 11.52 446.262 10.5333 447.595 9.84C448.929 9.14667 450.462 8.8 452.195 8.8C453.955 8.8 455.475 9.17333 456.755 9.92C458.062 10.6667 459.035 11.7733 459.675 13.24C460.449 11.8533 461.555 10.7733 462.995 10C464.462 9.2 466.129 8.8 467.995 8.8ZM501.775 20.36H484.175C484.335 22.5467 485.175 24.32 486.695 25.68C488.215 27.0133 490.135 27.68 492.455 27.68C493.762 27.68 494.962 27.4533 496.055 27C497.149 26.52 498.095 25.8267 498.895 24.92L500.495 26.76C499.562 27.88 498.389 28.7333 496.975 29.32C495.589 29.9067 494.055 30.2 492.375 30.2C490.215 30.2 488.295 29.7467 486.615 28.84C484.962 27.9067 483.669 26.6267 482.735 25C481.802 23.3733 481.335 21.5333 481.335 19.48C481.335 17.4267 481.775 15.5867 482.655 13.96C483.562 12.3333 484.789 11.0667 486.335 10.16C487.909 9.25333 489.669 8.8 491.615 8.8C493.562 8.8 495.309 9.25333 496.855 10.16C498.402 11.0667 499.615 12.3333 500.495 13.96C501.375 15.56 501.815 17.4 501.815 19.48L501.775 20.36ZM491.615 11.24C489.589 11.24 487.882 11.8933 486.495 13.2C485.135 14.48 484.362 16.16 484.175 18.24H499.095C498.909 16.16 498.122 14.48 496.735 13.2C495.375 11.8933 493.669 11.24 491.615 11.24ZM533.036 8.8C535.676 8.8 537.743 9.56 539.236 11.08C540.756 12.6 541.516 14.84 541.516 17.8V30H538.676V18.08C538.676 15.8933 538.143 14.2267 537.076 13.08C536.036 11.9333 534.556 11.36 532.636 11.36C530.449 11.36 528.729 12.04 527.476 13.4C526.223 14.7333 525.596 16.5867 525.596 18.96V30H522.756V18.08C522.756 15.8933 522.223 14.2267 521.156 13.08C520.116 11.9333 518.623 11.36 516.676 11.36C514.516 11.36 512.796 12.04 511.516 13.4C510.263 14.7333 509.636 16.5867 509.636 18.96V30H506.796V8.96H509.516V12.8C510.263 11.52 511.303 10.5333 512.636 9.84C513.969 9.14667 515.503 8.8 517.236 8.8C518.996 8.8 520.516 9.17333 521.796 9.92C523.103 10.6667 524.076 11.7733 524.716 13.24C525.489 11.8533 526.596 10.7733 528.036 10C529.503 9.2 531.169 8.8 533.036 8.8ZM559.258 8.8C561.231 8.8 563.018 9.25333 564.618 10.16C566.218 11.04 567.471 12.2933 568.378 13.92C569.284 15.5467 569.738 17.4 569.738 19.48C569.738 21.56 569.284 23.4133 568.378 25.04C567.471 26.6667 566.218 27.9333 564.618 28.84C563.018 29.7467 561.231 30.2 559.258 30.2C557.498 30.2 555.911 29.8267 554.498 29.08C553.111 28.3333 551.991 27.2533 551.138 25.84V30H548.418V0.319998H551.258V12.96C552.138 11.6 553.258 10.5733 554.618 9.88C556.004 9.16 557.551 8.8 559.258 8.8ZM559.058 27.68C560.524 27.68 561.858 27.3467 563.058 26.68C564.258 25.9867 565.191 25.0133 565.858 23.76C566.551 22.5067 566.898 21.08 566.898 19.48C566.898 17.88 566.551 16.4533 565.858 15.2C565.191 13.9467 564.258 12.9867 563.058 12.32C561.858 11.6267 560.524 11.28 559.058 11.28C557.564 11.28 556.218 11.6267 555.018 12.32C553.844 12.9867 552.911 13.9467 552.218 15.2C551.551 16.4533 551.218 17.88 551.218 19.48C551.218 21.08 551.551 22.5067 552.218 23.76C552.911 25.0133 553.844 25.9867 555.018 26.68C556.218 27.3467 557.564 27.68 559.058 27.68ZM593.047 20.36H575.447C575.607 22.5467 576.447 24.32 577.967 25.68C579.487 27.0133 581.407 27.68 583.727 27.68C585.034 27.68 586.234 27.4533 587.327 27C588.421 26.52 589.367 25.8267 590.167 24.92L591.767 26.76C590.834 27.88 589.661 28.7333 588.247 29.32C586.861 29.9067 585.327 30.2 583.647 30.2C581.487 30.2 579.567 29.7467 577.887 28.84C576.234 27.9067 574.941 26.6267 574.007 25C573.074 23.3733 572.607 21.5333 572.607 19.48C572.607 17.4267 573.047 15.5867 573.927 13.96C574.834 12.3333 576.061 11.0667 577.607 10.16C579.181 9.25333 580.941 8.8 582.887 8.8C584.834 8.8 586.581 9.25333 588.127 10.16C589.674 11.0667 590.887 12.3333 591.767 13.96C592.647 15.56 593.087 17.4 593.087 19.48L593.047 20.36ZM582.887 11.24C580.861 11.24 579.154 11.8933 577.767 13.2C576.407 14.48 575.634 16.16 575.447 18.24H590.367C590.181 16.16 589.394 14.48 588.007 13.2C586.647 11.8933 584.941 11.24 582.887 11.24ZM600.788 13.08C601.454 11.6667 602.441 10.6 603.748 9.88C605.081 9.16 606.721 8.8 608.668 8.8V11.56L607.988 11.52C605.774 11.52 604.041 12.2 602.788 13.56C601.534 14.92 600.908 16.8267 600.908 19.28V30H598.068V8.96H600.788V13.08ZM618.806 30.2C617.1 30.2 615.46 29.96 613.886 29.48C612.34 28.9733 611.126 28.3467 610.246 27.6L611.526 25.36C612.406 26.0533 613.513 26.6267 614.846 27.08C616.18 27.5067 617.566 27.72 619.006 27.72C620.926 27.72 622.34 27.4267 623.246 26.84C624.18 26.2267 624.646 25.3733 624.646 24.28C624.646 23.5067 624.393 22.9067 623.886 22.48C623.38 22.0267 622.74 21.6933 621.966 21.48C621.193 21.24 620.166 21.0133 618.886 20.8C617.18 20.48 615.806 20.16 614.766 19.84C613.726 19.4933 612.833 18.92 612.086 18.12C611.366 17.32 611.006 16.2133 611.006 14.8C611.006 13.04 611.74 11.6 613.206 10.48C614.673 9.36 616.713 8.8 619.326 8.8C620.686 8.8 622.046 8.98667 623.406 9.36C624.766 9.70667 625.886 10.1733 626.766 10.76L625.526 13.04C623.793 11.84 621.726 11.24 619.326 11.24C617.513 11.24 616.14 11.56 615.206 12.2C614.3 12.84 613.846 13.68 613.846 14.72C613.846 15.52 614.1 16.16 614.606 16.64C615.14 17.12 615.793 17.48 616.566 17.72C617.34 17.9333 618.406 18.16 619.766 18.4C621.446 18.72 622.793 19.04 623.806 19.36C624.82 19.68 625.686 20.2267 626.406 21C627.126 21.7733 627.486 22.84 627.486 24.2C627.486 26.04 626.713 27.5067 625.166 28.6C623.646 29.6667 621.526 30.2 618.806 30.2ZM642.657 8.8C645.297 8.8 647.39 9.57333 648.937 11.12C650.51 12.64 651.297 14.8667 651.297 17.8V30H648.457V18.08C648.457 15.8933 647.91 14.2267 646.817 13.08C645.723 11.9333 644.163 11.36 642.137 11.36C639.87 11.36 638.07 12.04 636.737 13.4C635.43 14.7333 634.777 16.5867 634.777 18.96V30H631.937V0.319998H634.777V12.64C635.55 11.4133 636.617 10.4667 637.977 9.8C639.337 9.13333 640.897 8.8 642.657 8.8ZM658.207 8.96H661.047V30H658.207V8.96ZM659.647 4.36C659.06 4.36 658.567 4.16 658.167 3.76C657.767 3.36 657.567 2.88 657.567 2.32C657.567 1.78667 657.767 1.32 658.167 0.919998C658.567 0.519998 659.06 0.319998 659.647 0.319998C660.234 0.319998 660.727 0.519998 661.127 0.919998C661.527 1.29333 661.727 1.74666 661.727 2.28C661.727 2.86667 661.527 3.36 661.127 3.76C660.727 4.16 660.234 4.36 659.647 4.36ZM678.989 8.8C680.962 8.8 682.749 9.25333 684.349 10.16C685.949 11.04 687.202 12.2933 688.109 13.92C689.016 15.5467 689.469 17.4 689.469 19.48C689.469 21.5867 689.016 23.4533 688.109 25.08C687.202 26.7067 685.949 27.9733 684.349 28.88C682.776 29.76 680.989 30.2 678.989 30.2C677.282 30.2 675.736 29.8533 674.349 29.16C672.989 28.44 671.869 27.4 670.989 26.04V37.76H668.149V8.96H670.869V13.12C671.722 11.7333 672.842 10.6667 674.229 9.92C675.642 9.17333 677.229 8.8 678.989 8.8ZM678.789 27.68C680.256 27.68 681.589 27.3467 682.789 26.68C683.989 25.9867 684.922 25.0133 685.589 23.76C686.282 22.5067 686.629 21.08 686.629 19.48C686.629 17.88 686.282 16.4667 685.589 15.24C684.922 13.9867 683.989 13.0133 682.789 12.32C681.589 11.6267 680.256 11.28 678.789 11.28C677.296 11.28 675.949 11.6267 674.749 12.32C673.576 13.0133 672.642 13.9867 671.949 15.24C671.282 16.4667 670.949 17.88 670.949 19.48C670.949 21.08 671.282 22.5067 671.949 23.76C672.642 25.0133 673.576 25.9867 674.749 26.68C675.949 27.3467 677.296 27.68 678.789 27.68ZM721.807 8.96L711.287 32.52C710.434 34.4933 709.447 35.8933 708.327 36.72C707.207 37.5467 705.861 37.96 704.287 37.96C703.274 37.96 702.327 37.8 701.447 37.48C700.567 37.16 699.807 36.68 699.167 36.04L700.487 33.92C701.554 34.9867 702.834 35.52 704.327 35.52C705.287 35.52 706.101 35.2533 706.767 34.72C707.461 34.1867 708.101 33.28 708.687 32L709.607 29.96L700.207 8.96H703.167L711.087 26.84L719.007 8.96H721.807ZM733.021 30.2C730.994 30.2 729.168 29.7467 727.541 28.84C725.914 27.9067 724.634 26.6267 723.701 25C722.768 23.3733 722.301 21.5333 722.301 19.48C722.301 17.4267 722.768 15.5867 723.701 13.96C724.634 12.3333 725.914 11.0667 727.541 10.16C729.168 9.25333 730.994 8.8 733.021 8.8C735.048 8.8 736.874 9.25333 738.501 10.16C740.128 11.0667 741.394 12.3333 742.301 13.96C743.234 15.5867 743.701 17.4267 743.701 19.48C743.701 21.5333 743.234 23.3733 742.301 25C741.394 26.6267 740.128 27.9067 738.501 28.84C736.874 29.7467 735.048 30.2 733.021 30.2ZM733.021 27.68C734.514 27.68 735.848 27.3467 737.021 26.68C738.221 25.9867 739.154 25.0133 739.821 23.76C740.488 22.5067 740.821 21.08 740.821 19.48C740.821 17.88 740.488 16.4533 739.821 15.2C739.154 13.9467 738.221 12.9867 737.021 12.32C735.848 11.6267 734.514 11.28 733.021 11.28C731.528 11.28 730.181 11.6267 728.981 12.32C727.808 12.9867 726.874 13.9467 726.181 15.2C725.514 16.4533 725.181 17.88 725.181 19.48C725.181 21.08 725.514 22.5067 726.181 23.76C726.874 25.0133 727.808 25.9867 728.981 26.68C730.181 27.3467 731.528 27.68 733.021 27.68ZM767.659 8.96V30H764.939V26.16C764.192 27.44 763.166 28.44 761.859 29.16C760.552 29.8533 759.059 30.2 757.379 30.2C754.632 30.2 752.459 29.44 750.859 27.92C749.286 26.3733 748.499 24.12 748.499 21.16V8.96H751.339V20.88C751.339 23.0933 751.886 24.7733 752.979 25.92C754.072 27.0667 755.632 27.64 757.659 27.64C759.872 27.64 761.619 26.9733 762.899 25.64C764.179 24.28 764.819 22.4 764.819 20V8.96H767.659ZM775.133 0.119998C775.746 0.119998 776.253 0.333332 776.653 0.76C777.053 1.16 777.253 1.66667 777.253 2.28C777.253 2.6 777.2 2.94666 777.093 3.32C777.013 3.66666 776.893 4.08 776.733 4.56L775.013 10.08H773.093L774.493 4.32C774.04 4.18667 773.68 3.94667 773.413 3.6C773.146 3.22667 773.013 2.78667 773.013 2.28C773.013 1.64 773.213 1.12 773.613 0.719998C774.013 0.319998 774.52 0.119998 775.133 0.119998ZM785.21 13.08C785.876 11.6667 786.863 10.6 788.17 9.88C789.503 9.16 791.143 8.8 793.09 8.8V11.56L792.41 11.52C790.196 11.52 788.463 12.2 787.21 13.56C785.956 14.92 785.33 16.8267 785.33 19.28V30H782.49V8.96H785.21V13.08ZM815.557 20.36H797.957C798.117 22.5467 798.957 24.32 800.477 25.68C801.997 27.0133 803.917 27.68 806.237 27.68C807.543 27.68 808.743 27.4533 809.837 27C810.93 26.52 811.877 25.8267 812.677 24.92L814.277 26.76C813.343 27.88 812.17 28.7333 810.757 29.32C809.37 29.9067 807.837 30.2 806.157 30.2C803.997 30.2 802.077 29.7467 800.397 28.84C798.743 27.9067 797.45 26.6267 796.517 25C795.583 23.3733 795.117 21.5333 795.117 19.48C795.117 17.4267 795.557 15.5867 796.437 13.96C797.343 12.3333 798.57 11.0667 800.117 10.16C801.69 9.25333 803.45 8.8 805.397 8.8C807.343 8.8 809.09 9.25333 810.637 10.16C812.183 11.0667 813.397 12.3333 814.277 13.96C815.157 15.56 815.597 17.4 815.597 19.48L815.557 20.36ZM805.397 11.24C803.37 11.24 801.663 11.8933 800.277 13.2C798.917 14.48 798.143 16.16 797.957 18.24H812.877C812.69 16.16 811.903 14.48 810.517 13.2C809.157 11.8933 807.45 11.24 805.397 11.24ZM848.566 20.36H830.966C831.126 22.5467 831.966 24.32 833.486 25.68C835.006 27.0133 836.926 27.68 839.246 27.68C840.553 27.68 841.753 27.4533 842.846 27C843.939 26.52 844.886 25.8267 845.686 24.92L847.286 26.76C846.353 27.88 845.179 28.7333 843.766 29.32C842.379 29.9067 840.846 30.2 839.166 30.2C837.006 30.2 835.086 29.7467 833.406 28.84C831.753 27.9067 830.459 26.6267 829.526 25C828.593 23.3733 828.126 21.5333 828.126 19.48C828.126 17.4267 828.566 15.5867 829.446 13.96C830.353 12.3333 831.579 11.0667 833.126 10.16C834.699 9.25333 836.459 8.8 838.406 8.8C840.353 8.8 842.099 9.25333 843.646 10.16C845.193 11.0667 846.406 12.3333 847.286 13.96C848.166 15.56 848.606 17.4 848.606 19.48L848.566 20.36ZM838.406 11.24C836.379 11.24 834.673 11.8933 833.286 13.2C831.926 14.48 831.153 16.16 830.966 18.24H845.886C845.699 16.16 844.913 14.48 843.526 13.2C842.166 11.8933 840.459 11.24 838.406 11.24ZM853.587 0.319998H856.427V30H853.587V0.319998ZM863.529 8.96H866.369V30H863.529V8.96ZM864.969 4.36C864.382 4.36 863.889 4.16 863.489 3.76C863.089 3.36 862.889 2.88 862.889 2.32C862.889 1.78667 863.089 1.32 863.489 0.919998C863.889 0.519998 864.382 0.319998 864.969 0.319998C865.555 0.319998 866.049 0.519998 866.449 0.919998C866.849 1.29333 867.049 1.74666 867.049 2.28C867.049 2.86667 866.849 3.36 866.449 3.76C866.049 4.16 865.555 4.36 864.969 4.36ZM892.951 8.96V27.44C892.951 31.0133 892.071 33.6533 890.311 35.36C888.578 37.0933 885.951 37.96 882.431 37.96C880.484 37.96 878.631 37.6667 876.871 37.08C875.138 36.52 873.724 35.7333 872.631 34.72L874.071 32.56C875.084 33.4667 876.311 34.1733 877.751 34.68C879.218 35.1867 880.751 35.44 882.351 35.44C885.018 35.44 886.978 34.8133 888.231 33.56C889.484 32.3333 890.111 30.4133 890.111 27.8V25.12C889.231 26.4533 888.071 27.4667 886.631 28.16C885.218 28.8533 883.644 29.2 881.911 29.2C879.938 29.2 878.138 28.7733 876.511 27.92C874.911 27.04 873.644 25.8267 872.711 24.28C871.804 22.7067 871.351 20.9333 871.351 18.96C871.351 16.9867 871.804 15.2267 872.711 13.68C873.644 12.1333 874.911 10.9333 876.511 10.08C878.111 9.22667 879.911 8.8 881.911 8.8C883.698 8.8 885.311 9.16 886.751 9.88C888.191 10.6 889.351 11.64 890.231 13V8.96H892.951ZM882.191 26.68C883.711 26.68 885.084 26.36 886.311 25.72C887.538 25.0533 888.484 24.1333 889.151 22.96C889.844 21.7867 890.191 20.4533 890.191 18.96C890.191 17.4667 889.844 16.1467 889.151 15C888.484 13.8267 887.538 12.92 886.311 12.28C885.111 11.6133 883.738 11.28 882.191 11.28C880.671 11.28 879.298 11.6 878.071 12.24C876.871 12.88 875.924 13.7867 875.231 14.96C874.564 16.1333 874.231 17.4667 874.231 18.96C874.231 20.4533 874.564 21.7867 875.231 22.96C875.924 24.1333 876.871 25.0533 878.071 25.72C879.298 26.36 880.671 26.68 882.191 26.68ZM900.093 8.96H902.933V30H900.093V8.96ZM901.533 4.36C900.946 4.36 900.453 4.16 900.053 3.76C899.653 3.36 899.453 2.88 899.453 2.32C899.453 1.78667 899.653 1.32 900.053 0.919998C900.453 0.519998 900.946 0.319998 901.533 0.319998C902.119 0.319998 902.613 0.519998 903.013 0.919998C903.413 1.29333 903.613 1.74666 903.613 2.28C903.613 2.86667 903.413 3.36 903.013 3.76C902.613 4.16 902.119 4.36 901.533 4.36ZM920.875 8.8C922.848 8.8 924.635 9.25333 926.235 10.16C927.835 11.04 929.088 12.2933 929.995 13.92C930.902 15.5467 931.355 17.4 931.355 19.48C931.355 21.56 930.902 23.4133 929.995 25.04C929.088 26.6667 927.835 27.9333 926.235 28.84C924.635 29.7467 922.848 30.2 920.875 30.2C919.115 30.2 917.528 29.8267 916.115 29.08C914.728 28.3333 913.608 27.2533 912.755 25.84V30H910.035V0.319998H912.875V12.96C913.755 11.6 914.875 10.5733 916.235 9.88C917.622 9.16 919.168 8.8 920.875 8.8ZM920.675 27.68C922.142 27.68 923.475 27.3467 924.675 26.68C925.875 25.9867 926.808 25.0133 927.475 23.76C928.168 22.5067 928.515 21.08 928.515 19.48C928.515 17.88 928.168 16.4533 927.475 15.2C926.808 13.9467 925.875 12.9867 924.675 12.32C923.475 11.6267 922.142 11.28 920.675 11.28C919.182 11.28 917.835 11.6267 916.635 12.32C915.462 12.9867 914.528 13.9467 913.835 15.2C913.168 16.4533 912.835 17.88 912.835 19.48C912.835 21.08 913.168 22.5067 913.835 23.76C914.528 25.0133 915.462 25.9867 916.635 26.68C917.835 27.3467 919.182 27.68 920.675 27.68ZM936.344 0.319998H939.184V30H936.344V0.319998ZM964.607 20.36H947.007C947.167 22.5467 948.007 24.32 949.527 25.68C951.047 27.0133 952.967 27.68 955.287 27.68C956.593 27.68 957.793 27.4533 958.887 27C959.98 26.52 960.927 25.8267 961.727 24.92L963.327 26.76C962.393 27.88 961.22 28.7333 959.807 29.32C958.42 29.9067 956.887 30.2 955.207 30.2C953.047 30.2 951.127 29.7467 949.447 28.84C947.793 27.9067 946.5 26.6267 945.567 25C944.633 23.3733 944.167 21.5333 944.167 19.48C944.167 17.4267 944.607 15.5867 945.487 13.96C946.393 12.3333 947.62 11.0667 949.167 10.16C950.74 9.25333 952.5 8.8 954.447 8.8C956.393 8.8 958.14 9.25333 959.687 10.16C961.233 11.0667 962.447 12.3333 963.327 13.96C964.207 15.56 964.647 17.4 964.647 19.48L964.607 20.36ZM954.447 11.24C952.42 11.24 950.713 11.8933 949.327 13.2C947.967 14.48 947.193 16.16 947.007 18.24H961.927C961.74 16.16 960.953 14.48 959.567 13.2C958.207 11.8933 956.5 11.24 954.447 11.24ZM986.256 2.52C985.029 2.52 984.096 2.85333 983.456 3.52C982.843 4.18667 982.536 5.17333 982.536 6.48V8.96H989.016V11.36H982.616V30H979.776V11.36H976.016V8.96H979.776V6.36C979.776 4.44 980.323 2.92 981.416 1.8C982.536 0.679998 984.109 0.119998 986.136 0.119998C986.936 0.119998 987.709 0.239998 988.456 0.479999C989.203 0.693332 989.829 1.01333 990.336 1.44L989.376 3.56C988.549 2.86667 987.509 2.52 986.256 2.52ZM1000.3 30.2C998.272 30.2 996.446 29.7467 994.819 28.84C993.192 27.9067 991.912 26.6267 990.979 25C990.046 23.3733 989.579 21.5333 989.579 19.48C989.579 17.4267 990.046 15.5867 990.979 13.96C991.912 12.3333 993.192 11.0667 994.819 10.16C996.446 9.25333 998.272 8.8 1000.3 8.8C1002.33 8.8 1004.15 9.25333 1005.78 10.16C1007.41 11.0667 1008.67 12.3333 1009.58 13.96C1010.51 15.5867 1010.98 17.4267 1010.98 19.48C1010.98 21.5333 1010.51 23.3733 1009.58 25C1008.67 26.6267 1007.41 27.9067 1005.78 28.84C1004.15 29.7467 1002.33 30.2 1000.3 30.2ZM1000.3 27.68C1001.79 27.68 1003.13 27.3467 1004.3 26.68C1005.5 25.9867 1006.43 25.0133 1007.1 23.76C1007.77 22.5067 1008.1 21.08 1008.1 19.48C1008.1 17.88 1007.77 16.4533 1007.1 15.2C1006.43 13.9467 1005.5 12.9867 1004.3 12.32C1003.13 11.6267 1001.79 11.28 1000.3 11.28C998.806 11.28 997.459 11.6267 996.259 12.32C995.086 12.9867 994.152 13.9467 993.459 15.2C992.792 16.4533 992.459 17.88 992.459 19.48C992.459 21.08 992.792 22.5067 993.459 23.76C994.152 25.0133 995.086 25.9867 996.259 26.68C997.459 27.3467 998.806 27.68 1000.3 27.68ZM1018.7 13.08C1019.36 11.6667 1020.35 10.6 1021.66 9.88C1022.99 9.16 1024.63 8.8 1026.58 8.8V11.56L1025.9 11.52C1023.68 11.52 1021.95 12.2 1020.7 13.56C1019.44 14.92 1018.82 16.8267 1018.82 19.28V30H1015.98V8.96H1018.7V13.08ZM1031.12 30.2C1030.53 30.2 1030.03 29.9867 1029.6 29.56C1029.2 29.1333 1029 28.6133 1029 28C1029 27.3867 1029.2 26.88 1029.6 26.48C1030.03 26.0533 1030.53 25.84 1031.12 25.84C1031.71 25.84 1032.21 26.0533 1032.64 26.48C1033.07 26.88 1033.28 27.3867 1033.28 28C1033.28 28.6133 1033.07 29.1333 1032.64 29.56C1032.21 29.9867 1031.71 30.2 1031.12 30.2Z" fill="white"/>
</svg>
