<svg width="433" height="17" viewBox="0 0 433 17" fill="none" xmlns="http://www.w3.org/2000/svg">
<path d="M1.66362 2.38458V6.98303H7.71685V8.05321H1.66362V13.0195H0.426223V1.3144H8.4526V2.38458H1.66362ZM10.2593 4.22396H11.4466V13.0195H10.2593V4.22396ZM10.8613 2.30097C10.616 2.30097 10.4098 2.21737 10.2426 2.05015C10.0754 1.88293 9.99177 1.68227 9.99177 1.44817C9.99177 1.22522 10.0754 1.03013 10.2426 0.862914C10.4098 0.695697 10.616 0.612089 10.8613 0.612089C11.1065 0.612089 11.3128 0.695697 11.48 0.862914C11.6472 1.01898 11.7308 1.20849 11.7308 1.43145C11.7308 1.6767 11.6472 1.88293 11.48 2.05015C11.3128 2.21737 11.1065 2.30097 10.8613 2.30097ZM18.8969 4.15707C20.0006 4.15707 20.8757 4.48036 21.5222 5.12693C22.18 5.76235 22.5088 6.69319 22.5088 7.91944V13.0195H21.3216V8.03649C21.3216 7.12237 21.0931 6.42564 20.636 5.94629C20.1789 5.46693 19.5268 5.22726 18.6796 5.22726C17.732 5.22726 16.9795 5.51152 16.4221 6.08006C15.8759 6.63745 15.6028 7.41221 15.6028 8.40436V13.0195H14.4156V4.22396H15.5526V5.84596C15.8759 5.31086 16.3218 4.8984 16.8904 4.60856C17.47 4.30757 18.1389 4.15707 18.8969 4.15707ZM33.4566 0.612089V13.0195H32.3196V11.2805C31.9628 11.8713 31.4891 12.3228 30.8982 12.6349C30.3186 12.9471 29.6608 13.1031 28.9251 13.1031C28.1002 13.1031 27.3533 12.9136 26.6844 12.5346C26.0155 12.1556 25.4916 11.6261 25.1126 10.9461C24.7335 10.266 24.544 9.49127 24.544 8.62175C24.544 7.75222 24.7335 6.97745 25.1126 6.29744C25.4916 5.61743 26.0155 5.09348 26.6844 4.72561C27.3533 4.34658 28.1002 4.15707 28.9251 4.15707C29.6385 4.15707 30.2795 4.30757 30.8481 4.60856C31.4278 4.8984 31.9015 5.32759 32.2694 5.89612V0.612089H33.4566ZM29.0254 12.0497C29.6385 12.0497 30.1904 11.9103 30.6809 11.6316C31.1825 11.3418 31.5727 10.9349 31.8514 10.411C32.1412 9.88701 32.2861 9.29061 32.2861 8.62175C32.2861 7.95288 32.1412 7.35648 31.8514 6.83253C31.5727 6.30859 31.1825 5.90727 30.6809 5.62858C30.1904 5.33873 29.6385 5.19381 29.0254 5.19381C28.4011 5.19381 27.8382 5.33873 27.3365 5.62858C26.846 5.90727 26.4559 6.30859 26.166 6.83253C25.8873 7.35648 25.748 7.95288 25.748 8.62175C25.748 9.29061 25.8873 9.88701 26.166 10.411C26.4559 10.9349 26.846 11.3418 27.3365 11.6316C27.8382 11.9103 28.4011 12.0497 29.0254 12.0497ZM44.0657 13.1031C43.2185 13.1031 42.4549 12.9136 41.7749 12.5346C41.0949 12.1444 40.5598 11.6093 40.1696 10.9293C39.7794 10.2493 39.5843 9.48012 39.5843 8.62175C39.5843 7.76337 39.7794 6.99417 40.1696 6.31416C40.5598 5.63415 41.0949 5.10463 41.7749 4.72561C42.4549 4.34658 43.2185 4.15707 44.0657 4.15707C44.913 4.15707 45.6766 4.34658 46.3566 4.72561C47.0366 5.10463 47.5661 5.63415 47.9451 6.31416C48.3353 6.99417 48.5304 7.76337 48.5304 8.62175C48.5304 9.48012 48.3353 10.2493 47.9451 10.9293C47.5661 11.6093 47.0366 12.1444 46.3566 12.5346C45.6766 12.9136 44.913 13.1031 44.0657 13.1031ZM44.0657 12.0497C44.69 12.0497 45.2474 11.9103 45.7379 11.6316C46.2395 11.3418 46.6297 10.9349 46.9084 10.411C47.1871 9.88701 47.3264 9.29061 47.3264 8.62175C47.3264 7.95288 47.1871 7.35648 46.9084 6.83253C46.6297 6.30859 46.2395 5.90727 45.7379 5.62858C45.2474 5.33873 44.69 5.19381 44.0657 5.19381C43.4415 5.19381 42.8785 5.33873 42.3768 5.62858C41.8863 5.90727 41.4962 6.30859 41.2063 6.83253C40.9276 7.35648 40.7883 7.95288 40.7883 8.62175C40.7883 9.29061 40.9276 9.88701 41.2063 10.411C41.4962 10.9349 41.8863 11.3418 42.3768 11.6316C42.8785 11.9103 43.4415 12.0497 44.0657 12.0497ZM58.5459 4.22396V13.0195H57.4088V11.4143C57.0967 11.9493 56.6675 12.3674 56.1212 12.6684C55.575 12.9582 54.9507 13.1031 54.2484 13.1031C53.1002 13.1031 52.1917 12.7854 51.5228 12.15C50.8651 11.5034 50.5362 10.5615 50.5362 9.32405V4.22396H51.7234V9.207C51.7234 10.1323 51.952 10.8346 52.409 11.3139C52.8661 11.7933 53.5182 12.033 54.3655 12.033C55.2907 12.033 56.0209 11.7543 56.556 11.1969C57.0911 10.6283 57.3586 9.84242 57.3586 8.83913V4.22396H58.5459ZM66.1684 12.4844C65.9455 12.6851 65.6668 12.8412 65.3324 12.9526C65.0091 13.053 64.6691 13.1031 64.3123 13.1031C63.4874 13.1031 62.852 12.8802 62.4061 12.4343C61.9602 11.9884 61.7372 11.3585 61.7372 10.5447V5.22726H60.1654V4.22396H61.7372V2.30097H62.9244V4.22396H65.5999V5.22726H62.9244V10.4778C62.9244 11.0018 63.0526 11.4031 63.309 11.6818C63.5766 11.9493 63.9556 12.0831 64.4461 12.0831C64.6914 12.0831 64.9255 12.0441 65.1484 11.9661C65.3825 11.888 65.5832 11.7766 65.7504 11.6316L66.1684 12.4844ZM84.9463 4.22396L81.6187 13.0195H80.4983L77.7226 5.81251L74.9468 13.0195H73.8264L70.5155 4.22396H71.6526L74.4117 11.6985L77.2376 4.22396H78.2576L81.0669 11.6985L83.8594 4.22396H84.9463ZM90.8809 4.15707C91.9845 4.15707 92.8596 4.48036 93.5062 5.12693C94.1639 5.76235 94.4928 6.69319 94.4928 7.91944V13.0195H93.3055V8.03649C93.3055 7.12237 93.077 6.42564 92.62 5.94629C92.1629 5.46693 91.5108 5.22726 90.6635 5.22726C89.716 5.22726 88.9635 5.51152 88.4061 6.08006C87.8599 6.63745 87.5867 7.41221 87.5867 8.40436V13.0195H86.3995V0.612089H87.5867V5.76235C87.91 5.24955 88.3559 4.85381 88.9245 4.57511C89.493 4.29642 90.1452 4.15707 90.8809 4.15707ZM97.3816 4.22396H98.5688V13.0195H97.3816V4.22396ZM97.9835 2.30097C97.7383 2.30097 97.5321 2.21737 97.3648 2.05015C97.1976 1.88293 97.114 1.68227 97.114 1.44817C97.114 1.22522 97.1976 1.03013 97.3648 0.862914C97.5321 0.695697 97.7383 0.612089 97.9835 0.612089C98.2288 0.612089 98.435 0.695697 98.6022 0.862914C98.7695 1.01898 98.8531 1.20849 98.8531 1.43145C98.8531 1.6767 98.7695 1.88293 98.6022 2.05015C98.435 2.21737 98.2288 2.30097 97.9835 2.30097ZM105.183 13.1031C104.314 13.1031 103.533 12.9136 102.842 12.5346C102.162 12.1556 101.627 11.6261 101.237 10.9461C100.847 10.2549 100.652 9.48012 100.652 8.62175C100.652 7.76337 100.847 6.99417 101.237 6.31416C101.627 5.63415 102.162 5.10463 102.842 4.72561C103.533 4.34658 104.314 4.15707 105.183 4.15707C105.941 4.15707 106.616 4.30757 107.206 4.60856C107.808 4.8984 108.282 5.32759 108.628 5.89612L107.742 6.4981C107.452 6.06334 107.084 5.74005 106.638 5.52825C106.192 5.30529 105.707 5.19381 105.183 5.19381C104.548 5.19381 103.974 5.33873 103.461 5.62858C102.959 5.90727 102.563 6.30859 102.274 6.83253C101.995 7.35648 101.856 7.95288 101.856 8.62175C101.856 9.30176 101.995 9.90374 102.274 10.4277C102.563 10.9405 102.959 11.3418 103.461 11.6316C103.974 11.9103 104.548 12.0497 105.183 12.0497C105.707 12.0497 106.192 11.9438 106.638 11.732C107.084 11.5202 107.452 11.1969 107.742 10.7621L108.628 11.3641C108.282 11.9326 107.808 12.3674 107.206 12.6684C106.604 12.9582 105.93 13.1031 105.183 13.1031ZM114.976 4.15707C116.08 4.15707 116.955 4.48036 117.602 5.12693C118.259 5.76235 118.588 6.69319 118.588 7.91944V13.0195H117.401V8.03649C117.401 7.12237 117.172 6.42564 116.715 5.94629C116.258 5.46693 115.606 5.22726 114.759 5.22726C113.811 5.22726 113.059 5.51152 112.502 6.08006C111.955 6.63745 111.682 7.41221 111.682 8.40436V13.0195H110.495V0.612089H111.682V5.76235C112.005 5.24955 112.451 4.85381 113.02 4.57511C113.588 4.29642 114.241 4.15707 114.976 4.15707ZM130.151 12.4844C129.928 12.6851 129.649 12.8412 129.315 12.9526C128.991 13.053 128.651 13.1031 128.295 13.1031C127.47 13.1031 126.834 12.8802 126.388 12.4343C125.943 11.9884 125.72 11.3585 125.72 10.5447V5.22726H124.148V4.22396H125.72V2.30097H126.907V4.22396H129.582V5.22726H126.907V10.4778C126.907 11.0018 127.035 11.4031 127.291 11.6818C127.559 11.9493 127.938 12.0831 128.429 12.0831C128.674 12.0831 128.908 12.0441 129.131 11.9661C129.365 11.888 129.566 11.7766 129.733 11.6316L130.151 12.4844ZM139.205 4.22396L134.808 14.073C134.451 14.8979 134.038 15.4832 133.57 15.8288C133.102 16.1743 132.539 16.3471 131.881 16.3471C131.458 16.3471 131.062 16.2802 130.694 16.1465C130.326 16.0127 130.008 15.812 129.741 15.5445L130.293 14.6582C130.739 15.1042 131.274 15.3271 131.898 15.3271C132.299 15.3271 132.639 15.2156 132.918 14.9927C133.208 14.7697 133.475 14.3907 133.721 13.8556L134.105 13.0028L130.176 4.22396H131.413L134.724 11.6985L138.035 4.22396H139.205ZM145.074 4.15707C145.899 4.15707 146.646 4.34658 147.315 4.72561C147.984 5.09348 148.508 5.61743 148.887 6.29744C149.266 6.97745 149.456 7.75222 149.456 8.62175C149.456 9.50242 149.266 10.2828 148.887 10.9628C148.508 11.6428 147.984 12.1723 147.315 12.5513C146.657 12.9192 145.911 13.1031 145.074 13.1031C144.361 13.1031 143.714 12.9582 143.135 12.6684C142.566 12.3674 142.098 11.9326 141.73 11.3641V16.2635H140.543V4.22396H141.68V5.96301C142.037 5.38332 142.505 4.93741 143.085 4.62528C143.675 4.31314 144.339 4.15707 145.074 4.15707ZM144.991 12.0497C145.604 12.0497 146.161 11.9103 146.663 11.6316C147.165 11.3418 147.555 10.9349 147.834 10.411C148.123 9.88701 148.268 9.29061 148.268 8.62175C148.268 7.95288 148.123 7.36205 147.834 6.84925C147.555 6.32531 147.165 5.91842 146.663 5.62858C146.161 5.33873 145.604 5.19381 144.991 5.19381C144.367 5.19381 143.804 5.33873 143.302 5.62858C142.812 5.91842 142.421 6.32531 142.131 6.84925C141.853 7.36205 141.713 7.95288 141.713 8.62175C141.713 9.29061 141.853 9.88701 142.131 10.411C142.421 10.9349 142.812 11.3418 143.302 11.6316C143.804 11.9103 144.367 12.0497 144.991 12.0497ZM159.2 8.98962H151.842C151.909 9.90374 152.26 10.6451 152.896 11.2136C153.531 11.771 154.334 12.0497 155.304 12.0497C155.85 12.0497 156.352 11.9549 156.809 11.7654C157.266 11.5648 157.661 11.2749 157.996 10.8959L158.665 11.6651C158.275 12.1333 157.784 12.49 157.193 12.7353C156.614 12.9805 155.973 13.1031 155.27 13.1031C154.367 13.1031 153.565 12.9136 152.862 12.5346C152.171 12.1444 151.631 11.6093 151.24 10.9293C150.85 10.2493 150.655 9.48012 150.655 8.62175C150.655 7.76337 150.839 6.99417 151.207 6.31416C151.586 5.63415 152.099 5.10463 152.745 4.72561C153.403 4.34658 154.139 4.15707 154.953 4.15707C155.766 4.15707 156.496 4.34658 157.143 4.72561C157.79 5.10463 158.297 5.63415 158.665 6.31416C159.033 6.98303 159.217 7.75222 159.217 8.62175L159.2 8.98962ZM154.953 5.17709C154.105 5.17709 153.392 5.45021 152.812 5.99645C152.244 6.53154 151.92 7.23385 151.842 8.10338H158.079C158.001 7.23385 157.673 6.53154 157.093 5.99645C156.524 5.45021 155.811 5.17709 154.953 5.17709ZM168.936 13.1031C168.088 13.1031 167.325 12.9136 166.645 12.5346C165.965 12.1444 165.43 11.6093 165.04 10.9293C164.649 10.2493 164.454 9.48012 164.454 8.62175C164.454 7.76337 164.649 6.99417 165.04 6.31416C165.43 5.63415 165.965 5.10463 166.645 4.72561C167.325 4.34658 168.088 4.15707 168.936 4.15707C169.783 4.15707 170.547 4.34658 171.227 4.72561C171.907 5.10463 172.436 5.63415 172.815 6.31416C173.205 6.99417 173.4 7.76337 173.4 8.62175C173.4 9.48012 173.205 10.2493 172.815 10.9293C172.436 11.6093 171.907 12.1444 171.227 12.5346C170.547 12.9136 169.783 13.1031 168.936 13.1031ZM168.936 12.0497C169.56 12.0497 170.117 11.9103 170.608 11.6316C171.11 11.3418 171.5 10.9349 171.778 10.411C172.057 9.88701 172.196 9.29061 172.196 8.62175C172.196 7.95288 172.057 7.35648 171.778 6.83253C171.5 6.30859 171.11 5.90727 170.608 5.62858C170.117 5.33873 169.56 5.19381 168.936 5.19381C168.311 5.19381 167.748 5.33873 167.247 5.62858C166.756 5.90727 166.366 6.30859 166.076 6.83253C165.798 7.35648 165.658 7.95288 165.658 8.62175C165.658 9.29061 165.798 9.88701 166.076 10.411C166.366 10.9349 166.756 11.3418 167.247 11.6316C167.748 11.9103 168.311 12.0497 168.936 12.0497ZM178.399 1.53178C177.887 1.53178 177.496 1.67113 177.229 1.94982C176.972 2.22851 176.844 2.64098 176.844 3.18722V4.22396H179.553V5.22726H176.878V13.0195H175.69V5.22726H174.119V4.22396H175.69V3.13705C175.69 2.33442 175.919 1.69899 176.376 1.23079C176.844 0.762584 177.502 0.528481 178.349 0.528481C178.684 0.528481 179.007 0.578646 179.319 0.678976C179.631 0.768158 179.893 0.901931 180.105 1.08029L179.704 1.96654C179.358 1.6767 178.923 1.53178 178.399 1.53178ZM195.833 4.15707C196.937 4.15707 197.801 4.47478 198.425 5.11021C199.06 5.74563 199.378 6.68204 199.378 7.91944V13.0195H198.191V8.03649C198.191 7.12237 197.968 6.42564 197.522 5.94629C197.087 5.46693 196.469 5.22726 195.666 5.22726C194.752 5.22726 194.033 5.51152 193.509 6.08006C192.985 6.63745 192.723 7.41221 192.723 8.40436V13.0195H191.536V8.03649C191.536 7.12237 191.313 6.42564 190.867 5.94629C190.432 5.46693 189.808 5.22726 188.994 5.22726C188.091 5.22726 187.372 5.51152 186.837 6.08006C186.313 6.63745 186.051 7.41221 186.051 8.40436V13.0195H184.864V4.22396H186.001V5.82924C186.313 5.29414 186.748 4.88168 187.305 4.59184C187.862 4.30199 188.503 4.15707 189.228 4.15707C189.964 4.15707 190.599 4.31314 191.134 4.62528C191.681 4.93741 192.087 5.40005 192.355 6.01317C192.678 5.43349 193.141 4.98201 193.743 4.65872C194.356 4.32429 195.053 4.15707 195.833 4.15707ZM209.955 8.98962H202.597C202.664 9.90374 203.015 10.6451 203.65 11.2136C204.286 11.771 205.089 12.0497 206.058 12.0497C206.605 12.0497 207.106 11.9549 207.563 11.7654C208.02 11.5648 208.416 11.2749 208.751 10.8959L209.419 11.6651C209.029 12.1333 208.539 12.49 207.948 12.7353C207.368 12.9805 206.727 13.1031 206.025 13.1031C205.122 13.1031 204.319 12.9136 203.617 12.5346C202.926 12.1444 202.385 11.6093 201.995 10.9293C201.605 10.2493 201.41 9.48012 201.41 8.62175C201.41 7.76337 201.594 6.99417 201.962 6.31416C202.341 5.63415 202.853 5.10463 203.5 4.72561C204.158 4.34658 204.893 4.15707 205.707 4.15707C206.521 4.15707 207.251 4.34658 207.898 4.72561C208.544 5.10463 209.052 5.63415 209.419 6.31416C209.787 6.98303 209.971 7.75222 209.971 8.62175L209.955 8.98962ZM205.707 5.17709C204.86 5.17709 204.147 5.45021 203.567 5.99645C202.998 6.53154 202.675 7.23385 202.597 8.10338H208.834C208.756 7.23385 208.427 6.53154 207.848 5.99645C207.279 5.45021 206.566 5.17709 205.707 5.17709ZM223.023 4.15707C224.126 4.15707 224.99 4.47478 225.615 5.11021C226.25 5.74563 226.568 6.68204 226.568 7.91944V13.0195H225.38V8.03649C225.38 7.12237 225.158 6.42564 224.712 5.94629C224.277 5.46693 223.658 5.22726 222.855 5.22726C221.941 5.22726 221.222 5.51152 220.698 6.08006C220.174 6.63745 219.912 7.41221 219.912 8.40436V13.0195H218.725V8.03649C218.725 7.12237 218.502 6.42564 218.056 5.94629C217.622 5.46693 216.997 5.22726 216.184 5.22726C215.281 5.22726 214.562 5.51152 214.026 6.08006C213.503 6.63745 213.241 7.41221 213.241 8.40436V13.0195H212.053V4.22396H213.19V5.82924C213.503 5.29414 213.937 4.88168 214.495 4.59184C215.052 4.30199 215.693 4.15707 216.418 4.15707C217.153 4.15707 217.789 4.31314 218.324 4.62528C218.87 4.93741 219.277 5.40005 219.545 6.01317C219.868 5.43349 220.331 4.98201 220.933 4.65872C221.546 4.32429 222.242 4.15707 223.023 4.15707ZM233.985 4.15707C234.809 4.15707 235.556 4.34658 236.225 4.72561C236.894 5.09348 237.418 5.61743 237.797 6.29744C238.176 6.97745 238.366 7.75222 238.366 8.62175C238.366 9.49127 238.176 10.266 237.797 10.9461C237.418 11.6261 236.894 12.1556 236.225 12.5346C235.556 12.9136 234.809 13.1031 233.985 13.1031C233.249 13.1031 232.585 12.9471 231.995 12.6349C231.415 12.3228 230.947 11.8713 230.59 11.2805V13.0195H229.453V0.612089H230.64V5.89612C231.008 5.32759 231.476 4.8984 232.045 4.60856C232.624 4.30757 233.271 4.15707 233.985 4.15707ZM233.901 12.0497C234.514 12.0497 235.071 11.9103 235.573 11.6316C236.075 11.3418 236.465 10.9349 236.744 10.411C237.033 9.88701 237.178 9.29061 237.178 8.62175C237.178 7.95288 237.033 7.35648 236.744 6.83253C236.465 6.30859 236.075 5.90727 235.573 5.62858C235.071 5.33873 234.514 5.19381 233.901 5.19381C233.277 5.19381 232.714 5.33873 232.212 5.62858C231.722 5.90727 231.331 6.30859 231.042 6.83253C230.763 7.35648 230.623 7.95288 230.623 8.62175C230.623 9.29061 230.763 9.88701 231.042 10.411C231.331 10.9349 231.722 11.3418 232.212 11.6316C232.714 11.9103 233.277 12.0497 233.901 12.0497ZM248.11 8.98962H240.752C240.819 9.90374 241.17 10.6451 241.806 11.2136C242.441 11.771 243.244 12.0497 244.214 12.0497C244.76 12.0497 245.262 11.9549 245.719 11.7654C246.176 11.5648 246.571 11.2749 246.906 10.8959L247.575 11.6651C247.185 12.1333 246.694 12.49 246.103 12.7353C245.524 12.9805 244.883 13.1031 244.18 13.1031C243.277 13.1031 242.475 12.9136 241.772 12.5346C241.081 12.1444 240.541 11.6093 240.15 10.9293C239.76 10.2493 239.565 9.48012 239.565 8.62175C239.565 7.76337 239.749 6.99417 240.117 6.31416C240.496 5.63415 241.009 5.10463 241.655 4.72561C242.313 4.34658 243.049 4.15707 243.863 4.15707C244.676 4.15707 245.407 4.34658 246.053 4.72561C246.7 5.10463 247.207 5.63415 247.575 6.31416C247.943 6.98303 248.127 7.75222 248.127 8.62175L248.11 8.98962ZM243.863 5.17709C243.015 5.17709 242.302 5.45021 241.722 5.99645C241.154 6.53154 240.83 7.23385 240.752 8.10338H246.989C246.911 7.23385 246.583 6.53154 246.003 5.99645C245.434 5.45021 244.721 5.17709 243.863 5.17709ZM251.346 5.94629C251.624 5.35546 252.037 4.90955 252.583 4.60856C253.141 4.30757 253.826 4.15707 254.64 4.15707V5.31086L254.356 5.29414C253.43 5.29414 252.706 5.57841 252.182 6.14695C251.658 6.71548 251.396 7.51254 251.396 8.53814V13.0195H250.209V4.22396H251.346V5.94629ZM258.878 13.1031C258.165 13.1031 257.479 13.0028 256.821 12.8022C256.175 12.5903 255.668 12.3284 255.3 12.0162L255.835 11.0798C256.203 11.3697 256.665 11.6093 257.223 11.7989C257.78 11.9772 258.36 12.0664 258.962 12.0664C259.764 12.0664 260.355 11.9438 260.734 11.6985C261.124 11.4421 261.32 11.0854 261.32 10.6283C261.32 10.3051 261.214 10.0542 261.002 9.87587C260.79 9.68636 260.522 9.54701 260.199 9.45783C259.876 9.3575 259.447 9.26274 258.912 9.17356C258.198 9.03979 257.624 8.90601 257.189 8.77224C256.755 8.62732 256.381 8.38764 256.069 8.05321C255.768 7.71878 255.617 7.25615 255.617 6.66532C255.617 5.92956 255.924 5.32759 256.537 4.85938C257.15 4.39118 258.003 4.15707 259.096 4.15707C259.664 4.15707 260.233 4.23511 260.801 4.39118C261.37 4.5361 261.838 4.73118 262.206 4.97643L261.687 5.92956C260.963 5.42792 260.099 5.17709 259.096 5.17709C258.338 5.17709 257.763 5.31086 257.373 5.57841C256.994 5.84596 256.805 6.19711 256.805 6.63187C256.805 6.9663 256.911 7.23385 257.122 7.43451C257.345 7.63517 257.618 7.78566 257.942 7.88599C258.265 7.97518 258.711 8.06993 259.279 8.17026C259.982 8.30403 260.545 8.43781 260.968 8.57158C261.392 8.70535 261.754 8.93388 262.055 9.25717C262.356 9.58045 262.507 10.0264 262.507 10.5949C262.507 11.3641 262.183 11.9772 261.537 12.4343C260.901 12.8802 260.015 13.1031 258.878 13.1031ZM268.849 4.15707C269.952 4.15707 270.827 4.48036 271.474 5.12693C272.132 5.76235 272.46 6.69319 272.46 7.91944V13.0195H271.273V8.03649C271.273 7.12237 271.045 6.42564 270.588 5.94629C270.131 5.46693 269.478 5.22726 268.631 5.22726C267.684 5.22726 266.931 5.51152 266.374 6.08006C265.828 6.63745 265.554 7.41221 265.554 8.40436V13.0195H264.367V0.612089H265.554V5.76235C265.878 5.24955 266.324 4.85381 266.892 4.57511C267.461 4.29642 268.113 4.15707 268.849 4.15707ZM275.349 4.22396H276.536V13.0195H275.349V4.22396ZM275.951 2.30097C275.706 2.30097 275.5 2.21737 275.333 2.05015C275.165 1.88293 275.082 1.68227 275.082 1.44817C275.082 1.22522 275.165 1.03013 275.333 0.862914C275.5 0.695697 275.706 0.612089 275.951 0.612089C276.196 0.612089 276.403 0.695697 276.57 0.862914C276.737 1.01898 276.821 1.20849 276.821 1.43145C276.821 1.6767 276.737 1.88293 276.57 2.05015C276.403 2.21737 276.196 2.30097 275.951 2.30097ZM284.037 4.15707C284.862 4.15707 285.609 4.34658 286.278 4.72561C286.947 5.09348 287.471 5.61743 287.85 6.29744C288.229 6.97745 288.418 7.75222 288.418 8.62175C288.418 9.50242 288.229 10.2828 287.85 10.9628C287.471 11.6428 286.947 12.1723 286.278 12.5513C285.62 12.9192 284.873 13.1031 284.037 13.1031C283.324 13.1031 282.677 12.9582 282.097 12.6684C281.529 12.3674 281.061 11.9326 280.693 11.3641V16.2635H279.505V4.22396H280.643V5.96301C280.999 5.38332 281.467 4.93741 282.047 4.62528C282.638 4.31314 283.301 4.15707 284.037 4.15707ZM283.953 12.0497C284.567 12.0497 285.124 11.9103 285.626 11.6316C286.127 11.3418 286.517 10.9349 286.796 10.411C287.086 9.88701 287.231 9.29061 287.231 8.62175C287.231 7.95288 287.086 7.36205 286.796 6.84925C286.517 6.32531 286.127 5.91842 285.626 5.62858C285.124 5.33873 284.567 5.19381 283.953 5.19381C283.329 5.19381 282.766 5.33873 282.265 5.62858C281.774 5.91842 281.384 6.32531 281.094 6.84925C280.815 7.36205 280.676 7.95288 280.676 8.62175C280.676 9.29061 280.815 9.88701 281.094 10.411C281.384 10.9349 281.774 11.3418 282.265 11.6316C282.766 11.9103 283.329 12.0497 283.953 12.0497ZM301.937 4.22396L297.539 14.073C297.182 14.8979 296.77 15.4832 296.302 15.8288C295.833 16.1743 295.27 16.3471 294.613 16.3471C294.189 16.3471 293.793 16.2802 293.425 16.1465C293.058 16.0127 292.74 15.812 292.472 15.5445L293.024 14.6582C293.47 15.1042 294.005 15.3271 294.629 15.3271C295.031 15.3271 295.371 15.2156 295.649 14.9927C295.939 14.7697 296.207 14.3907 296.452 13.8556L296.837 13.0028L292.907 4.22396H294.144L297.455 11.6985L300.766 4.22396H301.937ZM306.625 13.1031C305.777 13.1031 305.014 12.9136 304.334 12.5346C303.654 12.1444 303.119 11.6093 302.728 10.9293C302.338 10.2493 302.143 9.48012 302.143 8.62175C302.143 7.76337 302.338 6.99417 302.728 6.31416C303.119 5.63415 303.654 5.10463 304.334 4.72561C305.014 4.34658 305.777 4.15707 306.625 4.15707C307.472 4.15707 308.235 4.34658 308.915 4.72561C309.595 5.10463 310.125 5.63415 310.504 6.31416C310.894 6.99417 311.089 7.76337 311.089 8.62175C311.089 9.48012 310.894 10.2493 310.504 10.9293C310.125 11.6093 309.595 12.1444 308.915 12.5346C308.235 12.9136 307.472 13.1031 306.625 13.1031ZM306.625 12.0497C307.249 12.0497 307.806 11.9103 308.297 11.6316C308.798 11.3418 309.189 10.9349 309.467 10.411C309.746 9.88701 309.885 9.29061 309.885 8.62175C309.885 7.95288 309.746 7.35648 309.467 6.83253C309.189 6.30859 308.798 5.90727 308.297 5.62858C307.806 5.33873 307.249 5.19381 306.625 5.19381C306 5.19381 305.437 5.33873 304.936 5.62858C304.445 5.90727 304.055 6.30859 303.765 6.83253C303.486 7.35648 303.347 7.95288 303.347 8.62175C303.347 9.29061 303.486 9.88701 303.765 10.411C304.055 10.9349 304.445 11.3418 304.936 11.6316C305.437 11.9103 306 12.0497 306.625 12.0497ZM321.105 4.22396V13.0195H319.968V11.4143C319.655 11.9493 319.226 12.3674 318.68 12.6684C318.134 12.9582 317.51 13.1031 316.807 13.1031C315.659 13.1031 314.75 12.7854 314.082 12.15C313.424 11.5034 313.095 10.5615 313.095 9.32405V4.22396H314.282V9.207C314.282 10.1323 314.511 10.8346 314.968 11.3139C315.425 11.7933 316.077 12.033 316.924 12.033C317.85 12.033 318.58 11.7543 319.115 11.1969C319.65 10.6283 319.917 9.84242 319.917 8.83913V4.22396H321.105ZM324.229 0.528481C324.486 0.528481 324.697 0.617664 324.865 0.796028C325.032 0.963244 325.115 1.17505 325.115 1.43145C325.115 1.56522 325.093 1.71014 325.048 1.86621C325.015 2.01113 324.965 2.18392 324.898 2.38458L324.179 4.69216H323.376L323.962 2.28425C323.772 2.22851 323.622 2.12818 323.51 1.98326C323.399 1.82719 323.343 1.64326 323.343 1.43145C323.343 1.1639 323.426 0.946522 323.594 0.779306C323.761 0.612089 323.973 0.528481 324.229 0.528481ZM328.442 5.94629C328.72 5.35546 329.133 4.90955 329.679 4.60856C330.236 4.30757 330.922 4.15707 331.736 4.15707V5.31086L331.451 5.29414C330.526 5.29414 329.802 5.57841 329.278 6.14695C328.754 6.71548 328.492 7.51254 328.492 8.53814V13.0195H327.304V4.22396H328.442V5.94629ZM341.128 8.98962H333.77C333.837 9.90374 334.188 10.6451 334.824 11.2136C335.459 11.771 336.262 12.0497 337.232 12.0497C337.778 12.0497 338.28 11.9549 338.737 11.7654C339.194 11.5648 339.589 11.2749 339.924 10.8959L340.593 11.6651C340.202 12.1333 339.712 12.49 339.121 12.7353C338.541 12.9805 337.9 13.1031 337.198 13.1031C336.295 13.1031 335.493 12.9136 334.79 12.5346C334.099 12.1444 333.558 11.6093 333.168 10.9293C332.778 10.2493 332.583 9.48012 332.583 8.62175C332.583 7.76337 332.767 6.99417 333.135 6.31416C333.514 5.63415 334.027 5.10463 334.673 4.72561C335.331 4.34658 336.067 4.15707 336.88 4.15707C337.694 4.15707 338.424 4.34658 339.071 4.72561C339.718 5.10463 340.225 5.63415 340.593 6.31416C340.961 6.98303 341.144 7.75222 341.144 8.62175L341.128 8.98962ZM336.88 5.17709C336.033 5.17709 335.32 5.45021 334.74 5.99645C334.172 6.53154 333.848 7.23385 333.77 8.10338H340.007C339.929 7.23385 339.601 6.53154 339.021 5.99645C338.452 5.45021 337.739 5.17709 336.88 5.17709ZM354.927 8.98962H347.569C347.636 9.90374 347.988 10.6451 348.623 11.2136C349.258 11.771 350.061 12.0497 351.031 12.0497C351.577 12.0497 352.079 11.9549 352.536 11.7654C352.993 11.5648 353.389 11.2749 353.723 10.8959L354.392 11.6651C354.002 12.1333 353.511 12.49 352.92 12.7353C352.341 12.9805 351.7 13.1031 350.997 13.1031C350.094 13.1031 349.292 12.9136 348.59 12.5346C347.898 12.1444 347.358 11.6093 346.968 10.9293C346.577 10.2493 346.382 9.48012 346.382 8.62175C346.382 7.76337 346.566 6.99417 346.934 6.31416C347.313 5.63415 347.826 5.10463 348.472 4.72561C349.13 4.34658 349.866 4.15707 350.68 4.15707C351.494 4.15707 352.224 4.34658 352.87 4.72561C353.517 5.10463 354.024 5.63415 354.392 6.31416C354.76 6.98303 354.944 7.75222 354.944 8.62175L354.927 8.98962ZM350.68 5.17709C349.832 5.17709 349.119 5.45021 348.539 5.99645C347.971 6.53154 347.648 7.23385 347.569 8.10338H353.807C353.729 7.23385 353.4 6.53154 352.82 5.99645C352.252 5.45021 351.538 5.17709 350.68 5.17709ZM357.026 0.612089H358.213V13.0195H357.026V0.612089ZM361.182 4.22396H362.369V13.0195H361.182V4.22396ZM361.784 2.30097C361.539 2.30097 361.333 2.21737 361.165 2.05015C360.998 1.88293 360.915 1.68227 360.915 1.44817C360.915 1.22522 360.998 1.03013 361.165 0.862914C361.333 0.695697 361.539 0.612089 361.784 0.612089C362.029 0.612089 362.236 0.695697 362.403 0.862914C362.57 1.01898 362.654 1.20849 362.654 1.43145C362.654 1.6767 362.57 1.88293 362.403 2.05015C362.236 2.21737 362.029 2.30097 361.784 2.30097ZM373.482 4.22396V11.9493C373.482 13.4431 373.114 14.5468 372.378 15.2602C371.654 15.9848 370.555 16.3471 369.084 16.3471C368.27 16.3471 367.495 16.2245 366.76 15.9793C366.035 15.7452 365.444 15.4163 364.987 14.9927L365.589 14.0897C366.013 14.4687 366.526 14.7642 367.128 14.976C367.741 15.1878 368.382 15.2937 369.051 15.2937C370.165 15.2937 370.985 15.0317 371.509 14.5078C372.033 13.995 372.295 13.1923 372.295 12.0998V10.9795C371.927 11.5369 371.442 11.9605 370.84 12.2503C370.249 12.5402 369.591 12.6851 368.867 12.6851C368.042 12.6851 367.289 12.5067 366.609 12.15C365.94 11.7821 365.411 11.2749 365.021 10.6283C364.642 9.97062 364.452 9.2293 364.452 8.40436C364.452 7.57943 364.642 6.84368 365.021 6.19711C365.411 5.55054 365.94 5.04889 366.609 4.69216C367.278 4.33544 368.031 4.15707 368.867 4.15707C369.613 4.15707 370.288 4.30757 370.89 4.60856C371.492 4.90955 371.977 5.34431 372.345 5.91284V4.22396H373.482ZM368.984 11.6316C369.619 11.6316 370.193 11.4979 370.706 11.2303C371.219 10.9516 371.615 10.567 371.893 10.0765C372.183 9.58603 372.328 9.02864 372.328 8.40436C372.328 7.78009 372.183 7.22828 371.893 6.74892C371.615 6.25842 371.219 5.8794 370.706 5.61185C370.204 5.33316 369.63 5.19381 368.984 5.19381C368.348 5.19381 367.774 5.32759 367.261 5.59513C366.76 5.86268 366.364 6.2417 366.074 6.7322C365.795 7.2227 365.656 7.78009 365.656 8.40436C365.656 9.02864 365.795 9.58603 366.074 10.0765C366.364 10.567 366.76 10.9516 367.261 11.2303C367.774 11.4979 368.348 11.6316 368.984 11.6316ZM376.467 4.22396H377.655V13.0195H376.467V4.22396ZM377.069 2.30097C376.824 2.30097 376.618 2.21737 376.451 2.05015C376.283 1.88293 376.2 1.68227 376.2 1.44817C376.2 1.22522 376.283 1.03013 376.451 0.862914C376.618 0.695697 376.824 0.612089 377.069 0.612089C377.315 0.612089 377.521 0.695697 377.688 0.862914C377.855 1.01898 377.939 1.20849 377.939 1.43145C377.939 1.6767 377.855 1.88293 377.688 2.05015C377.521 2.21737 377.315 2.30097 377.069 2.30097ZM385.155 4.15707C385.98 4.15707 386.727 4.34658 387.396 4.72561C388.065 5.09348 388.589 5.61743 388.968 6.29744C389.347 6.97745 389.536 7.75222 389.536 8.62175C389.536 9.49127 389.347 10.266 388.968 10.9461C388.589 11.6261 388.065 12.1556 387.396 12.5346C386.727 12.9136 385.98 13.1031 385.155 13.1031C384.419 13.1031 383.756 12.9471 383.165 12.6349C382.586 12.3228 382.117 11.8713 381.761 11.2805V13.0195H380.624V0.612089H381.811V5.89612C382.179 5.32759 382.647 4.8984 383.215 4.60856C383.795 4.30757 384.442 4.15707 385.155 4.15707ZM385.072 12.0497C385.685 12.0497 386.242 11.9103 386.744 11.6316C387.245 11.3418 387.636 10.9349 387.914 10.411C388.204 9.88701 388.349 9.29061 388.349 8.62175C388.349 7.95288 388.204 7.35648 387.914 6.83253C387.636 6.30859 387.245 5.90727 386.744 5.62858C386.242 5.33873 385.685 5.19381 385.072 5.19381C384.447 5.19381 383.884 5.33873 383.383 5.62858C382.892 5.90727 382.502 6.30859 382.212 6.83253C381.933 7.35648 381.794 7.95288 381.794 8.62175C381.794 9.29061 381.933 9.88701 382.212 10.411C382.502 10.9349 382.892 11.3418 383.383 11.6316C383.884 11.9103 384.447 12.0497 385.072 12.0497ZM391.622 0.612089H392.809V13.0195H391.622V0.612089ZM403.437 8.98962H396.079C396.146 9.90374 396.497 10.6451 397.133 11.2136C397.768 11.771 398.571 12.0497 399.541 12.0497C400.087 12.0497 400.588 11.9549 401.045 11.7654C401.503 11.5648 401.898 11.2749 402.233 10.8959L402.902 11.6651C402.511 12.1333 402.021 12.49 401.43 12.7353C400.85 12.9805 400.209 13.1031 399.507 13.1031C398.604 13.1031 397.801 12.9136 397.099 12.5346C396.408 12.1444 395.867 11.6093 395.477 10.9293C395.087 10.2493 394.892 9.48012 394.892 8.62175C394.892 7.76337 395.076 6.99417 395.444 6.31416C395.823 5.63415 396.336 5.10463 396.982 4.72561C397.64 4.34658 398.376 4.15707 399.189 4.15707C400.003 4.15707 400.733 4.34658 401.38 4.72561C402.026 5.10463 402.534 5.63415 402.902 6.31416C403.269 6.98303 403.453 7.75222 403.453 8.62175L403.437 8.98962ZM399.189 5.17709C398.342 5.17709 397.629 5.45021 397.049 5.99645C396.48 6.53154 396.157 7.23385 396.079 8.10338H402.316C402.238 7.23385 401.909 6.53154 401.33 5.99645C400.761 5.45021 400.048 5.17709 399.189 5.17709ZM412.487 1.53178C411.974 1.53178 411.584 1.67113 411.316 1.94982C411.06 2.22851 410.932 2.64098 410.932 3.18722V4.22396H413.641V5.22726H410.965V13.0195H409.778V5.22726H408.206V4.22396H409.778V3.13705C409.778 2.33442 410.007 1.69899 410.464 1.23079C410.932 0.762584 411.59 0.528481 412.437 0.528481C412.771 0.528481 413.095 0.578646 413.407 0.678976C413.719 0.768158 413.981 0.901931 414.193 1.08029L413.791 1.96654C413.446 1.6767 413.011 1.53178 412.487 1.53178ZM418.358 13.1031C417.51 13.1031 416.747 12.9136 416.067 12.5346C415.387 12.1444 414.852 11.6093 414.461 10.9293C414.071 10.2493 413.876 9.48012 413.876 8.62175C413.876 7.76337 414.071 6.99417 414.461 6.31416C414.852 5.63415 415.387 5.10463 416.067 4.72561C416.747 4.34658 417.51 4.15707 418.358 4.15707C419.205 4.15707 419.968 4.34658 420.648 4.72561C421.328 5.10463 421.858 5.63415 422.237 6.31416C422.627 6.99417 422.822 7.76337 422.822 8.62175C422.822 9.48012 422.627 10.2493 422.237 10.9293C421.858 11.6093 421.328 12.1444 420.648 12.5346C419.968 12.9136 419.205 13.1031 418.358 13.1031ZM418.358 12.0497C418.982 12.0497 419.539 11.9103 420.03 11.6316C420.531 11.3418 420.922 10.9349 421.2 10.411C421.479 9.88701 421.618 9.29061 421.618 8.62175C421.618 7.95288 421.479 7.35648 421.2 6.83253C420.922 6.30859 420.531 5.90727 420.03 5.62858C419.539 5.33873 418.982 5.19381 418.358 5.19381C417.733 5.19381 417.17 5.33873 416.669 5.62858C416.178 5.90727 415.788 6.30859 415.498 6.83253C415.22 7.35648 415.08 7.95288 415.08 8.62175C415.08 9.29061 415.22 9.88701 415.498 10.411C415.788 10.9349 416.178 11.3418 416.669 11.6316C417.17 11.9103 417.733 12.0497 418.358 12.0497ZM426.049 5.94629C426.327 5.35546 426.74 4.90955 427.286 4.60856C427.844 4.30757 428.529 4.15707 429.343 4.15707V5.31086L429.059 5.29414C428.133 5.29414 427.409 5.57841 426.885 6.14695C426.361 6.71548 426.099 7.51254 426.099 8.53814V13.0195H424.912V4.22396H426.049V5.94629ZM431.243 13.1031C430.997 13.1031 430.785 13.014 430.607 12.8356C430.44 12.6572 430.356 12.4398 430.356 12.1835C430.356 11.9271 430.44 11.7152 430.607 11.548C430.785 11.3697 430.997 11.2805 431.243 11.2805C431.488 11.2805 431.7 11.3697 431.878 11.548C432.056 11.7152 432.145 11.9271 432.145 12.1835C432.145 12.4398 432.056 12.6572 431.878 12.8356C431.7 13.014 431.488 13.1031 431.243 13.1031Z" fill="white"/>
</svg>
