<svg width="231" height="20" viewBox="0 0 231 20" fill="none" xmlns="http://www.w3.org/2000/svg">
<path d="M0.995938 2H4.23594V16H0.995938V2ZM13.8784 5.08C15.2118 5.08 16.2851 5.48 17.0984 6.28C17.9251 7.08 18.3384 8.26667 18.3384 9.84V16H15.2184V10.32C15.2184 9.46667 15.0318 8.83333 14.6584 8.42C14.2851 7.99333 13.7451 7.78 13.0384 7.78C12.2518 7.78 11.6251 8.02667 11.1584 8.52C10.6918 9 10.4584 9.72 10.4584 10.68V16H7.33844V5.24H10.3184V6.5C10.7318 6.04667 11.2451 5.7 11.8584 5.46C12.4718 5.20667 13.1451 5.08 13.8784 5.08ZM24.7866 16.16C23.8932 16.16 23.0199 16.0533 22.1666 15.84C21.3132 15.6133 20.6332 15.3333 20.1266 15L21.1666 12.76C21.6466 13.0667 22.2266 13.32 22.9066 13.52C23.5866 13.7067 24.2532 13.8 24.9066 13.8C26.2266 13.8 26.8866 13.4733 26.8866 12.82C26.8866 12.5133 26.7066 12.2933 26.3466 12.16C25.9866 12.0267 25.4332 11.9133 24.6866 11.82C23.8066 11.6867 23.0799 11.5333 22.5066 11.36C21.9332 11.1867 21.4332 10.88 21.0066 10.44C20.5932 10 20.3866 9.37333 20.3866 8.56C20.3866 7.88 20.5799 7.28 20.9666 6.76C21.3666 6.22667 21.9399 5.81333 22.6866 5.52C23.4466 5.22667 24.3399 5.08 25.3666 5.08C26.1266 5.08 26.8799 5.16667 27.6266 5.34C28.3866 5.5 29.0132 5.72667 29.5066 6.02L28.4666 8.24C27.5199 7.70667 26.4866 7.44 25.3666 7.44C24.6999 7.44 24.1999 7.53333 23.8666 7.72C23.5332 7.90667 23.3666 8.14667 23.3666 8.44C23.3666 8.77333 23.5466 9.00667 23.9066 9.14C24.2666 9.27333 24.8399 9.4 25.6266 9.52C26.5066 9.66667 27.2266 9.82667 27.7866 10C28.3466 10.16 28.8332 10.46 29.2466 10.9C29.6599 11.34 29.8666 11.9533 29.8666 12.74C29.8666 13.4067 29.6666 14 29.2666 14.52C28.8666 15.04 28.2799 15.4467 27.5066 15.74C26.7466 16.02 25.8399 16.16 24.7866 16.16ZM38.7316 15.48C38.4249 15.7067 38.0449 15.88 37.5916 16C37.1516 16.1067 36.6849 16.16 36.1916 16.16C34.9116 16.16 33.9182 15.8333 33.2116 15.18C32.5182 14.5267 32.1716 13.5667 32.1716 12.3V7.88H30.5116V5.48H32.1716V2.86H35.2916V5.48H37.9716V7.88H35.2916V12.26C35.2916 12.7133 35.4049 13.0667 35.6316 13.32C35.8716 13.56 36.2049 13.68 36.6316 13.68C37.1249 13.68 37.5449 13.5467 37.8916 13.28L38.7316 15.48ZM44.823 5.08C46.4896 5.08 47.7696 5.48 48.663 6.28C49.5563 7.06667 50.003 8.26 50.003 9.86V16H47.083V14.66C46.4963 15.66 45.403 16.16 43.803 16.16C42.9763 16.16 42.2563 16.02 41.643 15.74C41.043 15.46 40.583 15.0733 40.263 14.58C39.943 14.0867 39.783 13.5267 39.783 12.9C39.783 11.9 40.1563 11.1133 40.903 10.54C41.663 9.96667 42.8296 9.68 44.403 9.68H46.883C46.883 9 46.6763 8.48 46.263 8.12C45.8496 7.74667 45.2296 7.56 44.403 7.56C43.8296 7.56 43.263 7.65333 42.703 7.84C42.1563 8.01333 41.6896 8.25333 41.303 8.56L40.183 6.38C40.7696 5.96667 41.4696 5.64667 42.283 5.42C43.1096 5.19333 43.9563 5.08 44.823 5.08ZM44.583 14.06C45.1163 14.06 45.5896 13.94 46.003 13.7C46.4163 13.4467 46.7096 13.08 46.883 12.6V11.5H44.743C43.463 11.5 42.823 11.92 42.823 12.76C42.823 13.16 42.9763 13.48 43.283 13.72C43.603 13.9467 44.0363 14.06 44.583 14.06ZM59.7667 15.48C59.4601 15.7067 59.0801 15.88 58.6267 16C58.1867 16.1067 57.7201 16.16 57.2267 16.16C55.9467 16.16 54.9534 15.8333 54.2467 15.18C53.5534 14.5267 53.2067 13.5667 53.2067 12.3V7.88H51.5467V5.48H53.2067V2.86H56.3267V5.48H59.0067V7.88H56.3267V12.26C56.3267 12.7133 56.4401 13.0667 56.6667 13.32C56.9067 13.56 57.2401 13.68 57.6667 13.68C58.1601 13.68 58.5801 13.5467 58.9267 13.28L59.7667 15.48ZM61.5181 5.24H64.6381V16H61.5181V5.24ZM63.0781 3.74C62.5048 3.74 62.0381 3.57333 61.6781 3.24C61.3181 2.90667 61.1381 2.49333 61.1381 2C61.1381 1.50667 61.3181 1.09333 61.6781 0.76C62.0381 0.426666 62.5048 0.259999 63.0781 0.259999C63.6515 0.259999 64.1181 0.419999 64.4781 0.74C64.8381 1.06 65.0181 1.46 65.0181 1.94C65.0181 2.46 64.8381 2.89333 64.4781 3.24C64.1181 3.57333 63.6515 3.74 63.0781 3.74ZM72.6538 16.16C71.5204 16.16 70.5004 15.9267 69.5938 15.46C68.7004 14.98 68.0004 14.32 67.4938 13.48C66.9871 12.64 66.7338 11.6867 66.7338 10.62C66.7338 9.55333 66.9871 8.6 67.4938 7.76C68.0004 6.92 68.7004 6.26667 69.5938 5.8C70.5004 5.32 71.5204 5.08 72.6538 5.08C73.7871 5.08 74.8004 5.32 75.6938 5.8C76.5871 6.26667 77.2871 6.92 77.7938 7.76C78.3004 8.6 78.5538 9.55333 78.5538 10.62C78.5538 11.6867 78.3004 12.64 77.7938 13.48C77.2871 14.32 76.5871 14.98 75.6938 15.46C74.8004 15.9267 73.7871 16.16 72.6538 16.16ZM72.6538 13.6C73.4538 13.6 74.1071 13.3333 74.6138 12.8C75.1338 12.2533 75.3938 11.5267 75.3938 10.62C75.3938 9.71333 75.1338 8.99333 74.6138 8.46C74.1071 7.91333 73.4538 7.64 72.6538 7.64C71.8538 7.64 71.1938 7.91333 70.6738 8.46C70.1538 8.99333 69.8938 9.71333 69.8938 10.62C69.8938 11.5267 70.1538 12.2533 70.6738 12.8C71.1938 13.3333 71.8538 13.6 72.6538 13.6ZM87.1792 5.08C88.5126 5.08 89.5859 5.48 90.3992 6.28C91.2259 7.08 91.6392 8.26667 91.6392 9.84V16H88.5192V10.32C88.5192 9.46667 88.3326 8.83333 87.9592 8.42C87.5859 7.99333 87.0459 7.78 86.3392 7.78C85.5526 7.78 84.9259 8.02667 84.4592 8.52C83.9926 9 83.7592 9.72 83.7592 10.68V16H80.6392V5.24H83.6192V6.5C84.0326 6.04667 84.5459 5.7 85.1592 5.46C85.7726 5.20667 86.4459 5.08 87.1792 5.08ZM113.091 16L113.071 7.6L108.951 14.52H107.491L103.391 7.78V16H100.351V2H103.031L108.271 10.7L113.431 2H116.091L116.131 16H113.091ZM129.773 10.66C129.773 10.7 129.753 10.98 129.713 11.5H121.573C121.72 12.1667 122.066 12.6933 122.613 13.08C123.16 13.4667 123.84 13.66 124.653 13.66C125.213 13.66 125.706 13.58 126.133 13.42C126.573 13.2467 126.98 12.98 127.353 12.62L129.013 14.42C128 15.58 126.52 16.16 124.573 16.16C123.36 16.16 122.286 15.9267 121.353 15.46C120.42 14.98 119.7 14.32 119.193 13.48C118.686 12.64 118.433 11.6867 118.433 10.62C118.433 9.56667 118.68 8.62 119.173 7.78C119.68 6.92667 120.366 6.26667 121.233 5.8C122.113 5.32 123.093 5.08 124.173 5.08C125.226 5.08 126.18 5.30667 127.033 5.76C127.886 6.21333 128.553 6.86667 129.033 7.72C129.526 8.56 129.773 9.54 129.773 10.66ZM124.193 7.44C123.486 7.44 122.893 7.64 122.413 8.04C121.933 8.44 121.64 8.98667 121.533 9.68H126.833C126.726 9 126.433 8.46 125.953 8.06C125.473 7.64667 124.886 7.44 124.193 7.44ZM145.63 5.08C146.977 5.08 148.043 5.48 148.83 6.28C149.63 7.06667 150.03 8.25333 150.03 9.84V16H146.91V10.32C146.91 9.46667 146.73 8.83333 146.37 8.42C146.023 7.99333 145.523 7.78 144.87 7.78C144.137 7.78 143.557 8.02 143.13 8.5C142.703 8.96667 142.49 9.66667 142.49 10.6V16H139.37V10.32C139.37 8.62667 138.69 7.78 137.33 7.78C136.61 7.78 136.037 8.02 135.61 8.5C135.183 8.96667 134.97 9.66667 134.97 10.6V16H131.85V5.24H134.83V6.48C135.23 6.02667 135.717 5.68 136.29 5.44C136.877 5.2 137.517 5.08 138.21 5.08C138.97 5.08 139.657 5.23333 140.27 5.54C140.883 5.83333 141.377 6.26667 141.75 6.84C142.19 6.28 142.743 5.84667 143.41 5.54C144.09 5.23333 144.83 5.08 145.63 5.08ZM159.187 5.08C160.187 5.08 161.093 5.31333 161.907 5.78C162.733 6.23333 163.38 6.88 163.847 7.72C164.313 8.54667 164.547 9.51333 164.547 10.62C164.547 11.7267 164.313 12.7 163.847 13.54C163.38 14.3667 162.733 15.0133 161.907 15.48C161.093 15.9333 160.187 16.16 159.187 16.16C157.707 16.16 156.58 15.6933 155.807 14.76V16H152.827V1.16H155.947V6.38C156.733 5.51333 157.813 5.08 159.187 5.08ZM158.647 13.6C159.447 13.6 160.1 13.3333 160.607 12.8C161.127 12.2533 161.387 11.5267 161.387 10.62C161.387 9.71333 161.127 8.99333 160.607 8.46C160.1 7.91333 159.447 7.64 158.647 7.64C157.847 7.64 157.187 7.91333 156.667 8.46C156.16 8.99333 155.907 9.71333 155.907 10.62C155.907 11.5267 156.16 12.2533 156.667 12.8C157.187 13.3333 157.847 13.6 158.647 13.6ZM177.175 10.66C177.175 10.7 177.155 10.98 177.115 11.5H168.975C169.122 12.1667 169.469 12.6933 170.015 13.08C170.562 13.4667 171.242 13.66 172.055 13.66C172.615 13.66 173.109 13.58 173.535 13.42C173.975 13.2467 174.382 12.98 174.755 12.62L176.415 14.42C175.402 15.58 173.922 16.16 171.975 16.16C170.762 16.16 169.689 15.9267 168.755 15.46C167.822 14.98 167.102 14.32 166.595 13.48C166.089 12.64 165.835 11.6867 165.835 10.62C165.835 9.56667 166.082 8.62 166.575 7.78C167.082 6.92667 167.769 6.26667 168.635 5.8C169.515 5.32 170.495 5.08 171.575 5.08C172.629 5.08 173.582 5.30667 174.435 5.76C175.289 6.21333 175.955 6.86667 176.435 7.72C176.929 8.56 177.175 9.54 177.175 10.66ZM171.595 7.44C170.889 7.44 170.295 7.64 169.815 8.04C169.335 8.44 169.042 8.98667 168.935 9.68H174.235C174.129 9 173.835 8.46 173.355 8.06C172.875 7.64667 172.289 7.44 171.595 7.44ZM182.233 6.66C182.606 6.14 183.106 5.74667 183.733 5.48C184.373 5.21333 185.106 5.08 185.933 5.08V7.96C185.586 7.93333 185.353 7.92 185.233 7.92C184.339 7.92 183.639 8.17333 183.133 8.68C182.626 9.17333 182.373 9.92 182.373 10.92V16H179.253V5.24H182.233V6.66ZM191.447 16.16C190.553 16.16 189.68 16.0533 188.827 15.84C187.973 15.6133 187.293 15.3333 186.787 15L187.827 12.76C188.307 13.0667 188.887 13.32 189.567 13.52C190.247 13.7067 190.913 13.8 191.567 13.8C192.887 13.8 193.547 13.4733 193.547 12.82C193.547 12.5133 193.367 12.2933 193.007 12.16C192.647 12.0267 192.093 11.9133 191.347 11.82C190.467 11.6867 189.74 11.5333 189.167 11.36C188.593 11.1867 188.093 10.88 187.667 10.44C187.253 10 187.047 9.37333 187.047 8.56C187.047 7.88 187.24 7.28 187.627 6.76C188.027 6.22667 188.6 5.81333 189.347 5.52C190.107 5.22667 191 5.08 192.027 5.08C192.787 5.08 193.54 5.16667 194.287 5.34C195.047 5.5 195.673 5.72667 196.167 6.02L195.127 8.24C194.18 7.70667 193.147 7.44 192.027 7.44C191.36 7.44 190.86 7.53333 190.527 7.72C190.193 7.90667 190.027 8.14667 190.027 8.44C190.027 8.77333 190.207 9.00667 190.567 9.14C190.927 9.27333 191.5 9.4 192.287 9.52C193.167 9.66667 193.887 9.82667 194.447 10C195.007 10.16 195.493 10.46 195.907 10.9C196.32 11.34 196.527 11.9533 196.527 12.74C196.527 13.4067 196.327 14 195.927 14.52C195.527 15.04 194.94 15.4467 194.167 15.74C193.407 16.02 192.5 16.16 191.447 16.16ZM204.992 5.08C206.325 5.08 207.398 5.48 208.212 6.28C209.038 7.08 209.452 8.26667 209.452 9.84V16H206.332V10.32C206.332 9.46667 206.145 8.83333 205.772 8.42C205.398 7.99333 204.858 7.78 204.152 7.78C203.365 7.78 202.738 8.02667 202.272 8.52C201.805 9 201.572 9.72 201.572 10.68V16H198.452V1.16H201.572V6.36C201.985 5.94667 202.485 5.63333 203.072 5.42C203.658 5.19333 204.298 5.08 204.992 5.08ZM212.28 5.24H215.4V16H212.28V5.24ZM213.84 3.74C213.267 3.74 212.8 3.57333 212.44 3.24C212.08 2.90667 211.9 2.49333 211.9 2C211.9 1.50667 212.08 1.09333 212.44 0.76C212.8 0.426666 213.267 0.259999 213.84 0.259999C214.413 0.259999 214.88 0.419999 215.24 0.74C215.6 1.06 215.78 1.46 215.78 1.94C215.78 2.46 215.6 2.89333 215.24 3.24C214.88 3.57333 214.413 3.74 213.84 3.74ZM224.655 5.08C225.655 5.08 226.562 5.31333 227.375 5.78C228.202 6.23333 228.849 6.88 229.315 7.72C229.782 8.54667 230.015 9.51333 230.015 10.62C230.015 11.7267 229.782 12.7 229.315 13.54C228.849 14.3667 228.202 15.0133 227.375 15.48C226.562 15.9333 225.655 16.16 224.655 16.16C223.282 16.16 222.202 15.7267 221.415 14.86V19.88H218.295V5.24H221.275V6.48C222.049 5.54667 223.175 5.08 224.655 5.08ZM224.115 13.6C224.915 13.6 225.569 13.3333 226.075 12.8C226.595 12.2533 226.855 11.5267 226.855 10.62C226.855 9.71333 226.595 8.99333 226.075 8.46C225.569 7.91333 224.915 7.64 224.115 7.64C223.315 7.64 222.655 7.91333 222.135 8.46C221.629 8.99333 221.375 9.71333 221.375 10.62C221.375 11.5267 221.629 12.2533 222.135 12.8C222.655 13.3333 223.315 13.6 224.115 13.6Z" fill="url(#paint0_linear)" fill-opacity="0.65"/>
<defs>
<linearGradient id="paint0_linear" x1="267.694" y1="37.3379" x2="236.173" y2="-86.0099" gradientUnits="userSpaceOnUse">
<stop stop-color="#652C90"/>
<stop offset="0.458333" stop-color="#91268F"/>
<stop offset="1" stop-color="#D91B5B"/>
</linearGradient>
</defs>
</svg>
