<svg width="364" height="32" viewBox="0 0 364 32" fill="none" xmlns="http://www.w3.org/2000/svg">
<path d="M0.863841 3.52745H5.99141V25.6836H0.863841V3.52745ZM21.2515 8.4018C23.3616 8.4018 25.0602 9.03483 26.3474 10.3009C27.6556 11.567 28.3098 13.445 28.3098 15.9349V25.6836H23.3721V16.6945C23.3721 15.3441 23.0767 14.3418 22.4859 13.6876C21.895 13.0124 21.0404 12.6748 19.9221 12.6748C18.6771 12.6748 17.6854 13.0651 16.9468 13.8459C16.2083 14.6055 15.839 15.745 15.839 17.2643V25.6836H10.9014V8.65501H15.6175V10.6491C16.2716 9.93163 17.084 9.383 18.0546 9.00318C19.0253 8.60226 20.0909 8.4018 21.2515 8.4018ZM38.5145 25.9368C37.1007 25.9368 35.7186 25.768 34.3681 25.4304C33.0176 25.0717 31.9415 24.6285 31.1396 24.101L32.7855 20.556C33.5451 21.0414 34.463 21.4423 35.5392 21.7588C36.6154 22.0542 37.6704 22.2019 38.7044 22.2019C40.7934 22.2019 41.8379 21.6849 41.8379 20.651C41.8379 20.1657 41.553 19.8175 40.9833 19.6065C40.4136 19.3955 39.5379 19.2161 38.3562 19.0684C36.9635 18.8574 35.8135 18.6147 34.9062 18.3404C33.9988 18.0661 33.2075 17.5808 32.5323 16.8844C31.8782 16.1881 31.5511 15.1964 31.5511 13.9092C31.5511 12.833 31.8571 11.8835 32.469 11.0605C33.102 10.2165 34.0094 9.56236 35.191 9.09813C36.3938 8.63391 37.8076 8.4018 39.4324 8.4018C40.6351 8.4018 41.8273 8.53896 43.009 8.81327C44.2117 9.06648 45.2035 9.4252 45.9842 9.88943L44.3384 13.4028C42.8402 12.5587 41.2048 12.1367 39.4324 12.1367C38.3773 12.1367 37.586 12.2844 37.0585 12.5798C36.531 12.8752 36.2672 13.2551 36.2672 13.7193C36.2672 14.2468 36.5521 14.6161 37.1218 14.8271C37.6915 15.0381 38.5989 15.2386 39.8438 15.4285C41.2365 15.6606 42.376 15.9138 43.2622 16.1881C44.1484 16.4413 44.9186 16.9161 45.5728 17.6124C46.2269 18.3088 46.554 19.2794 46.554 20.5244C46.554 21.5794 46.2375 22.5184 45.6044 23.3414C44.9714 24.1643 44.0429 24.8079 42.8191 25.2721C41.6163 25.7152 40.1814 25.9368 38.5145 25.9368ZM60.5836 24.8607C60.0982 25.2194 59.4969 25.4937 58.7794 25.6836C58.0831 25.8524 57.3445 25.9368 56.5638 25.9368C54.5381 25.9368 52.9661 25.4198 51.8477 24.3859C50.7504 23.3519 50.2018 21.8326 50.2018 19.828V12.833H47.5747V9.03483H50.2018V4.88847H55.1395V9.03483H59.3808V12.833H55.1395V19.7647C55.1395 20.4822 55.3188 21.0414 55.6776 21.4423C56.0574 21.8221 56.5849 22.012 57.2601 22.012C58.0409 22.012 58.7056 21.801 59.2542 21.379L60.5836 24.8607ZM70.2237 8.4018C72.8613 8.4018 74.8871 9.03483 76.3008 10.3009C77.7146 11.5459 78.4215 13.4344 78.4215 15.9665V25.6836H73.8003V23.5629C72.8719 25.1455 71.1416 25.9368 68.6095 25.9368C67.3012 25.9368 66.1617 25.7152 65.1911 25.2721C64.2415 24.829 63.5136 24.2171 63.0071 23.4363C62.5007 22.6556 62.2475 21.7693 62.2475 20.7776C62.2475 19.195 62.8383 17.95 64.02 17.0427C65.2228 16.1353 67.0691 15.6817 69.559 15.6817H73.4838C73.4838 14.6055 73.1568 13.7826 72.5026 13.2128C71.8485 12.622 70.8673 12.3266 69.559 12.3266C68.6517 12.3266 67.7549 12.4743 66.8686 12.7697C66.0035 13.044 65.265 13.4239 64.653 13.9092L62.8805 10.4592C63.809 9.80502 64.9168 9.29859 66.204 8.93988C67.5122 8.58116 68.8521 8.4018 70.2237 8.4018ZM69.8439 22.6134C70.6879 22.6134 71.437 22.4235 72.0912 22.0437C72.7453 21.6427 73.2095 21.0625 73.4838 20.3028V18.562H70.0971C68.0714 18.562 67.0585 19.2267 67.0585 20.556C67.0585 21.1891 67.3012 21.6955 67.7865 22.0753C68.293 22.434 68.9787 22.6134 69.8439 22.6134ZM93.8734 24.8607C93.3881 25.2194 92.7867 25.4937 92.0693 25.6836C91.3729 25.8524 90.6344 25.9368 89.8537 25.9368C87.828 25.9368 86.2559 25.4198 85.1376 24.3859C84.0403 23.3519 83.4917 21.8326 83.4917 19.828V12.833H80.8646V9.03483H83.4917V4.88847H88.4293V9.03483H92.6707V12.833H88.4293V19.7647C88.4293 20.4822 88.6087 21.0414 88.9674 21.4423C89.3472 21.8221 89.8748 22.012 90.55 22.012C91.3307 22.012 91.9954 21.801 92.544 21.379L93.8734 24.8607ZM96.6452 8.65501H101.583V25.6836H96.6452V8.65501ZM99.114 6.28114C98.2066 6.28114 97.4681 6.01738 96.8984 5.48985C96.3286 4.96232 96.0438 4.30819 96.0438 3.52745C96.0438 2.74671 96.3286 2.09257 96.8984 1.56504C97.4681 1.03752 98.2066 0.773753 99.114 0.773753C100.021 0.773753 100.76 1.02697 101.33 1.53339C101.899 2.03982 102.184 2.67285 102.184 3.43249C102.184 4.25543 101.899 4.94122 101.33 5.48985C100.76 6.01738 100.021 6.28114 99.114 6.28114ZM114.268 25.9368C112.475 25.9368 110.86 25.5675 109.425 24.829C108.012 24.0694 106.904 23.0249 106.102 21.6955C105.3 20.3661 104.899 18.8574 104.899 17.1693C104.899 15.4812 105.3 13.9725 106.102 12.6431C106.904 11.3137 108.012 10.2798 109.425 9.54126C110.86 8.78162 112.475 8.4018 114.268 8.4018C116.062 8.4018 117.665 8.78162 119.079 9.54126C120.493 10.2798 121.601 11.3137 122.403 12.6431C123.205 13.9725 123.605 15.4812 123.605 17.1693C123.605 18.8574 123.205 20.3661 122.403 21.6955C121.601 23.0249 120.493 24.0694 119.079 24.829C117.665 25.5675 116.062 25.9368 114.268 25.9368ZM114.268 21.8854C115.534 21.8854 116.568 21.4634 117.37 20.6193C118.193 19.7542 118.604 18.6042 118.604 17.1693C118.604 15.7344 118.193 14.595 117.37 13.7509C116.568 12.8858 115.534 12.4532 114.268 12.4532C113.002 12.4532 111.958 12.8858 111.135 13.7509C110.312 14.595 109.9 15.7344 109.9 17.1693C109.9 18.6042 110.312 19.7542 111.135 20.6193C111.958 21.4634 113.002 21.8854 114.268 21.8854ZM137.256 8.4018C139.366 8.4018 141.065 9.03483 142.352 10.3009C143.66 11.567 144.314 13.445 144.314 15.9349V25.6836H139.377V16.6945C139.377 15.3441 139.081 14.3418 138.49 13.6876C137.9 13.0124 137.045 12.6748 135.927 12.6748C134.682 12.6748 133.69 13.0651 132.951 13.8459C132.213 14.6055 131.844 15.745 131.844 17.2643V25.6836H126.906V8.65501H131.622V10.6491C132.276 9.93163 133.088 9.383 134.059 9.00318C135.03 8.60226 136.095 8.4018 137.256 8.4018ZM178.264 25.6836L178.232 12.3899L171.712 23.3414H169.402L162.913 12.6748V25.6836H158.102V3.52745H162.343L170.636 17.2959L178.802 3.52745H183.012L183.075 25.6836H178.264ZM204.664 17.2326C204.664 17.2959 204.632 17.739 204.569 18.562H191.687C191.919 19.617 192.468 20.4505 193.333 21.0625C194.198 21.6744 195.274 21.9804 196.561 21.9804C197.447 21.9804 198.228 21.8537 198.903 21.6005C199.6 21.3262 200.243 20.9042 200.834 20.3345L203.461 23.1831C201.858 25.0189 199.515 25.9368 196.435 25.9368C194.514 25.9368 192.816 25.5675 191.339 24.829C189.862 24.0694 188.722 23.0249 187.92 21.6955C187.118 20.3661 186.718 18.8574 186.718 17.1693C186.718 15.5023 187.108 14.0041 187.889 12.6748C188.691 11.3243 189.777 10.2798 191.149 9.54126C192.541 8.78162 194.092 8.4018 195.802 8.4018C197.469 8.4018 198.977 8.76052 200.328 9.47795C201.678 10.1954 202.733 11.2293 203.493 12.5798C204.274 13.9092 204.664 15.4601 204.664 17.2326ZM195.833 12.1367C194.715 12.1367 193.776 12.4532 193.016 13.0862C192.257 13.7193 191.792 14.5844 191.624 15.6817H200.011C199.842 14.6055 199.378 13.7509 198.619 13.1179C197.859 12.4638 196.93 12.1367 195.833 12.1367ZM229.759 8.4018C231.891 8.4018 233.579 9.03483 234.824 10.3009C236.09 11.5459 236.723 13.4239 236.723 15.9349V25.6836H231.785V16.6945C231.785 15.3441 231.5 14.3418 230.93 13.6876C230.382 13.0124 229.591 12.6748 228.557 12.6748C227.396 12.6748 226.478 13.0546 225.803 13.8142C225.128 14.5528 224.79 15.6606 224.79 17.1377V25.6836H219.852V16.6945C219.852 14.0147 218.776 12.6748 216.624 12.6748C215.484 12.6748 214.577 13.0546 213.902 13.8142C213.227 14.5528 212.889 15.6606 212.889 17.1377V25.6836H207.951V8.65501H212.667V10.6174C213.3 9.89998 214.071 9.35135 214.978 8.97153C215.906 8.59171 216.919 8.4018 218.017 8.4018C219.219 8.4018 220.306 8.64446 221.277 9.12979C222.247 9.59401 223.028 10.2798 223.619 11.1871C224.315 10.3009 225.191 9.61511 226.246 9.12979C227.322 8.64446 228.493 8.4018 229.759 8.4018ZM251.214 8.4018C252.796 8.4018 254.231 8.77107 255.518 9.50961C256.827 10.227 257.85 11.2504 258.589 12.5798C259.327 13.8881 259.696 15.4179 259.696 17.1693C259.696 18.9207 259.327 20.4611 258.589 21.7904C257.85 23.0987 256.827 24.1221 255.518 24.8607C254.231 25.5781 252.796 25.9368 251.214 25.9368C248.871 25.9368 247.088 25.1983 245.865 23.7212V25.6836H241.148V2.19808H246.086V10.4592C247.331 9.08758 249.04 8.4018 251.214 8.4018ZM250.359 21.8854C251.625 21.8854 252.659 21.4634 253.461 20.6193C254.284 19.7542 254.695 18.6042 254.695 17.1693C254.695 15.7344 254.284 14.595 253.461 13.7509C252.659 12.8858 251.625 12.4532 250.359 12.4532C249.093 12.4532 248.049 12.8858 247.226 13.7509C246.424 14.595 246.023 15.7344 246.023 17.1693C246.023 18.6042 246.424 19.7542 247.226 20.6193C248.049 21.4634 249.093 21.8854 250.359 21.8854ZM279.682 17.2326C279.682 17.2959 279.65 17.739 279.587 18.562H266.705C266.937 19.617 267.486 20.4505 268.351 21.0625C269.216 21.6744 270.292 21.9804 271.579 21.9804C272.466 21.9804 273.246 21.8537 273.922 21.6005C274.618 21.3262 275.261 20.9042 275.852 20.3345L278.479 23.1831C276.876 25.0189 274.533 25.9368 271.453 25.9368C269.533 25.9368 267.834 25.5675 266.357 24.829C264.88 24.0694 263.74 23.0249 262.938 21.6955C262.137 20.3661 261.736 18.8574 261.736 17.1693C261.736 15.5023 262.126 14.0041 262.907 12.6748C263.709 11.3243 264.795 10.2798 266.167 9.54126C267.56 8.78162 269.11 8.4018 270.82 8.4018C272.487 8.4018 273.995 8.76052 275.346 9.47795C276.696 10.1954 277.751 11.2293 278.511 12.5798C279.292 13.9092 279.682 15.4601 279.682 17.2326ZM270.851 12.1367C269.733 12.1367 268.794 12.4532 268.034 13.0862C267.275 13.7193 266.81 14.5844 266.642 15.6817H275.029C274.861 14.6055 274.396 13.7509 273.637 13.1179C272.877 12.4638 271.949 12.1367 270.851 12.1367ZM287.686 10.9023C288.276 10.0793 289.068 9.45685 290.059 9.03483C291.072 8.61281 292.233 8.4018 293.541 8.4018V12.9596C292.992 12.9174 292.623 12.8963 292.433 12.8963C291.02 12.8963 289.912 13.2973 289.11 14.0991C288.308 14.8798 287.907 16.0615 287.907 17.6441V25.6836H282.969V8.65501H287.686V10.9023ZM302.268 25.9368C300.854 25.9368 299.472 25.768 298.121 25.4304C296.771 25.0717 295.695 24.6285 294.893 24.101L296.539 20.556C297.299 21.0414 298.216 21.4423 299.293 21.7588C300.369 22.0542 301.424 22.2019 302.458 22.2019C304.547 22.2019 305.591 21.6849 305.591 20.651C305.591 20.1657 305.306 19.8175 304.737 19.6065C304.167 19.3955 303.291 19.2161 302.11 19.0684C300.717 18.8574 299.567 18.6147 298.66 18.3404C297.752 18.0661 296.961 17.5808 296.286 16.8844C295.632 16.1881 295.304 15.1964 295.304 13.9092C295.304 12.833 295.61 11.8835 296.222 11.0605C296.855 10.2165 297.763 9.56236 298.944 9.09813C300.147 8.63391 301.561 8.4018 303.186 8.4018C304.388 8.4018 305.581 8.53896 306.762 8.81327C307.965 9.06648 308.957 9.4252 309.738 9.88943L308.092 13.4028C306.594 12.5587 304.958 12.1367 303.186 12.1367C302.131 12.1367 301.339 12.2844 300.812 12.5798C300.284 12.8752 300.021 13.2551 300.021 13.7193C300.021 14.2468 300.305 14.6161 300.875 14.8271C301.445 15.0381 302.352 15.2386 303.597 15.4285C304.99 15.6606 306.129 15.9138 307.016 16.1881C307.902 16.4413 308.672 16.9161 309.326 17.6124C309.98 18.3088 310.307 19.2794 310.307 20.5244C310.307 21.5794 309.991 22.5184 309.358 23.3414C308.725 24.1643 307.796 24.8079 306.572 25.2721C305.37 25.7152 303.935 25.9368 302.268 25.9368ZM323.704 8.4018C325.814 8.4018 327.513 9.03483 328.8 10.3009C330.108 11.567 330.762 13.445 330.762 15.9349V25.6836H325.825V16.6945C325.825 15.3441 325.529 14.3418 324.938 13.6876C324.347 13.0124 323.493 12.6748 322.374 12.6748C321.13 12.6748 320.138 13.0651 319.399 13.8459C318.661 14.6055 318.291 15.745 318.291 17.2643V25.6836H313.354V2.19808H318.291V10.4275C318.946 9.77337 319.737 9.27749 320.665 8.93988C321.594 8.58116 322.607 8.4018 323.704 8.4018ZM335.238 8.65501H340.176V25.6836H335.238V8.65501ZM337.707 6.28114C336.799 6.28114 336.061 6.01738 335.491 5.48985C334.921 4.96232 334.637 4.30819 334.637 3.52745C334.637 2.74671 334.921 2.09257 335.491 1.56504C336.061 1.03752 336.799 0.773753 337.707 0.773753C338.614 0.773753 339.353 1.02697 339.922 1.53339C340.492 2.03982 340.777 2.67285 340.777 3.43249C340.777 4.25543 340.492 4.94122 339.922 5.48985C339.353 6.01738 338.614 6.28114 337.707 6.28114ZM354.823 8.4018C356.406 8.4018 357.841 8.77107 359.128 9.50961C360.436 10.227 361.46 11.2504 362.198 12.5798C362.937 13.8881 363.306 15.4179 363.306 17.1693C363.306 18.9207 362.937 20.4611 362.198 21.7904C361.46 23.0987 360.436 24.1221 359.128 24.8607C357.841 25.5781 356.406 25.9368 354.823 25.9368C352.65 25.9368 350.941 25.251 349.696 23.8795V31.824H344.758V8.65501H349.474V10.6174C350.698 9.14034 352.481 8.4018 354.823 8.4018ZM353.969 21.8854C355.235 21.8854 356.269 21.4634 357.071 20.6193C357.894 19.7542 358.305 18.6042 358.305 17.1693C358.305 15.7344 357.894 14.595 357.071 13.7509C356.269 12.8858 355.235 12.4532 353.969 12.4532C352.703 12.4532 351.658 12.8858 350.835 13.7509C350.033 14.595 349.632 15.7344 349.632 17.1693C349.632 18.6042 350.033 19.7542 350.835 20.6193C351.658 21.4634 352.703 21.8854 353.969 21.8854Z" fill="url(#paint0_linear)" fill-opacity="0.65"/>
<defs>
<linearGradient id="paint0_linear" x1="438.343" y1="22.7703" x2="434.766" y2="-32.7571" gradientUnits="userSpaceOnUse">
<stop stop-color="#652C90"/>
<stop offset="0.458333" stop-color="#91268F"/>
<stop offset="1" stop-color="#D91B5B"/>
</linearGradient>
</defs>
</svg>
