<svg width="608" height="53" viewBox="0 0 608 53" fill="none" xmlns="http://www.w3.org/2000/svg">
<path d="M0.889235 4.9H9.47523V42H0.889235V4.9ZM35.0279 13.062C38.5612 13.062 41.4055 14.122 43.5609 16.242C45.7515 18.362 46.8469 21.5067 46.8469 25.676V42H38.5789V26.948C38.5789 24.6867 38.0842 23.0083 37.0949 21.913C36.1055 20.7823 34.6745 20.217 32.8019 20.217C30.7172 20.217 29.0565 20.8707 27.8199 22.178C26.5832 23.45 25.9649 25.358 25.9649 27.902V42H17.6969V13.486H25.5939V16.825C26.6892 15.6237 28.0495 14.705 29.6749 14.069C31.3002 13.3977 33.0845 13.062 35.0279 13.062ZM63.9344 42.424C61.5671 42.424 59.2527 42.1413 56.9914 41.576C54.7301 40.9753 52.9281 40.2333 51.5854 39.35L54.3414 33.414C55.6134 34.2267 57.1504 34.898 58.9524 35.428C60.7544 35.9227 62.5211 36.17 64.2524 36.17C67.7504 36.17 69.4994 35.3043 69.4994 33.573C69.4994 32.7603 69.0224 32.1773 68.0684 31.824C67.1144 31.4707 65.6481 31.1703 63.6694 30.923C61.3374 30.5697 59.4117 30.1633 57.8924 29.704C56.3731 29.2447 55.0481 28.432 53.9174 27.266C52.8221 26.1 52.2744 24.4393 52.2744 22.284C52.2744 20.482 52.7867 18.892 53.8114 17.514C54.8714 16.1007 56.3907 15.0053 58.3694 14.228C60.3834 13.4507 62.7507 13.062 65.4714 13.062C67.4854 13.062 69.4817 13.2917 71.4604 13.751C73.4744 14.175 75.1351 14.7757 76.4424 15.553L73.6864 21.436C71.1777 20.0227 68.4394 19.316 65.4714 19.316C63.7047 19.316 62.3797 19.5633 61.4964 20.058C60.6131 20.5527 60.1714 21.1887 60.1714 21.966C60.1714 22.8493 60.6484 23.4677 61.6024 23.821C62.5564 24.1743 64.0757 24.51 66.1604 24.828C68.4924 25.2167 70.4004 25.6407 71.8844 26.1C73.3684 26.524 74.6581 27.319 75.7534 28.485C76.8487 29.651 77.3964 31.2763 77.3964 33.361C77.3964 35.1277 76.8664 36.7 75.8064 38.078C74.7464 39.456 73.1917 40.5337 71.1424 41.311C69.1284 42.053 66.7257 42.424 63.9344 42.424ZM100.889 40.622C100.076 41.2227 99.069 41.682 97.8676 42C96.7016 42.2827 95.465 42.424 94.1576 42.424C90.7656 42.424 88.1333 41.5583 86.2606 39.827C84.4233 38.0957 83.5046 35.5517 83.5046 32.195V20.482H79.1056V14.122H83.5046V7.179H91.7726V14.122H98.8746V20.482H91.7726V32.089C91.7726 33.2903 92.073 34.2267 92.6736 34.898C93.3096 35.534 94.193 35.852 95.3236 35.852C96.631 35.852 97.744 35.4987 98.6626 34.792L100.889 40.622ZM117.031 13.062C121.448 13.062 124.84 14.122 127.207 16.242C129.574 18.3267 130.758 21.489 130.758 25.729V42H123.02V38.449C121.465 41.099 118.568 42.424 114.328 42.424C112.137 42.424 110.229 42.053 108.604 41.311C107.014 40.569 105.795 39.5443 104.947 38.237C104.099 36.9297 103.675 35.4457 103.675 33.785C103.675 31.135 104.664 29.0503 106.643 27.531C108.657 26.0117 111.749 25.252 115.918 25.252H122.49C122.49 23.45 121.942 22.072 120.847 21.118C119.752 20.1287 118.109 19.634 115.918 19.634C114.399 19.634 112.897 19.8813 111.413 20.376C109.964 20.8353 108.728 21.4713 107.703 22.284L104.735 16.507C106.29 15.4117 108.145 14.5637 110.3 13.963C112.491 13.3623 114.734 13.062 117.031 13.062ZM116.395 36.859C117.808 36.859 119.063 36.541 120.158 35.905C121.253 35.2337 122.031 34.262 122.49 32.99V30.075H116.819C113.427 30.075 111.731 31.188 111.731 33.414C111.731 34.474 112.137 35.322 112.95 35.958C113.798 36.5587 114.946 36.859 116.395 36.859ZM156.632 40.622C155.819 41.2227 154.812 41.682 153.611 42C152.445 42.2827 151.208 42.424 149.901 42.424C146.509 42.424 143.876 41.5583 142.004 39.827C140.166 38.0957 139.248 35.5517 139.248 32.195V20.482H134.849V14.122H139.248V7.179H147.516V14.122H154.618V20.482H147.516V32.089C147.516 33.2903 147.816 34.2267 148.417 34.898C149.053 35.534 149.936 35.852 151.067 35.852C152.374 35.852 153.487 35.4987 154.406 34.792L156.632 40.622ZM161.273 13.486H169.541V42H161.273V13.486ZM165.407 9.511C163.888 9.511 162.651 9.06933 161.697 8.186C160.743 7.30266 160.266 6.20733 160.266 4.9C160.266 3.59266 160.743 2.49733 161.697 1.614C162.651 0.730664 163.888 0.288997 165.407 0.288997C166.926 0.288997 168.163 0.712998 169.117 1.561C170.071 2.409 170.548 3.469 170.548 4.741C170.548 6.119 170.071 7.26733 169.117 8.186C168.163 9.06933 166.926 9.511 165.407 9.511ZM190.782 42.424C187.779 42.424 185.076 41.8057 182.673 40.569C180.306 39.297 178.451 37.548 177.108 35.322C175.766 33.096 175.094 30.5697 175.094 27.743C175.094 24.9163 175.766 22.39 177.108 20.164C178.451 17.938 180.306 16.2067 182.673 14.97C185.076 13.698 187.779 13.062 190.782 13.062C193.786 13.062 196.471 13.698 198.838 14.97C201.206 16.2067 203.061 17.938 204.403 20.164C205.746 22.39 206.417 24.9163 206.417 27.743C206.417 30.5697 205.746 33.096 204.403 35.322C203.061 37.548 201.206 39.297 198.838 40.569C196.471 41.8057 193.786 42.424 190.782 42.424ZM190.782 35.64C192.902 35.64 194.634 34.9333 195.976 33.52C197.354 32.0713 198.043 30.1457 198.043 27.743C198.043 25.3403 197.354 23.4323 195.976 22.019C194.634 20.5703 192.902 19.846 190.782 19.846C188.662 19.846 186.913 20.5703 185.535 22.019C184.157 23.4323 183.468 25.3403 183.468 27.743C183.468 30.1457 184.157 32.0713 185.535 33.52C186.913 34.9333 188.662 35.64 190.782 35.64ZM229.275 13.062C232.808 13.062 235.653 14.122 237.808 16.242C239.999 18.362 241.094 21.5067 241.094 25.676V42H232.826V26.948C232.826 24.6867 232.331 23.0083 231.342 21.913C230.353 20.7823 228.922 20.217 227.049 20.217C224.964 20.217 223.304 20.8707 222.067 22.178C220.83 23.45 220.212 25.358 220.212 27.902V42H211.944V13.486H219.841V16.825C220.936 15.6237 222.297 14.705 223.922 14.069C225.547 13.3977 227.332 13.062 229.275 13.062ZM297.942 42L297.889 19.74L286.971 38.078H283.102L272.237 20.217V42H264.181V4.9H271.283L285.169 27.955L298.843 4.9H305.892L305.998 42H297.942ZM342.148 27.849C342.148 27.955 342.095 28.697 341.989 30.075H320.418C320.807 31.8417 321.726 33.2373 323.174 34.262C324.623 35.2867 326.425 35.799 328.58 35.799C330.064 35.799 331.372 35.587 332.502 35.163C333.668 34.7037 334.746 33.997 335.735 33.043L340.134 37.813C337.449 40.887 333.527 42.424 328.368 42.424C325.153 42.424 322.309 41.8057 319.835 40.569C317.362 39.297 315.454 37.548 314.111 35.322C312.769 33.096 312.097 30.5697 312.097 27.743C312.097 24.9517 312.751 22.443 314.058 20.217C315.401 17.9557 317.221 16.2067 319.517 14.97C321.849 13.698 324.446 13.062 327.308 13.062C330.1 13.062 332.626 13.6627 334.887 14.864C337.149 16.0653 338.915 17.7967 340.187 20.058C341.495 22.284 342.148 24.881 342.148 27.849ZM327.361 19.316C325.489 19.316 323.916 19.846 322.644 20.906C321.372 21.966 320.595 23.4147 320.312 25.252H334.357C334.075 23.45 333.297 22.019 332.025 20.959C330.753 19.8637 329.199 19.316 327.361 19.316ZM384.17 13.062C387.739 13.062 390.565 14.122 392.65 16.242C394.77 18.3267 395.83 21.4713 395.83 25.676V42H387.562V26.948C387.562 24.6867 387.085 23.0083 386.131 21.913C385.212 20.7823 383.887 20.217 382.156 20.217C380.213 20.217 378.676 20.853 377.545 22.125C376.414 23.3617 375.849 25.2167 375.849 27.69V42H367.581V26.948C367.581 22.4607 365.779 20.217 362.175 20.217C360.267 20.217 358.748 20.853 357.617 22.125C356.486 23.3617 355.921 25.2167 355.921 27.69V42H347.653V13.486H355.55V16.772C356.61 15.5707 357.9 14.652 359.419 14.016C360.974 13.38 362.67 13.062 364.507 13.062C366.521 13.062 368.341 13.4683 369.966 14.281C371.591 15.0583 372.899 16.2067 373.888 17.726C375.054 16.242 376.52 15.0937 378.287 14.281C380.089 13.4683 382.05 13.062 384.17 13.062ZM420.095 13.062C422.745 13.062 425.147 13.6803 427.303 14.917C429.493 16.1183 431.207 17.832 432.444 20.058C433.68 22.2487 434.299 24.8103 434.299 27.743C434.299 30.6757 433.68 33.255 432.444 35.481C431.207 37.6717 429.493 39.3853 427.303 40.622C425.147 41.8233 422.745 42.424 420.095 42.424C416.173 42.424 413.187 41.1873 411.138 38.714V42H403.241V2.674H411.509V16.507C413.593 14.2103 416.455 13.062 420.095 13.062ZM418.664 35.64C420.784 35.64 422.515 34.9333 423.858 33.52C425.236 32.0713 425.925 30.1457 425.925 27.743C425.925 25.3403 425.236 23.4323 423.858 22.019C422.515 20.5703 420.784 19.846 418.664 19.846C416.544 19.846 414.795 20.5703 413.417 22.019C412.074 23.4323 411.403 25.3403 411.403 27.743C411.403 30.1457 412.074 32.0713 413.417 33.52C414.795 34.9333 416.544 35.64 418.664 35.64ZM467.765 27.849C467.765 27.955 467.712 28.697 467.606 30.075H446.035C446.423 31.8417 447.342 33.2373 448.791 34.262C450.239 35.2867 452.041 35.799 454.197 35.799C455.681 35.799 456.988 35.587 458.119 35.163C459.285 34.7037 460.362 33.997 461.352 33.043L465.751 37.813C463.065 40.887 459.143 42.424 453.985 42.424C450.769 42.424 447.925 41.8057 445.452 40.569C442.978 39.297 441.07 37.548 439.728 35.322C438.385 33.096 437.714 30.5697 437.714 27.743C437.714 24.9517 438.367 22.443 439.675 20.217C441.017 17.9557 442.837 16.2067 445.134 14.97C447.466 13.698 450.063 13.062 452.925 13.062C455.716 13.062 458.242 13.6627 460.504 14.864C462.765 16.0653 464.532 17.7967 465.804 20.058C467.111 22.284 467.765 24.881 467.765 27.849ZM452.978 19.316C451.105 19.316 449.533 19.846 448.261 20.906C446.989 21.966 446.211 23.4147 445.929 25.252H459.974C459.691 23.45 458.914 22.019 457.642 20.959C456.37 19.8637 454.815 19.316 452.978 19.316ZM481.166 17.249C482.155 15.871 483.48 14.8287 485.141 14.122C486.837 13.4153 488.78 13.062 490.971 13.062V20.694C490.052 20.6233 489.434 20.588 489.116 20.588C486.749 20.588 484.894 21.2593 483.551 22.602C482.208 23.9093 481.537 25.888 481.537 28.538V42H473.269V13.486H481.166V17.249ZM505.584 42.424C503.216 42.424 500.902 42.1413 498.641 41.576C496.379 40.9753 494.577 40.2333 493.235 39.35L495.991 33.414C497.263 34.2267 498.8 34.898 500.602 35.428C502.404 35.9227 504.17 36.17 505.902 36.17C509.4 36.17 511.149 35.3043 511.149 33.573C511.149 32.7603 510.672 32.1773 509.718 31.824C508.764 31.4707 507.297 31.1703 505.319 30.923C502.987 30.5697 501.061 30.1633 499.542 29.704C498.022 29.2447 496.697 28.432 495.567 27.266C494.471 26.1 493.924 24.4393 493.924 22.284C493.924 20.482 494.436 18.892 495.461 17.514C496.521 16.1007 498.04 15.0053 500.019 14.228C502.033 13.4507 504.4 13.062 507.121 13.062C509.135 13.062 511.131 13.2917 513.11 13.751C515.124 14.175 516.784 14.7757 518.092 15.553L515.336 21.436C512.827 20.0227 510.089 19.316 507.121 19.316C505.354 19.316 504.029 19.5633 503.146 20.058C502.262 20.5527 501.821 21.1887 501.821 21.966C501.821 22.8493 502.298 23.4677 503.252 23.821C504.206 24.1743 505.725 24.51 507.81 24.828C510.142 25.2167 512.05 25.6407 513.534 26.1C515.018 26.524 516.307 27.319 517.403 28.485C518.498 29.651 519.046 31.2763 519.046 33.361C519.046 35.1277 518.516 36.7 517.456 38.078C516.396 39.456 514.841 40.5337 512.792 41.311C510.778 42.053 508.375 42.424 505.584 42.424ZM541.478 13.062C545.011 13.062 547.856 14.122 550.011 16.242C552.202 18.362 553.297 21.5067 553.297 25.676V42H545.029V26.948C545.029 24.6867 544.534 23.0083 543.545 21.913C542.556 20.7823 541.125 20.217 539.252 20.217C537.167 20.217 535.507 20.8707 534.27 22.178C533.033 23.45 532.415 25.358 532.415 27.902V42H524.147V2.674H532.415V16.454C533.51 15.3587 534.835 14.5283 536.39 13.963C537.945 13.3623 539.641 13.062 541.478 13.062ZM560.792 13.486H569.06V42H560.792V13.486ZM564.926 9.511C563.406 9.511 562.17 9.06933 561.216 8.186C560.262 7.30266 559.785 6.20733 559.785 4.9C559.785 3.59266 560.262 2.49733 561.216 1.614C562.17 0.730664 563.406 0.288997 564.926 0.288997C566.445 0.288997 567.682 0.712998 568.636 1.561C569.59 2.409 570.067 3.469 570.067 4.741C570.067 6.119 569.59 7.26733 568.636 8.186C567.682 9.06933 566.445 9.511 564.926 9.511ZM593.587 13.062C596.237 13.062 598.64 13.6803 600.795 14.917C602.986 16.1183 604.699 17.832 605.936 20.058C607.173 22.2487 607.791 24.8103 607.791 27.743C607.791 30.6757 607.173 33.255 605.936 35.481C604.699 37.6717 602.986 39.3853 600.795 40.622C598.64 41.8233 596.237 42.424 593.587 42.424C589.948 42.424 587.086 41.2757 585.001 38.979V52.282H576.733V13.486H584.63V16.772C586.679 14.2987 589.665 13.062 593.587 13.062ZM592.156 35.64C594.276 35.64 596.007 34.9333 597.35 33.52C598.728 32.0713 599.417 30.1457 599.417 27.743C599.417 25.3403 598.728 23.4323 597.35 22.019C596.007 20.5703 594.276 19.846 592.156 19.846C590.036 19.846 588.287 20.5703 586.909 22.019C585.566 23.4323 584.895 25.3403 584.895 27.743C584.895 30.1457 585.566 32.0713 586.909 33.52C588.287 34.9333 590.036 35.64 592.156 35.64Z" fill="url(#paint0_linear)" fill-opacity="0.65"/>
<defs>
<linearGradient id="paint0_linear" x1="733.439" y1="37.6348" x2="727.45" y2="-55.3446" gradientUnits="userSpaceOnUse">
<stop stop-color="#652C90"/>
<stop offset="0.458333" stop-color="#91268F"/>
<stop offset="1" stop-color="#D91B5B"/>
</linearGradient>
</defs>
</svg>
