<svg width="918" height="79" viewBox="0 0 918 79" fill="none" xmlns="http://www.w3.org/2000/svg">
<path d="M0.98375 7H13.9438V63H0.98375V7ZM52.5138 19.32C57.8471 19.32 62.1404 20.92 65.3938 24.12C68.7004 27.32 70.3538 32.0667 70.3538 38.36V63H57.8738V40.28C57.8738 36.8667 57.1271 34.3333 55.6338 32.68C54.1404 30.9733 51.9804 30.12 49.1538 30.12C46.0071 30.12 43.5004 31.1067 41.6338 33.08C39.7671 35 38.8338 37.88 38.8338 41.72V63H26.3538V19.96H38.2738V25C39.9271 23.1867 41.9804 21.8 44.4338 20.84C46.8871 19.8267 49.5804 19.32 52.5138 19.32ZM96.1463 63.64C92.5729 63.64 89.0796 63.2133 85.6663 62.36C82.2529 61.4533 79.5329 60.3333 77.5063 59L81.6663 50.04C83.5863 51.2667 85.9063 52.28 88.6263 53.08C91.3463 53.8267 94.0129 54.2 96.6263 54.2C101.906 54.2 104.546 52.8933 104.546 50.28C104.546 49.0533 103.826 48.1733 102.386 47.64C100.946 47.1067 98.7329 46.6533 95.7463 46.28C92.2263 45.7467 89.3196 45.1333 87.0263 44.44C84.7329 43.7467 82.7329 42.52 81.0263 40.76C79.3729 39 78.5462 36.4933 78.5462 33.24C78.5462 30.52 79.3196 28.12 80.8663 26.04C82.4663 23.9067 84.7596 22.2533 87.7463 21.08C90.7863 19.9067 94.3596 19.32 98.4663 19.32C101.506 19.32 104.52 19.6667 107.506 20.36C110.546 21 113.053 21.9067 115.026 23.08L110.866 31.96C107.08 29.8267 102.946 28.76 98.4663 28.76C95.7996 28.76 93.7996 29.1333 92.4663 29.88C91.1329 30.6267 90.4663 31.5867 90.4663 32.76C90.4663 34.0933 91.1863 35.0267 92.6263 35.56C94.0663 36.0933 96.3596 36.6 99.5063 37.08C103.026 37.6667 105.906 38.3067 108.146 39C110.386 39.64 112.333 40.84 113.986 42.6C115.64 44.36 116.466 46.8133 116.466 49.96C116.466 52.6267 115.666 55 114.066 57.08C112.466 59.16 110.12 60.7867 107.026 61.96C103.986 63.08 100.36 63.64 96.1463 63.64ZM151.926 60.92C150.7 61.8267 149.18 62.52 147.366 63C145.606 63.4267 143.74 63.64 141.766 63.64C136.646 63.64 132.673 62.3333 129.846 59.72C127.073 57.1067 125.686 53.2667 125.686 48.2V30.52H119.046V20.92H125.686V10.44H138.166V20.92H148.886V30.52H138.166V48.04C138.166 49.8533 138.62 51.2667 139.526 52.28C140.486 53.24 141.82 53.72 143.526 53.72C145.5 53.72 147.18 53.1867 148.566 52.12L151.926 60.92ZM176.292 19.32C182.959 19.32 188.079 20.92 191.652 24.12C195.225 27.2667 197.012 32.04 197.012 38.44V63H185.332V57.64C182.985 61.64 178.612 63.64 172.212 63.64C168.905 63.64 166.025 63.08 163.572 61.96C161.172 60.84 159.332 59.2933 158.052 57.32C156.772 55.3467 156.132 53.1067 156.132 50.6C156.132 46.6 157.625 43.4533 160.612 41.16C163.652 38.8667 168.319 37.72 174.612 37.72H184.532C184.532 35 183.705 32.92 182.052 31.48C180.399 29.9867 177.919 29.24 174.612 29.24C172.319 29.24 170.052 29.6133 167.812 30.36C165.625 31.0533 163.759 32.0133 162.212 33.24L157.732 24.52C160.079 22.8667 162.879 21.5867 166.132 20.68C169.439 19.7733 172.825 19.32 176.292 19.32ZM175.332 55.24C177.465 55.24 179.359 54.76 181.012 53.8C182.665 52.7867 183.839 51.32 184.532 49.4V45H175.972C170.852 45 168.292 46.68 168.292 50.04C168.292 51.64 168.905 52.92 170.132 53.88C171.412 54.7867 173.145 55.24 175.332 55.24ZM236.067 60.92C234.84 61.8267 233.32 62.52 231.507 63C229.747 63.4267 227.88 63.64 225.907 63.64C220.787 63.64 216.814 62.3333 213.987 59.72C211.214 57.1067 209.827 53.2667 209.827 48.2V30.52H203.187V20.92H209.827V10.44H222.307V20.92H233.027V30.52H222.307V48.04C222.307 49.8533 222.76 51.2667 223.667 52.28C224.627 53.24 225.96 53.72 227.667 53.72C229.64 53.72 231.32 53.1867 232.707 52.12L236.067 60.92ZM243.073 19.96H255.553V63H243.073V19.96ZM249.313 13.96C247.019 13.96 245.153 13.2933 243.713 11.96C242.273 10.6267 241.553 8.97333 241.553 7C241.553 5.02666 242.273 3.37333 243.713 2.04C245.153 0.706663 247.019 0.0399952 249.313 0.0399952C251.606 0.0399952 253.473 0.679996 254.913 1.96C256.353 3.24 257.073 4.84 257.073 6.76C257.073 8.84 256.353 10.5733 254.913 11.96C253.473 13.2933 251.606 13.96 249.313 13.96ZM287.615 63.64C283.082 63.64 279.002 62.7067 275.375 60.84C271.802 58.92 269.002 56.28 266.975 52.92C264.948 49.56 263.935 45.7467 263.935 41.48C263.935 37.2133 264.948 33.4 266.975 30.04C269.002 26.68 271.802 24.0667 275.375 22.2C279.002 20.28 283.082 19.32 287.615 19.32C292.148 19.32 296.202 20.28 299.775 22.2C303.348 24.0667 306.148 26.68 308.175 30.04C310.202 33.4 311.215 37.2133 311.215 41.48C311.215 45.7467 310.202 49.56 308.175 52.92C306.148 56.28 303.348 58.92 299.775 60.84C296.202 62.7067 292.148 63.64 287.615 63.64ZM287.615 53.4C290.815 53.4 293.428 52.3333 295.455 50.2C297.535 48.0133 298.575 45.1067 298.575 41.48C298.575 37.8533 297.535 34.9733 295.455 32.84C293.428 30.6533 290.815 29.56 287.615 29.56C284.415 29.56 281.775 30.6533 279.695 32.84C277.615 34.9733 276.575 37.8533 276.575 41.48C276.575 45.1067 277.615 48.0133 279.695 50.2C281.775 52.3333 284.415 53.4 287.615 53.4ZM345.717 19.32C351.05 19.32 355.344 20.92 358.597 24.12C361.904 27.32 363.557 32.0667 363.557 38.36V63H351.077V40.28C351.077 36.8667 350.33 34.3333 348.837 32.68C347.344 30.9733 345.184 30.12 342.357 30.12C339.21 30.12 336.704 31.1067 334.837 33.08C332.97 35 332.037 37.88 332.037 41.72V63H319.557V19.96H331.477V25C333.13 23.1867 335.184 21.8 337.637 20.84C340.09 19.8267 342.784 19.32 345.717 19.32ZM449.366 63L449.286 29.4L432.806 57.08H426.966L410.566 30.12V63H398.406V7H409.126L430.086 41.8L450.726 7H461.366L461.526 63H449.366ZM516.092 41.64C516.092 41.8 516.012 42.92 515.852 45H483.292C483.879 47.6667 485.265 49.7733 487.452 51.32C489.639 52.8667 492.359 53.64 495.612 53.64C497.852 53.64 499.825 53.32 501.532 52.68C503.292 51.9867 504.919 50.92 506.412 49.48L513.052 56.68C508.999 61.32 503.079 63.64 495.292 63.64C490.439 63.64 486.145 62.7067 482.412 60.84C478.679 58.92 475.799 56.28 473.772 52.92C471.745 49.56 470.732 45.7467 470.732 41.48C470.732 37.2667 471.719 33.48 473.692 30.12C475.719 26.7067 478.465 24.0667 481.932 22.2C485.452 20.28 489.372 19.32 493.692 19.32C497.905 19.32 501.719 20.2267 505.132 22.04C508.545 23.8533 511.212 26.4667 513.132 29.88C515.105 33.24 516.092 37.16 516.092 41.64ZM493.772 28.76C490.945 28.76 488.572 29.56 486.652 31.16C484.732 32.76 483.559 34.9467 483.132 37.72H504.332C503.905 35 502.732 32.84 500.812 31.24C498.892 29.5867 496.545 28.76 493.772 28.76ZM579.521 19.32C584.907 19.32 589.174 20.92 592.321 24.12C595.521 27.2667 597.121 32.0133 597.121 38.36V63H584.641V40.28C584.641 36.8667 583.921 34.3333 582.481 32.68C581.094 30.9733 579.094 30.12 576.481 30.12C573.547 30.12 571.227 31.08 569.521 33C567.814 34.8667 566.961 37.6667 566.961 41.4V63H554.481V40.28C554.481 33.5067 551.761 30.12 546.321 30.12C543.441 30.12 541.147 31.08 539.441 33C537.734 34.8667 536.881 37.6667 536.881 41.4V63H524.401V19.96H536.321V24.92C537.921 23.1067 539.867 21.72 542.161 20.76C544.507 19.8 547.067 19.32 549.841 19.32C552.881 19.32 555.627 19.9333 558.081 21.16C560.534 22.3333 562.507 24.0667 564.001 26.36C565.761 24.12 567.974 22.3867 570.641 21.16C573.361 19.9333 576.321 19.32 579.521 19.32ZM633.747 19.32C637.747 19.32 641.374 20.2533 644.627 22.12C647.934 23.9333 650.52 26.52 652.387 29.88C654.254 33.1867 655.187 37.0533 655.187 41.48C655.187 45.9067 654.254 49.8 652.387 53.16C650.52 56.4667 647.934 59.0533 644.627 60.92C641.374 62.7333 637.747 63.64 633.747 63.64C627.827 63.64 623.32 61.7733 620.227 58.04V63H608.307V3.64H620.787V24.52C623.934 21.0533 628.254 19.32 633.747 19.32ZM631.587 53.4C634.787 53.4 637.4 52.3333 639.427 50.2C641.507 48.0133 642.547 45.1067 642.547 41.48C642.547 37.8533 641.507 34.9733 639.427 32.84C637.4 30.6533 634.787 29.56 631.587 29.56C628.387 29.56 625.747 30.6533 623.667 32.84C621.64 34.9733 620.627 37.8533 620.627 41.48C620.627 45.1067 621.64 48.0133 623.667 50.2C625.747 52.3333 628.387 53.4 631.587 53.4ZM705.701 41.64C705.701 41.8 705.621 42.92 705.461 45H672.901C673.488 47.6667 674.875 49.7733 677.061 51.32C679.248 52.8667 681.968 53.64 685.221 53.64C687.461 53.64 689.435 53.32 691.141 52.68C692.901 51.9867 694.528 50.92 696.021 49.48L702.661 56.68C698.608 61.32 692.688 63.64 684.901 63.64C680.048 63.64 675.755 62.7067 672.021 60.84C668.288 58.92 665.408 56.28 663.381 52.92C661.355 49.56 660.341 45.7467 660.341 41.48C660.341 37.2667 661.328 33.48 663.301 30.12C665.328 26.7067 668.075 24.0667 671.541 22.2C675.061 20.28 678.981 19.32 683.301 19.32C687.515 19.32 691.328 20.2267 694.741 22.04C698.155 23.8533 700.821 26.4667 702.741 29.88C704.715 33.24 705.701 37.16 705.701 41.64ZM683.381 28.76C680.555 28.76 678.181 29.56 676.261 31.16C674.341 32.76 673.168 34.9467 672.741 37.72H693.941C693.515 35 692.341 32.84 690.421 31.24C688.501 29.5867 686.155 28.76 683.381 28.76ZM725.93 25.64C727.423 23.56 729.423 21.9867 731.93 20.92C734.49 19.8533 737.423 19.32 740.73 19.32V30.84C739.343 30.7333 738.41 30.68 737.93 30.68C734.357 30.68 731.557 31.6933 729.53 33.72C727.503 35.6933 726.49 38.68 726.49 42.68V63H714.01V19.96H725.93V25.64ZM762.787 63.64C759.214 63.64 755.72 63.2133 752.307 62.36C748.894 61.4533 746.174 60.3333 744.147 59L748.307 50.04C750.227 51.2667 752.547 52.28 755.267 53.08C757.987 53.8267 760.654 54.2 763.267 54.2C768.547 54.2 771.187 52.8933 771.187 50.28C771.187 49.0533 770.467 48.1733 769.027 47.64C767.587 47.1067 765.374 46.6533 762.387 46.28C758.867 45.7467 755.96 45.1333 753.667 44.44C751.374 43.7467 749.374 42.52 747.667 40.76C746.014 39 745.187 36.4933 745.187 33.24C745.187 30.52 745.96 28.12 747.507 26.04C749.107 23.9067 751.4 22.2533 754.387 21.08C757.427 19.9067 761 19.32 765.107 19.32C768.147 19.32 771.16 19.6667 774.147 20.36C777.187 21 779.694 21.9067 781.667 23.08L777.507 31.96C773.72 29.8267 769.587 28.76 765.107 28.76C762.44 28.76 760.44 29.1333 759.107 29.88C757.774 30.6267 757.107 31.5867 757.107 32.76C757.107 34.0933 757.827 35.0267 759.267 35.56C760.707 36.0933 763 36.6 766.147 37.08C769.667 37.6667 772.547 38.3067 774.787 39C777.027 39.64 778.974 40.84 780.627 42.6C782.28 44.36 783.107 46.8133 783.107 49.96C783.107 52.6267 782.307 55 780.707 57.08C779.107 59.16 776.76 60.7867 773.667 61.96C770.627 63.08 767 63.64 762.787 63.64ZM816.967 19.32C822.3 19.32 826.594 20.92 829.847 24.12C833.154 27.32 834.807 32.0667 834.807 38.36V63H822.327V40.28C822.327 36.8667 821.58 34.3333 820.087 32.68C818.594 30.9733 816.434 30.12 813.607 30.12C810.46 30.12 807.954 31.1067 806.087 33.08C804.22 35 803.287 37.88 803.287 41.72V63H790.807V3.64H803.287V24.44C804.94 22.7867 806.94 21.5333 809.287 20.68C811.634 19.7733 814.194 19.32 816.967 19.32ZM846.119 19.96H858.599V63H846.119V19.96ZM852.359 13.96C850.066 13.96 848.199 13.2933 846.759 11.96C845.319 10.6267 844.599 8.97333 844.599 7C844.599 5.02666 845.319 3.37333 846.759 2.04C848.199 0.706663 850.066 0.0399952 852.359 0.0399952C854.653 0.0399952 856.519 0.679996 857.959 1.96C859.399 3.24 860.119 4.84 860.119 6.76C860.119 8.84 859.399 10.5733 857.959 11.96C856.519 13.2933 854.653 13.96 852.359 13.96ZM895.622 19.32C899.622 19.32 903.249 20.2533 906.502 22.12C909.809 23.9333 912.395 26.52 914.262 29.88C916.129 33.1867 917.062 37.0533 917.062 41.48C917.062 45.9067 916.129 49.8 914.262 53.16C912.395 56.4667 909.809 59.0533 906.502 60.92C903.249 62.7333 899.622 63.64 895.622 63.64C890.129 63.64 885.809 61.9067 882.662 58.44V78.52H870.182V19.96H882.102V24.92C885.195 21.1867 889.702 19.32 895.622 19.32ZM893.462 53.4C896.662 53.4 899.275 52.3333 901.302 50.2C903.382 48.0133 904.422 45.1067 904.422 41.48C904.422 37.8533 903.382 34.9733 901.302 32.84C899.275 30.6533 896.662 29.56 893.462 29.56C890.262 29.56 887.622 30.6533 885.542 32.84C883.515 34.9733 882.502 37.8533 882.502 41.48C882.502 45.1067 883.515 48.0133 885.542 50.2C887.622 52.3333 890.262 53.4 893.462 53.4Z" fill="url(#paint0_linear)" fill-opacity="0.65"/>
<defs>
<linearGradient id="paint0_linear" x1="1094.1" y1="62.3379" x2="1086.08" y2="-68.5739" gradientUnits="userSpaceOnUse">
<stop stop-color="#652C90"/>
<stop offset="0.458333" stop-color="#91268F"/>
<stop offset="1" stop-color="#D91B5B"/>
</linearGradient>
</defs>
</svg>
