<svg width="395" height="32" viewBox="0 0 395 32" fill="none" xmlns="http://www.w3.org/2000/svg">
<path d="M13.1026 25.5517C10.8025 25.5517 8.72407 25.0558 6.86718 24.0641C5.03138 23.0723 3.58596 21.7113 2.5309 19.981C1.49695 18.2296 0.979974 16.2672 0.979974 14.0938C0.979974 11.9204 1.49695 9.96854 2.5309 8.23825C3.58596 6.48686 5.03138 5.11529 6.86718 4.12354C8.72407 3.13178 10.8025 2.63591 13.1026 2.63591C15.4026 2.63591 17.4705 3.13178 19.3063 4.12354C21.1421 5.11529 22.5875 6.48686 23.6425 8.23825C24.6976 9.96854 25.2251 11.9204 25.2251 14.0938C25.2251 16.2672 24.6976 18.2296 23.6425 19.981C22.5875 21.7113 21.1421 23.0723 19.3063 24.0641C17.4705 25.0558 15.4026 25.5517 13.1026 25.5517ZM13.1026 21.1838C14.4108 21.1838 15.5925 20.8884 16.6475 20.2975C17.7026 19.6856 18.5255 18.8415 19.1164 17.7654C19.7283 16.6892 20.0343 15.4654 20.0343 14.0938C20.0343 12.7222 19.7283 11.4984 19.1164 10.4222C18.5255 9.34606 17.7026 8.51256 16.6475 7.92173C15.5925 7.3098 14.4108 7.00383 13.1026 7.00383C11.7943 7.00383 10.6126 7.3098 9.55757 7.92173C8.50251 8.51256 7.66902 9.34606 7.05709 10.4222C6.46626 11.4984 6.17084 12.7222 6.17084 14.0938C6.17084 15.4654 6.46626 16.6892 7.05709 17.7654C7.66902 18.8415 8.50251 19.6856 9.55757 20.2975C10.6126 20.8884 11.7943 21.1838 13.1026 21.1838ZM45.8857 8.14329V25.1719H41.2013V23.1462C40.5472 23.8847 39.7664 24.4544 38.8591 24.8554C37.9517 25.2352 36.9705 25.4251 35.9155 25.4251C33.6788 25.4251 31.9063 24.7815 30.598 23.4943C29.2897 22.2072 28.6356 20.2975 28.6356 17.7654V8.14329H33.5732V17.0374C33.5732 19.7805 34.7233 21.1521 37.0233 21.1521C38.2049 21.1521 39.1545 20.7723 39.8719 20.0127C40.5894 19.2319 40.9481 18.0819 40.9481 16.5626V8.14329H45.8857ZM61.4433 24.3489C60.9579 24.7077 60.3566 24.982 59.6391 25.1719C58.9428 25.3407 58.2042 25.4251 57.4235 25.4251C55.3978 25.4251 53.8258 24.9081 52.7074 23.8742C51.6101 22.8402 51.0615 21.3209 51.0615 19.3163V12.3213H48.4344V8.52311H51.0615V4.37675H55.9992V8.52311H60.2405V12.3213H55.9992V19.253C55.9992 19.9705 56.1785 20.5296 56.5373 20.9306C56.9171 21.3104 57.4446 21.5003 58.1198 21.5003C58.9006 21.5003 59.5653 21.2893 60.1139 20.8673L61.4433 24.3489ZM69.9439 25.4251C68.5302 25.4251 67.1481 25.2563 65.7976 24.9187C64.4471 24.5599 63.371 24.1168 62.5691 23.5893L64.215 20.0443C64.9746 20.5296 65.8925 20.9306 66.9687 21.2471C68.0448 21.5425 69.0999 21.6902 70.1339 21.6902C72.2229 21.6902 73.2674 21.1732 73.2674 20.1393C73.2674 19.6539 72.9825 19.3058 72.4128 19.0948C71.843 18.8837 70.9673 18.7044 69.7857 18.5567C68.393 18.3457 67.243 18.103 66.3357 17.8287C65.4283 17.5544 64.637 17.0691 63.9618 16.3727C63.3077 15.6764 62.9806 14.6846 62.9806 13.3975C62.9806 12.3213 63.2866 11.3718 63.8985 10.5488C64.5315 9.70477 65.4389 9.05064 66.6205 8.58642C67.8233 8.12219 69.2371 7.89008 70.8618 7.89008C72.0646 7.89008 73.2568 8.02724 74.4385 8.30155C75.6412 8.55476 76.633 8.91348 77.4137 9.37771L75.7678 12.891C74.2697 12.047 72.6343 11.625 70.8618 11.625C69.8068 11.625 69.0155 11.7727 68.488 12.0681C67.9604 12.3635 67.6967 12.7433 67.6967 13.2076C67.6967 13.7351 67.9815 14.1044 68.5513 14.3154C69.121 14.5264 70.0284 14.7268 71.2733 14.9167C72.666 15.1489 73.8054 15.4021 74.6917 15.6764C75.5779 15.9296 76.3481 16.4044 77.0023 17.1007C77.6564 17.797 77.9835 18.7677 77.9835 20.0127C77.9835 21.0677 77.6669 22.0067 77.0339 22.8297C76.4009 23.6526 75.4724 24.2962 74.2486 24.7604C73.0458 25.2035 71.6109 25.4251 69.9439 25.4251ZM92.0131 24.3489C91.5277 24.7077 90.9263 24.982 90.2089 25.1719C89.5126 25.3407 88.774 25.4251 87.9933 25.4251C85.9676 25.4251 84.3956 24.9081 83.2772 23.8742C82.1799 22.8402 81.6313 21.3209 81.6313 19.3163V12.3213H79.0042V8.52311H81.6313V4.37675H86.569V8.52311H90.8103V12.3213H86.569V19.253C86.569 19.9705 86.7483 20.5296 87.107 20.9306C87.4869 21.3104 88.0144 21.5003 88.6896 21.5003C89.4704 21.5003 90.1351 21.2893 90.6837 20.8673L92.0131 24.3489ZM101.653 7.89008C104.291 7.89008 106.317 8.52311 107.73 9.78918C109.144 11.0341 109.851 12.9227 109.851 15.4548V25.1719H105.23V23.0512C104.301 24.6338 102.571 25.4251 100.039 25.4251C98.7307 25.4251 97.5912 25.2035 96.6206 24.7604C95.671 24.3173 94.9431 23.7053 94.4366 22.9246C93.9302 22.1439 93.677 21.2576 93.677 20.2659C93.677 18.6833 94.2678 17.4383 95.4495 16.531C96.6522 15.6236 98.4986 15.17 100.989 15.17H104.913C104.913 14.0938 104.586 13.2709 103.932 12.7011C103.278 12.1103 102.297 11.8149 100.989 11.8149C100.081 11.8149 99.1844 11.9626 98.2981 12.258C97.433 12.5323 96.6944 12.9121 96.0825 13.3975L94.31 9.94744C95.2385 9.2933 96.3463 8.78688 97.6334 8.42816C98.9417 8.06944 100.282 7.89008 101.653 7.89008ZM101.273 22.1017C102.117 22.1017 102.867 21.9118 103.521 21.5319C104.175 21.131 104.639 20.5507 104.913 19.7911V18.0503H101.527C99.5009 18.0503 98.488 18.7149 98.488 20.0443C98.488 20.6773 98.7307 21.1838 99.216 21.5636C99.7224 21.9223 100.408 22.1017 101.273 22.1017ZM125.303 24.3489C124.818 24.7077 124.216 24.982 123.499 25.1719C122.802 25.3407 122.064 25.4251 121.283 25.4251C119.257 25.4251 117.685 24.9081 116.567 23.8742C115.47 22.8402 114.921 21.3209 114.921 19.3163V12.3213H112.294V8.52311H114.921V4.37675H119.859V8.52311H124.1V12.3213H119.859V19.253C119.859 19.9705 120.038 20.5296 120.397 20.9306C120.777 21.3104 121.304 21.5003 121.979 21.5003C122.76 21.5003 123.425 21.2893 123.974 20.8673L125.303 24.3489ZM128.075 8.14329H133.012V25.1719H128.075V8.14329ZM130.543 5.76942C129.636 5.76942 128.898 5.50566 128.328 4.97813C127.758 4.4506 127.473 3.79647 127.473 3.01573C127.473 2.23499 127.758 1.58085 128.328 1.05333C128.898 0.525798 129.636 0.262034 130.543 0.262034C131.451 0.262034 132.189 0.515248 132.759 1.02167C133.329 1.5281 133.614 2.16113 133.614 2.92077C133.614 3.74372 133.329 4.4295 132.759 4.97813C132.189 5.50566 131.451 5.76942 130.543 5.76942ZM145.698 25.4251C143.904 25.4251 142.29 25.0558 140.855 24.3173C139.441 23.5576 138.333 22.5131 137.532 21.1838C136.73 19.8544 136.329 18.3457 136.329 16.6576C136.329 14.9695 136.73 13.4608 137.532 12.1314C138.333 10.802 139.441 9.76808 140.855 9.02954C142.29 8.2699 143.904 7.89008 145.698 7.89008C147.491 7.89008 149.095 8.2699 150.509 9.02954C151.923 9.76808 153.03 10.802 153.832 12.1314C154.634 13.4608 155.035 14.9695 155.035 16.6576C155.035 18.3457 154.634 19.8544 153.832 21.1838C153.03 22.5131 151.923 23.5576 150.509 24.3173C149.095 25.0558 147.491 25.4251 145.698 25.4251ZM145.698 21.3737C146.964 21.3737 147.998 20.9517 148.8 20.1076C149.622 19.2425 150.034 18.0925 150.034 16.6576C150.034 15.2227 149.622 14.0833 148.8 13.2392C147.998 12.3741 146.964 11.9415 145.698 11.9415C144.432 11.9415 143.387 12.3741 142.564 13.2392C141.741 14.0833 141.33 15.2227 141.33 16.6576C141.33 18.0925 141.741 19.2425 142.564 20.1076C143.387 20.9517 144.432 21.3737 145.698 21.3737ZM168.685 7.89008C170.796 7.89008 172.494 8.52311 173.781 9.78918C175.09 11.0552 175.744 12.9332 175.744 15.4232V25.1719H170.806V16.1828C170.806 14.8323 170.511 13.83 169.92 13.1759C169.329 12.5007 168.474 12.1631 167.356 12.1631C166.111 12.1631 165.119 12.5534 164.381 13.3342C163.642 14.0938 163.273 15.2333 163.273 16.7525V25.1719H158.335V8.14329H163.051V10.1373C163.706 9.41991 164.518 8.87128 165.489 8.49146C166.459 8.09054 167.525 7.89008 168.685 7.89008ZM209.694 25.1719L209.662 11.8782L203.142 22.8297H200.831L194.343 12.1631V25.1719H189.532V3.01573H193.773L202.066 16.7842L210.232 3.01573H214.441L214.505 25.1719H209.694ZM236.094 16.7209C236.094 16.7842 236.062 17.2273 235.999 18.0503H223.116C223.348 19.1053 223.897 19.9388 224.762 20.5507C225.627 21.1627 226.704 21.4686 227.991 21.4686C228.877 21.4686 229.658 21.342 230.333 21.0888C231.029 20.8145 231.673 20.3925 232.264 19.8227L234.891 22.6714C233.287 24.5072 230.945 25.4251 227.864 25.4251C225.944 25.4251 224.245 25.0558 222.768 24.3173C221.291 23.5576 220.152 22.5131 219.35 21.1838C218.548 19.8544 218.147 18.3457 218.147 16.6576C218.147 14.9906 218.537 13.4924 219.318 12.1631C220.12 10.8126 221.207 9.76808 222.578 9.02954C223.971 8.2699 225.522 7.89008 227.231 7.89008C228.898 7.89008 230.407 8.2488 231.757 8.96624C233.108 9.68367 234.163 10.7176 234.922 12.0681C235.703 13.3975 236.094 14.9484 236.094 16.7209ZM227.263 11.625C226.144 11.625 225.205 11.9415 224.446 12.5745C223.686 13.2076 223.222 14.0727 223.053 15.17H231.441C231.272 14.0938 230.808 13.2392 230.048 12.6062C229.288 11.952 228.36 11.625 227.263 11.625ZM261.189 7.89008C263.32 7.89008 265.008 8.52311 266.253 9.78918C267.519 11.0341 268.152 12.9121 268.152 15.4232V25.1719H263.215V16.1828C263.215 14.8323 262.93 13.83 262.36 13.1759C261.811 12.5007 261.02 12.1631 259.986 12.1631C258.826 12.1631 257.908 12.5429 257.232 13.3025C256.557 14.041 256.22 15.1489 256.22 16.6259V25.1719H251.282V16.1828C251.282 13.503 250.206 12.1631 248.053 12.1631C246.914 12.1631 246.007 12.5429 245.331 13.3025C244.656 14.041 244.319 15.1489 244.319 16.6259V25.1719H239.381V8.14329H244.097V10.1057C244.73 9.38826 245.5 8.83963 246.408 8.45981C247.336 8.07999 248.349 7.89008 249.446 7.89008C250.649 7.89008 251.736 8.13274 252.706 8.61807C253.677 9.08229 254.458 9.76808 255.048 10.6754C255.745 9.78918 256.62 9.10339 257.675 8.61807C258.752 8.13274 259.923 7.89008 261.189 7.89008ZM282.643 7.89008C284.226 7.89008 285.661 8.25935 286.948 8.99789C288.256 9.71532 289.28 10.7387 290.018 12.0681C290.757 13.3764 291.126 14.9062 291.126 16.6576C291.126 18.409 290.757 19.9494 290.018 21.2787C289.28 22.587 288.256 23.6104 286.948 24.3489C285.661 25.0664 284.226 25.4251 282.643 25.4251C280.301 25.4251 278.518 24.6865 277.294 23.2095V25.1719H272.578V1.68636H277.516V9.94744C278.761 8.57587 280.47 7.89008 282.643 7.89008ZM281.789 21.3737C283.055 21.3737 284.089 20.9517 284.89 20.1076C285.713 19.2425 286.125 18.0925 286.125 16.6576C286.125 15.2227 285.713 14.0833 284.89 13.2392C284.089 12.3741 283.055 11.9415 281.789 11.9415C280.523 11.9415 279.478 12.3741 278.655 13.2392C277.853 14.0833 277.452 15.2227 277.452 16.6576C277.452 18.0925 277.853 19.2425 278.655 20.1076C279.478 20.9517 280.523 21.3737 281.789 21.3737ZM311.112 16.7209C311.112 16.7842 311.08 17.2273 311.017 18.0503H298.134C298.367 19.1053 298.915 19.9388 299.78 20.5507C300.645 21.1627 301.722 21.4686 303.009 21.4686C303.895 21.4686 304.676 21.342 305.351 21.0888C306.047 20.8145 306.691 20.3925 307.282 19.8227L309.909 22.6714C308.305 24.5072 305.963 25.4251 302.882 25.4251C300.962 25.4251 299.263 25.0558 297.786 24.3173C296.309 23.5576 295.17 22.5131 294.368 21.1838C293.566 19.8544 293.165 18.3457 293.165 16.6576C293.165 14.9906 293.556 13.4924 294.336 12.1631C295.138 10.8126 296.225 9.76808 297.596 9.02954C298.989 8.2699 300.54 7.89008 302.249 7.89008C303.916 7.89008 305.425 8.2488 306.775 8.96624C308.126 9.68367 309.181 10.7176 309.941 12.0681C310.721 13.3975 311.112 14.9484 311.112 16.7209ZM302.281 11.625C301.162 11.625 300.223 11.9415 299.464 12.5745C298.704 13.2076 298.24 14.0727 298.071 15.17H306.459C306.29 14.0938 305.826 13.2392 305.066 12.6062C304.307 11.952 303.378 11.625 302.281 11.625ZM319.115 10.3906C319.706 9.56762 320.497 8.94513 321.489 8.52311C322.502 8.10109 323.662 7.89008 324.971 7.89008V12.4479C324.422 12.4057 324.053 12.3846 323.863 12.3846C322.449 12.3846 321.341 12.7855 320.539 13.5874C319.738 14.3681 319.337 15.5498 319.337 17.1324V25.1719H314.399V8.14329H319.115V10.3906ZM333.697 25.4251C332.284 25.4251 330.901 25.2563 329.551 24.9187C328.2 24.5599 327.124 24.1168 326.322 23.5893L327.968 20.0443C328.728 20.5296 329.646 20.9306 330.722 21.2471C331.798 21.5425 332.853 21.6902 333.887 21.6902C335.976 21.6902 337.021 21.1732 337.021 20.1393C337.021 19.6539 336.736 19.3058 336.166 19.0948C335.596 18.8837 334.721 18.7044 333.539 18.5567C332.146 18.3457 330.996 18.103 330.089 17.8287C329.182 17.5544 328.39 17.0691 327.715 16.3727C327.061 15.6764 326.734 14.6846 326.734 13.3975C326.734 12.3213 327.04 11.3718 327.652 10.5488C328.285 9.70477 329.192 9.05064 330.374 8.58642C331.577 8.12219 332.99 7.89008 334.615 7.89008C335.818 7.89008 337.01 8.02724 338.192 8.30155C339.395 8.55476 340.386 8.91348 341.167 9.37771L339.521 12.891C338.023 12.047 336.388 11.625 334.615 11.625C333.56 11.625 332.769 11.7727 332.241 12.0681C331.714 12.3635 331.45 12.7433 331.45 13.2076C331.45 13.7351 331.735 14.1044 332.305 14.3154C332.874 14.5264 333.782 14.7268 335.027 14.9167C336.419 15.1489 337.559 15.4021 338.445 15.6764C339.331 15.9296 340.101 16.4044 340.756 17.1007C341.41 17.797 341.737 18.7677 341.737 20.0127C341.737 21.0677 341.42 22.0067 340.787 22.8297C340.154 23.6526 339.226 24.2962 338.002 24.7604C336.799 25.2035 335.364 25.4251 333.697 25.4251ZM355.133 7.89008C357.243 7.89008 358.942 8.52311 360.229 9.78918C361.538 11.0552 362.192 12.9332 362.192 15.4232V25.1719H357.254V16.1828C357.254 14.8323 356.959 13.83 356.368 13.1759C355.777 12.5007 354.922 12.1631 353.804 12.1631C352.559 12.1631 351.567 12.5534 350.829 13.3342C350.09 14.0938 349.721 15.2333 349.721 16.7525V25.1719H344.783V1.68636H349.721V9.91578C350.375 9.26165 351.166 8.76578 352.095 8.42816C353.023 8.06944 354.036 7.89008 355.133 7.89008ZM366.667 8.14329H371.605V25.1719H366.667V8.14329ZM369.136 5.76942C368.229 5.76942 367.49 5.50566 366.921 4.97813C366.351 4.4506 366.066 3.79647 366.066 3.01573C366.066 2.23499 366.351 1.58085 366.921 1.05333C367.49 0.525798 368.229 0.262034 369.136 0.262034C370.044 0.262034 370.782 0.515248 371.352 1.02167C371.922 1.5281 372.206 2.16113 372.206 2.92077C372.206 3.74372 371.922 4.4295 371.352 4.97813C370.782 5.50566 370.044 5.76942 369.136 5.76942ZM386.253 7.89008C387.835 7.89008 389.27 8.25935 390.558 8.99789C391.866 9.71532 392.889 10.7387 393.628 12.0681C394.366 13.3764 394.736 14.9062 394.736 16.6576C394.736 18.409 394.366 19.9494 393.628 21.2787C392.889 22.587 391.866 23.6104 390.558 24.3489C389.27 25.0664 387.835 25.4251 386.253 25.4251C384.079 25.4251 382.37 24.7393 381.125 23.3677V31.3123H376.188V8.14329H380.904V10.1057C382.128 8.62862 383.911 7.89008 386.253 7.89008ZM385.398 21.3737C386.664 21.3737 387.698 20.9517 388.5 20.1076C389.323 19.2425 389.735 18.0925 389.735 16.6576C389.735 15.2227 389.323 14.0833 388.5 13.2392C387.698 12.3741 386.664 11.9415 385.398 11.9415C384.132 11.9415 383.088 12.3741 382.265 13.2392C381.463 14.0833 381.062 15.2227 381.062 16.6576C381.062 18.0925 381.463 19.2425 382.265 20.1076C383.088 20.9517 384.132 21.3737 385.398 21.3737Z" fill="url(#paint0_linear)" fill-opacity="0.65"/>
<defs>
<linearGradient id="paint0_linear" x1="464.245" y1="22.2586" x2="460.794" y2="-33.2847" gradientUnits="userSpaceOnUse">
<stop stop-color="#652C90"/>
<stop offset="0.458333" stop-color="#91268F"/>
<stop offset="1" stop-color="#D91B5B"/>
</linearGradient>
</defs>
</svg>
