<svg width="249" height="20" viewBox="0 0 249 20" fill="none" xmlns="http://www.w3.org/2000/svg">
<path d="M7.82281 16.24C6.36948 16.24 5.05615 15.9267 3.88281 15.3C2.72281 14.6733 1.80948 13.8133 1.14281 12.72C0.489479 11.6133 0.162813 10.3733 0.162813 9C0.162813 7.62667 0.489479 6.39333 1.14281 5.3C1.80948 4.19333 2.72281 3.32667 3.88281 2.7C5.05615 2.07333 6.36948 1.76 7.82281 1.76C9.27615 1.76 10.5828 2.07333 11.7428 2.7C12.9028 3.32667 13.8161 4.19333 14.4828 5.3C15.1495 6.39333 15.4828 7.62667 15.4828 9C15.4828 10.3733 15.1495 11.6133 14.4828 12.72C13.8161 13.8133 12.9028 14.6733 11.7428 15.3C10.5828 15.9267 9.27615 16.24 7.82281 16.24ZM7.82281 13.48C8.64948 13.48 9.39615 13.2933 10.0628 12.92C10.7295 12.5333 11.2495 12 11.6228 11.32C12.0095 10.64 12.2028 9.86667 12.2028 9C12.2028 8.13333 12.0095 7.36 11.6228 6.68C11.2495 6 10.7295 5.47333 10.0628 5.1C9.39615 4.71333 8.64948 4.52 7.82281 4.52C6.99615 4.52 6.24948 4.71333 5.58281 5.1C4.91615 5.47333 4.38948 6 4.00281 6.68C3.62948 7.36 3.44281 8.13333 3.44281 9C3.44281 9.86667 3.62948 10.64 4.00281 11.32C4.38948 12 4.91615 12.5333 5.58281 12.92C6.24948 13.2933 6.99615 13.48 7.82281 13.48ZM28.5378 5.24V16H25.5778V14.72C25.1645 15.1867 24.6711 15.5467 24.0978 15.8C23.5245 16.04 22.9045 16.16 22.2378 16.16C20.8245 16.16 19.7045 15.7533 18.8778 14.94C18.0511 14.1267 17.6378 12.92 17.6378 11.32V5.24H20.7578V10.86C20.7578 12.5933 21.4845 13.46 22.9378 13.46C23.6845 13.46 24.2845 13.22 24.7378 12.74C25.1911 12.2467 25.4178 11.52 25.4178 10.56V5.24H28.5378ZM38.3683 15.48C38.0616 15.7067 37.6816 15.88 37.2283 16C36.7883 16.1067 36.3216 16.16 35.8283 16.16C34.5483 16.16 33.5549 15.8333 32.8483 15.18C32.1549 14.5267 31.8083 13.5667 31.8083 12.3V7.88H30.1483V5.48H31.8083V2.86H34.9283V5.48H37.6083V7.88H34.9283V12.26C34.9283 12.7133 35.0416 13.0667 35.2683 13.32C35.5083 13.56 35.8416 13.68 36.2683 13.68C36.7616 13.68 37.1816 13.5467 37.5283 13.28L38.3683 15.48ZM43.7397 16.16C42.8464 16.16 41.973 16.0533 41.1197 15.84C40.2664 15.6133 39.5864 15.3333 39.0797 15L40.1197 12.76C40.5997 13.0667 41.1797 13.32 41.8597 13.52C42.5397 13.7067 43.2064 13.8 43.8597 13.8C45.1797 13.8 45.8397 13.4733 45.8397 12.82C45.8397 12.5133 45.6597 12.2933 45.2997 12.16C44.9397 12.0267 44.3864 11.9133 43.6397 11.82C42.7597 11.6867 42.033 11.5333 41.4597 11.36C40.8864 11.1867 40.3864 10.88 39.9597 10.44C39.5464 10 39.3397 9.37333 39.3397 8.56C39.3397 7.88 39.533 7.28 39.9197 6.76C40.3197 6.22667 40.893 5.81333 41.6397 5.52C42.3997 5.22667 43.293 5.08 44.3197 5.08C45.0797 5.08 45.833 5.16667 46.5797 5.34C47.3397 5.5 47.9664 5.72667 48.4597 6.02L47.4197 8.24C46.473 7.70667 45.4397 7.44 44.3197 7.44C43.653 7.44 43.153 7.53333 42.8197 7.72C42.4864 7.90667 42.3197 8.14667 42.3197 8.44C42.3197 8.77333 42.4997 9.00667 42.8597 9.14C43.2197 9.27333 43.793 9.4 44.5797 9.52C45.4597 9.66667 46.1797 9.82667 46.7397 10C47.2997 10.16 47.7864 10.46 48.1997 10.9C48.613 11.34 48.8197 11.9533 48.8197 12.74C48.8197 13.4067 48.6197 14 48.2197 14.52C47.8197 15.04 47.233 15.4467 46.4597 15.74C45.6997 16.02 44.793 16.16 43.7397 16.16ZM57.6847 15.48C57.378 15.7067 56.998 15.88 56.5447 16C56.1047 16.1067 55.638 16.16 55.1447 16.16C53.8647 16.16 52.8714 15.8333 52.1647 15.18C51.4714 14.5267 51.1247 13.5667 51.1247 12.3V7.88H49.4647V5.48H51.1247V2.86H54.2447V5.48H56.9247V7.88H54.2447V12.26C54.2447 12.7133 54.358 13.0667 54.5847 13.32C54.8247 13.56 55.158 13.68 55.5847 13.68C56.078 13.68 56.498 13.5467 56.8447 13.28L57.6847 15.48ZM63.7761 5.08C65.4428 5.08 66.7228 5.48 67.6161 6.28C68.5094 7.06667 68.9561 8.26 68.9561 9.86V16H66.0361V14.66C65.4494 15.66 64.3561 16.16 62.7561 16.16C61.9294 16.16 61.2094 16.02 60.5961 15.74C59.9961 15.46 59.5361 15.0733 59.2161 14.58C58.8961 14.0867 58.7361 13.5267 58.7361 12.9C58.7361 11.9 59.1094 11.1133 59.8561 10.54C60.6161 9.96667 61.7828 9.68 63.3561 9.68H65.8361C65.8361 9 65.6294 8.48 65.2161 8.12C64.8028 7.74667 64.1828 7.56 63.3561 7.56C62.7828 7.56 62.2161 7.65333 61.6561 7.84C61.1094 8.01333 60.6428 8.25333 60.2561 8.56L59.1361 6.38C59.7228 5.96667 60.4228 5.64667 61.2361 5.42C62.0628 5.19333 62.9094 5.08 63.7761 5.08ZM63.5361 14.06C64.0694 14.06 64.5428 13.94 64.9561 13.7C65.3694 13.4467 65.6628 13.08 65.8361 12.6V11.5H63.6961C62.4161 11.5 61.7761 11.92 61.7761 12.76C61.7761 13.16 61.9294 13.48 62.2361 13.72C62.5561 13.9467 62.9894 14.06 63.5361 14.06ZM78.7198 15.48C78.4132 15.7067 78.0332 15.88 77.5798 16C77.1398 16.1067 76.6732 16.16 76.1798 16.16C74.8998 16.16 73.9065 15.8333 73.1998 15.18C72.5065 14.5267 72.1598 13.5667 72.1598 12.3V7.88H70.4998V5.48H72.1598V2.86H75.2798V5.48H77.9598V7.88H75.2798V12.26C75.2798 12.7133 75.3932 13.0667 75.6198 13.32C75.8598 13.56 76.1932 13.68 76.6198 13.68C77.1132 13.68 77.5332 13.5467 77.8798 13.28L78.7198 15.48ZM80.4713 5.24H83.5913V16H80.4713V5.24ZM82.0313 3.74C81.4579 3.74 80.9913 3.57333 80.6313 3.24C80.2713 2.90667 80.0913 2.49333 80.0913 2C80.0913 1.50667 80.2713 1.09333 80.6313 0.76C80.9913 0.426666 81.4579 0.259999 82.0313 0.259999C82.6046 0.259999 83.0713 0.419999 83.4313 0.74C83.7913 1.06 83.9713 1.46 83.9713 1.94C83.9713 2.46 83.7913 2.89333 83.4313 3.24C83.0713 3.57333 82.6046 3.74 82.0313 3.74ZM91.6069 16.16C90.4735 16.16 89.4535 15.9267 88.5469 15.46C87.6535 14.98 86.9535 14.32 86.4469 13.48C85.9402 12.64 85.6869 11.6867 85.6869 10.62C85.6869 9.55333 85.9402 8.6 86.4469 7.76C86.9535 6.92 87.6535 6.26667 88.5469 5.8C89.4535 5.32 90.4735 5.08 91.6069 5.08C92.7402 5.08 93.7535 5.32 94.6469 5.8C95.5402 6.26667 96.2402 6.92 96.7469 7.76C97.2535 8.6 97.5069 9.55333 97.5069 10.62C97.5069 11.6867 97.2535 12.64 96.7469 13.48C96.2402 14.32 95.5402 14.98 94.6469 15.46C93.7535 15.9267 92.7402 16.16 91.6069 16.16ZM91.6069 13.6C92.4069 13.6 93.0602 13.3333 93.5669 12.8C94.0869 12.2533 94.3469 11.5267 94.3469 10.62C94.3469 9.71333 94.0869 8.99333 93.5669 8.46C93.0602 7.91333 92.4069 7.64 91.6069 7.64C90.8069 7.64 90.1469 7.91333 89.6269 8.46C89.1069 8.99333 88.8469 9.71333 88.8469 10.62C88.8469 11.5267 89.1069 12.2533 89.6269 12.8C90.1469 13.3333 90.8069 13.6 91.6069 13.6ZM106.132 5.08C107.466 5.08 108.539 5.48 109.352 6.28C110.179 7.08 110.592 8.26667 110.592 9.84V16H107.472V10.32C107.472 9.46667 107.286 8.83333 106.912 8.42C106.539 7.99333 105.999 7.78 105.292 7.78C104.506 7.78 103.879 8.02667 103.412 8.52C102.946 9 102.712 9.72 102.712 10.68V16H99.5923V5.24H102.572V6.5C102.986 6.04667 103.499 5.7 104.112 5.46C104.726 5.20667 105.399 5.08 106.132 5.08ZM132.045 16L132.025 7.6L127.905 14.52H126.445L122.345 7.78V16H119.305V2H121.985L127.225 10.7L132.385 2H135.045L135.085 16H132.045ZM148.726 10.66C148.726 10.7 148.706 10.98 148.666 11.5H140.526C140.673 12.1667 141.019 12.6933 141.566 13.08C142.113 13.4667 142.793 13.66 143.606 13.66C144.166 13.66 144.659 13.58 145.086 13.42C145.526 13.2467 145.933 12.98 146.306 12.62L147.966 14.42C146.953 15.58 145.473 16.16 143.526 16.16C142.313 16.16 141.239 15.9267 140.306 15.46C139.373 14.98 138.653 14.32 138.146 13.48C137.639 12.64 137.386 11.6867 137.386 10.62C137.386 9.56667 137.633 8.62 138.126 7.78C138.633 6.92667 139.319 6.26667 140.186 5.8C141.066 5.32 142.046 5.08 143.126 5.08C144.179 5.08 145.133 5.30667 145.986 5.76C146.839 6.21333 147.506 6.86667 147.986 7.72C148.479 8.56 148.726 9.54 148.726 10.66ZM143.146 7.44C142.439 7.44 141.846 7.64 141.366 8.04C140.886 8.44 140.593 8.98667 140.486 9.68H145.786C145.679 9 145.386 8.46 144.906 8.06C144.426 7.64667 143.839 7.44 143.146 7.44ZM164.583 5.08C165.93 5.08 166.997 5.48 167.783 6.28C168.583 7.06667 168.983 8.25333 168.983 9.84V16H165.863V10.32C165.863 9.46667 165.683 8.83333 165.323 8.42C164.977 7.99333 164.477 7.78 163.823 7.78C163.09 7.78 162.51 8.02 162.083 8.5C161.657 8.96667 161.443 9.66667 161.443 10.6V16H158.323V10.32C158.323 8.62667 157.643 7.78 156.283 7.78C155.563 7.78 154.99 8.02 154.563 8.5C154.137 8.96667 153.923 9.66667 153.923 10.6V16H150.803V5.24H153.783V6.48C154.183 6.02667 154.67 5.68 155.243 5.44C155.83 5.2 156.47 5.08 157.163 5.08C157.923 5.08 158.61 5.23333 159.223 5.54C159.837 5.83333 160.33 6.26667 160.703 6.84C161.143 6.28 161.697 5.84667 162.363 5.54C163.043 5.23333 163.783 5.08 164.583 5.08ZM178.14 5.08C179.14 5.08 180.047 5.31333 180.86 5.78C181.687 6.23333 182.333 6.88 182.8 7.72C183.267 8.54667 183.5 9.51333 183.5 10.62C183.5 11.7267 183.267 12.7 182.8 13.54C182.333 14.3667 181.687 15.0133 180.86 15.48C180.047 15.9333 179.14 16.16 178.14 16.16C176.66 16.16 175.533 15.6933 174.76 14.76V16H171.78V1.16H174.9V6.38C175.687 5.51333 176.767 5.08 178.14 5.08ZM177.6 13.6C178.4 13.6 179.053 13.3333 179.56 12.8C180.08 12.2533 180.34 11.5267 180.34 10.62C180.34 9.71333 180.08 8.99333 179.56 8.46C179.053 7.91333 178.4 7.64 177.6 7.64C176.8 7.64 176.14 7.91333 175.62 8.46C175.113 8.99333 174.86 9.71333 174.86 10.62C174.86 11.5267 175.113 12.2533 175.62 12.8C176.14 13.3333 176.8 13.6 177.6 13.6ZM196.128 10.66C196.128 10.7 196.108 10.98 196.068 11.5H187.928C188.075 12.1667 188.422 12.6933 188.968 13.08C189.515 13.4667 190.195 13.66 191.008 13.66C191.568 13.66 192.062 13.58 192.488 13.42C192.928 13.2467 193.335 12.98 193.708 12.62L195.368 14.42C194.355 15.58 192.875 16.16 190.928 16.16C189.715 16.16 188.642 15.9267 187.708 15.46C186.775 14.98 186.055 14.32 185.548 13.48C185.042 12.64 184.788 11.6867 184.788 10.62C184.788 9.56667 185.035 8.62 185.528 7.78C186.035 6.92667 186.722 6.26667 187.588 5.8C188.468 5.32 189.448 5.08 190.528 5.08C191.582 5.08 192.535 5.30667 193.388 5.76C194.242 6.21333 194.908 6.86667 195.388 7.72C195.882 8.56 196.128 9.54 196.128 10.66ZM190.548 7.44C189.842 7.44 189.248 7.64 188.768 8.04C188.288 8.44 187.995 8.98667 187.888 9.68H193.188C193.082 9 192.788 8.46 192.308 8.06C191.828 7.64667 191.242 7.44 190.548 7.44ZM201.186 6.66C201.559 6.14 202.059 5.74667 202.686 5.48C203.326 5.21333 204.059 5.08 204.886 5.08V7.96C204.539 7.93333 204.306 7.92 204.186 7.92C203.292 7.92 202.592 8.17333 202.086 8.68C201.579 9.17333 201.326 9.92 201.326 10.92V16H198.206V5.24H201.186V6.66ZM210.4 16.16C209.507 16.16 208.633 16.0533 207.78 15.84C206.927 15.6133 206.247 15.3333 205.74 15L206.78 12.76C207.26 13.0667 207.84 13.32 208.52 13.52C209.2 13.7067 209.867 13.8 210.52 13.8C211.84 13.8 212.5 13.4733 212.5 12.82C212.5 12.5133 212.32 12.2933 211.96 12.16C211.6 12.0267 211.047 11.9133 210.3 11.82C209.42 11.6867 208.693 11.5333 208.12 11.36C207.547 11.1867 207.047 10.88 206.62 10.44C206.207 10 206 9.37333 206 8.56C206 7.88 206.193 7.28 206.58 6.76C206.98 6.22667 207.553 5.81333 208.3 5.52C209.06 5.22667 209.953 5.08 210.98 5.08C211.74 5.08 212.493 5.16667 213.24 5.34C214 5.5 214.627 5.72667 215.12 6.02L214.08 8.24C213.133 7.70667 212.1 7.44 210.98 7.44C210.313 7.44 209.813 7.53333 209.48 7.72C209.147 7.90667 208.98 8.14667 208.98 8.44C208.98 8.77333 209.16 9.00667 209.52 9.14C209.88 9.27333 210.453 9.4 211.24 9.52C212.12 9.66667 212.84 9.82667 213.4 10C213.96 10.16 214.447 10.46 214.86 10.9C215.273 11.34 215.48 11.9533 215.48 12.74C215.48 13.4067 215.28 14 214.88 14.52C214.48 15.04 213.893 15.4467 213.12 15.74C212.36 16.02 211.453 16.16 210.4 16.16ZM223.945 5.08C225.278 5.08 226.352 5.48 227.165 6.28C227.992 7.08 228.405 8.26667 228.405 9.84V16H225.285V10.32C225.285 9.46667 225.098 8.83333 224.725 8.42C224.352 7.99333 223.812 7.78 223.105 7.78C222.318 7.78 221.692 8.02667 221.225 8.52C220.758 9 220.525 9.72 220.525 10.68V16H217.405V1.16H220.525V6.36C220.938 5.94667 221.438 5.63333 222.025 5.42C222.612 5.19333 223.252 5.08 223.945 5.08ZM231.233 5.24H234.353V16H231.233V5.24ZM232.793 3.74C232.22 3.74 231.753 3.57333 231.393 3.24C231.033 2.90667 230.853 2.49333 230.853 2C230.853 1.50667 231.033 1.09333 231.393 0.76C231.753 0.426666 232.22 0.259999 232.793 0.259999C233.366 0.259999 233.833 0.419999 234.193 0.74C234.553 1.06 234.733 1.46 234.733 1.94C234.733 2.46 234.553 2.89333 234.193 3.24C233.833 3.57333 233.366 3.74 232.793 3.74ZM243.609 5.08C244.609 5.08 245.515 5.31333 246.329 5.78C247.155 6.23333 247.802 6.88 248.269 7.72C248.735 8.54667 248.969 9.51333 248.969 10.62C248.969 11.7267 248.735 12.7 248.269 13.54C247.802 14.3667 247.155 15.0133 246.329 15.48C245.515 15.9333 244.609 16.16 243.609 16.16C242.235 16.16 241.155 15.7267 240.369 14.86V19.88H237.249V5.24H240.229V6.48C241.002 5.54667 242.129 5.08 243.609 5.08ZM243.069 13.6C243.869 13.6 244.522 13.3333 245.029 12.8C245.549 12.2533 245.809 11.5267 245.809 10.62C245.809 9.71333 245.549 8.99333 245.029 8.46C244.522 7.91333 243.869 7.64 243.069 7.64C242.269 7.64 241.609 7.91333 241.089 8.46C240.582 8.99333 240.329 9.71333 240.329 10.62C240.329 11.5267 240.582 12.2533 241.089 12.8C241.609 13.3333 242.269 13.6 243.069 13.6Z" fill="url(#paint0_linear)" fill-opacity="0.65"/>
<defs>
<linearGradient id="paint0_linear" x1="289.699" y1="37.3379" x2="260.302" y2="-87.1213" gradientUnits="userSpaceOnUse">
<stop stop-color="#652C90"/>
<stop offset="0.458333" stop-color="#91268F"/>
<stop offset="1" stop-color="#D91B5B"/>
</linearGradient>
</defs>
</svg>
