<svg width="996" height="79" viewBox="0 0 996 79" fill="none" xmlns="http://www.w3.org/2000/svg">
<path d="M30.7913 63.96C24.9779 63.96 19.7246 62.7067 15.0313 60.2C10.3913 57.6933 6.73792 54.2533 4.07125 49.88C1.45792 45.4533 0.15125 40.4933 0.15125 35C0.15125 29.5067 1.45792 24.5733 4.07125 20.2C6.73792 15.7733 10.3913 12.3067 15.0313 9.8C19.7246 7.29333 24.9779 6.04 30.7913 6.04C36.6046 6.04 41.8313 7.29333 46.4713 9.8C51.1113 12.3067 54.7646 15.7733 57.4313 20.2C60.0979 24.5733 61.4313 29.5067 61.4313 35C61.4313 40.4933 60.0979 45.4533 57.4313 49.88C54.7646 54.2533 51.1113 57.6933 46.4713 60.2C41.8313 62.7067 36.6046 63.96 30.7913 63.96ZM30.7913 52.92C34.0979 52.92 37.0846 52.1733 39.7513 50.68C42.4179 49.1333 44.4979 47 45.9913 44.28C47.5379 41.56 48.3113 38.4667 48.3113 35C48.3113 31.5333 47.5379 28.44 45.9913 25.72C44.4979 23 42.4179 20.8933 39.7513 19.4C37.0846 17.8533 34.0979 17.08 30.7913 17.08C27.4846 17.08 24.4979 17.8533 21.8313 19.4C19.1646 20.8933 17.0579 23 15.5113 25.72C14.0179 28.44 13.2713 31.5333 13.2713 35C13.2713 38.4667 14.0179 41.56 15.5113 44.28C17.0579 47 19.1646 49.1333 21.8313 50.68C24.4979 52.1733 27.4846 52.92 30.7913 52.92ZM113.651 19.96V63H101.811V57.88C100.158 59.7467 98.1846 61.1867 95.8913 62.2C93.5979 63.16 91.1179 63.64 88.4513 63.64C82.7979 63.64 78.3179 62.0133 75.0113 58.76C71.7046 55.5067 70.0513 50.68 70.0513 44.28V19.96H82.5313V42.44C82.5313 49.3733 85.4379 52.84 91.2513 52.84C94.2379 52.84 96.6379 51.88 98.4513 49.96C100.265 47.9867 101.171 45.08 101.171 41.24V19.96H113.651ZM152.973 60.92C151.746 61.8267 150.226 62.52 148.413 63C146.653 63.4267 144.786 63.64 142.813 63.64C137.693 63.64 133.72 62.3333 130.893 59.72C128.12 57.1067 126.733 53.2667 126.733 48.2V30.52H120.093V20.92H126.733V10.44H139.213V20.92H149.933V30.52H139.213V48.04C139.213 49.8533 139.666 51.2667 140.573 52.28C141.533 53.24 142.866 53.72 144.573 53.72C146.546 53.72 148.226 53.1867 149.613 52.12L152.973 60.92ZM174.459 63.64C170.885 63.64 167.392 63.2133 163.979 62.36C160.565 61.4533 157.845 60.3333 155.819 59L159.979 50.04C161.899 51.2667 164.219 52.28 166.939 53.08C169.659 53.8267 172.325 54.2 174.939 54.2C180.219 54.2 182.859 52.8933 182.859 50.28C182.859 49.0533 182.139 48.1733 180.699 47.64C179.259 47.1067 177.045 46.6533 174.059 46.28C170.539 45.7467 167.632 45.1333 165.339 44.44C163.045 43.7467 161.045 42.52 159.339 40.76C157.685 39 156.859 36.4933 156.859 33.24C156.859 30.52 157.632 28.12 159.179 26.04C160.779 23.9067 163.072 22.2533 166.059 21.08C169.099 19.9067 172.672 19.32 176.779 19.32C179.819 19.32 182.832 19.6667 185.819 20.36C188.859 21 191.365 21.9067 193.339 23.08L189.179 31.96C185.392 29.8267 181.259 28.76 176.779 28.76C174.112 28.76 172.112 29.1333 170.779 29.88C169.445 30.6267 168.779 31.5867 168.779 32.76C168.779 34.0933 169.499 35.0267 170.939 35.56C172.379 36.0933 174.672 36.6 177.819 37.08C181.339 37.6667 184.219 38.3067 186.459 39C188.699 39.64 190.645 40.84 192.299 42.6C193.952 44.36 194.779 46.8133 194.779 49.96C194.779 52.6267 193.979 55 192.379 57.08C190.779 59.16 188.432 60.7867 185.339 61.96C182.299 63.08 178.672 63.64 174.459 63.64ZM230.239 60.92C229.012 61.8267 227.492 62.52 225.679 63C223.919 63.4267 222.052 63.64 220.079 63.64C214.959 63.64 210.985 62.3333 208.159 59.72C205.385 57.1067 203.999 53.2667 203.999 48.2V30.52H197.359V20.92H203.999V10.44H216.479V20.92H227.199V30.52H216.479V48.04C216.479 49.8533 216.932 51.2667 217.839 52.28C218.799 53.24 220.132 53.72 221.839 53.72C223.812 53.72 225.492 53.1867 226.879 52.12L230.239 60.92ZM254.604 19.32C261.271 19.32 266.391 20.92 269.964 24.12C273.538 27.2667 275.324 32.04 275.324 38.44V63H263.644V57.64C261.298 61.64 256.924 63.64 250.524 63.64C247.218 63.64 244.338 63.08 241.884 61.96C239.484 60.84 237.644 59.2933 236.364 57.32C235.084 55.3467 234.444 53.1067 234.444 50.6C234.444 46.6 235.938 43.4533 238.924 41.16C241.964 38.8667 246.631 37.72 252.924 37.72H262.844C262.844 35 262.018 32.92 260.364 31.48C258.711 29.9867 256.231 29.24 252.924 29.24C250.631 29.24 248.364 29.6133 246.124 30.36C243.938 31.0533 242.071 32.0133 240.524 33.24L236.044 24.52C238.391 22.8667 241.191 21.5867 244.444 20.68C247.751 19.7733 251.138 19.32 254.604 19.32ZM253.644 55.24C255.778 55.24 257.671 54.76 259.324 53.8C260.978 52.7867 262.151 51.32 262.844 49.4V45H254.284C249.164 45 246.604 46.68 246.604 50.04C246.604 51.64 247.218 52.92 248.444 53.88C249.724 54.7867 251.458 55.24 253.644 55.24ZM314.379 60.92C313.153 61.8267 311.633 62.52 309.819 63C308.059 63.4267 306.193 63.64 304.219 63.64C299.099 63.64 295.126 62.3333 292.299 59.72C289.526 57.1067 288.139 53.2667 288.139 48.2V30.52H281.499V20.92H288.139V10.44H300.619V20.92H311.339V30.52H300.619V48.04C300.619 49.8533 301.073 51.2667 301.979 52.28C302.939 53.24 304.273 53.72 305.979 53.72C307.953 53.72 309.633 53.1867 311.019 52.12L314.379 60.92ZM321.385 19.96H333.865V63H321.385V19.96ZM327.625 13.96C325.332 13.96 323.465 13.2933 322.025 11.96C320.585 10.6267 319.865 8.97333 319.865 7C319.865 5.02666 320.585 3.37333 322.025 2.04C323.465 0.706663 325.332 0.0399952 327.625 0.0399952C329.918 0.0399952 331.785 0.679996 333.225 1.96C334.665 3.24 335.385 4.84 335.385 6.76C335.385 8.84 334.665 10.5733 333.225 11.96C331.785 13.2933 329.918 13.96 327.625 13.96ZM365.928 63.64C361.394 63.64 357.314 62.7067 353.688 60.84C350.114 58.92 347.314 56.28 345.288 52.92C343.261 49.56 342.248 45.7467 342.248 41.48C342.248 37.2133 343.261 33.4 345.288 30.04C347.314 26.68 350.114 24.0667 353.688 22.2C357.314 20.28 361.394 19.32 365.928 19.32C370.461 19.32 374.514 20.28 378.088 22.2C381.661 24.0667 384.461 26.68 386.488 30.04C388.514 33.4 389.528 37.2133 389.528 41.48C389.528 45.7467 388.514 49.56 386.488 52.92C384.461 56.28 381.661 58.92 378.088 60.84C374.514 62.7067 370.461 63.64 365.928 63.64ZM365.928 53.4C369.128 53.4 371.741 52.3333 373.768 50.2C375.848 48.0133 376.888 45.1067 376.888 41.48C376.888 37.8533 375.848 34.9733 373.768 32.84C371.741 30.6533 369.128 29.56 365.928 29.56C362.728 29.56 360.088 30.6533 358.008 32.84C355.928 34.9733 354.888 37.8533 354.888 41.48C354.888 45.1067 355.928 48.0133 358.008 50.2C360.088 52.3333 362.728 53.4 365.928 53.4ZM424.029 19.32C429.363 19.32 433.656 20.92 436.909 24.12C440.216 27.32 441.869 32.0667 441.869 38.36V63H429.389V40.28C429.389 36.8667 428.643 34.3333 427.149 32.68C425.656 30.9733 423.496 30.12 420.669 30.12C417.523 30.12 415.016 31.1067 413.149 33.08C411.283 35 410.349 37.88 410.349 41.72V63H397.869V19.96H409.789V25C411.443 23.1867 413.496 21.8 415.949 20.84C418.403 19.8267 421.096 19.32 424.029 19.32ZM527.678 63L527.598 29.4L511.118 57.08H505.278L488.878 30.12V63H476.718V7H487.438L508.398 41.8L529.038 7H539.678L539.838 63H527.678ZM594.404 41.64C594.404 41.8 594.324 42.92 594.164 45H561.604C562.191 47.6667 563.578 49.7733 565.764 51.32C567.951 52.8667 570.671 53.64 573.924 53.64C576.164 53.64 578.138 53.32 579.844 52.68C581.604 51.9867 583.231 50.92 584.724 49.48L591.364 56.68C587.311 61.32 581.391 63.64 573.604 63.64C568.751 63.64 564.458 62.7067 560.724 60.84C556.991 58.92 554.111 56.28 552.084 52.92C550.058 49.56 549.044 45.7467 549.044 41.48C549.044 37.2667 550.031 33.48 552.004 30.12C554.031 26.7067 556.778 24.0667 560.244 22.2C563.764 20.28 567.684 19.32 572.004 19.32C576.218 19.32 580.031 20.2267 583.444 22.04C586.858 23.8533 589.524 26.4667 591.444 29.88C593.418 33.24 594.404 37.16 594.404 41.64ZM572.084 28.76C569.258 28.76 566.884 29.56 564.964 31.16C563.044 32.76 561.871 34.9467 561.444 37.72H582.644C582.218 35 581.044 32.84 579.124 31.24C577.204 29.5867 574.858 28.76 572.084 28.76ZM657.833 19.32C663.22 19.32 667.486 20.92 670.633 24.12C673.833 27.2667 675.433 32.0133 675.433 38.36V63H662.953V40.28C662.953 36.8667 662.233 34.3333 660.793 32.68C659.406 30.9733 657.406 30.12 654.793 30.12C651.86 30.12 649.54 31.08 647.833 33C646.126 34.8667 645.273 37.6667 645.273 41.4V63H632.793V40.28C632.793 33.5067 630.073 30.12 624.633 30.12C621.753 30.12 619.46 31.08 617.753 33C616.046 34.8667 615.193 37.6667 615.193 41.4V63H602.713V19.96H614.633V24.92C616.233 23.1067 618.18 21.72 620.473 20.76C622.82 19.8 625.38 19.32 628.153 19.32C631.193 19.32 633.94 19.9333 636.393 21.16C638.846 22.3333 640.82 24.0667 642.313 26.36C644.073 24.12 646.286 22.3867 648.953 21.16C651.673 19.9333 654.633 19.32 657.833 19.32ZM712.059 19.32C716.059 19.32 719.686 20.2533 722.939 22.12C726.246 23.9333 728.833 26.52 730.699 29.88C732.566 33.1867 733.499 37.0533 733.499 41.48C733.499 45.9067 732.566 49.8 730.699 53.16C728.833 56.4667 726.246 59.0533 722.939 60.92C719.686 62.7333 716.059 63.64 712.059 63.64C706.139 63.64 701.633 61.7733 698.539 58.04V63H686.619V3.64H699.099V24.52C702.246 21.0533 706.566 19.32 712.059 19.32ZM709.899 53.4C713.099 53.4 715.713 52.3333 717.739 50.2C719.819 48.0133 720.859 45.1067 720.859 41.48C720.859 37.8533 719.819 34.9733 717.739 32.84C715.713 30.6533 713.099 29.56 709.899 29.56C706.699 29.56 704.059 30.6533 701.979 32.84C699.953 34.9733 698.939 37.8533 698.939 41.48C698.939 45.1067 699.953 48.0133 701.979 50.2C704.059 52.3333 706.699 53.4 709.899 53.4ZM784.014 41.64C784.014 41.8 783.934 42.92 783.774 45H751.214C751.8 47.6667 753.187 49.7733 755.374 51.32C757.56 52.8667 760.28 53.64 763.534 53.64C765.774 53.64 767.747 53.32 769.454 52.68C771.214 51.9867 772.84 50.92 774.334 49.48L780.974 56.68C776.92 61.32 771 63.64 763.214 63.64C758.36 63.64 754.067 62.7067 750.334 60.84C746.6 58.92 743.72 56.28 741.694 52.92C739.667 49.56 738.654 45.7467 738.654 41.48C738.654 37.2667 739.64 33.48 741.614 30.12C743.64 26.7067 746.387 24.0667 749.854 22.2C753.374 20.28 757.294 19.32 761.614 19.32C765.827 19.32 769.64 20.2267 773.054 22.04C776.467 23.8533 779.134 26.4667 781.054 29.88C783.027 33.24 784.014 37.16 784.014 41.64ZM761.694 28.76C758.867 28.76 756.494 29.56 754.574 31.16C752.654 32.76 751.48 34.9467 751.054 37.72H772.254C771.827 35 770.654 32.84 768.734 31.24C766.814 29.5867 764.467 28.76 761.694 28.76ZM804.243 25.64C805.736 23.56 807.736 21.9867 810.243 20.92C812.803 19.8533 815.736 19.32 819.043 19.32V30.84C817.656 30.7333 816.723 30.68 816.243 30.68C812.669 30.68 809.869 31.6933 807.843 33.72C805.816 35.6933 804.803 38.68 804.803 42.68V63H792.323V19.96H804.243V25.64ZM841.099 63.64C837.526 63.64 834.033 63.2133 830.619 62.36C827.206 61.4533 824.486 60.3333 822.459 59L826.619 50.04C828.539 51.2667 830.859 52.28 833.579 53.08C836.299 53.8267 838.966 54.2 841.579 54.2C846.859 54.2 849.499 52.8933 849.499 50.28C849.499 49.0533 848.779 48.1733 847.339 47.64C845.899 47.1067 843.686 46.6533 840.699 46.28C837.179 45.7467 834.273 45.1333 831.979 44.44C829.686 43.7467 827.686 42.52 825.979 40.76C824.326 39 823.499 36.4933 823.499 33.24C823.499 30.52 824.273 28.12 825.819 26.04C827.419 23.9067 829.713 22.2533 832.699 21.08C835.739 19.9067 839.313 19.32 843.419 19.32C846.459 19.32 849.473 19.6667 852.459 20.36C855.499 21 858.006 21.9067 859.979 23.08L855.819 31.96C852.033 29.8267 847.899 28.76 843.419 28.76C840.753 28.76 838.753 29.1333 837.419 29.88C836.086 30.6267 835.419 31.5867 835.419 32.76C835.419 34.0933 836.139 35.0267 837.579 35.56C839.019 36.0933 841.313 36.6 844.459 37.08C847.979 37.6667 850.859 38.3067 853.099 39C855.339 39.64 857.286 40.84 858.939 42.6C860.593 44.36 861.419 46.8133 861.419 49.96C861.419 52.6267 860.619 55 859.019 57.08C857.419 59.16 855.073 60.7867 851.979 61.96C848.939 63.08 845.313 63.64 841.099 63.64ZM895.279 19.32C900.613 19.32 904.906 20.92 908.159 24.12C911.466 27.32 913.119 32.0667 913.119 38.36V63H900.639V40.28C900.639 36.8667 899.893 34.3333 898.399 32.68C896.906 30.9733 894.746 30.12 891.919 30.12C888.773 30.12 886.266 31.1067 884.399 33.08C882.533 35 881.599 37.88 881.599 41.72V63H869.119V3.64H881.599V24.44C883.253 22.7867 885.253 21.5333 887.599 20.68C889.946 19.7733 892.506 19.32 895.279 19.32ZM924.432 19.96H936.912V63H924.432V19.96ZM930.672 13.96C928.379 13.96 926.512 13.2933 925.072 11.96C923.632 10.6267 922.912 8.97333 922.912 7C922.912 5.02666 923.632 3.37333 925.072 2.04C926.512 0.706663 928.379 0.0399952 930.672 0.0399952C932.965 0.0399952 934.832 0.679996 936.272 1.96C937.712 3.24 938.432 4.84 938.432 6.76C938.432 8.84 937.712 10.5733 936.272 11.96C934.832 13.2933 932.965 13.96 930.672 13.96ZM973.934 19.32C977.934 19.32 981.561 20.2533 984.814 22.12C988.121 23.9333 990.708 26.52 992.574 29.88C994.441 33.1867 995.374 37.0533 995.374 41.48C995.374 45.9067 994.441 49.8 992.574 53.16C990.708 56.4667 988.121 59.0533 984.814 60.92C981.561 62.7333 977.934 63.64 973.934 63.64C968.441 63.64 964.121 61.9067 960.974 58.44V78.52H948.494V19.96H960.414V24.92C963.508 21.1867 968.014 19.32 973.934 19.32ZM971.774 53.4C974.974 53.4 977.588 52.3333 979.614 50.2C981.694 48.0133 982.734 45.1067 982.734 41.48C982.734 37.8533 981.694 34.9733 979.614 32.84C977.588 30.6533 974.974 29.56 971.774 29.56C968.574 29.56 965.934 30.6533 963.854 32.84C961.828 34.9733 960.814 37.8533 960.814 41.48C960.814 45.1067 961.828 48.0133 963.854 50.2C965.934 52.3333 968.574 53.4 971.774 53.4Z" fill="url(#paint0_linear)" fill-opacity="0.65"/>
<defs>
<linearGradient id="paint0_linear" x1="1156.32" y1="62.3379" x2="1148.57" y2="-68.6057" gradientUnits="userSpaceOnUse">
<stop stop-color="#652C90"/>
<stop offset="0.458333" stop-color="#91268F"/>
<stop offset="1" stop-color="#D91B5B"/>
</linearGradient>
</defs>
</svg>
