<svg width="660" height="53" viewBox="0 0 660 53" fill="none" xmlns="http://www.w3.org/2000/svg">
<path d="M20.8055 42.636C16.9541 42.636 13.4738 41.8057 10.3645 40.145C7.29045 38.4843 4.87012 36.2053 3.10345 33.308C1.37212 30.3753 0.506453 27.0893 0.506453 23.45C0.506453 19.8107 1.37212 16.5423 3.10345 13.645C4.87012 10.7123 7.29045 8.41567 10.3645 6.755C13.4738 5.09433 16.9541 4.264 20.8055 4.264C24.6568 4.264 28.1195 5.09433 31.1935 6.755C34.2675 8.41567 36.6878 10.7123 38.4545 13.645C40.2211 16.5423 41.1045 19.8107 41.1045 23.45C41.1045 27.0893 40.2211 30.3753 38.4545 33.308C36.6878 36.2053 34.2675 38.4843 31.1935 40.145C28.1195 41.8057 24.6568 42.636 20.8055 42.636ZM20.8055 35.322C22.9961 35.322 24.9748 34.8273 26.7415 33.838C28.5081 32.8133 29.8861 31.4 30.8755 29.598C31.9001 27.796 32.4125 25.7467 32.4125 23.45C32.4125 21.1533 31.9001 19.104 30.8755 17.302C29.8861 15.5 28.5081 14.1043 26.7415 13.115C24.9748 12.0903 22.9961 11.578 20.8055 11.578C18.6148 11.578 16.6361 12.0903 14.8695 13.115C13.1028 14.1043 11.7071 15.5 10.6825 17.302C9.69312 19.104 9.19845 21.1533 9.19845 23.45C9.19845 25.7467 9.69312 27.796 10.6825 29.598C11.7071 31.4 13.1028 32.8133 14.8695 33.838C16.6361 34.8273 18.6148 35.322 20.8055 35.322ZM75.7002 13.486V42H67.8562V38.608C66.7609 39.8447 65.4535 40.7987 63.9342 41.47C62.4149 42.106 60.7719 42.424 59.0052 42.424C55.2599 42.424 52.2919 41.3463 50.1012 39.191C47.9105 37.0357 46.8152 33.838 46.8152 29.598V13.486H55.0832V28.379C55.0832 32.9723 57.0089 35.269 60.8602 35.269C62.8389 35.269 64.4289 34.633 65.6302 33.361C66.8315 32.0537 67.4322 30.128 67.4322 27.584V13.486H75.7002ZM101.751 40.622C100.938 41.2227 99.9313 41.682 98.7299 42C97.5639 42.2827 96.3273 42.424 95.0199 42.424C91.6279 42.424 88.9956 41.5583 87.1229 39.827C85.2856 38.0957 84.3669 35.5517 84.3669 32.195V20.482H79.9679V14.122H84.3669V7.179H92.6349V14.122H99.7369V20.482H92.6349V32.089C92.6349 33.2903 92.9353 34.2267 93.5359 34.898C94.1719 35.534 95.0553 35.852 96.1859 35.852C97.4933 35.852 98.6063 35.4987 99.5249 34.792L101.751 40.622ZM115.985 42.424C113.618 42.424 111.304 42.1413 109.042 41.576C106.781 40.9753 104.979 40.2333 103.636 39.35L106.392 33.414C107.664 34.2267 109.201 34.898 111.003 35.428C112.805 35.9227 114.572 36.17 116.303 36.17C119.801 36.17 121.55 35.3043 121.55 33.573C121.55 32.7603 121.073 32.1773 120.119 31.824C119.165 31.4707 117.699 31.1703 115.72 30.923C113.388 30.5697 111.463 30.1633 109.943 29.704C108.424 29.2447 107.099 28.432 105.968 27.266C104.873 26.1 104.325 24.4393 104.325 22.284C104.325 20.482 104.838 18.892 105.862 17.514C106.922 16.1007 108.442 15.0053 110.42 14.228C112.434 13.4507 114.802 13.062 117.522 13.062C119.536 13.062 121.533 13.2917 123.511 13.751C125.525 14.175 127.186 14.7757 128.493 15.553L125.737 21.436C123.229 20.0227 120.49 19.316 117.522 19.316C115.756 19.316 114.431 19.5633 113.547 20.058C112.664 20.5527 112.222 21.1887 112.222 21.966C112.222 22.8493 112.699 23.4677 113.653 23.821C114.607 24.1743 116.127 24.51 118.211 24.828C120.543 25.2167 122.451 25.6407 123.935 26.1C125.419 26.524 126.709 27.319 127.804 28.485C128.9 29.651 129.447 31.2763 129.447 33.361C129.447 35.1277 128.917 36.7 127.857 38.078C126.797 39.456 125.243 40.5337 123.193 41.311C121.179 42.053 118.777 42.424 115.985 42.424ZM152.939 40.622C152.127 41.2227 151.12 41.682 149.918 42C148.752 42.2827 147.516 42.424 146.208 42.424C142.816 42.424 140.184 41.5583 138.311 39.827C136.474 38.0957 135.555 35.5517 135.555 32.195V20.482H131.156V14.122H135.555V7.179H143.823V14.122H150.925V20.482H143.823V32.089C143.823 33.2903 144.124 34.2267 144.724 34.898C145.36 35.534 146.244 35.852 147.374 35.852C148.682 35.852 149.795 35.4987 150.713 34.792L152.939 40.622ZM169.082 13.062C173.498 13.062 176.89 14.122 179.258 16.242C181.625 18.3267 182.809 21.489 182.809 25.729V42H175.071V38.449C173.516 41.099 170.619 42.424 166.379 42.424C164.188 42.424 162.28 42.053 160.655 41.311C159.065 40.569 157.846 39.5443 156.998 38.237C156.15 36.9297 155.726 35.4457 155.726 33.785C155.726 31.135 156.715 29.0503 158.694 27.531C160.708 26.0117 163.799 25.252 167.969 25.252H174.541C174.541 23.45 173.993 22.072 172.898 21.118C171.802 20.1287 170.159 19.634 167.969 19.634C166.449 19.634 164.948 19.8813 163.464 20.376C162.015 20.8353 160.778 21.4713 159.754 22.284L156.786 16.507C158.34 15.4117 160.195 14.5637 162.351 13.963C164.541 13.3623 166.785 13.062 169.082 13.062ZM168.446 36.859C169.859 36.859 171.113 36.541 172.209 35.905C173.304 35.2337 174.081 34.262 174.541 32.99V30.075H168.87C165.478 30.075 163.782 31.188 163.782 33.414C163.782 34.474 164.188 35.322 165.001 35.958C165.849 36.5587 166.997 36.859 168.446 36.859ZM208.683 40.622C207.87 41.2227 206.863 41.682 205.662 42C204.496 42.2827 203.259 42.424 201.952 42.424C198.56 42.424 195.927 41.5583 194.055 39.827C192.217 38.0957 191.299 35.5517 191.299 32.195V20.482H186.9V14.122H191.299V7.179H199.567V14.122H206.669V20.482H199.567V32.089C199.567 33.2903 199.867 34.2267 200.468 34.898C201.104 35.534 201.987 35.852 203.118 35.852C204.425 35.852 205.538 35.4987 206.457 34.792L208.683 40.622ZM213.324 13.486H221.592V42H213.324V13.486ZM217.458 9.511C215.938 9.511 214.702 9.06933 213.748 8.186C212.794 7.30266 212.317 6.20733 212.317 4.9C212.317 3.59266 212.794 2.49733 213.748 1.614C214.702 0.730664 215.938 0.288997 217.458 0.288997C218.977 0.288997 220.214 0.712998 221.168 1.561C222.122 2.409 222.599 3.469 222.599 4.741C222.599 6.119 222.122 7.26733 221.168 8.186C220.214 9.06933 218.977 9.511 217.458 9.511ZM242.833 42.424C239.83 42.424 237.127 41.8057 234.724 40.569C232.357 39.297 230.502 37.548 229.159 35.322C227.817 33.096 227.145 30.5697 227.145 27.743C227.145 24.9163 227.817 22.39 229.159 20.164C230.502 17.938 232.357 16.2067 234.724 14.97C237.127 13.698 239.83 13.062 242.833 13.062C245.837 13.062 248.522 13.698 250.889 14.97C253.257 16.2067 255.112 17.938 256.454 20.164C257.797 22.39 258.468 24.9163 258.468 27.743C258.468 30.5697 257.797 33.096 256.454 35.322C255.112 37.548 253.257 39.297 250.889 40.569C248.522 41.8057 245.837 42.424 242.833 42.424ZM242.833 35.64C244.953 35.64 246.685 34.9333 248.027 33.52C249.405 32.0713 250.094 30.1457 250.094 27.743C250.094 25.3403 249.405 23.4323 248.027 22.019C246.685 20.5703 244.953 19.846 242.833 19.846C240.713 19.846 238.964 20.5703 237.586 22.019C236.208 23.4323 235.519 25.3403 235.519 27.743C235.519 30.1457 236.208 32.0713 237.586 33.52C238.964 34.9333 240.713 35.64 242.833 35.64ZM281.326 13.062C284.859 13.062 287.703 14.122 289.859 16.242C292.049 18.362 293.145 21.5067 293.145 25.676V42H284.877V26.948C284.877 24.6867 284.382 23.0083 283.393 21.913C282.403 20.7823 280.972 20.217 279.1 20.217C277.015 20.217 275.354 20.8707 274.118 22.178C272.881 23.45 272.263 25.358 272.263 27.902V42H263.995V13.486H271.892V16.825C272.987 15.6237 274.347 14.705 275.973 14.069C277.598 13.3977 279.382 13.062 281.326 13.062ZM349.993 42L349.94 19.74L339.022 38.078H335.153L324.288 20.217V42H316.232V4.9H323.334L337.22 27.955L350.894 4.9H357.943L358.049 42H349.993ZM394.199 27.849C394.199 27.955 394.146 28.697 394.04 30.075H372.469C372.858 31.8417 373.776 33.2373 375.225 34.262C376.674 35.2867 378.476 35.799 380.631 35.799C382.115 35.799 383.422 35.587 384.553 35.163C385.719 34.7037 386.797 33.997 387.786 33.043L392.185 37.813C389.5 40.887 385.578 42.424 380.419 42.424C377.204 42.424 374.359 41.8057 371.886 40.569C369.413 39.297 367.505 37.548 366.162 35.322C364.819 33.096 364.148 30.5697 364.148 27.743C364.148 24.9517 364.802 22.443 366.109 20.217C367.452 17.9557 369.271 16.2067 371.568 14.97C373.9 13.698 376.497 13.062 379.359 13.062C382.15 13.062 384.677 13.6627 386.938 14.864C389.199 16.0653 390.966 17.7967 392.238 20.058C393.545 22.284 394.199 24.881 394.199 27.849ZM379.412 19.316C377.539 19.316 375.967 19.846 374.695 20.906C373.423 21.966 372.646 23.4147 372.363 25.252H386.408C386.125 23.45 385.348 22.019 384.076 20.959C382.804 19.8637 381.249 19.316 379.412 19.316ZM436.221 13.062C439.789 13.062 442.616 14.122 444.701 16.242C446.821 18.3267 447.881 21.4713 447.881 25.676V42H439.613V26.948C439.613 24.6867 439.136 23.0083 438.182 21.913C437.263 20.7823 435.938 20.217 434.207 20.217C432.263 20.217 430.726 20.853 429.596 22.125C428.465 23.3617 427.9 25.2167 427.9 27.69V42H419.632V26.948C419.632 22.4607 417.83 20.217 414.226 20.217C412.318 20.217 410.798 20.853 409.668 22.125C408.537 23.3617 407.972 25.2167 407.972 27.69V42H399.704V13.486H407.601V16.772C408.661 15.5707 409.95 14.652 411.47 14.016C413.024 13.38 414.72 13.062 416.558 13.062C418.572 13.062 420.391 13.4683 422.017 14.281C423.642 15.0583 424.949 16.2067 425.939 17.726C427.105 16.242 428.571 15.0937 430.338 14.281C432.14 13.4683 434.101 13.062 436.221 13.062ZM472.146 13.062C474.796 13.062 477.198 13.6803 479.354 14.917C481.544 16.1183 483.258 17.832 484.495 20.058C485.731 22.2487 486.35 24.8103 486.35 27.743C486.35 30.6757 485.731 33.255 484.495 35.481C483.258 37.6717 481.544 39.3853 479.354 40.622C477.198 41.8233 474.796 42.424 472.146 42.424C468.224 42.424 465.238 41.1873 463.189 38.714V42H455.292V2.674H463.56V16.507C465.644 14.2103 468.506 13.062 472.146 13.062ZM470.715 35.64C472.835 35.64 474.566 34.9333 475.909 33.52C477.287 32.0713 477.976 30.1457 477.976 27.743C477.976 25.3403 477.287 23.4323 475.909 22.019C474.566 20.5703 472.835 19.846 470.715 19.846C468.595 19.846 466.846 20.5703 465.468 22.019C464.125 23.4323 463.454 25.3403 463.454 27.743C463.454 30.1457 464.125 32.0713 465.468 33.52C466.846 34.9333 468.595 35.64 470.715 35.64ZM519.815 27.849C519.815 27.955 519.762 28.697 519.656 30.075H498.085C498.474 31.8417 499.393 33.2373 500.841 34.262C502.29 35.2867 504.092 35.799 506.247 35.799C507.731 35.799 509.039 35.587 510.169 35.163C511.335 34.7037 512.413 33.997 513.402 33.043L517.801 37.813C515.116 40.887 511.194 42.424 506.035 42.424C502.82 42.424 499.976 41.8057 497.502 40.569C495.029 39.297 493.121 37.548 491.778 35.322C490.436 33.096 489.764 30.5697 489.764 27.743C489.764 24.9517 490.418 22.443 491.725 20.217C493.068 17.9557 494.888 16.2067 497.184 14.97C499.516 13.698 502.113 13.062 504.975 13.062C507.767 13.062 510.293 13.6627 512.554 14.864C514.816 16.0653 516.582 17.7967 517.854 20.058C519.162 22.284 519.815 24.881 519.815 27.849ZM505.028 19.316C503.156 19.316 501.583 19.846 500.311 20.906C499.039 21.966 498.262 23.4147 497.979 25.252H512.024C511.742 23.45 510.964 22.019 509.692 20.959C508.42 19.8637 506.866 19.316 505.028 19.316ZM533.217 17.249C534.206 15.871 535.531 14.8287 537.192 14.122C538.888 13.4153 540.831 13.062 543.022 13.062V20.694C542.103 20.6233 541.485 20.588 541.167 20.588C538.8 20.588 536.945 21.2593 535.602 22.602C534.259 23.9093 533.588 25.888 533.588 28.538V42H525.32V13.486H533.217V17.249ZM557.635 42.424C555.267 42.424 552.953 42.1413 550.692 41.576C548.43 40.9753 546.628 40.2333 545.286 39.35L548.042 33.414C549.314 34.2267 550.851 34.898 552.653 35.428C554.455 35.9227 556.221 36.17 557.953 36.17C561.451 36.17 563.2 35.3043 563.2 33.573C563.2 32.7603 562.723 32.1773 561.769 31.824C560.815 31.4707 559.348 31.1703 557.37 30.923C555.038 30.5697 553.112 30.1633 551.593 29.704C550.073 29.2447 548.748 28.432 547.618 27.266C546.522 26.1 545.975 24.4393 545.975 22.284C545.975 20.482 546.487 18.892 547.512 17.514C548.572 16.1007 550.091 15.0053 552.07 14.228C554.084 13.4507 556.451 13.062 559.172 13.062C561.186 13.062 563.182 13.2917 565.161 13.751C567.175 14.175 568.835 14.7757 570.143 15.553L567.387 21.436C564.878 20.0227 562.14 19.316 559.172 19.316C557.405 19.316 556.08 19.5633 555.197 20.058C554.313 20.5527 553.872 21.1887 553.872 21.966C553.872 22.8493 554.349 23.4677 555.303 23.821C556.257 24.1743 557.776 24.51 559.861 24.828C562.193 25.2167 564.101 25.6407 565.585 26.1C567.069 26.524 568.358 27.319 569.454 28.485C570.549 29.651 571.097 31.2763 571.097 33.361C571.097 35.1277 570.567 36.7 569.507 38.078C568.447 39.456 566.892 40.5337 564.843 41.311C562.829 42.053 560.426 42.424 557.635 42.424ZM593.529 13.062C597.062 13.062 599.907 14.122 602.062 16.242C604.253 18.362 605.348 21.5067 605.348 25.676V42H597.08V26.948C597.08 24.6867 596.585 23.0083 595.596 21.913C594.607 20.7823 593.176 20.217 591.303 20.217C589.218 20.217 587.558 20.8707 586.321 22.178C585.084 23.45 584.466 25.358 584.466 27.902V42H576.198V2.674H584.466V16.454C585.561 15.3587 586.886 14.5283 588.441 13.963C589.996 13.3623 591.692 13.062 593.529 13.062ZM612.842 13.486H621.11V42H612.842V13.486ZM616.976 9.511C615.457 9.511 614.22 9.06933 613.266 8.186C612.312 7.30266 611.835 6.20733 611.835 4.9C611.835 3.59266 612.312 2.49733 613.266 1.614C614.22 0.730664 615.457 0.288997 616.976 0.288997C618.496 0.288997 619.732 0.712998 620.686 1.561C621.64 2.409 622.117 3.469 622.117 4.741C622.117 6.119 621.64 7.26733 620.686 8.186C619.732 9.06933 618.496 9.511 616.976 9.511ZM645.638 13.062C648.288 13.062 650.69 13.6803 652.846 14.917C655.036 16.1183 656.75 17.832 657.987 20.058C659.223 22.2487 659.842 24.8103 659.842 27.743C659.842 30.6757 659.223 33.255 657.987 35.481C656.75 37.6717 655.036 39.3853 652.846 40.622C650.69 41.8233 648.288 42.424 645.638 42.424C641.998 42.424 639.136 41.2757 637.052 38.979V52.282H628.784V13.486H636.681V16.772C638.73 14.2987 641.716 13.062 645.638 13.062ZM644.207 35.64C646.327 35.64 648.058 34.9333 649.401 33.52C650.779 32.0713 651.468 30.1457 651.468 27.743C651.468 25.3403 650.779 23.4323 649.401 22.019C648.058 20.5703 646.327 19.846 644.207 19.846C642.087 19.846 640.338 20.5703 638.96 22.019C637.617 23.4323 636.946 25.3403 636.946 27.743C636.946 30.1457 637.617 32.0713 638.96 33.52C640.338 34.9333 642.087 35.64 644.207 35.64Z" fill="url(#paint0_linear)" fill-opacity="0.65"/>
<defs>
<linearGradient id="paint0_linear" x1="776.235" y1="37.6348" x2="770.456" y2="-55.3714" gradientUnits="userSpaceOnUse">
<stop stop-color="#652C90"/>
<stop offset="0.458333" stop-color="#91268F"/>
<stop offset="1" stop-color="#D91B5B"/>
</linearGradient>
</defs>
</svg>
