<svg width="322" height="41" viewBox="0 0 322 41" fill="none" xmlns="http://www.w3.org/2000/svg">
<path d="M5.14 40.33C3.82 40.33 2.775 39.945 2.005 39.175C1.235 38.405 0.85 37.36 0.85 36.04V5.24C0.85 3.95666 1.19833 2.96666 1.895 2.27C2.59167 1.57333 3.58167 1.225 4.865 1.225H18.67C22.8867 1.225 26.1683 2.28833 28.515 4.415C30.8617 6.54166 32.035 9.51166 32.035 13.325C32.035 17.1383 30.8617 20.1083 28.515 22.235C26.1683 24.3617 22.8867 25.425 18.67 25.425H9.43V36.04C9.43 37.36 9.045 38.405 8.275 39.175C7.505 39.945 6.46 40.33 5.14 40.33ZM17.57 18.935C21.86 18.935 24.005 17.0833 24.005 13.38C24.005 9.64 21.86 7.77 17.57 7.77H9.43V18.935H17.57ZM80.5875 34.775C80.8809 35.435 81.0275 36.0217 81.0275 36.535C81.0275 37.5617 80.6059 38.4417 79.7625 39.175C78.9559 39.8717 78.0209 40.22 76.9575 40.22C76.2609 40.22 75.6009 40.0367 74.9775 39.67C74.3542 39.2667 73.8775 38.68 73.5475 37.91L70.6325 31.42H51.9875L49.0725 37.91C48.7425 38.68 48.2659 39.2667 47.6425 39.67C47.0559 40.0367 46.3959 40.22 45.6625 40.22C44.5992 40.22 43.6459 39.8717 42.8025 39.175C41.9592 38.4417 41.5375 37.5617 41.5375 36.535C41.5375 36.0217 41.6842 35.435 41.9775 34.775L56.8275 3.59C57.2309 2.71 57.8359 2.05 58.6425 1.61C59.4492 1.13333 60.3109 0.894999 61.2275 0.894999C62.1809 0.894999 63.0609 1.13333 63.8675 1.61C64.6742 2.08666 65.2975 2.74666 65.7375 3.59L80.5875 34.775ZM54.9025 24.93H67.7175L61.3375 10.63L54.9025 24.93ZM116.228 2.325C117.035 1.37166 117.988 0.894999 119.088 0.894999C120.115 0.894999 121.032 1.29833 121.838 2.105C122.682 2.875 123.103 3.77333 123.103 4.8C123.103 5.71667 122.755 6.57833 122.058 7.385L110.013 21.685V36.04C110.013 37.4333 109.61 38.4967 108.803 39.23C107.997 39.9633 106.988 40.33 105.778 40.33C104.495 40.33 103.45 39.9633 102.643 39.23C101.837 38.4967 101.433 37.4333 101.433 36.04V21.685L89.4984 7.385C88.8017 6.65166 88.4534 5.79 88.4534 4.8C88.4534 3.77333 88.8384 2.875 89.6084 2.105C90.4151 1.29833 91.3317 0.894999 92.3584 0.894999C93.4584 0.894999 94.4117 1.37166 95.2184 2.325L105.723 15.14L116.228 2.325ZM172.479 0.949998C173.689 0.949998 174.661 1.35333 175.394 2.16C176.164 2.93 176.549 3.93833 176.549 5.185V36.425C176.549 37.635 176.201 38.5883 175.504 39.285C174.808 39.9817 173.891 40.33 172.754 40.33C171.654 40.33 170.756 39.9817 170.059 39.285C169.363 38.5883 169.014 37.635 169.014 36.425V17.01L161.204 31.695C160.691 32.6483 160.123 33.345 159.499 33.785C158.913 34.225 158.198 34.445 157.354 34.445C156.548 34.445 155.833 34.225 155.209 33.785C154.586 33.345 154.018 32.6483 153.504 31.695L145.694 17.285V36.425C145.694 37.5983 145.346 38.5517 144.649 39.285C143.953 39.9817 143.036 40.33 141.899 40.33C140.799 40.33 139.901 39.9817 139.204 39.285C138.508 38.5883 138.159 37.635 138.159 36.425V5.185C138.159 3.93833 138.526 2.93 139.259 2.16C140.029 1.35333 141.019 0.949998 142.229 0.949998C143.989 0.949998 145.328 1.885 146.244 3.755L157.409 24.93L168.519 3.755C169.509 1.885 170.829 0.949998 172.479 0.949998ZM199.363 40C198.08 40 197.09 39.6517 196.393 38.955C195.696 38.2583 195.348 37.2683 195.348 35.985V5.24C195.348 3.95666 195.696 2.96666 196.393 2.27C197.09 1.57333 198.08 1.225 199.363 1.225H218.833C221.546 1.225 222.903 2.325 222.903 4.525C222.903 6.76166 221.546 7.88 218.833 7.88H203.708V16.955H217.733C220.446 16.955 221.803 18.0733 221.803 20.31C221.803 22.51 220.446 23.61 217.733 23.61H203.708V33.345H218.833C221.546 33.345 222.903 34.4633 222.903 36.7C222.903 38.9 221.546 40 218.833 40H199.363ZM268.541 0.949998C269.751 0.949998 270.722 1.35333 271.456 2.16C272.226 2.93 272.611 3.93833 272.611 5.185V36.04C272.611 37.3233 272.226 38.3683 271.456 39.175C270.722 39.945 269.751 40.33 268.541 40.33C267.221 40.33 266.157 39.8533 265.351 38.9L246.926 15.305V36.04C246.926 37.3233 246.559 38.3683 245.826 39.175C245.129 39.945 244.176 40.33 242.966 40.33C241.756 40.33 240.784 39.945 240.051 39.175C239.317 38.3683 238.951 37.3233 238.951 36.04V5.185C238.951 3.93833 239.317 2.93 240.051 2.16C240.821 1.35333 241.811 0.949998 243.021 0.949998C244.377 0.949998 245.422 1.42666 246.156 2.38L264.581 25.81V5.185C264.581 3.93833 264.947 2.93 265.681 2.16C266.414 1.35333 267.367 0.949998 268.541 0.949998ZM304.563 40.275C303.28 40.275 302.235 39.89 301.428 39.12C300.658 38.35 300.273 37.3233 300.273 36.04V8.21H291.363C288.65 8.21 287.293 7.03667 287.293 4.69C287.293 2.38 288.65 1.225 291.363 1.225H317.763C320.476 1.225 321.833 2.38 321.833 4.69C321.833 7.03667 320.476 8.21 317.763 8.21H308.853V36.04C308.853 37.3233 308.468 38.35 307.698 39.12C306.928 39.89 305.883 40.275 304.563 40.275Z" fill="url(#paint0_linear)" fill-opacity="0.54"/>
<defs>
<linearGradient id="paint0_linear" x1="373.403" y1="63.5154" x2="326.46" y2="-114.279" gradientUnits="userSpaceOnUse">
<stop stop-color="#652C90"/>
<stop offset="0.458333" stop-color="#91268F"/>
<stop offset="1" stop-color="#D91B5B"/>
</linearGradient>
</defs>
</svg>
