<svg width="130" height="17" viewBox="0 0 130 17" fill="none" xmlns="http://www.w3.org/2000/svg">
<path d="M2.54566 16.1443C2.01535 16.1443 1.59552 15.9896 1.28617 15.6803C0.976816 15.3709 0.822141 14.9511 0.822141 14.4208V2.04678C0.822141 1.53119 0.962085 1.13346 1.24197 0.853568C1.52186 0.57368 1.9196 0.433736 2.43518 0.433736H7.98138C9.67544 0.433736 10.9939 0.860934 11.9366 1.71533C12.8794 2.56972 13.3508 3.76293 13.3508 5.29495C13.3508 6.82697 12.8794 8.02018 11.9366 8.87457C10.9939 9.72897 9.67544 10.1562 7.98138 10.1562H4.26918V14.4208C4.26918 14.9511 4.11451 15.3709 3.80516 15.6803C3.49581 15.9896 3.07598 16.1443 2.54566 16.1443ZM7.53945 7.54879C9.26298 7.54879 10.1247 6.80487 10.1247 5.31705C10.1247 3.81449 9.26298 3.06321 7.53945 3.06321H4.26918V7.54879H7.53945ZM32.857 13.9126C32.9748 14.1777 33.0337 14.4134 33.0337 14.6196C33.0337 15.0321 32.8643 15.3857 32.5255 15.6803C32.2014 15.9602 31.8258 16.1001 31.3986 16.1001C31.1187 16.1001 30.8535 16.0264 30.6031 15.8791C30.3527 15.7171 30.1612 15.4814 30.0286 15.1721L28.8575 12.5647H21.3668L20.1957 15.1721C20.0631 15.4814 19.8716 15.7171 19.6212 15.8791C19.3855 16.0264 19.1203 16.1001 18.8257 16.1001C18.3985 16.1001 18.0155 15.9602 17.6767 15.6803C17.3379 15.3857 17.1685 15.0321 17.1685 14.6196C17.1685 14.4134 17.2274 14.1777 17.3453 13.9126L23.3113 1.38388C23.4733 1.03034 23.7164 0.765183 24.0405 0.588412C24.3646 0.396909 24.7107 0.301158 25.079 0.301158C25.462 0.301158 25.8156 0.396909 26.1396 0.588412C26.4637 0.779913 26.7141 1.04507 26.8909 1.38388L32.857 13.9126ZM22.5379 9.9573H27.6864L25.1232 4.21223L22.5379 9.9573ZM47.1758 0.875664C47.4999 0.49266 47.8829 0.301158 48.3248 0.301158C48.7373 0.301158 49.1055 0.463199 49.4296 0.78728C49.7684 1.09663 49.9378 1.45754 49.9378 1.87C49.9378 2.23828 49.7979 2.58446 49.518 2.90854L44.6789 8.65361V14.4208C44.6789 14.9806 44.5168 15.4077 44.1928 15.7024C43.8687 15.997 43.4636 16.1443 42.9775 16.1443C42.4619 16.1443 42.042 15.997 41.718 15.7024C41.3939 15.4077 41.2318 14.9806 41.2318 14.4208V8.65361L36.4369 2.90854C36.157 2.61392 36.0171 2.26774 36.0171 1.87C36.0171 1.45754 36.1718 1.09663 36.4811 0.78728C36.8052 0.463199 37.1735 0.301158 37.5859 0.301158C38.0279 0.301158 38.4109 0.49266 38.7349 0.875664L42.9554 6.02413L47.1758 0.875664ZM69.7747 0.323254C70.2609 0.323254 70.6512 0.485295 70.9458 0.809376C71.2552 1.11873 71.4099 1.52383 71.4099 2.02468V14.5755C71.4099 15.0616 71.2699 15.4446 70.99 15.7245C70.7102 16.0044 70.3419 16.1443 69.8852 16.1443C69.4433 16.1443 69.0824 16.0044 68.8025 15.7245C68.5226 15.4446 68.3827 15.0616 68.3827 14.5755V6.77541L65.245 12.6752C65.0387 13.0582 64.8104 13.3381 64.56 13.5148C64.3243 13.6916 64.037 13.78 63.6982 13.78C63.3741 13.78 63.0869 13.6916 62.8365 13.5148C62.586 13.3381 62.3577 13.0582 62.1515 12.6752L59.0138 6.88589V14.5755C59.0138 15.0468 58.8738 15.4298 58.5939 15.7245C58.3141 16.0044 57.9458 16.1443 57.4891 16.1443C57.0472 16.1443 56.6863 16.0044 56.4064 15.7245C56.1265 15.4446 55.9866 15.0616 55.9866 14.5755V2.02468C55.9866 1.52383 56.1339 1.11873 56.4285 0.809376C56.7378 0.485295 57.1356 0.323254 57.6217 0.323254C58.3288 0.323254 58.8665 0.698893 59.2347 1.45017L63.7203 9.9573L68.1838 1.45017C68.5815 0.698893 69.1118 0.323254 69.7747 0.323254ZM80.5754 16.0117C80.0598 16.0117 79.6621 15.8718 79.3822 15.5919C79.1023 15.312 78.9624 14.9143 78.9624 14.3987V2.04678C78.9624 1.53119 79.1023 1.13346 79.3822 0.853568C79.6621 0.57368 80.0598 0.433736 80.5754 0.433736H88.3975C89.4876 0.433736 90.0327 0.875665 90.0327 1.75952C90.0327 2.65811 89.4876 3.1074 88.3975 3.1074H82.321V6.75331H87.9556C89.0457 6.75331 89.5907 7.20261 89.5907 8.1012C89.5907 8.98505 89.0457 9.42698 87.9556 9.42698H82.321V13.3381H88.3975C89.4876 13.3381 90.0327 13.7873 90.0327 14.6859C90.0327 15.5698 89.4876 16.0117 88.3975 16.0117H80.5754ZM108.368 0.323254C108.854 0.323254 109.244 0.485295 109.539 0.809376C109.848 1.11873 110.003 1.52383 110.003 2.02468V14.4208C110.003 14.9364 109.848 15.3562 109.539 15.6803C109.244 15.9896 108.854 16.1443 108.368 16.1443C107.837 16.1443 107.41 15.9528 107.086 15.5698L99.6838 6.09042V14.4208C99.6838 14.9364 99.5365 15.3562 99.2419 15.6803C98.962 15.9896 98.579 16.1443 98.0929 16.1443C97.6067 16.1443 97.2164 15.9896 96.9218 15.6803C96.6271 15.3562 96.4798 14.9364 96.4798 14.4208V2.02468C96.4798 1.52383 96.6271 1.11873 96.9218 0.809376C97.2311 0.485295 97.6288 0.323254 98.115 0.323254C98.66 0.323254 99.0798 0.514757 99.3745 0.897762L106.777 10.3108V2.02468C106.777 1.52383 106.924 1.11873 107.219 0.809376C107.513 0.485295 107.896 0.323254 108.368 0.323254ZM122.84 16.1222C122.324 16.1222 121.904 15.9675 121.58 15.6582C121.271 15.3488 121.116 14.9364 121.116 14.4208V3.23998H117.537C116.447 3.23998 115.902 2.76859 115.902 1.82581C115.902 0.897761 116.447 0.433736 117.537 0.433736H128.143C129.233 0.433736 129.778 0.897761 129.778 1.82581C129.778 2.76859 129.233 3.23998 128.143 3.23998H124.563V14.4208C124.563 14.9364 124.409 15.3488 124.099 15.6582C123.79 15.9675 123.37 16.1222 122.84 16.1222Z" fill="url(#paint0_linear)" fill-opacity="0.54"/>
<defs>
<linearGradient id="paint0_linear" x1="151.44" y1="22.7698" x2="129.753" y2="-53.6823" gradientUnits="userSpaceOnUse">
<stop stop-color="#652C90"/>
<stop offset="0.458333" stop-color="#91268F"/>
<stop offset="1" stop-color="#D91B5B"/>
</linearGradient>
</defs>
</svg>
