<svg width="83" height="11" viewBox="0 0 83 11" fill="none" xmlns="http://www.w3.org/2000/svg">
<path d="M2.072 10.084C1.736 10.084 1.47 9.986 1.274 9.79C1.078 9.594 0.98 9.328 0.98 8.992V1.152C0.98 0.825333 1.06867 0.573333 1.246 0.395999C1.42333 0.218666 1.67533 0.129999 2.002 0.129999H5.516C6.58933 0.129999 7.42467 0.400666 8.022 0.942C8.61933 1.48333 8.918 2.23933 8.918 3.21C8.918 4.18067 8.61933 4.93667 8.022 5.478C7.42467 6.01933 6.58933 6.29 5.516 6.29H3.164V8.992C3.164 9.328 3.066 9.594 2.87 9.79C2.674 9.986 2.408 10.084 2.072 10.084ZM5.236 4.638C6.328 4.638 6.874 4.16667 6.874 3.224C6.874 2.272 6.328 1.796 5.236 1.796H3.164V4.638H5.236ZM21.2768 8.67C21.3515 8.838 21.3888 8.98733 21.3888 9.118C21.3888 9.37933 21.2815 9.60333 21.0668 9.79C20.8615 9.96733 20.6235 10.056 20.3528 10.056C20.1755 10.056 20.0075 10.0093 19.8488 9.916C19.6902 9.81333 19.5688 9.664 19.4848 9.468L18.7428 7.816H13.9968L13.2548 9.468C13.1708 9.664 13.0495 9.81333 12.8908 9.916C12.7415 10.0093 12.5735 10.056 12.3868 10.056C12.1162 10.056 11.8735 9.96733 11.6588 9.79C11.4442 9.60333 11.3368 9.37933 11.3368 9.118C11.3368 8.98733 11.3742 8.838 11.4488 8.67L15.2288 0.731999C15.3315 0.507999 15.4855 0.339999 15.6908 0.228C15.8962 0.106666 16.1155 0.0459996 16.3488 0.0459996C16.5915 0.0459996 16.8155 0.106666 17.0208 0.228C17.2262 0.349333 17.3848 0.517332 17.4968 0.731999L21.2768 8.67ZM14.7388 6.164H18.0008L16.3768 2.524L14.7388 6.164ZM30.349 0.409999C30.5544 0.167333 30.797 0.0459996 31.077 0.0459996C31.3384 0.0459996 31.5717 0.148666 31.777 0.354C31.9917 0.55 32.099 0.778666 32.099 1.04C32.099 1.27333 32.0104 1.49267 31.833 1.698L28.767 5.338V8.992C28.767 9.34667 28.6644 9.61733 28.459 9.804C28.2537 9.99067 27.997 10.084 27.689 10.084C27.3624 10.084 27.0964 9.99067 26.891 9.804C26.6857 9.61733 26.583 9.34667 26.583 8.992V5.338L23.545 1.698C23.3677 1.51133 23.279 1.292 23.279 1.04C23.279 0.778666 23.377 0.55 23.573 0.354C23.7784 0.148666 24.0117 0.0459996 24.273 0.0459996C24.553 0.0459996 24.7957 0.167333 25.001 0.409999L27.675 3.672L30.349 0.409999ZM44.6674 0.0599995C44.9754 0.0599995 45.2228 0.162666 45.4094 0.368C45.6054 0.563999 45.7034 0.820666 45.7034 1.138V9.09C45.7034 9.398 45.6148 9.64067 45.4374 9.818C45.2601 9.99533 45.0268 10.084 44.7374 10.084C44.4574 10.084 44.2288 9.99533 44.0514 9.818C43.8741 9.64067 43.7854 9.398 43.7854 9.09V4.148L41.7974 7.886C41.6668 8.12867 41.5221 8.306 41.3634 8.418C41.2141 8.53 41.0321 8.586 40.8174 8.586C40.6121 8.586 40.4301 8.53 40.2714 8.418C40.1128 8.306 39.9681 8.12867 39.8374 7.886L37.8494 4.218V9.09C37.8494 9.38867 37.7608 9.63133 37.5834 9.818C37.4061 9.99533 37.1728 10.084 36.8834 10.084C36.6034 10.084 36.3748 9.99533 36.1974 9.818C36.0201 9.64067 35.9314 9.398 35.9314 9.09V1.138C35.9314 0.820666 36.0248 0.563999 36.2114 0.368C36.4074 0.162666 36.6594 0.0599995 36.9674 0.0599995C37.4154 0.0599995 37.7561 0.297999 37.9894 0.773999L40.8314 6.164L43.6594 0.773999C43.9114 0.297999 44.2474 0.0599995 44.6674 0.0599995ZM51.5106 10C51.1839 10 50.9319 9.91133 50.7546 9.734C50.5773 9.55667 50.4886 9.30467 50.4886 8.978V1.152C50.4886 0.825333 50.5773 0.573333 50.7546 0.395999C50.9319 0.218666 51.1839 0.129999 51.5106 0.129999H56.4666C57.1573 0.129999 57.5026 0.409999 57.5026 0.969999C57.5026 1.53933 57.1573 1.824 56.4666 1.824H52.6166V4.134H56.1866C56.8773 4.134 57.2226 4.41867 57.2226 4.988C57.2226 5.548 56.8773 5.828 56.1866 5.828H52.6166V8.306H56.4666C57.1573 8.306 57.5026 8.59067 57.5026 9.16C57.5026 9.72 57.1573 10 56.4666 10H51.5106ZM69.1194 0.0599995C69.4274 0.0599995 69.6748 0.162666 69.8614 0.368C70.0574 0.563999 70.1554 0.820666 70.1554 1.138V8.992C70.1554 9.31867 70.0574 9.58467 69.8614 9.79C69.6748 9.986 69.4274 10.084 69.1194 10.084C68.7834 10.084 68.5128 9.96267 68.3074 9.72L63.6174 3.714V8.992C63.6174 9.31867 63.5241 9.58467 63.3374 9.79C63.1601 9.986 62.9174 10.084 62.6094 10.084C62.3014 10.084 62.0541 9.986 61.8674 9.79C61.6808 9.58467 61.5874 9.31867 61.5874 8.992V1.138C61.5874 0.820666 61.6808 0.563999 61.8674 0.368C62.0634 0.162666 62.3154 0.0599995 62.6234 0.0599995C62.9688 0.0599995 63.2348 0.181333 63.4214 0.424L68.1114 6.388V1.138C68.1114 0.820666 68.2048 0.563999 68.3914 0.368C68.5781 0.162666 68.8208 0.0599995 69.1194 0.0599995ZM78.2888 10.07C77.9621 10.07 77.6961 9.972 77.4908 9.776C77.2948 9.58 77.1968 9.31867 77.1968 8.992V1.908H74.9288C74.2381 1.908 73.8928 1.60933 73.8928 1.012C73.8928 0.424 74.2381 0.129999 74.9288 0.129999H81.6488C82.3394 0.129999 82.6848 0.424 82.6848 1.012C82.6848 1.60933 82.3394 1.908 81.6488 1.908H79.3808V8.992C79.3808 9.31867 79.2828 9.58 79.0868 9.776C78.8908 9.972 78.6248 10.07 78.2888 10.07Z" fill="url(#paint0_linear)" fill-opacity="0.54"/>
<defs>
<linearGradient id="paint0_linear" x1="96.1275" y1="19.6689" x2="75.3169" y2="-38.6" gradientUnits="userSpaceOnUse">
<stop stop-color="#652C90"/>
<stop offset="0.458333" stop-color="#91268F"/>
<stop offset="1" stop-color="#D91B5B"/>
</linearGradient>
</defs>
</svg>
