<svg width="217" height="28" viewBox="0 0 217 28" fill="none" xmlns="http://www.w3.org/2000/svg">
<path d="M3.476 27.222C2.588 27.222 1.885 26.963 1.367 26.445C0.849 25.927 0.59 25.224 0.59 24.336V3.616C0.59 2.75266 0.824333 2.08666 1.293 1.618C1.76167 1.14933 2.42767 0.914998 3.291 0.914998H12.578C15.4147 0.914998 17.6223 1.63033 19.201 3.061C20.7797 4.49167 21.569 6.48967 21.569 9.055C21.569 11.6203 20.7797 13.6183 19.201 15.049C17.6223 16.4797 15.4147 17.195 12.578 17.195H6.362V24.336C6.362 25.224 6.103 25.927 5.585 26.445C5.067 26.963 4.364 27.222 3.476 27.222ZM11.838 12.829C14.724 12.829 16.167 11.5833 16.167 9.092C16.167 6.576 14.724 5.318 11.838 5.318H6.362V12.829H11.838ZM54.2316 23.485C54.429 23.929 54.5276 24.3237 54.5276 24.669C54.5276 25.3597 54.244 25.9517 53.6766 26.445C53.134 26.9137 52.505 27.148 51.7896 27.148C51.321 27.148 50.877 27.0247 50.4576 26.778C50.0383 26.5067 49.7176 26.112 49.4956 25.594L47.5346 21.228H34.9916L33.0306 25.594C32.8086 26.112 32.488 26.5067 32.0686 26.778C31.674 27.0247 31.23 27.148 30.7366 27.148C30.0213 27.148 29.38 26.9137 28.8126 26.445C28.2453 25.9517 27.9616 25.3597 27.9616 24.669C27.9616 24.3237 28.0603 23.929 28.2576 23.485L38.2476 2.506C38.519 1.914 38.926 1.47 39.4686 1.174C40.0113 0.853333 40.591 0.692999 41.2076 0.692999C41.849 0.692999 42.441 0.853333 42.9836 1.174C43.5263 1.49466 43.9456 1.93866 44.2416 2.506L54.2316 23.485ZM36.9526 16.862H45.5736L41.2816 7.242L36.9526 16.862ZM78.2082 1.655C78.7509 1.01367 79.3922 0.692999 80.1322 0.692999C80.8229 0.692999 81.4395 0.964333 81.9822 1.507C82.5495 2.025 82.8332 2.62933 82.8332 3.32C82.8332 3.93667 82.5989 4.51633 82.1302 5.059L74.0272 14.679V24.336C74.0272 25.2733 73.7559 25.9887 73.2132 26.482C72.6705 26.9753 71.9922 27.222 71.1782 27.222C70.3149 27.222 69.6119 26.9753 69.0692 26.482C68.5265 25.9887 68.2552 25.2733 68.2552 24.336V14.679L60.2262 5.059C59.7575 4.56567 59.5232 3.986 59.5232 3.32C59.5232 2.62933 59.7822 2.025 60.3002 1.507C60.8429 0.964333 61.4595 0.692999 62.1502 0.692999C62.8902 0.692999 63.5315 1.01367 64.0742 1.655L71.1412 10.276L78.2082 1.655ZM116.05 0.729999C116.864 0.729999 117.517 1.00133 118.011 1.544C118.529 2.062 118.788 2.74033 118.788 3.579V24.595C118.788 25.409 118.553 26.0503 118.085 26.519C117.616 26.9877 116.999 27.222 116.235 27.222C115.495 27.222 114.89 26.9877 114.422 26.519C113.953 26.0503 113.719 25.409 113.719 24.595V11.534L108.465 21.413C108.119 22.0543 107.737 22.523 107.318 22.819C106.923 23.115 106.442 23.263 105.875 23.263C105.332 23.263 104.851 23.115 104.432 22.819C104.012 22.523 103.63 22.0543 103.285 21.413L98.0307 11.719V24.595C98.0307 25.3843 97.7963 26.0257 97.3277 26.519C96.859 26.9877 96.2423 27.222 95.4777 27.222C94.7377 27.222 94.1333 26.9877 93.6647 26.519C93.196 26.0503 92.9617 25.409 92.9617 24.595V3.579C92.9617 2.74033 93.2083 2.062 93.7017 1.544C94.2197 1.00133 94.8857 0.729999 95.6997 0.729999C96.8837 0.729999 97.784 1.359 98.4007 2.617L105.912 16.862L113.386 2.617C114.052 1.359 114.94 0.729999 116.05 0.729999ZM134.135 27C133.272 27 132.606 26.7657 132.137 26.297C131.668 25.8283 131.434 25.1623 131.434 24.299V3.616C131.434 2.75266 131.668 2.08666 132.137 1.618C132.606 1.14933 133.272 0.914998 134.135 0.914998H147.233C149.058 0.914998 149.971 1.655 149.971 3.135C149.971 4.63966 149.058 5.392 147.233 5.392H137.058V11.497H146.493C148.318 11.497 149.231 12.2493 149.231 13.754C149.231 15.234 148.318 15.974 146.493 15.974H137.058V22.523H147.233C149.058 22.523 149.971 23.2753 149.971 24.78C149.971 26.26 149.058 27 147.233 27H134.135ZM180.673 0.729999C181.487 0.729999 182.14 1.00133 182.634 1.544C183.152 2.062 183.411 2.74033 183.411 3.579V24.336C183.411 25.1993 183.152 25.9023 182.634 26.445C182.14 26.963 181.487 27.222 180.673 27.222C179.785 27.222 179.069 26.9013 178.527 26.26L166.132 10.387V24.336C166.132 25.1993 165.885 25.9023 165.392 26.445C164.923 26.963 164.282 27.222 163.468 27.222C162.654 27.222 162 26.963 161.507 26.445C161.013 25.9023 160.767 25.1993 160.767 24.336V3.579C160.767 2.74033 161.013 2.062 161.507 1.544C162.025 1.00133 162.691 0.729999 163.505 0.729999C164.417 0.729999 165.12 1.05067 165.614 1.692L178.009 17.454V3.579C178.009 2.74033 178.255 2.062 178.749 1.544C179.242 1.00133 179.883 0.729999 180.673 0.729999ZM204.906 27.185C204.043 27.185 203.34 26.926 202.797 26.408C202.279 25.89 202.02 25.1993 202.02 24.336V5.614H196.026C194.201 5.614 193.288 4.82467 193.288 3.246C193.288 1.692 194.201 0.914998 196.026 0.914998H213.786C215.611 0.914998 216.524 1.692 216.524 3.246C216.524 4.82467 215.611 5.614 213.786 5.614H207.792V24.336C207.792 25.1993 207.533 25.89 207.015 26.408C206.497 26.926 205.794 27.185 204.906 27.185Z" fill="url(#paint0_linear)" fill-opacity="0.54"/>
<defs>
<linearGradient id="paint0_linear" x1="252.796" y1="37.8294" x2="216.481" y2="-90.1882" gradientUnits="userSpaceOnUse">
<stop stop-color="#652C90"/>
<stop offset="0.458333" stop-color="#91268F"/>
<stop offset="1" stop-color="#D91B5B"/>
</linearGradient>
</defs>
</svg>
