<svg width="358" height="33" viewBox="0 0 358 33" fill="none" xmlns="http://www.w3.org/2000/svg">
<path d="M8.14797 7.2536H0.790457V2.91792H20.8265V7.2536H13.469V25.9102H8.14797V7.2536ZM39.1526 8.23898L31.171 26.9941C30.3608 29.0305 29.3535 30.4648 28.1492 31.2969C26.9667 32.129 25.5324 32.5451 23.8463 32.5451C22.9266 32.5451 22.0179 32.4027 21.1201 32.1181C20.2223 31.8334 19.4888 31.4392 18.9194 30.9356L20.7916 27.2897C21.1858 27.64 21.6347 27.9138 22.1383 28.1108C22.6639 28.3079 23.1785 28.4065 23.6821 28.4065C24.3828 28.4065 24.9521 28.2313 25.3901 27.8809C25.828 27.5525 26.2222 26.9941 26.5725 26.2058L26.6382 26.0415L18.9851 8.23898H24.2733L29.2331 20.2278L34.2257 8.23898H39.1526ZM51.0316 7.97622C52.6739 7.97622 54.1629 8.35942 55.4986 9.12583C56.8563 9.87034 57.9183 10.9324 58.6847 12.3119C59.4511 13.6695 59.8343 15.2571 59.8343 17.0746C59.8343 18.8921 59.4511 20.4906 58.6847 21.8701C57.9183 23.2277 56.8563 24.2898 55.4986 25.0562C54.1629 25.8007 52.6739 26.1729 51.0316 26.1729C48.7761 26.1729 47.0024 25.4613 45.7105 24.0379V32.2823H40.5865V8.23898H45.4806V10.2754C46.7506 8.74262 48.6009 7.97622 51.0316 7.97622ZM50.1447 21.9686C51.4586 21.9686 52.5315 21.5307 53.3636 20.6548C54.2176 19.757 54.6446 18.5636 54.6446 17.0746C54.6446 15.5855 54.2176 14.4031 53.3636 13.5272C52.5315 12.6294 51.4586 12.1805 50.1447 12.1805C48.8309 12.1805 47.747 12.6294 46.893 13.5272C46.0609 14.4031 45.6448 15.5855 45.6448 17.0746C45.6448 18.5636 46.0609 19.757 46.893 20.6548C47.747 21.5307 48.8309 21.9686 50.1447 21.9686ZM79.9173 17.1403C79.9173 17.206 79.8845 17.6658 79.8188 18.5198H66.4505C66.6913 19.6147 67.2607 20.4796 68.1585 21.1146C69.0562 21.7497 70.173 22.0672 71.5088 22.0672C72.4284 22.0672 73.2386 21.9358 73.9394 21.673C74.662 21.3884 75.3298 20.9504 75.943 20.3592L78.6692 23.3153C77.005 25.2204 74.5744 26.1729 71.3774 26.1729C69.3847 26.1729 67.622 25.7897 66.0892 25.0233C64.5563 24.235 63.3739 23.1511 62.5418 21.7716C61.7097 20.392 61.2936 18.8264 61.2936 17.0746C61.2936 15.3447 61.6987 13.79 62.5089 12.4104C63.341 11.009 64.4688 9.92508 65.8921 9.15867C67.3373 8.37037 68.9468 7.97622 70.7204 7.97622C72.4503 7.97622 74.016 8.34847 75.4174 9.09298C76.8189 9.83749 77.9137 10.9105 78.702 12.3119C79.5122 13.6914 79.9173 15.3009 79.9173 17.1403ZM70.7533 11.852C69.5927 11.852 68.6183 12.1805 67.83 12.8374C67.0417 13.4944 66.56 14.3921 66.3848 15.5308H75.089C74.9138 14.414 74.4321 13.5272 73.6437 12.8703C72.8554 12.1915 71.892 11.852 70.7533 11.852ZM88.6169 26.1729C87.1498 26.1729 85.7155 25.9977 84.3141 25.6474C82.9127 25.2751 81.7959 24.8153 80.9638 24.2679L82.6718 20.5891C83.4601 21.0927 84.4126 21.5088 85.5294 21.8372C86.6462 22.1438 87.741 22.2971 88.814 22.2971C90.9818 22.2971 92.0658 21.7606 92.0658 20.6876C92.0658 20.184 91.7701 19.8227 91.1789 19.6037C90.5877 19.3847 89.6789 19.1986 88.4527 19.0453C87.0075 18.8264 85.8141 18.5745 84.8725 18.2899C83.9309 18.0052 83.1097 17.5016 82.409 16.779C81.7302 16.0563 81.3908 15.0272 81.3908 13.6914C81.3908 12.5747 81.7083 11.5893 82.3433 10.7353C83.0003 9.85939 83.9418 9.18057 85.1681 8.69883C86.4162 8.21709 87.8834 7.97622 89.5695 7.97622C90.8176 7.97622 92.0548 8.11855 93.2811 8.40321C94.5292 8.66598 95.5584 9.03824 96.3686 9.51998L94.6606 13.1659C93.1059 12.29 91.4088 11.852 89.5695 11.852C88.4746 11.852 87.6534 12.0053 87.106 12.3119C86.5586 12.6185 86.2849 13.0126 86.2849 13.4944C86.2849 14.0418 86.5805 14.425 87.1717 14.644C87.7629 14.8629 88.7045 15.071 89.9965 15.268C91.4417 15.5089 92.6241 15.7717 93.5438 16.0563C94.4635 16.3191 95.2628 16.8118 95.9416 17.5344C96.6204 18.257 96.9598 19.2643 96.9598 20.5563C96.9598 21.6511 96.6314 22.6256 95.9744 23.4795C95.3175 24.3335 94.354 25.0014 93.084 25.4832C91.8358 25.943 90.3468 26.1729 88.6169 26.1729ZM116.518 26.1729C114.657 26.1729 112.982 25.7897 111.493 25.0233C110.026 24.235 108.876 23.1511 108.044 21.7716C107.212 20.392 106.796 18.8264 106.796 17.0746C106.796 15.3228 107.212 13.7571 108.044 12.3776C108.876 10.9981 110.026 9.92508 111.493 9.15867C112.982 8.37037 114.657 7.97622 116.518 7.97622C118.379 7.97622 120.044 8.37037 121.511 9.15867C122.978 9.92508 124.127 10.9981 124.96 12.3776C125.792 13.7571 126.208 15.3228 126.208 17.0746C126.208 18.8264 125.792 20.392 124.96 21.7716C124.127 23.1511 122.978 24.235 121.511 25.0233C120.044 25.7897 118.379 26.1729 116.518 26.1729ZM116.518 21.9686C117.832 21.9686 118.905 21.5307 119.737 20.6548C120.591 19.757 121.018 18.5636 121.018 17.0746C121.018 15.5855 120.591 14.4031 119.737 13.5272C118.905 12.6294 117.832 12.1805 116.518 12.1805C115.204 12.1805 114.12 12.6294 113.266 13.5272C112.412 14.4031 111.985 15.5855 111.985 17.0746C111.985 18.5636 112.412 19.757 113.266 20.6548C114.12 21.5307 115.204 21.9686 116.518 21.9686ZM134.592 8.63314H139.125V12.5747H134.724V25.9102H129.6V12.5747H126.874V8.63314H129.6V7.84483C129.6 5.83027 130.191 4.23177 131.373 3.04931C132.578 1.86685 134.264 1.27562 136.432 1.27562C137.198 1.27562 137.921 1.36321 138.6 1.53839C139.3 1.69167 139.881 1.9216 140.34 2.22816L138.994 5.93976C138.403 5.52371 137.713 5.31569 136.924 5.31569C135.37 5.31569 134.592 6.16968 134.592 7.87768V8.63314ZM170.95 25.9102L170.918 12.1148L164.151 23.4795H161.754L155.02 12.4104V25.9102H150.027V2.91792H154.429L163.035 17.206L171.509 2.91792H175.877L175.943 25.9102H170.95ZM197.69 17.1403C197.69 17.206 197.657 17.6658 197.591 18.5198H184.223C184.464 19.6147 185.033 20.4796 185.931 21.1146C186.829 21.7497 187.945 22.0672 189.281 22.0672C190.201 22.0672 191.011 21.9358 191.712 21.673C192.434 21.3884 193.102 20.9504 193.715 20.3592L196.442 23.3153C194.777 25.2204 192.347 26.1729 189.15 26.1729C187.157 26.1729 185.394 25.7897 183.861 25.0233C182.329 24.235 181.146 23.1511 180.314 21.7716C179.482 20.392 179.066 18.8264 179.066 17.0746C179.066 15.3447 179.471 13.79 180.281 12.4104C181.113 11.009 182.241 9.92508 183.664 9.15867C185.11 8.37037 186.719 7.97622 188.493 7.97622C190.223 7.97622 191.788 8.34847 193.19 9.09298C194.591 9.83749 195.686 10.9105 196.474 12.3119C197.285 13.6914 197.69 15.3009 197.69 17.1403ZM188.526 11.852C187.365 11.852 186.391 12.1805 185.602 12.8374C184.814 13.4944 184.332 14.3921 184.157 15.5308H192.861C192.686 14.414 192.204 13.5272 191.416 12.8703C190.628 12.1915 189.664 11.852 188.526 11.852ZM223.075 7.97622C225.287 7.97622 227.038 8.63314 228.33 9.94698C229.644 11.2389 230.301 13.1878 230.301 15.7936V25.9102H225.177V16.5819C225.177 15.1804 224.882 14.1403 224.29 13.4615C223.721 12.7608 222.9 12.4104 221.827 12.4104C220.623 12.4104 219.67 12.8046 218.969 13.5929C218.269 14.3593 217.918 15.5089 217.918 17.0417V25.9102H212.794V16.5819C212.794 13.8009 211.677 12.4104 209.444 12.4104C208.261 12.4104 207.32 12.8046 206.619 13.5929C205.918 14.3593 205.568 15.5089 205.568 17.0417V25.9102H200.444V8.23898H205.338V10.2754C205.995 9.53093 206.794 8.9616 207.736 8.56745C208.699 8.17329 209.75 7.97622 210.889 7.97622C212.137 7.97622 213.265 8.22804 214.272 8.73168C215.28 9.21342 216.09 9.92508 216.703 10.8667C217.426 9.94698 218.334 9.23532 219.429 8.73168C220.546 8.22804 221.761 7.97622 223.075 7.97622ZM244.682 7.97622C246.324 7.97622 247.813 8.35942 249.149 9.12583C250.507 9.87034 251.569 10.9324 252.335 12.3119C253.102 13.6695 253.485 15.2571 253.485 17.0746C253.485 18.8921 253.102 20.4906 252.335 21.8701C251.569 23.2277 250.507 24.2898 249.149 25.0562C247.813 25.8007 246.324 26.1729 244.682 26.1729C242.251 26.1729 240.401 25.4065 239.131 23.8737V25.9102H234.237V1.53839H239.361V10.1112C240.653 8.68788 242.427 7.97622 244.682 7.97622ZM243.795 21.9686C245.109 21.9686 246.182 21.5307 247.014 20.6548C247.868 19.757 248.295 18.5636 248.295 17.0746C248.295 15.5855 247.868 14.4031 247.014 13.5272C246.182 12.6294 245.109 12.1805 243.795 12.1805C242.481 12.1805 241.397 12.6294 240.543 13.5272C239.711 14.4031 239.295 15.5855 239.295 17.0746C239.295 18.5636 239.711 19.757 240.543 20.6548C241.397 21.5307 242.481 21.9686 243.795 21.9686ZM273.568 17.1403C273.568 17.206 273.535 17.6658 273.469 18.5198H260.101C260.342 19.6147 260.911 20.4796 261.809 21.1146C262.707 21.7497 263.824 22.0672 265.159 22.0672C266.079 22.0672 266.889 21.9358 267.59 21.673C268.312 21.3884 268.98 20.9504 269.593 20.3592L272.32 23.3153C270.655 25.2204 268.225 26.1729 265.028 26.1729C263.035 26.1729 261.272 25.7897 259.74 25.0233C258.207 24.235 257.024 23.1511 256.192 21.7716C255.36 20.392 254.944 18.8264 254.944 17.0746C254.944 15.3447 255.349 13.79 256.159 12.4104C256.992 11.009 258.119 9.92508 259.543 9.15867C260.988 8.37037 262.597 7.97622 264.371 7.97622C266.101 7.97622 267.667 8.34847 269.068 9.09298C270.469 9.83749 271.564 10.9105 272.353 12.3119C273.163 13.6914 273.568 15.3009 273.568 17.1403ZM264.404 11.852C263.243 11.852 262.269 12.1805 261.481 12.8374C260.692 13.4944 260.21 14.3921 260.035 15.5308H268.739C268.564 14.414 268.083 13.5272 267.294 12.8703C266.506 12.1915 265.542 11.852 264.404 11.852ZM281.216 10.5711C281.829 9.71706 282.651 9.07108 283.68 8.63314C284.731 8.19519 285.935 7.97622 287.293 7.97622V12.706C286.724 12.6623 286.34 12.6404 286.143 12.6404C284.676 12.6404 283.527 13.0564 282.694 13.8885C281.862 14.6987 281.446 15.925 281.446 17.5673V25.9102H276.322V8.23898H281.216V10.5711ZM295.692 26.1729C294.225 26.1729 292.791 25.9977 291.389 25.6474C289.988 25.2751 288.871 24.8153 288.039 24.2679L289.747 20.5891C290.535 21.0927 291.488 21.5088 292.604 21.8372C293.721 22.1438 294.816 22.2971 295.889 22.2971C298.057 22.2971 299.141 21.7606 299.141 20.6876C299.141 20.184 298.845 19.8227 298.254 19.6037C297.663 19.3847 296.754 19.1986 295.528 19.0453C294.083 18.8264 292.889 18.5745 291.948 18.2899C291.006 18.0052 290.185 17.5016 289.484 16.779C288.805 16.0563 288.466 15.0272 288.466 13.6914C288.466 12.5747 288.783 11.5893 289.418 10.7353C290.075 9.85939 291.017 9.18057 292.243 8.69883C293.491 8.21709 294.958 7.97622 296.645 7.97622C297.893 7.97622 299.13 8.11855 300.356 8.40321C301.604 8.66598 302.633 9.03824 303.444 9.51998L301.736 13.1659C300.181 12.29 298.484 11.852 296.645 11.852C295.55 11.852 294.729 12.0053 294.181 12.3119C293.634 12.6185 293.36 13.0126 293.36 13.4944C293.36 14.0418 293.656 14.425 294.247 14.644C294.838 14.8629 295.78 15.071 297.072 15.268C298.517 15.5089 299.699 15.7717 300.619 16.0563C301.539 16.3191 302.338 16.8118 303.017 17.5344C303.695 18.257 304.035 19.2643 304.035 20.5563C304.035 21.6511 303.706 22.6256 303.05 23.4795C302.393 24.3335 301.429 25.0014 300.159 25.4832C298.911 25.943 297.422 26.1729 295.692 26.1729ZM317.28 7.97622C319.47 7.97622 321.232 8.63314 322.568 9.94698C323.926 11.2608 324.605 13.2097 324.605 15.7936V25.9102H319.481V16.5819C319.481 15.1804 319.174 14.1403 318.561 13.4615C317.948 12.7608 317.061 12.4104 315.9 12.4104C314.609 12.4104 313.579 12.8155 312.813 13.6257C312.047 14.414 311.663 15.5965 311.663 17.1731V25.9102H306.539V1.53839H311.663V10.0784C312.342 9.39954 313.163 8.88496 314.127 8.5346C315.09 8.16234 316.141 7.97622 317.28 7.97622ZM328.592 8.23898H333.716V25.9102H328.592V8.23898ZM331.154 5.77553C330.213 5.77553 329.446 5.50181 328.855 4.95438C328.264 4.40695 327.968 3.72813 327.968 2.91792C327.968 2.10772 328.264 1.4289 328.855 0.881471C329.446 0.334036 330.213 0.0603187 331.154 0.0603187C332.096 0.0603187 332.862 0.323088 333.454 0.848625C334.045 1.37416 334.34 2.03108 334.34 2.81939C334.34 3.67338 334.045 4.38505 333.454 4.95438C332.862 5.50181 332.096 5.77553 331.154 5.77553ZM348.26 7.97622C349.902 7.97622 351.391 8.35942 352.727 9.12583C354.085 9.87034 355.147 10.9324 355.913 12.3119C356.68 13.6695 357.063 15.2571 357.063 17.0746C357.063 18.8921 356.68 20.4906 355.913 21.8701C355.147 23.2277 354.085 24.2898 352.727 25.0562C351.391 25.8007 349.902 26.1729 348.26 26.1729C346.005 26.1729 344.231 25.4613 342.939 24.0379V32.2823H337.815V8.23898H342.709V10.2754C343.979 8.74262 345.829 7.97622 348.26 7.97622ZM347.373 21.9686C348.687 21.9686 349.76 21.5307 350.592 20.6548C351.446 19.757 351.873 18.5636 351.873 17.0746C351.873 15.5855 351.446 14.4031 350.592 13.5272C349.76 12.6294 348.687 12.1805 347.373 12.1805C346.059 12.1805 344.975 12.6294 344.121 13.5272C343.289 14.4031 342.873 15.5855 342.873 17.0746C342.873 18.5636 343.289 19.757 344.121 20.6548C344.975 21.5307 346.059 21.9686 347.373 21.9686Z" fill="white"/>
</svg>
