<svg width="239" height="23" viewBox="0 0 239 23" fill="none" xmlns="http://www.w3.org/2000/svg">
<path d="M5.0212 5.504H0.0931956V2.6H13.5132V5.504H8.5852V18H5.0212V5.504ZM25.7878 6.164L20.4418 18.726C19.8992 20.09 19.2245 21.0507 18.4178 21.608C17.6258 22.1653 16.6652 22.444 15.5358 22.444C14.9198 22.444 14.3112 22.3487 13.7098 22.158C13.1085 21.9673 12.6172 21.7033 12.2358 21.366L13.4898 18.924C13.7538 19.1587 14.0545 19.342 14.3918 19.474C14.7438 19.606 15.0885 19.672 15.4258 19.672C15.8952 19.672 16.2765 19.5547 16.5698 19.32C16.8632 19.1 17.1272 18.726 17.3618 18.198L17.4058 18.088L12.2798 6.164H15.8218L19.1438 14.194L22.4878 6.164H25.7878ZM33.7443 5.988C34.8443 5.988 35.8416 6.24467 36.7363 6.758C37.6456 7.25667 38.3569 7.968 38.8703 8.892C39.3836 9.80133 39.6403 10.8647 39.6403 12.082C39.6403 13.2993 39.3836 14.37 38.8703 15.294C38.3569 16.2033 37.6456 16.9147 36.7363 17.428C35.8416 17.9267 34.8443 18.176 33.7443 18.176C32.2336 18.176 31.0456 17.6993 30.1803 16.746V22.268H26.7483V6.164H30.0263V7.528C30.8769 6.50133 32.1163 5.988 33.7443 5.988ZM33.1503 15.36C34.0303 15.36 34.7489 15.0667 35.3063 14.48C35.8783 13.8787 36.1643 13.0793 36.1643 12.082C36.1643 11.0847 35.8783 10.2927 35.3063 9.706C34.7489 9.10467 34.0303 8.804 33.1503 8.804C32.2703 8.804 31.5443 9.10467 30.9723 9.706C30.4149 10.2927 30.1363 11.0847 30.1363 12.082C30.1363 13.0793 30.4149 13.8787 30.9723 14.48C31.5443 15.0667 32.2703 15.36 33.1503 15.36ZM53.0917 12.126C53.0917 12.17 53.0697 12.478 53.0257 13.05H44.0717C44.233 13.7833 44.6144 14.3627 45.2157 14.788C45.817 15.2133 46.565 15.426 47.4597 15.426C48.0757 15.426 48.6184 15.338 49.0877 15.162C49.5717 14.9713 50.019 14.678 50.4297 14.282L52.2557 16.262C51.141 17.538 49.513 18.176 47.3717 18.176C46.037 18.176 44.8564 17.9193 43.8297 17.406C42.803 16.878 42.011 16.152 41.4537 15.228C40.8964 14.304 40.6177 13.2553 40.6177 12.082C40.6177 10.9233 40.889 9.882 41.4317 8.958C41.989 8.01933 42.7444 7.29333 43.6977 6.78C44.6657 6.252 45.7437 5.988 46.9317 5.988C48.0904 5.988 49.139 6.23733 50.0777 6.736C51.0164 7.23467 51.7497 7.95333 52.2777 8.892C52.8204 9.816 53.0917 10.894 53.0917 12.126ZM46.9537 8.584C46.1764 8.584 45.5237 8.804 44.9957 9.244C44.4677 9.684 44.145 10.2853 44.0277 11.048H49.8577C49.7404 10.3 49.4177 9.706 48.8897 9.266C48.3617 8.81133 47.7164 8.584 46.9537 8.584ZM58.9186 18.176C57.936 18.176 56.9753 18.0587 56.0366 17.824C55.098 17.5747 54.35 17.2667 53.7926 16.9L54.9366 14.436C55.4646 14.7733 56.1026 15.052 56.8506 15.272C57.5986 15.4773 58.332 15.58 59.0506 15.58C60.5026 15.58 61.2286 15.2207 61.2286 14.502C61.2286 14.1647 61.0306 13.9227 60.6346 13.776C60.2386 13.6293 59.63 13.5047 58.8086 13.402C57.8406 13.2553 57.0413 13.0867 56.4106 12.896C55.78 12.7053 55.23 12.368 54.7606 11.884C54.306 11.4 54.0786 10.7107 54.0786 9.816C54.0786 9.068 54.2913 8.408 54.7166 7.836C55.1566 7.24933 55.7873 6.79467 56.6086 6.472C57.4446 6.14933 58.4273 5.988 59.5566 5.988C60.3926 5.988 61.2213 6.08333 62.0426 6.274C62.8786 6.45 63.568 6.69933 64.1106 7.022L62.9666 9.464C61.9253 8.87733 60.7886 8.584 59.5566 8.584C58.8233 8.584 58.2733 8.68667 57.9066 8.892C57.54 9.09733 57.3566 9.36133 57.3566 9.684C57.3566 10.0507 57.5546 10.3073 57.9506 10.454C58.3466 10.6007 58.9773 10.74 59.8426 10.872C60.8106 11.0333 61.6026 11.2093 62.2186 11.4C62.8346 11.576 63.37 11.906 63.8246 12.39C64.2793 12.874 64.5066 13.5487 64.5066 14.414C64.5066 15.1473 64.2866 15.8 63.8466 16.372C63.4066 16.944 62.7613 17.3913 61.9106 17.714C61.0746 18.022 60.0773 18.176 58.9186 18.176ZM77.6066 18.176C76.3599 18.176 75.2379 17.9193 74.2406 17.406C73.2579 16.878 72.4879 16.152 71.9306 15.228C71.3733 14.304 71.0946 13.2553 71.0946 12.082C71.0946 10.9087 71.3733 9.86 71.9306 8.936C72.4879 8.012 73.2579 7.29333 74.2406 6.78C75.2379 6.252 76.3599 5.988 77.6066 5.988C78.8533 5.988 79.9679 6.252 80.9506 6.78C81.9333 7.29333 82.7033 8.012 83.2606 8.936C83.8179 9.86 84.0966 10.9087 84.0966 12.082C84.0966 13.2553 83.8179 14.304 83.2606 15.228C82.7033 16.152 81.9333 16.878 80.9506 17.406C79.9679 17.9193 78.8533 18.176 77.6066 18.176ZM77.6066 15.36C78.4866 15.36 79.2053 15.0667 79.7626 14.48C80.3346 13.8787 80.6206 13.0793 80.6206 12.082C80.6206 11.0847 80.3346 10.2927 79.7626 9.706C79.2053 9.10467 78.4866 8.804 77.6066 8.804C76.7266 8.804 76.0006 9.10467 75.4286 9.706C74.8566 10.2927 74.5706 11.0847 74.5706 12.082C74.5706 13.0793 74.8566 13.8787 75.4286 14.48C76.0006 15.0667 76.7266 15.36 77.6066 15.36ZM89.7126 6.428H92.7486V9.068H89.8006V18H86.3686V9.068H84.5426V6.428H86.3686V5.9C86.3686 4.55067 86.7646 3.48 87.5566 2.688C88.3633 1.896 89.4926 1.5 90.9446 1.5C91.4579 1.5 91.9419 1.55867 92.3966 1.676C92.8659 1.77867 93.2546 1.93267 93.5626 2.138L92.6606 4.624C92.2646 4.34533 91.8026 4.206 91.2746 4.206C90.2333 4.206 89.7126 4.778 89.7126 5.922V6.428ZM114.065 18L114.043 8.76L109.511 16.372H107.905L103.395 8.958V18H100.051V2.6H102.999L108.763 12.17L114.439 2.6H117.365L117.409 18H114.065ZM131.975 12.126C131.975 12.17 131.953 12.478 131.909 13.05H122.955C123.116 13.7833 123.497 14.3627 124.099 14.788C124.7 15.2133 125.448 15.426 126.343 15.426C126.959 15.426 127.501 15.338 127.971 15.162C128.455 14.9713 128.902 14.678 129.313 14.282L131.139 16.262C130.024 17.538 128.396 18.176 126.255 18.176C124.92 18.176 123.739 17.9193 122.713 17.406C121.686 16.878 120.894 16.152 120.337 15.228C119.779 14.304 119.501 13.2553 119.501 12.082C119.501 10.9233 119.772 9.882 120.315 8.958C120.872 8.01933 121.627 7.29333 122.581 6.78C123.549 6.252 124.627 5.988 125.815 5.988C126.973 5.988 128.022 6.23733 128.961 6.736C129.899 7.23467 130.633 7.95333 131.161 8.892C131.703 9.816 131.975 10.894 131.975 12.126ZM125.837 8.584C125.059 8.584 124.407 8.804 123.879 9.244C123.351 9.684 123.028 10.2853 122.911 11.048H128.741C128.623 10.3 128.301 9.706 127.773 9.266C127.245 8.81133 126.599 8.584 125.837 8.584ZM148.978 5.988C150.459 5.988 151.632 6.428 152.498 7.308C153.378 8.17333 153.818 9.47867 153.818 11.224V18H150.386V11.752C150.386 10.8133 150.188 10.1167 149.792 9.662C149.41 9.19267 148.86 8.958 148.142 8.958C147.335 8.958 146.697 9.222 146.228 9.75C145.758 10.2633 145.524 11.0333 145.524 12.06V18H142.092V11.752C142.092 9.88933 141.344 8.958 139.848 8.958C139.056 8.958 138.425 9.222 137.956 9.75C137.486 10.2633 137.252 11.0333 137.252 12.06V18H133.82V6.164H137.098V7.528C137.538 7.02933 138.073 6.648 138.704 6.384C139.349 6.12 140.053 5.988 140.816 5.988C141.652 5.988 142.407 6.15667 143.082 6.494C143.756 6.81667 144.299 7.29333 144.71 7.924C145.194 7.308 145.802 6.83133 146.536 6.494C147.284 6.15667 148.098 5.988 148.978 5.988ZM163.45 5.988C164.55 5.988 165.547 6.24467 166.442 6.758C167.351 7.25667 168.062 7.968 168.576 8.892C169.089 9.80133 169.346 10.8647 169.346 12.082C169.346 13.2993 169.089 14.37 168.576 15.294C168.062 16.2033 167.351 16.9147 166.442 17.428C165.547 17.9267 164.55 18.176 163.45 18.176C161.822 18.176 160.582 17.6627 159.732 16.636V18H156.454V1.676H159.886V7.418C160.751 6.46467 161.939 5.988 163.45 5.988ZM162.856 15.36C163.736 15.36 164.454 15.0667 165.012 14.48C165.584 13.8787 165.87 13.0793 165.87 12.082C165.87 11.0847 165.584 10.2927 165.012 9.706C164.454 9.10467 163.736 8.804 162.856 8.804C161.976 8.804 161.25 9.10467 160.678 9.706C160.12 10.2927 159.842 11.0847 159.842 12.082C159.842 13.0793 160.12 13.8787 160.678 14.48C161.25 15.0667 161.976 15.36 162.856 15.36ZM182.797 12.126C182.797 12.17 182.775 12.478 182.731 13.05H173.777C173.939 13.7833 174.32 14.3627 174.921 14.788C175.523 15.2133 176.271 15.426 177.165 15.426C177.781 15.426 178.324 15.338 178.793 15.162C179.277 14.9713 179.725 14.678 180.135 14.282L181.961 16.262C180.847 17.538 179.219 18.176 177.077 18.176C175.743 18.176 174.562 17.9193 173.535 17.406C172.509 16.878 171.717 16.152 171.159 15.228C170.602 14.304 170.323 13.2553 170.323 12.082C170.323 10.9233 170.595 9.882 171.137 8.958C171.695 8.01933 172.45 7.29333 173.403 6.78C174.371 6.252 175.449 5.988 176.637 5.988C177.796 5.988 178.845 6.23733 179.783 6.736C180.722 7.23467 181.455 7.95333 181.983 8.892C182.526 9.816 182.797 10.894 182.797 12.126ZM176.659 8.584C175.882 8.584 175.229 8.804 174.701 9.244C174.173 9.684 173.851 10.2853 173.733 11.048H179.563C179.446 10.3 179.123 9.706 178.595 9.266C178.067 8.81133 177.422 8.584 176.659 8.584ZM187.92 7.726C188.331 7.154 188.881 6.72133 189.57 6.428C190.274 6.13467 191.081 5.988 191.99 5.988V9.156C191.609 9.12667 191.352 9.112 191.22 9.112C190.237 9.112 189.467 9.39067 188.91 9.948C188.353 10.4907 188.074 11.312 188.074 12.412V18H184.642V6.164H187.92V7.726ZM197.616 18.176C196.633 18.176 195.672 18.0587 194.734 17.824C193.795 17.5747 193.047 17.2667 192.49 16.9L193.634 14.436C194.162 14.7733 194.8 15.052 195.548 15.272C196.296 15.4773 197.029 15.58 197.748 15.58C199.2 15.58 199.926 15.2207 199.926 14.502C199.926 14.1647 199.728 13.9227 199.332 13.776C198.936 13.6293 198.327 13.5047 197.506 13.402C196.538 13.2553 195.738 13.0867 195.108 12.896C194.477 12.7053 193.927 12.368 193.458 11.884C193.003 11.4 192.776 10.7107 192.776 9.816C192.776 9.068 192.988 8.408 193.414 7.836C193.854 7.24933 194.484 6.79467 195.306 6.472C196.142 6.14933 197.124 5.988 198.254 5.988C199.09 5.988 199.918 6.08333 200.74 6.274C201.576 6.45 202.265 6.69933 202.808 7.022L201.664 9.464C200.622 8.87733 199.486 8.584 198.254 8.584C197.52 8.584 196.97 8.68667 196.604 8.892C196.237 9.09733 196.054 9.36133 196.054 9.684C196.054 10.0507 196.252 10.3073 196.648 10.454C197.044 10.6007 197.674 10.74 198.54 10.872C199.508 11.0333 200.3 11.2093 200.916 11.4C201.532 11.576 202.067 11.906 202.522 12.39C202.976 12.874 203.204 13.5487 203.204 14.414C203.204 15.1473 202.984 15.8 202.544 16.372C202.104 16.944 201.458 17.3913 200.608 17.714C199.772 18.022 198.774 18.176 197.616 18.176ZM212.075 5.988C213.542 5.988 214.723 6.428 215.617 7.308C216.527 8.188 216.981 9.49333 216.981 11.224V18H213.549V11.752C213.549 10.8133 213.344 10.1167 212.933 9.662C212.523 9.19267 211.929 8.958 211.151 8.958C210.286 8.958 209.597 9.22933 209.083 9.772C208.57 10.3 208.313 11.092 208.313 12.148V18H204.881V1.676H208.313V7.396C208.768 6.94133 209.318 6.59667 209.963 6.362C210.609 6.11267 211.313 5.988 212.075 5.988ZM219.652 6.164H223.084V18H219.652V6.164ZM221.368 4.514C220.738 4.514 220.224 4.33067 219.828 3.964C219.432 3.59733 219.234 3.14267 219.234 2.6C219.234 2.05733 219.432 1.60267 219.828 1.236C220.224 0.869332 220.738 0.685999 221.368 0.685999C221.999 0.685999 222.512 0.861999 222.908 1.214C223.304 1.566 223.502 2.006 223.502 2.534C223.502 3.106 223.304 3.58267 222.908 3.964C222.512 4.33067 221.999 4.514 221.368 4.514ZM232.825 5.988C233.925 5.988 234.923 6.24467 235.817 6.758C236.727 7.25667 237.438 7.968 237.951 8.892C238.465 9.80133 238.721 10.8647 238.721 12.082C238.721 13.2993 238.465 14.37 237.951 15.294C237.438 16.2033 236.727 16.9147 235.817 17.428C234.923 17.9267 233.925 18.176 232.825 18.176C231.315 18.176 230.127 17.6993 229.261 16.746V22.268H225.829V6.164H229.107V7.528C229.958 6.50133 231.197 5.988 232.825 5.988ZM232.231 15.36C233.111 15.36 233.83 15.0667 234.387 14.48C234.959 13.8787 235.245 13.0793 235.245 12.082C235.245 11.0847 234.959 10.2927 234.387 9.706C233.83 9.10467 233.111 8.804 232.231 8.804C231.351 8.804 230.625 9.10467 230.053 9.706C229.496 10.2927 229.217 11.0847 229.217 12.082C229.217 13.0793 229.496 13.8787 230.053 14.48C230.625 15.0667 231.351 15.36 232.231 15.36Z" fill="white"/>
</svg>
