<svg width="598" height="56" viewBox="0 0 598 56" fill="none" xmlns="http://www.w3.org/2000/svg">
<path d="M13.303 12.76H0.983V5.5H34.533V12.76H22.213V44H13.303V12.76ZM65.2196 14.41L51.8546 45.815C50.4979 49.225 48.8112 51.6267 46.7946 53.02C44.8146 54.4133 42.4129 55.11 39.5896 55.11C38.0496 55.11 36.5279 54.8717 35.0246 54.395C33.5212 53.9183 32.2929 53.2583 31.3396 52.415L34.4746 46.31C35.1346 46.8967 35.8862 47.355 36.7296 47.685C37.6096 48.015 38.4712 48.18 39.3146 48.18C40.4879 48.18 41.4412 47.8867 42.1746 47.3C42.9079 46.75 43.5679 45.815 44.1546 44.495L44.2646 44.22L31.4496 14.41H40.3046L48.6096 34.485L56.9696 14.41H65.2196ZM85.1107 13.97C87.8607 13.97 90.354 14.6117 92.5907 15.895C94.864 17.1417 96.6423 18.92 97.9257 21.23C99.209 23.5033 99.8507 26.1617 99.8507 29.205C99.8507 32.2483 99.209 34.925 97.9257 37.235C96.6423 39.5083 94.864 41.2867 92.5907 42.57C90.354 43.8167 87.8607 44.44 85.1107 44.44C81.334 44.44 78.364 43.2483 76.2007 40.865V54.67H67.6207V14.41H75.8157V17.82C77.9423 15.2533 81.0407 13.97 85.1107 13.97ZM83.6257 37.4C85.8257 37.4 87.6223 36.6667 89.0157 35.2C90.4457 33.6967 91.1607 31.6983 91.1607 29.205C91.1607 26.7117 90.4457 24.7317 89.0157 23.265C87.6223 21.7617 85.8257 21.01 83.6257 21.01C81.4257 21.01 79.6107 21.7617 78.1807 23.265C76.7873 24.7317 76.0907 26.7117 76.0907 29.205C76.0907 31.6983 76.7873 33.6967 78.1807 35.2C79.6107 36.6667 81.4257 37.4 83.6257 37.4ZM133.479 29.315C133.479 29.425 133.424 30.195 133.314 31.625H110.929C111.333 33.4583 112.286 34.9067 113.789 35.97C115.293 37.0333 117.163 37.565 119.399 37.565C120.939 37.565 122.296 37.345 123.469 36.905C124.679 36.4283 125.798 35.695 126.824 34.705L131.389 39.655C128.603 42.845 124.533 44.44 119.179 44.44C115.843 44.44 112.891 43.7983 110.324 42.515C107.758 41.195 105.778 39.38 104.384 37.07C102.991 34.76 102.294 32.1383 102.294 29.205C102.294 26.3083 102.973 23.705 104.329 21.395C105.723 19.0483 107.611 17.2333 109.994 15.95C112.414 14.63 115.109 13.97 118.079 13.97C120.976 13.97 123.598 14.5933 125.944 15.84C128.291 17.0867 130.124 18.8833 131.444 21.23C132.801 23.54 133.479 26.235 133.479 29.315ZM118.134 20.46C116.191 20.46 114.559 21.01 113.239 22.11C111.919 23.21 111.113 24.7133 110.819 26.62H125.394C125.101 24.75 124.294 23.265 122.974 22.165C121.654 21.0283 120.041 20.46 118.134 20.46ZM148.047 44.44C145.59 44.44 143.188 44.1467 140.842 43.56C138.495 42.9367 136.625 42.1667 135.232 41.25L138.092 35.09C139.412 35.9333 141.007 36.63 142.877 37.18C144.747 37.6933 146.58 37.95 148.377 37.95C152.007 37.95 153.822 37.0517 153.822 35.255C153.822 34.4117 153.327 33.8067 152.337 33.44C151.347 33.0733 149.825 32.7617 147.772 32.505C145.352 32.1383 143.353 31.7167 141.777 31.24C140.2 30.7633 138.825 29.92 137.652 28.71C136.515 27.5 135.947 25.7767 135.947 23.54C135.947 21.67 136.478 20.02 137.542 18.59C138.642 17.1233 140.218 15.9867 142.272 15.18C144.362 14.3733 146.818 13.97 149.642 13.97C151.732 13.97 153.803 14.2083 155.857 14.685C157.947 15.125 159.67 15.7483 161.027 16.555L158.167 22.66C155.563 21.1933 152.722 20.46 149.642 20.46C147.808 20.46 146.433 20.7167 145.517 21.23C144.6 21.7433 144.142 22.4033 144.142 23.21C144.142 24.1267 144.637 24.7683 145.627 25.135C146.617 25.5017 148.193 25.85 150.357 26.18C152.777 26.5833 154.757 27.0233 156.297 27.5C157.837 27.94 159.175 28.765 160.312 29.975C161.448 31.185 162.017 32.8717 162.017 35.035C162.017 36.8683 161.467 38.5 160.367 39.93C159.267 41.36 157.653 42.4783 155.527 43.285C153.437 44.055 150.943 44.44 148.047 44.44ZM194.766 44.44C191.65 44.44 188.845 43.7983 186.351 42.515C183.895 41.195 181.97 39.38 180.576 37.07C179.183 34.76 178.486 32.1383 178.486 29.205C178.486 26.2717 179.183 23.65 180.576 21.34C181.97 19.03 183.895 17.2333 186.351 15.95C188.845 14.63 191.65 13.97 194.766 13.97C197.883 13.97 200.67 14.63 203.126 15.95C205.583 17.2333 207.508 19.03 208.901 21.34C210.295 23.65 210.991 26.2717 210.991 29.205C210.991 32.1383 210.295 34.76 208.901 37.07C207.508 39.38 205.583 41.195 203.126 42.515C200.67 43.7983 197.883 44.44 194.766 44.44ZM194.766 37.4C196.966 37.4 198.763 36.6667 200.156 35.2C201.586 33.6967 202.301 31.6983 202.301 29.205C202.301 26.7117 201.586 24.7317 200.156 23.265C198.763 21.7617 196.966 21.01 194.766 21.01C192.566 21.01 190.751 21.7617 189.321 23.265C187.891 24.7317 187.176 26.7117 187.176 29.205C187.176 31.6983 187.891 33.6967 189.321 35.2C190.751 36.6667 192.566 37.4 194.766 37.4ZM225.032 15.07H232.622V21.67H225.252V44H216.672V21.67H212.107V15.07H216.672V13.75C216.672 10.3767 217.662 7.7 219.642 5.72C221.658 3.74 224.482 2.75 228.112 2.75C229.395 2.75 230.605 2.89666 231.742 3.19C232.915 3.44667 233.887 3.83167 234.657 4.345L232.402 10.56C231.412 9.86333 230.257 9.515 228.937 9.515C226.333 9.515 225.032 10.945 225.032 13.805V15.07ZM285.912 44L285.857 20.9L274.527 39.93H270.512L259.237 21.395V44H250.877V5.5H258.247L272.657 29.425L286.847 5.5H294.162L294.272 44H285.912ZM330.687 29.315C330.687 29.425 330.632 30.195 330.522 31.625H308.137C308.54 33.4583 309.493 34.9067 310.997 35.97C312.5 37.0333 314.37 37.565 316.607 37.565C318.147 37.565 319.503 37.345 320.677 36.905C321.887 36.4283 323.005 35.695 324.032 34.705L328.597 39.655C325.81 42.845 321.74 44.44 316.387 44.44C313.05 44.44 310.098 43.7983 307.532 42.515C304.965 41.195 302.985 39.38 301.592 37.07C300.198 34.76 299.502 32.1383 299.502 29.205C299.502 26.3083 300.18 23.705 301.537 21.395C302.93 19.0483 304.818 17.2333 307.202 15.95C309.622 14.63 312.317 13.97 315.287 13.97C318.183 13.97 320.805 14.5933 323.152 15.84C325.498 17.0867 327.332 18.8833 328.652 21.23C330.008 23.54 330.687 26.235 330.687 29.315ZM315.342 20.46C313.398 20.46 311.767 21.01 310.447 22.11C309.127 23.21 308.32 24.7133 308.027 26.62H322.602C322.308 24.75 321.502 23.265 320.182 22.165C318.862 21.0283 317.248 20.46 315.342 20.46ZM373.194 13.97C376.897 13.97 379.83 15.07 381.994 17.27C384.194 19.4333 385.294 22.6967 385.294 27.06V44H376.714V28.38C376.714 26.0333 376.219 24.2917 375.229 23.155C374.275 21.9817 372.9 21.395 371.104 21.395C369.087 21.395 367.492 22.055 366.319 23.375C365.145 24.6583 364.559 26.5833 364.559 29.15V44H355.979V28.38C355.979 23.7233 354.109 21.395 350.369 21.395C348.389 21.395 346.812 22.055 345.639 23.375C344.465 24.6583 343.879 26.5833 343.879 29.15V44H335.299V14.41H343.494V17.82C344.594 16.5733 345.932 15.62 347.509 14.96C349.122 14.3 350.882 13.97 352.789 13.97C354.879 13.97 356.767 14.3917 358.454 15.235C360.14 16.0417 361.497 17.2333 362.524 18.81C363.734 17.27 365.255 16.0783 367.089 15.235C368.959 14.3917 370.994 13.97 373.194 13.97ZM409.374 13.97C412.124 13.97 414.618 14.6117 416.854 15.895C419.128 17.1417 420.906 18.92 422.189 21.23C423.473 23.5033 424.114 26.1617 424.114 29.205C424.114 32.2483 423.473 34.925 422.189 37.235C420.906 39.5083 419.128 41.2867 416.854 42.57C414.618 43.8167 412.124 44.44 409.374 44.44C405.304 44.44 402.206 43.1567 400.079 40.59V44H391.884V3.19H400.464V17.545C402.628 15.1617 405.598 13.97 409.374 13.97ZM407.889 37.4C410.089 37.4 411.886 36.6667 413.279 35.2C414.709 33.6967 415.424 31.6983 415.424 29.205C415.424 26.7117 414.709 24.7317 413.279 23.265C411.886 21.7617 410.089 21.01 407.889 21.01C405.689 21.01 403.874 21.7617 402.444 23.265C401.051 24.7317 400.354 26.7117 400.354 29.205C400.354 31.6983 401.051 33.6967 402.444 35.2C403.874 36.6667 405.689 37.4 407.889 37.4ZM457.743 29.315C457.743 29.425 457.688 30.195 457.578 31.625H435.193C435.596 33.4583 436.55 34.9067 438.053 35.97C439.556 37.0333 441.426 37.565 443.663 37.565C445.203 37.565 446.56 37.345 447.733 36.905C448.943 36.4283 450.061 35.695 451.088 34.705L455.653 39.655C452.866 42.845 448.796 44.44 443.443 44.44C440.106 44.44 437.155 43.7983 434.588 42.515C432.021 41.195 430.041 39.38 428.648 37.07C427.255 34.76 426.558 32.1383 426.558 29.205C426.558 26.3083 427.236 23.705 428.593 21.395C429.986 19.0483 431.875 17.2333 434.258 15.95C436.678 14.63 439.373 13.97 442.343 13.97C445.24 13.97 447.861 14.5933 450.208 15.84C452.555 17.0867 454.388 18.8833 455.708 21.23C457.065 23.54 457.743 26.235 457.743 29.315ZM442.398 20.46C440.455 20.46 438.823 21.01 437.503 22.11C436.183 23.21 435.376 24.7133 435.083 26.62H449.658C449.365 24.75 448.558 23.265 447.238 22.165C445.918 21.0283 444.305 20.46 442.398 20.46ZM470.55 18.315C471.577 16.885 472.952 15.8033 474.675 15.07C476.435 14.3367 478.452 13.97 480.725 13.97V21.89C479.772 21.8167 479.13 21.78 478.8 21.78C476.344 21.78 474.419 22.4767 473.025 23.87C471.632 25.2267 470.935 27.28 470.935 30.03V44H462.355V14.41H470.55V18.315ZM494.789 44.44C492.333 44.44 489.931 44.1467 487.584 43.56C485.238 42.9367 483.368 42.1667 481.974 41.25L484.834 35.09C486.154 35.9333 487.749 36.63 489.619 37.18C491.489 37.6933 493.323 37.95 495.119 37.95C498.749 37.95 500.564 37.0517 500.564 35.255C500.564 34.4117 500.069 33.8067 499.079 33.44C498.089 33.0733 496.568 32.7617 494.514 32.505C492.094 32.1383 490.096 31.7167 488.519 31.24C486.943 30.7633 485.568 29.92 484.394 28.71C483.258 27.5 482.689 25.7767 482.689 23.54C482.689 21.67 483.221 20.02 484.284 18.59C485.384 17.1233 486.961 15.9867 489.014 15.18C491.104 14.3733 493.561 13.97 496.384 13.97C498.474 13.97 500.546 14.2083 502.599 14.685C504.689 15.125 506.413 15.7483 507.769 16.555L504.909 22.66C502.306 21.1933 499.464 20.46 496.384 20.46C494.551 20.46 493.176 20.7167 492.259 21.23C491.343 21.7433 490.884 22.4033 490.884 23.21C490.884 24.1267 491.379 24.7683 492.369 25.135C493.359 25.5017 494.936 25.85 497.099 26.18C499.519 26.5833 501.499 27.0233 503.039 27.5C504.579 27.94 505.918 28.765 507.054 29.975C508.191 31.185 508.759 32.8717 508.759 35.035C508.759 36.8683 508.209 38.5 507.109 39.93C506.009 41.36 504.396 42.4783 502.269 43.285C500.179 44.055 497.686 44.44 494.789 44.44ZM530.938 13.97C534.605 13.97 537.556 15.07 539.793 17.27C542.066 19.47 543.203 22.7333 543.203 27.06V44H534.623V28.38C534.623 26.0333 534.11 24.2917 533.083 23.155C532.056 21.9817 530.571 21.395 528.628 21.395C526.465 21.395 524.741 22.0733 523.458 23.43C522.175 24.75 521.533 26.73 521.533 29.37V44H512.953V3.19H521.533V17.49C522.67 16.3533 524.045 15.4917 525.658 14.905C527.271 14.2817 529.031 13.97 530.938 13.97ZM549.88 14.41H558.46V44H549.88V14.41ZM554.17 10.285C552.594 10.285 551.31 9.82667 550.32 8.91C549.33 7.99333 548.835 6.85666 548.835 5.5C548.835 4.14333 549.33 3.00666 550.32 2.09C551.31 1.17333 552.594 0.714997 554.17 0.714997C555.747 0.714997 557.03 1.155 558.02 2.035C559.01 2.915 559.505 4.015 559.505 5.335C559.505 6.765 559.01 7.95667 558.02 8.91C557.03 9.82667 555.747 10.285 554.17 10.285ZM582.813 13.97C585.563 13.97 588.057 14.6117 590.293 15.895C592.567 17.1417 594.345 18.92 595.628 21.23C596.912 23.5033 597.553 26.1617 597.553 29.205C597.553 32.2483 596.912 34.925 595.628 37.235C594.345 39.5083 592.567 41.2867 590.293 42.57C588.057 43.8167 585.563 44.44 582.813 44.44C579.037 44.44 576.067 43.2483 573.903 40.865V54.67H565.323V14.41H573.518V17.82C575.645 15.2533 578.743 13.97 582.813 13.97ZM581.328 37.4C583.528 37.4 585.325 36.6667 586.718 35.2C588.148 33.6967 588.863 31.6983 588.863 29.205C588.863 26.7117 588.148 24.7317 586.718 23.265C585.325 21.7617 583.528 21.01 581.328 21.01C579.128 21.01 577.313 21.7617 575.883 23.265C574.49 24.7317 573.793 26.7117 573.793 29.205C573.793 31.6983 574.49 33.6967 575.883 35.2C577.313 36.6667 579.128 37.4 581.328 37.4Z" fill="white"/>
</svg>
