<svg width="869" height="80" viewBox="0 0 869 80" fill="none" xmlns="http://www.w3.org/2000/svg">
<path d="M18.24 17.56H0.32V7H49.12V17.56H31.2V63H18.24V17.56ZM93.755 19.96L74.315 65.64C72.3417 70.6 69.8883 74.0933 66.955 76.12C64.075 78.1467 60.5817 79.16 56.475 79.16C54.235 79.16 52.0217 78.8133 49.835 78.12C47.6483 77.4267 45.8617 76.4667 44.475 75.24L49.035 66.36C49.995 67.2133 51.0883 67.88 52.315 68.36C53.595 68.84 54.8483 69.08 56.075 69.08C57.7817 69.08 59.1683 68.6533 60.235 67.8C61.3017 67 62.2617 65.64 63.115 63.72L63.275 63.32L44.635 19.96H57.515L69.595 49.16L81.755 19.96H93.755ZM122.688 19.32C126.688 19.32 130.314 20.2533 133.568 22.12C136.874 23.9333 139.461 26.52 141.328 29.88C143.194 33.1867 144.128 37.0533 144.128 41.48C144.128 45.9067 143.194 49.8 141.328 53.16C139.461 56.4667 136.874 59.0533 133.568 60.92C130.314 62.7333 126.688 63.64 122.688 63.64C117.194 63.64 112.874 61.9067 109.728 58.44V78.52H97.2475V19.96H109.168V24.92C112.261 21.1867 116.768 19.32 122.688 19.32ZM120.528 53.4C123.728 53.4 126.341 52.3333 128.368 50.2C130.448 48.0133 131.488 45.1067 131.488 41.48C131.488 37.8533 130.448 34.9733 128.368 32.84C126.341 30.6533 123.728 29.56 120.528 29.56C117.328 29.56 114.688 30.6533 112.608 32.84C110.581 34.9733 109.568 37.8533 109.568 41.48C109.568 45.1067 110.581 48.0133 112.608 50.2C114.688 52.3333 117.328 53.4 120.528 53.4ZM193.042 41.64C193.042 41.8 192.962 42.92 192.802 45H160.242C160.829 47.6667 162.215 49.7733 164.402 51.32C166.589 52.8667 169.309 53.64 172.562 53.64C174.802 53.64 176.775 53.32 178.482 52.68C180.242 51.9867 181.869 50.92 183.362 49.48L190.002 56.68C185.949 61.32 180.029 63.64 172.242 63.64C167.389 63.64 163.095 62.7067 159.362 60.84C155.629 58.92 152.749 56.28 150.722 52.92C148.695 49.56 147.682 45.7467 147.682 41.48C147.682 37.2667 148.669 33.48 150.642 30.12C152.669 26.7067 155.415 24.0667 158.882 22.2C162.402 20.28 166.322 19.32 170.642 19.32C174.855 19.32 178.669 20.2267 182.082 22.04C185.495 23.8533 188.162 26.4667 190.082 29.88C192.055 33.24 193.042 37.16 193.042 41.64ZM170.722 28.76C167.895 28.76 165.522 29.56 163.602 31.16C161.682 32.76 160.509 34.9467 160.082 37.72H181.282C180.855 35 179.682 32.84 177.762 31.24C175.842 29.5867 173.495 28.76 170.722 28.76ZM214.231 63.64C210.657 63.64 207.164 63.2133 203.751 62.36C200.337 61.4533 197.617 60.3333 195.591 59L199.751 50.04C201.671 51.2667 203.991 52.28 206.711 53.08C209.431 53.8267 212.097 54.2 214.711 54.2C219.991 54.2 222.631 52.8933 222.631 50.28C222.631 49.0533 221.911 48.1733 220.471 47.64C219.031 47.1067 216.817 46.6533 213.831 46.28C210.311 45.7467 207.404 45.1333 205.111 44.44C202.817 43.7467 200.817 42.52 199.111 40.76C197.457 39 196.631 36.4933 196.631 33.24C196.631 30.52 197.404 28.12 198.951 26.04C200.551 23.9067 202.844 22.2533 205.831 21.08C208.871 19.9067 212.444 19.32 216.551 19.32C219.591 19.32 222.604 19.6667 225.591 20.36C228.631 21 231.137 21.9067 233.111 23.08L228.951 31.96C225.164 29.8267 221.031 28.76 216.551 28.76C213.884 28.76 211.884 29.1333 210.551 29.88C209.217 30.6267 208.551 31.5867 208.551 32.76C208.551 34.0933 209.271 35.0267 210.711 35.56C212.151 36.0933 214.444 36.6 217.591 37.08C221.111 37.6667 223.991 38.3067 226.231 39C228.471 39.64 230.417 40.84 232.071 42.6C233.724 44.36 234.551 46.8133 234.551 49.96C234.551 52.6267 233.751 55 232.151 57.08C230.551 59.16 228.204 60.7867 225.111 61.96C222.071 63.08 218.444 63.64 214.231 63.64ZM282.187 63.64C277.654 63.64 273.574 62.7067 269.947 60.84C266.374 58.92 263.574 56.28 261.547 52.92C259.52 49.56 258.507 45.7467 258.507 41.48C258.507 37.2133 259.52 33.4 261.547 30.04C263.574 26.68 266.374 24.0667 269.947 22.2C273.574 20.28 277.654 19.32 282.187 19.32C286.72 19.32 290.774 20.28 294.347 22.2C297.92 24.0667 300.72 26.68 302.747 30.04C304.774 33.4 305.787 37.2133 305.787 41.48C305.787 45.7467 304.774 49.56 302.747 52.92C300.72 56.28 297.92 58.92 294.347 60.84C290.774 62.7067 286.72 63.64 282.187 63.64ZM282.187 53.4C285.387 53.4 288 52.3333 290.027 50.2C292.107 48.0133 293.147 45.1067 293.147 41.48C293.147 37.8533 292.107 34.9733 290.027 32.84C288 30.6533 285.387 29.56 282.187 29.56C278.987 29.56 276.347 30.6533 274.267 32.84C272.187 34.9733 271.147 37.8533 271.147 41.48C271.147 45.1067 272.187 48.0133 274.267 50.2C276.347 52.3333 278.987 53.4 282.187 53.4ZM326.209 20.92H337.249V30.52H326.529V63H314.049V30.52H307.409V20.92H314.049V19C314.049 14.0933 315.489 10.2 318.369 7.32C321.302 4.44 325.409 3 330.689 3C332.555 3 334.315 3.21333 335.969 3.64C337.675 4.01333 339.089 4.57333 340.209 5.32L336.929 14.36C335.489 13.3467 333.809 12.84 331.889 12.84C328.102 12.84 326.209 14.92 326.209 19.08V20.92ZM414.763 63L414.683 29.4L398.203 57.08H392.363L375.963 30.12V63H363.803V7H374.523L395.483 41.8L416.123 7H426.763L426.923 63H414.763ZM479.889 41.64C479.889 41.8 479.809 42.92 479.649 45H447.089C447.675 47.6667 449.062 49.7733 451.249 51.32C453.435 52.8667 456.155 53.64 459.409 53.64C461.649 53.64 463.622 53.32 465.329 52.68C467.089 51.9867 468.715 50.92 470.209 49.48L476.849 56.68C472.795 61.32 466.875 63.64 459.089 63.64C454.235 63.64 449.942 62.7067 446.209 60.84C442.475 58.92 439.595 56.28 437.569 52.92C435.542 49.56 434.529 45.7467 434.529 41.48C434.529 37.2667 435.515 33.48 437.489 30.12C439.515 26.7067 442.262 24.0667 445.729 22.2C449.249 20.28 453.169 19.32 457.489 19.32C461.702 19.32 465.515 20.2267 468.929 22.04C472.342 23.8533 475.009 26.4667 476.929 29.88C478.902 33.24 479.889 37.16 479.889 41.64ZM457.569 28.76C454.742 28.76 452.369 29.56 450.449 31.16C448.529 32.76 447.355 34.9467 446.929 37.72H468.129C467.702 35 466.529 32.84 464.609 31.24C462.689 29.5867 460.342 28.76 457.569 28.76ZM541.717 19.32C547.104 19.32 551.371 20.92 554.517 24.12C557.717 27.2667 559.317 32.0133 559.317 38.36V63H546.837V40.28C546.837 36.8667 546.117 34.3333 544.677 32.68C543.291 30.9733 541.291 30.12 538.677 30.12C535.744 30.12 533.424 31.08 531.717 33C530.011 34.8667 529.157 37.6667 529.157 41.4V63H516.677V40.28C516.677 33.5067 513.957 30.12 508.517 30.12C505.637 30.12 503.344 31.08 501.637 33C499.931 34.8667 499.077 37.6667 499.077 41.4V63H486.597V19.96H498.517V24.92C500.117 23.1067 502.064 21.72 504.357 20.76C506.704 19.8 509.264 19.32 512.037 19.32C515.077 19.32 517.824 19.9333 520.277 21.16C522.731 22.3333 524.704 24.0667 526.197 26.36C527.957 24.12 530.171 22.3867 532.837 21.16C535.557 19.9333 538.517 19.32 541.717 19.32ZM594.344 19.32C598.344 19.32 601.97 20.2533 605.224 22.12C608.53 23.9333 611.117 26.52 612.984 29.88C614.85 33.1867 615.784 37.0533 615.784 41.48C615.784 45.9067 614.85 49.8 612.984 53.16C611.117 56.4667 608.53 59.0533 605.224 60.92C601.97 62.7333 598.344 63.64 594.344 63.64C588.424 63.64 583.917 61.7733 580.824 58.04V63H568.904V3.64H581.384V24.52C584.53 21.0533 588.85 19.32 594.344 19.32ZM592.184 53.4C595.384 53.4 597.997 52.3333 600.024 50.2C602.104 48.0133 603.144 45.1067 603.144 41.48C603.144 37.8533 602.104 34.9733 600.024 32.84C597.997 30.6533 595.384 29.56 592.184 29.56C588.984 29.56 586.344 30.6533 584.264 32.84C582.237 34.9733 581.224 37.8533 581.224 41.48C581.224 45.1067 582.237 48.0133 584.264 50.2C586.344 52.3333 588.984 53.4 592.184 53.4ZM664.698 41.64C664.698 41.8 664.618 42.92 664.458 45H631.898C632.485 47.6667 633.871 49.7733 636.058 51.32C638.245 52.8667 640.965 53.64 644.218 53.64C646.458 53.64 648.431 53.32 650.138 52.68C651.898 51.9867 653.525 50.92 655.018 49.48L661.658 56.68C657.605 61.32 651.685 63.64 643.898 63.64C639.045 63.64 634.751 62.7067 631.018 60.84C627.285 58.92 624.405 56.28 622.378 52.92C620.351 49.56 619.338 45.7467 619.338 41.48C619.338 37.2667 620.325 33.48 622.298 30.12C624.325 26.7067 627.071 24.0667 630.538 22.2C634.058 20.28 637.978 19.32 642.298 19.32C646.511 19.32 650.325 20.2267 653.738 22.04C657.151 23.8533 659.818 26.4667 661.738 29.88C663.711 33.24 664.698 37.16 664.698 41.64ZM642.378 28.76C639.551 28.76 637.178 29.56 635.258 31.16C633.338 32.76 632.165 34.9467 631.738 37.72H652.938C652.511 35 651.338 32.84 649.418 31.24C647.498 29.5867 645.151 28.76 642.378 28.76ZM683.327 25.64C684.82 23.56 686.82 21.9867 689.327 20.92C691.887 19.8533 694.82 19.32 698.127 19.32V30.84C696.74 30.7333 695.807 30.68 695.327 30.68C691.754 30.68 688.954 31.6933 686.927 33.72C684.9 35.6933 683.887 38.68 683.887 42.68V63H671.407V19.96H683.327V25.64ZM718.584 63.64C715.01 63.64 711.517 63.2133 708.104 62.36C704.69 61.4533 701.97 60.3333 699.944 59L704.104 50.04C706.024 51.2667 708.344 52.28 711.064 53.08C713.784 53.8267 716.45 54.2 719.064 54.2C724.344 54.2 726.984 52.8933 726.984 50.28C726.984 49.0533 726.264 48.1733 724.824 47.64C723.384 47.1067 721.17 46.6533 718.184 46.28C714.664 45.7467 711.757 45.1333 709.464 44.44C707.17 43.7467 705.17 42.52 703.464 40.76C701.81 39 700.984 36.4933 700.984 33.24C700.984 30.52 701.757 28.12 703.304 26.04C704.904 23.9067 707.197 22.2533 710.184 21.08C713.224 19.9067 716.797 19.32 720.904 19.32C723.944 19.32 726.957 19.6667 729.944 20.36C732.984 21 735.49 21.9067 737.464 23.08L733.304 31.96C729.517 29.8267 725.384 28.76 720.904 28.76C718.237 28.76 716.237 29.1333 714.904 29.88C713.57 30.6267 712.904 31.5867 712.904 32.76C712.904 34.0933 713.624 35.0267 715.064 35.56C716.504 36.0933 718.797 36.6 721.944 37.08C725.464 37.6667 728.344 38.3067 730.584 39C732.824 39.64 734.77 40.84 736.424 42.6C738.077 44.36 738.904 46.8133 738.904 49.96C738.904 52.6267 738.104 55 736.504 57.08C734.904 59.16 732.557 60.7867 729.464 61.96C726.424 63.08 722.797 63.64 718.584 63.64ZM771.164 19.32C776.497 19.32 780.79 20.92 784.044 24.12C787.35 27.32 789.004 32.0667 789.004 38.36V63H776.524V40.28C776.524 36.8667 775.777 34.3333 774.284 32.68C772.79 30.9733 770.63 30.12 767.804 30.12C764.657 30.12 762.15 31.1067 760.284 33.08C758.417 35 757.484 37.88 757.484 41.72V63H745.004V3.64H757.484V24.44C759.137 22.7867 761.137 21.5333 763.484 20.68C765.83 19.7733 768.39 19.32 771.164 19.32ZM798.716 19.96H811.196V63H798.716V19.96ZM804.956 13.96C802.663 13.96 800.796 13.2933 799.356 11.96C797.916 10.6267 797.196 8.97333 797.196 7C797.196 5.02666 797.916 3.37333 799.356 2.04C800.796 0.706663 802.663 0.0399952 804.956 0.0399952C807.25 0.0399952 809.116 0.679996 810.556 1.96C811.996 3.24 812.716 4.84 812.716 6.76C812.716 8.84 811.996 10.5733 810.556 11.96C809.116 13.2933 807.25 13.96 804.956 13.96ZM846.619 19.32C850.619 19.32 854.245 20.2533 857.499 22.12C860.805 23.9333 863.392 26.52 865.259 29.88C867.125 33.1867 868.059 37.0533 868.059 41.48C868.059 45.9067 867.125 49.8 865.259 53.16C863.392 56.4667 860.805 59.0533 857.499 60.92C854.245 62.7333 850.619 63.64 846.619 63.64C841.125 63.64 836.805 61.9067 833.659 58.44V78.52H821.179V19.96H833.099V24.92C836.192 21.1867 840.699 19.32 846.619 19.32ZM844.459 53.4C847.659 53.4 850.272 52.3333 852.299 50.2C854.379 48.0133 855.419 45.1067 855.419 41.48C855.419 37.8533 854.379 34.9733 852.299 32.84C850.272 30.6533 847.659 29.56 844.459 29.56C841.259 29.56 838.619 30.6533 836.539 32.84C834.512 34.9733 833.499 37.8533 833.499 41.48C833.499 45.1067 834.512 48.0133 836.539 50.2C838.619 52.3333 841.259 53.4 844.459 53.4Z" fill="white"/>
</svg>
