<svg width="202" height="17" viewBox="0 0 202 17" fill="none" xmlns="http://www.w3.org/2000/svg">
<path d="M13.2993 1.31905C13.4319 1.0097 13.6234 0.781371 13.8738 0.634062C14.1243 0.472022 14.4041 0.391002 14.7135 0.391002C15.1554 0.391002 15.5532 0.538311 15.9067 0.83293C16.2602 1.12755 16.437 1.48846 16.437 1.91566C16.437 2.13662 16.3855 2.35758 16.2823 2.57855L10.3163 15.1735C10.1543 15.5123 9.91121 15.7775 9.58713 15.969C9.26305 16.1458 8.9095 16.2341 8.5265 16.2341C8.14349 16.2341 7.78995 16.1458 7.46587 15.969C7.14179 15.7775 6.89873 15.5123 6.73669 15.1735L0.770652 2.57855C0.667535 2.37231 0.615977 2.15872 0.615977 1.93775C0.615977 1.49582 0.800114 1.12755 1.16839 0.83293C1.53666 0.538311 1.94913 0.391002 2.40579 0.391002C2.71514 0.391002 2.99503 0.472022 3.24545 0.634062C3.51061 0.781371 3.70948 1.0097 3.84206 1.31905L8.57069 11.6602L13.2993 1.31905ZM24.1385 16.1016C23.6229 16.1016 23.2252 15.9616 22.9453 15.6817C22.6654 15.4018 22.5254 15.0041 22.5254 14.4885V2.13662C22.5254 1.62104 22.6654 1.2233 22.9453 0.943412C23.2252 0.663524 23.6229 0.52358 24.1385 0.52358H31.9606C33.0507 0.52358 33.5958 0.965508 33.5958 1.84937C33.5958 2.74795 33.0507 3.19725 31.9606 3.19725H25.8841V6.84316H31.5187C32.6088 6.84316 33.1538 7.29245 33.1538 8.19104C33.1538 9.0749 32.6088 9.51683 31.5187 9.51683H25.8841V13.4279H31.9606C33.0507 13.4279 33.5958 13.8772 33.5958 14.7758C33.5958 15.6596 33.0507 16.1016 31.9606 16.1016H24.1385ZM52.8146 13.914C53.0356 14.2381 53.1461 14.5548 53.1461 14.8642C53.1461 15.2766 52.9767 15.6154 52.6379 15.8806C52.3138 16.1458 51.9308 16.2783 51.4889 16.2783C51.209 16.2783 50.9364 16.212 50.6713 16.0795C50.4061 15.9469 50.1852 15.7407 50.0084 15.4608L47.0917 11.1299C46.8412 10.7469 46.5761 10.4743 46.2962 10.3123C46.0163 10.1355 45.6628 10.0471 45.2356 10.0471H43.4458V14.5106C43.4458 15.0409 43.2911 15.4608 42.9817 15.7701C42.6871 16.0795 42.282 16.2341 41.7664 16.2341C41.2361 16.2341 40.8163 16.0795 40.5069 15.7701C40.1976 15.4608 40.0429 15.0409 40.0429 14.5106V2.13662C40.0429 1.62104 40.1829 1.2233 40.4627 0.943412C40.7426 0.663524 41.1404 0.52358 41.6559 0.52358H47.2022C49.0288 0.52358 50.4061 0.928681 51.3342 1.73888C52.277 2.53436 52.7484 3.69074 52.7484 5.20802C52.7484 6.40123 52.4169 7.39557 51.754 8.19104C51.0911 8.98651 50.1557 9.50946 48.9478 9.75989C49.3897 9.84827 49.7801 10.025 50.1189 10.2902C50.4724 10.5406 50.8112 10.9089 51.1353 11.395L52.8146 13.914ZM46.6939 7.43976C47.6809 7.43976 48.3954 7.27036 48.8373 6.93154C49.2792 6.578 49.5002 6.03296 49.5002 5.29641C49.5002 4.54513 49.2792 4.00008 48.8373 3.66127C48.3954 3.32246 47.6809 3.15306 46.6939 3.15306H43.4016V7.43976H46.6939ZM61.6791 16.2341C61.1488 16.2341 60.729 16.0795 60.4196 15.7701C60.1103 15.4608 59.9556 15.0409 59.9556 14.5106V2.11452C59.9556 1.59894 60.1103 1.18647 60.4196 0.877123C60.729 0.567773 61.1488 0.413098 61.6791 0.413098C62.2094 0.413098 62.6293 0.567773 62.9386 0.877123C63.248 1.18647 63.4026 1.59894 63.4026 2.11452V14.5106C63.4026 15.0409 63.248 15.4608 62.9386 15.7701C62.6293 16.0795 62.2094 16.2341 61.6791 16.2341ZM72.6367 16.2341C72.1211 16.2341 71.7013 16.0795 71.3772 15.7701C71.0678 15.446 70.9132 15.0262 70.9132 14.5106V2.13662C70.9132 1.62104 71.0531 1.2233 71.333 0.943412C71.6129 0.663524 72.0106 0.52358 72.5262 0.52358H80.1274C80.6872 0.52358 81.0996 0.634062 81.3648 0.855026C81.6299 1.07599 81.7625 1.42217 81.7625 1.89356C81.7625 2.35022 81.6299 2.68903 81.3648 2.90999C81.0996 3.13096 80.6872 3.24144 80.1274 3.24144H74.316V6.82106H79.6855C80.2452 6.82106 80.6577 6.93154 80.9229 7.15251C81.188 7.37347 81.3206 7.71965 81.3206 8.19104C81.3206 8.6477 81.188 8.98651 80.9229 9.20748C80.6577 9.42844 80.2452 9.53892 79.6855 9.53892H74.316V14.5106C74.316 15.0409 74.1613 15.4608 73.852 15.7701C73.5574 16.0795 73.1523 16.2341 72.6367 16.2341ZM89.701 16.2341C89.1707 16.2341 88.7509 16.0795 88.4415 15.7701C88.1322 15.4608 87.9775 15.0409 87.9775 14.5106V2.11452C87.9775 1.59894 88.1322 1.18647 88.4415 0.877123C88.7509 0.567773 89.1707 0.413098 89.701 0.413098C90.2313 0.413098 90.6512 0.567773 90.9605 0.877123C91.2699 1.18647 91.4245 1.59894 91.4245 2.11452V14.5106C91.4245 15.0409 91.2699 15.4608 90.9605 15.7701C90.6512 16.0795 90.2313 16.2341 89.701 16.2341ZM106.094 16.3004C104.562 16.3004 103.222 15.9763 102.073 15.3282C100.924 14.68 100.04 13.752 99.4212 12.544C98.8025 11.3361 98.4931 9.92193 98.4931 8.30152C98.4931 6.68112 98.8025 5.27431 99.4212 4.08111C100.04 2.87317 100.924 1.94512 102.073 1.29696C103.222 0.648793 104.562 0.324712 106.094 0.324712C108.024 0.324712 109.689 0.855026 111.088 1.91566C111.309 2.09243 111.464 2.2692 111.552 2.44597C111.641 2.62274 111.685 2.84371 111.685 3.10886C111.685 3.49187 111.574 3.82331 111.353 4.1032C111.147 4.36836 110.889 4.50094 110.58 4.50094C110.374 4.50094 110.19 4.47884 110.027 4.43465C109.88 4.37572 109.711 4.27997 109.519 4.14739C108.93 3.76439 108.385 3.49187 107.884 3.32983C107.383 3.15306 106.846 3.06467 106.271 3.06467C104.857 3.06467 103.789 3.5066 103.067 4.39046C102.36 5.25958 102.006 6.56327 102.006 8.30152C102.006 11.8075 103.428 13.5605 106.271 13.5605C106.816 13.5605 107.332 13.4795 107.818 13.3174C108.304 13.1406 108.871 12.8608 109.519 12.4777C109.74 12.3452 109.924 12.2568 110.072 12.2126C110.219 12.1537 110.388 12.1242 110.58 12.1242C110.889 12.1242 111.147 12.2641 111.353 12.544C111.574 12.8092 111.685 13.1333 111.685 13.5163C111.685 13.7814 111.633 14.0098 111.53 14.2013C111.442 14.378 111.294 14.5474 111.088 14.7095C109.689 15.7701 108.024 16.3004 106.094 16.3004ZM132.631 14.0024C132.749 14.2676 132.808 14.5033 132.808 14.7095C132.808 15.122 132.639 15.4755 132.3 15.7701C131.976 16.05 131.6 16.1899 131.173 16.1899C130.893 16.1899 130.628 16.1163 130.378 15.969C130.127 15.8069 129.936 15.5712 129.803 15.2619L128.632 12.6545H121.141L119.97 15.2619C119.838 15.5712 119.646 15.8069 119.396 15.969C119.16 16.1163 118.895 16.1899 118.6 16.1899C118.173 16.1899 117.79 16.05 117.451 15.7701C117.112 15.4755 116.943 15.122 116.943 14.7095C116.943 14.5033 117.002 14.2676 117.12 14.0024L123.086 1.47373C123.248 1.12018 123.491 0.855026 123.815 0.678256C124.139 0.486753 124.485 0.391002 124.853 0.391002C125.236 0.391002 125.59 0.486753 125.914 0.678256C126.238 0.869757 126.489 1.13491 126.665 1.47373L132.631 14.0024ZM122.312 10.0471H127.461L124.898 4.30207L122.312 10.0471ZM142.467 16.212C141.952 16.212 141.532 16.0574 141.208 15.748C140.898 15.4387 140.744 15.0262 140.744 14.5106V3.32983H137.164C136.074 3.32983 135.529 2.85844 135.529 1.91566C135.529 0.987605 136.074 0.52358 137.164 0.52358H147.77C148.861 0.52358 149.406 0.987605 149.406 1.91566C149.406 2.85844 148.861 3.32983 147.77 3.32983H144.191V14.5106C144.191 15.0262 144.036 15.4387 143.727 15.748C143.417 16.0574 142.998 16.212 142.467 16.212ZM157.03 16.2341C156.5 16.2341 156.08 16.0795 155.771 15.7701C155.462 15.4608 155.307 15.0409 155.307 14.5106V2.11452C155.307 1.59894 155.462 1.18647 155.771 0.877123C156.08 0.567773 156.5 0.413098 157.03 0.413098C157.561 0.413098 157.981 0.567773 158.29 0.877123C158.599 1.18647 158.754 1.59894 158.754 2.11452V14.5106C158.754 15.0409 158.599 15.4608 158.29 15.7701C157.981 16.0795 157.561 16.2341 157.03 16.2341ZM173.424 16.3004C171.877 16.3004 170.529 15.9763 169.38 15.3282C168.246 14.6653 167.369 13.7372 166.751 12.544C166.132 11.3361 165.823 9.92193 165.823 8.30152C165.823 6.68112 166.132 5.27431 166.751 4.08111C167.369 2.87317 168.246 1.94512 169.38 1.29696C170.529 0.648793 171.877 0.324712 173.424 0.324712C174.97 0.324712 176.311 0.648793 177.445 1.29696C178.594 1.94512 179.478 2.87317 180.097 4.08111C180.716 5.27431 181.025 6.68112 181.025 8.30152C181.025 9.92193 180.716 11.3361 180.097 12.544C179.478 13.7372 178.594 14.6653 177.445 15.3282C176.311 15.9763 174.97 16.3004 173.424 16.3004ZM173.424 13.6268C174.72 13.6268 175.736 13.1701 176.473 12.2568C177.224 11.3435 177.6 10.025 177.6 8.30152C177.6 6.578 177.232 5.26695 176.495 4.36836C175.759 3.45504 174.735 2.99838 173.424 2.99838C172.113 2.99838 171.089 3.45504 170.352 4.36836C169.63 5.26695 169.27 6.578 169.27 8.30152C169.27 10.025 169.638 11.3435 170.374 12.2568C171.111 13.1701 172.127 13.6268 173.424 13.6268ZM199.964 0.413098C200.45 0.413098 200.84 0.575138 201.135 0.89922C201.444 1.20857 201.599 1.61367 201.599 2.11452V14.5106C201.599 15.0262 201.444 15.446 201.135 15.7701C200.84 16.0795 200.45 16.2341 199.964 16.2341C199.434 16.2341 199.006 16.0426 198.682 15.6596L191.28 6.18027V14.5106C191.28 15.0262 191.133 15.446 190.838 15.7701C190.558 16.0795 190.175 16.2341 189.689 16.2341C189.203 16.2341 188.813 16.0795 188.518 15.7701C188.223 15.446 188.076 15.0262 188.076 14.5106V2.11452C188.076 1.61367 188.223 1.20857 188.518 0.89922C188.827 0.575138 189.225 0.413098 189.711 0.413098C190.256 0.413098 190.676 0.6046 190.971 0.987605L198.373 10.4007V2.11452C198.373 1.61367 198.52 1.20857 198.815 0.89922C199.11 0.575138 199.493 0.413098 199.964 0.413098Z" fill="url(#paint0_linear)" fill-opacity="0.54"/>
<defs>
<linearGradient id="paint0_linear" x1="241.871" y1="22.8597" x2="227.558" y2="-57.185" gradientUnits="userSpaceOnUse">
<stop stop-color="#652C90"/>
<stop offset="0.458333" stop-color="#91268F"/>
<stop offset="1" stop-color="#D91B5B"/>
</linearGradient>
</defs>
</svg>
