<svg width="337" height="28" viewBox="0 0 337 28" fill="none" xmlns="http://www.w3.org/2000/svg">
<path d="M21.46 2.247C21.682 1.729 22.0027 1.34666 22.422 1.1C22.8413 0.828665 23.31 0.692999 23.828 0.692999C24.568 0.692999 25.234 0.939665 25.826 1.433C26.418 1.92633 26.714 2.53067 26.714 3.246C26.714 3.616 26.6277 3.986 26.455 4.356L16.465 25.446C16.1937 26.0133 15.7867 26.4573 15.244 26.778C14.7013 27.074 14.1093 27.222 13.468 27.222C12.8267 27.222 12.2347 27.074 11.692 26.778C11.1493 26.4573 10.7423 26.0133 10.471 25.446L0.481 4.356C0.308333 4.01066 0.222 3.653 0.222 3.283C0.222 2.543 0.530333 1.92633 1.147 1.433C1.76367 0.939665 2.45433 0.692999 3.219 0.692999C3.737 0.692999 4.20567 0.828665 4.625 1.1C5.069 1.34666 5.402 1.729 5.624 2.247L13.542 19.563L21.46 2.247ZM39.6099 27C38.7466 27 38.0806 26.7657 37.6119 26.297C37.1433 25.8283 36.9089 25.1623 36.9089 24.299V3.616C36.9089 2.75266 37.1433 2.08666 37.6119 1.618C38.0806 1.14933 38.7466 0.914998 39.6099 0.914998H52.7079C54.5333 0.914998 55.4459 1.655 55.4459 3.135C55.4459 4.63966 54.5333 5.392 52.7079 5.392H42.5329V11.497H51.9679C53.7933 11.497 54.7059 12.2493 54.7059 13.754C54.7059 15.234 53.7933 15.974 51.9679 15.974H42.5329V22.523H52.7079C54.5333 22.523 55.4459 23.2753 55.4459 24.78C55.4459 26.26 54.5333 27 52.7079 27H39.6099ZM87.6276 23.337C87.9976 23.8797 88.1826 24.41 88.1826 24.928C88.1826 25.6187 87.8989 26.186 87.3316 26.63C86.7889 27.074 86.1476 27.296 85.4076 27.296C84.9389 27.296 84.4826 27.185 84.0386 26.963C83.5946 26.741 83.2246 26.3957 82.9286 25.927L78.0446 18.675C77.6252 18.0337 77.1812 17.5773 76.7126 17.306C76.2439 17.01 75.6519 16.862 74.9366 16.862H71.9396V24.336C71.9396 25.224 71.6806 25.927 71.1626 26.445C70.6692 26.963 69.9909 27.222 69.1276 27.222C68.2396 27.222 67.5366 26.963 67.0186 26.445C66.5006 25.927 66.2416 25.224 66.2416 24.336V3.616C66.2416 2.75266 66.4759 2.08666 66.9446 1.618C67.4132 1.14933 68.0792 0.914998 68.9426 0.914998H78.2296C81.2882 0.914998 83.5946 1.59333 85.1486 2.95C86.7272 4.282 87.5166 6.21833 87.5166 8.759C87.5166 10.757 86.9616 12.422 85.8516 13.754C84.7416 15.086 83.1752 15.9617 81.1526 16.381C81.8926 16.529 82.5462 16.825 83.1136 17.269C83.7056 17.6883 84.2729 18.305 84.8156 19.119L87.6276 23.337ZM77.3786 12.496C79.0312 12.496 80.2276 12.2123 80.9676 11.645C81.7076 11.053 82.0776 10.1403 82.0776 8.907C82.0776 7.649 81.7076 6.73633 80.9676 6.169C80.2276 5.60167 79.0312 5.318 77.3786 5.318H71.8656V12.496H77.3786ZM102.471 27.222C101.583 27.222 100.88 26.963 100.362 26.445C99.8439 25.927 99.5849 25.224 99.5849 24.336V3.579C99.5849 2.71567 99.8439 2.025 100.362 1.507C100.88 0.988999 101.583 0.729999 102.471 0.729999C103.359 0.729999 104.062 0.988999 104.58 1.507C105.098 2.025 105.357 2.71567 105.357 3.579V24.336C105.357 25.224 105.098 25.927 104.58 26.445C104.062 26.963 103.359 27.222 102.471 27.222ZM120.819 27.222C119.956 27.222 119.253 26.963 118.71 26.445C118.192 25.9023 117.933 25.1993 117.933 24.336V3.616C117.933 2.75266 118.167 2.08666 118.636 1.618C119.105 1.14933 119.771 0.914998 120.634 0.914998H133.362C134.299 0.914998 134.99 1.1 135.434 1.47C135.878 1.84 136.1 2.41967 136.1 3.209C136.1 3.97367 135.878 4.541 135.434 4.911C134.99 5.281 134.299 5.466 133.362 5.466H123.631V11.46H132.622C133.559 11.46 134.25 11.645 134.694 12.015C135.138 12.385 135.36 12.9647 135.36 13.754C135.36 14.5187 135.138 15.086 134.694 15.456C134.25 15.826 133.559 16.011 132.622 16.011H123.631V24.336C123.631 25.224 123.372 25.927 122.854 26.445C122.361 26.963 121.682 27.222 120.819 27.222ZM149.393 27.222C148.505 27.222 147.802 26.963 147.284 26.445C146.766 25.927 146.507 25.224 146.507 24.336V3.579C146.507 2.71567 146.766 2.025 147.284 1.507C147.802 0.988999 148.505 0.729999 149.393 0.729999C150.281 0.729999 150.984 0.988999 151.502 1.507C152.02 2.025 152.279 2.71567 152.279 3.579V24.336C152.279 25.224 152.02 25.927 151.502 26.445C150.984 26.963 150.281 27.222 149.393 27.222ZM176.843 27.333C174.278 27.333 172.033 26.7903 170.109 25.705C168.185 24.6197 166.705 23.0657 165.669 21.043C164.633 19.0203 164.115 16.6523 164.115 13.939C164.115 11.2257 164.633 8.87 165.669 6.872C166.705 4.84933 168.185 3.29533 170.109 2.21C172.033 1.12467 174.278 0.581998 176.843 0.581998C180.075 0.581998 182.862 1.47 185.205 3.246C185.575 3.542 185.834 3.838 185.982 4.134C186.13 4.43 186.204 4.8 186.204 5.244C186.204 5.88533 186.019 6.44033 185.649 6.909C185.304 7.353 184.872 7.575 184.354 7.575C184.009 7.575 183.701 7.538 183.429 7.464C183.183 7.36533 182.899 7.205 182.578 6.983C181.592 6.34167 180.679 5.88533 179.84 5.614C179.002 5.318 178.101 5.17 177.139 5.17C174.771 5.17 172.983 5.91 171.774 7.39C170.59 8.84533 169.998 11.0283 169.998 13.939C169.998 19.8097 172.379 22.745 177.139 22.745C178.052 22.745 178.915 22.6093 179.729 22.338C180.543 22.042 181.493 21.5733 182.578 20.932C182.948 20.71 183.257 20.562 183.503 20.488C183.75 20.3893 184.034 20.34 184.354 20.34C184.872 20.34 185.304 20.5743 185.649 21.043C186.019 21.487 186.204 22.0297 186.204 22.671C186.204 23.115 186.118 23.4973 185.945 23.818C185.797 24.114 185.551 24.3977 185.205 24.669C182.862 26.445 180.075 27.333 176.843 27.333ZM221.279 23.485C221.476 23.929 221.575 24.3237 221.575 24.669C221.575 25.3597 221.291 25.9517 220.724 26.445C220.181 26.9137 219.552 27.148 218.837 27.148C218.368 27.148 217.924 27.0247 217.505 26.778C217.086 26.5067 216.765 26.112 216.543 25.594L214.582 21.228H202.039L200.078 25.594C199.856 26.112 199.535 26.5067 199.116 26.778C198.721 27.0247 198.277 27.148 197.784 27.148C197.069 27.148 196.427 26.9137 195.86 26.445C195.293 25.9517 195.009 25.3597 195.009 24.669C195.009 24.3237 195.108 23.929 195.305 23.485L205.295 2.506C205.566 1.914 205.973 1.47 206.516 1.174C207.059 0.853333 207.638 0.692999 208.255 0.692999C208.896 0.692999 209.488 0.853333 210.031 1.174C210.574 1.49466 210.993 1.93866 211.289 2.506L221.279 23.485ZM204 16.862H212.621L208.329 7.242L204 16.862ZM237.749 27.185C236.886 27.185 236.183 26.926 235.64 26.408C235.122 25.89 234.863 25.1993 234.863 24.336V5.614H228.869C227.044 5.614 226.131 4.82467 226.131 3.246C226.131 1.692 227.044 0.914998 228.869 0.914998H246.629C248.454 0.914998 249.367 1.692 249.367 3.246C249.367 4.82467 248.454 5.614 246.629 5.614H240.635V24.336C240.635 25.1993 240.376 25.89 239.858 26.408C239.34 26.926 238.637 27.185 237.749 27.185ZM262.135 27.222C261.247 27.222 260.544 26.963 260.026 26.445C259.508 25.927 259.249 25.224 259.249 24.336V3.579C259.249 2.71567 259.508 2.025 260.026 1.507C260.544 0.988999 261.247 0.729999 262.135 0.729999C263.023 0.729999 263.726 0.988999 264.244 1.507C264.762 2.025 265.021 2.71567 265.021 3.579V24.336C265.021 25.224 264.762 25.927 264.244 26.445C263.726 26.963 263.023 27.222 262.135 27.222ZM289.585 27.333C286.995 27.333 284.738 26.7903 282.814 25.705C280.915 24.595 279.447 23.041 278.411 21.043C277.375 19.0203 276.857 16.6523 276.857 13.939C276.857 11.2257 277.375 8.87 278.411 6.872C279.447 4.84933 280.915 3.29533 282.814 2.21C284.738 1.12467 286.995 0.581998 289.585 0.581998C292.175 0.581998 294.42 1.12467 296.319 2.21C298.243 3.29533 299.723 4.84933 300.759 6.872C301.795 8.87 302.313 11.2257 302.313 13.939C302.313 16.6523 301.795 19.0203 300.759 21.043C299.723 23.041 298.243 24.595 296.319 25.705C294.42 26.7903 292.175 27.333 289.585 27.333ZM289.585 22.856C291.756 22.856 293.458 22.0913 294.691 20.562C295.949 19.0327 296.578 16.825 296.578 13.939C296.578 11.053 295.961 8.85767 294.728 7.353C293.495 5.82367 291.78 5.059 289.585 5.059C287.39 5.059 285.675 5.82367 284.442 7.353C283.233 8.85767 282.629 11.053 282.629 13.939C282.629 16.825 283.246 19.0327 284.479 20.562C285.712 22.0913 287.414 22.856 289.585 22.856ZM334.026 0.729999C334.84 0.729999 335.494 1.00133 335.987 1.544C336.505 2.062 336.764 2.74033 336.764 3.579V24.336C336.764 25.1993 336.505 25.9023 335.987 26.445C335.494 26.963 334.84 27.222 334.026 27.222C333.138 27.222 332.423 26.9013 331.88 26.26L319.485 10.387V24.336C319.485 25.1993 319.238 25.9023 318.745 26.445C318.276 26.963 317.635 27.222 316.821 27.222C316.007 27.222 315.353 26.963 314.86 26.445C314.367 25.9023 314.12 25.1993 314.12 24.336V3.579C314.12 2.74033 314.367 2.062 314.86 1.544C315.378 1.00133 316.044 0.729999 316.858 0.729999C317.771 0.729999 318.474 1.05067 318.967 1.692L331.362 17.454V3.579C331.362 2.74033 331.609 2.062 332.102 1.544C332.595 1.00133 333.237 0.729999 334.026 0.729999Z" fill="url(#paint0_linear)" fill-opacity="0.54"/>
<defs>
<linearGradient id="paint0_linear" x1="404.199" y1="37.8294" x2="380.232" y2="-96.2037" gradientUnits="userSpaceOnUse">
<stop stop-color="#652C90"/>
<stop offset="0.458333" stop-color="#91268F"/>
<stop offset="1" stop-color="#D91B5B"/>
</linearGradient>
</defs>
</svg>
