<svg width="128" height="11" viewBox="0 0 128 11" fill="none" xmlns="http://www.w3.org/2000/svg">
<path d="M8.12 0.634C8.204 0.437999 8.32533 0.293333 8.484 0.199999C8.64267 0.0973329 8.82 0.0459996 9.016 0.0459996C9.296 0.0459996 9.548 0.139333 9.772 0.325999C9.996 0.512666 10.108 0.741333 10.108 1.012C10.108 1.152 10.0753 1.292 10.01 1.432L6.23 9.412C6.12733 9.62667 5.97333 9.79467 5.768 9.916C5.56267 10.028 5.33867 10.084 5.096 10.084C4.85333 10.084 4.62933 10.028 4.424 9.916C4.21867 9.79467 4.06467 9.62667 3.962 9.412L0.182 1.432C0.116667 1.30133 0.084 1.166 0.084 1.026C0.084 0.746 0.200667 0.512666 0.434 0.325999C0.667333 0.139333 0.928667 0.0459996 1.218 0.0459996C1.414 0.0459996 1.59133 0.0973329 1.75 0.199999C1.918 0.293333 2.044 0.437999 2.128 0.634L5.124 7.186L8.12 0.634ZM14.9875 10C14.6609 10 14.4089 9.91133 14.2315 9.734C14.0542 9.55667 13.9655 9.30467 13.9655 8.978V1.152C13.9655 0.825333 14.0542 0.573333 14.2315 0.395999C14.4089 0.218666 14.6609 0.129999 14.9875 0.129999H19.9435C20.6342 0.129999 20.9795 0.409999 20.9795 0.969999C20.9795 1.53933 20.6342 1.824 19.9435 1.824H16.0935V4.134H19.6635C20.3542 4.134 20.6995 4.41867 20.6995 4.988C20.6995 5.548 20.3542 5.828 19.6635 5.828H16.0935V8.306H19.9435C20.6342 8.306 20.9795 8.59067 20.9795 9.16C20.9795 9.72 20.6342 10 19.9435 10H14.9875ZM33.1564 8.614C33.2964 8.81933 33.3664 9.02 33.3664 9.216C33.3664 9.47733 33.259 9.692 33.0444 9.86C32.839 10.028 32.5964 10.112 32.3164 10.112C32.139 10.112 31.9664 10.07 31.7984 9.986C31.6304 9.902 31.4904 9.77133 31.3784 9.594L29.5304 6.85C29.3717 6.60733 29.2037 6.43467 29.0264 6.332C28.849 6.22 28.625 6.164 28.3544 6.164H27.2204V8.992C27.2204 9.328 27.1224 9.594 26.9264 9.79C26.7397 9.986 26.483 10.084 26.1564 10.084C25.8204 10.084 25.5544 9.986 25.3584 9.79C25.1624 9.594 25.0644 9.328 25.0644 8.992V1.152C25.0644 0.825333 25.153 0.573333 25.3304 0.395999C25.5077 0.218666 25.7597 0.129999 26.0864 0.129999H29.6004C30.7577 0.129999 31.6304 0.386666 32.2184 0.899999C32.8157 1.404 33.1144 2.13667 33.1144 3.098C33.1144 3.854 32.9044 4.484 32.4844 4.988C32.0644 5.492 31.4717 5.82333 30.7064 5.982C30.9864 6.038 31.2337 6.15 31.4484 6.318C31.6724 6.47667 31.887 6.71 32.0924 7.018L33.1564 8.614ZM29.2784 4.512C29.9037 4.512 30.3564 4.40467 30.6364 4.19C30.9164 3.966 31.0564 3.62067 31.0564 3.154C31.0564 2.678 30.9164 2.33267 30.6364 2.118C30.3564 1.90333 29.9037 1.796 29.2784 1.796H27.1924V4.512H29.2784ZM38.7728 10.084C38.4368 10.084 38.1708 9.986 37.9748 9.79C37.7788 9.594 37.6808 9.328 37.6808 8.992V1.138C37.6808 0.811333 37.7788 0.55 37.9748 0.354C38.1708 0.158 38.4368 0.0599995 38.7728 0.0599995C39.1088 0.0599995 39.3748 0.158 39.5708 0.354C39.7668 0.55 39.8648 0.811333 39.8648 1.138V8.992C39.8648 9.328 39.7668 9.594 39.5708 9.79C39.3748 9.986 39.1088 10.084 38.7728 10.084ZM45.7154 10.084C45.3887 10.084 45.1227 9.986 44.9174 9.79C44.7214 9.58467 44.6234 9.31867 44.6234 8.992V1.152C44.6234 0.825333 44.712 0.573333 44.8894 0.395999C45.0667 0.218666 45.3187 0.129999 45.6454 0.129999H50.4614C50.816 0.129999 51.0774 0.199999 51.2454 0.339999C51.4134 0.48 51.4974 0.699333 51.4974 0.998C51.4974 1.28733 51.4134 1.502 51.2454 1.642C51.0774 1.782 50.816 1.852 50.4614 1.852H46.7794V4.12H50.1814C50.536 4.12 50.7974 4.19 50.9654 4.33C51.1334 4.47 51.2174 4.68933 51.2174 4.988C51.2174 5.27733 51.1334 5.492 50.9654 5.632C50.7974 5.772 50.536 5.842 50.1814 5.842H46.7794V8.992C46.7794 9.328 46.6814 9.594 46.4854 9.79C46.2987 9.986 46.042 10.084 45.7154 10.084ZM56.5271 10.084C56.1911 10.084 55.9251 9.986 55.7291 9.79C55.5331 9.594 55.4351 9.328 55.4351 8.992V1.138C55.4351 0.811333 55.5331 0.55 55.7291 0.354C55.9251 0.158 56.1911 0.0599995 56.5271 0.0599995C56.8631 0.0599995 57.1291 0.158 57.3251 0.354C57.5211 0.55 57.6191 0.811333 57.6191 1.138V8.992C57.6191 9.328 57.5211 9.594 57.3251 9.79C57.1291 9.986 56.8631 10.084 56.5271 10.084ZM66.9137 10.126C65.943 10.126 65.0937 9.92067 64.3657 9.51C63.6377 9.09933 63.0777 8.51133 62.6857 7.746C62.2937 6.98067 62.0977 6.08467 62.0977 5.058C62.0977 4.03133 62.2937 3.14 62.6857 2.384C63.0777 1.61867 63.6377 1.03067 64.3657 0.62C65.0937 0.209333 65.943 0.00399935 66.9137 0.00399935C68.1363 0.00399935 69.191 0.339999 70.0777 1.012C70.2177 1.124 70.3157 1.236 70.3717 1.348C70.4277 1.46 70.4557 1.6 70.4557 1.768C70.4557 2.01067 70.3857 2.22067 70.2457 2.398C70.115 2.566 69.9517 2.65 69.7557 2.65C69.625 2.65 69.5083 2.636 69.4057 2.608C69.3123 2.57067 69.205 2.51 69.0837 2.426C68.7103 2.18333 68.365 2.01067 68.0477 1.908C67.7303 1.796 67.3897 1.74 67.0257 1.74C66.1297 1.74 65.453 2.02 64.9957 2.58C64.5477 3.13067 64.3237 3.95667 64.3237 5.058C64.3237 7.27933 65.2243 8.39 67.0257 8.39C67.371 8.39 67.6977 8.33867 68.0057 8.236C68.3137 8.124 68.673 7.94667 69.0837 7.704C69.2237 7.62 69.3403 7.564 69.4337 7.536C69.527 7.49867 69.6343 7.48 69.7557 7.48C69.9517 7.48 70.115 7.56867 70.2457 7.746C70.3857 7.914 70.4557 8.11933 70.4557 8.362C70.4557 8.53 70.423 8.67467 70.3577 8.796C70.3017 8.908 70.2083 9.01533 70.0777 9.118C69.191 9.79 68.1363 10.126 66.9137 10.126ZM83.7272 8.67C83.8019 8.838 83.8392 8.98733 83.8392 9.118C83.8392 9.37933 83.7319 9.60333 83.5172 9.79C83.3119 9.96733 83.0739 10.056 82.8032 10.056C82.6259 10.056 82.4579 10.0093 82.2992 9.916C82.1406 9.81333 82.0192 9.664 81.9352 9.468L81.1932 7.816H76.4472L75.7052 9.468C75.6212 9.664 75.4999 9.81333 75.3412 9.916C75.1919 10.0093 75.0239 10.056 74.8372 10.056C74.5666 10.056 74.3239 9.96733 74.1092 9.79C73.8946 9.60333 73.7872 9.37933 73.7872 9.118C73.7872 8.98733 73.8246 8.838 73.8992 8.67L77.6792 0.731999C77.7819 0.507999 77.9359 0.339999 78.1412 0.228C78.3466 0.106666 78.5659 0.0459996 78.7992 0.0459996C79.0419 0.0459996 79.2659 0.106666 79.4712 0.228C79.6766 0.349333 79.8352 0.517332 79.9472 0.731999L83.7272 8.67ZM77.1892 6.164H80.4512L78.8272 2.524L77.1892 6.164ZM89.9591 10.07C89.6324 10.07 89.3664 9.972 89.1611 9.776C88.9651 9.58 88.8671 9.31867 88.8671 8.992V1.908H86.5991C85.9084 1.908 85.5631 1.60933 85.5631 1.012C85.5631 0.424 85.9084 0.129999 86.5991 0.129999H93.3191C94.0097 0.129999 94.3551 0.424 94.3551 1.012C94.3551 1.60933 94.0097 1.908 93.3191 1.908H91.0511V8.992C91.0511 9.31867 90.9531 9.58 90.7571 9.776C90.5611 9.972 90.2951 10.07 89.9591 10.07ZM99.1861 10.084C98.8501 10.084 98.5841 9.986 98.3881 9.79C98.1921 9.594 98.0941 9.328 98.0941 8.992V1.138C98.0941 0.811333 98.1921 0.55 98.3881 0.354C98.5841 0.158 98.8501 0.0599995 99.1861 0.0599995C99.5221 0.0599995 99.7881 0.158 99.9841 0.354C100.18 0.55 100.278 0.811333 100.278 1.138V8.992C100.278 9.328 100.18 9.594 99.9841 9.79C99.7881 9.986 99.5221 10.084 99.1861 10.084ZM109.573 10.126C108.593 10.126 107.739 9.92067 107.011 9.51C106.292 9.09 105.737 8.502 105.345 7.746C104.953 6.98067 104.757 6.08467 104.757 5.058C104.757 4.03133 104.953 3.14 105.345 2.384C105.737 1.61867 106.292 1.03067 107.011 0.62C107.739 0.209333 108.593 0.00399935 109.573 0.00399935C110.553 0.00399935 111.402 0.209333 112.121 0.62C112.849 1.03067 113.409 1.61867 113.801 2.384C114.193 3.14 114.389 4.03133 114.389 5.058C114.389 6.08467 114.193 6.98067 113.801 7.746C113.409 8.502 112.849 9.09 112.121 9.51C111.402 9.92067 110.553 10.126 109.573 10.126ZM109.573 8.432C110.394 8.432 111.038 8.14267 111.505 7.564C111.981 6.98533 112.219 6.15 112.219 5.058C112.219 3.966 111.985 3.13533 111.519 2.566C111.052 1.98733 110.403 1.698 109.573 1.698C108.742 1.698 108.093 1.98733 107.627 2.566C107.169 3.13533 106.941 3.966 106.941 5.058C106.941 6.15 107.174 6.98533 107.641 7.564C108.107 8.14267 108.751 8.432 109.573 8.432ZM126.388 0.0599995C126.696 0.0599995 126.944 0.162666 127.13 0.368C127.326 0.563999 127.424 0.820666 127.424 1.138V8.992C127.424 9.31867 127.326 9.58467 127.13 9.79C126.944 9.986 126.696 10.084 126.388 10.084C126.052 10.084 125.782 9.96267 125.576 9.72L120.886 3.714V8.992C120.886 9.31867 120.793 9.58467 120.606 9.79C120.429 9.986 120.186 10.084 119.878 10.084C119.57 10.084 119.323 9.986 119.136 9.79C118.95 9.58467 118.856 9.31867 118.856 8.992V1.138C118.856 0.820666 118.95 0.563999 119.136 0.368C119.332 0.162666 119.584 0.0599995 119.892 0.0599995C120.238 0.0599995 120.504 0.181333 120.69 0.424L125.38 6.388V1.138C125.38 0.820666 125.474 0.563999 125.66 0.368C125.847 0.162666 126.09 0.0599995 126.388 0.0599995Z" fill="url(#paint0_linear)" fill-opacity="0.54"/>
<defs>
<linearGradient id="paint0_linear" x1="152.878" y1="19.6689" x2="138.831" y2="-42.8781" gradientUnits="userSpaceOnUse">
<stop stop-color="#652C90"/>
<stop offset="0.458333" stop-color="#91268F"/>
<stop offset="1" stop-color="#D91B5B"/>
</linearGradient>
</defs>
</svg>
