<svg width="501" height="41" viewBox="0 0 501 41" fill="none" xmlns="http://www.w3.org/2000/svg">
<path d="M31.9 3.205C32.23 2.435 32.7067 1.86666 33.33 1.5C33.9533 1.09666 34.65 0.894999 35.42 0.894999C36.52 0.894999 37.51 1.26166 38.39 1.995C39.27 2.72833 39.71 3.62667 39.71 4.69C39.71 5.24 39.5817 5.79 39.325 6.34L24.475 37.69C24.0717 38.5333 23.4667 39.1933 22.66 39.67C21.8533 40.11 20.9733 40.33 20.02 40.33C19.0667 40.33 18.1867 40.11 17.38 39.67C16.5733 39.1933 15.9683 38.5333 15.565 37.69L0.715 6.34C0.458333 5.82666 0.33 5.295 0.33 4.745C0.33 3.645 0.788333 2.72833 1.705 1.995C2.62167 1.26166 3.64833 0.894999 4.785 0.894999C5.555 0.894999 6.25167 1.09666 6.875 1.5C7.535 1.86666 8.03 2.435 8.36 3.205L20.13 28.945L31.9 3.205ZM58.8796 40C57.5963 40 56.6063 39.6517 55.9096 38.955C55.213 38.2583 54.8646 37.2683 54.8646 35.985V5.24C54.8646 3.95666 55.213 2.96666 55.9096 2.27C56.6063 1.57333 57.5963 1.225 58.8796 1.225H78.3496C81.063 1.225 82.4197 2.325 82.4197 4.525C82.4197 6.76166 81.063 7.88 78.3496 7.88H63.2246V16.955H77.2496C79.963 16.955 81.3196 18.0733 81.3196 20.31C81.3196 22.51 79.963 23.61 77.2496 23.61H63.2246V33.345H78.3496C81.063 33.345 82.4197 34.4633 82.4197 36.7C82.4197 38.9 81.063 40 78.3496 40H58.8796ZM130.257 34.555C130.807 35.3617 131.082 36.15 131.082 36.92C131.082 37.9467 130.661 38.79 129.817 39.45C129.011 40.11 128.057 40.44 126.957 40.44C126.261 40.44 125.582 40.275 124.922 39.945C124.262 39.615 123.712 39.1017 123.272 38.405L116.012 27.625C115.389 26.6717 114.729 25.9933 114.032 25.59C113.336 25.15 112.456 24.93 111.392 24.93H106.937V36.04C106.937 37.36 106.552 38.405 105.782 39.175C105.049 39.945 104.041 40.33 102.757 40.33C101.437 40.33 100.392 39.945 99.6222 39.175C98.8522 38.405 98.4672 37.36 98.4672 36.04V5.24C98.4672 3.95666 98.8155 2.96666 99.5122 2.27C100.209 1.57333 101.199 1.225 102.482 1.225H116.287C120.834 1.225 124.262 2.23333 126.572 4.25C128.919 6.23 130.092 9.10833 130.092 12.885C130.092 15.855 129.267 18.33 127.617 20.31C125.967 22.29 123.639 23.5917 120.632 24.215C121.732 24.435 122.704 24.875 123.547 25.535C124.427 26.1583 125.271 27.075 126.077 28.285L130.257 34.555ZM115.022 18.44C117.479 18.44 119.257 18.0183 120.357 17.175C121.457 16.295 122.007 14.9383 122.007 13.105C122.007 11.235 121.457 9.87833 120.357 9.035C119.257 8.19167 117.479 7.77 115.022 7.77H106.827V18.44H115.022ZM152.322 40.33C151.002 40.33 149.957 39.945 149.187 39.175C148.417 38.405 148.032 37.36 148.032 36.04V5.185C148.032 3.90166 148.417 2.875 149.187 2.105C149.957 1.335 151.002 0.949998 152.322 0.949998C153.642 0.949998 154.687 1.335 155.457 2.105C156.227 2.875 156.612 3.90166 156.612 5.185V36.04C156.612 37.36 156.227 38.405 155.457 39.175C154.687 39.945 153.642 40.33 152.322 40.33ZM179.596 40.33C178.313 40.33 177.268 39.945 176.461 39.175C175.691 38.3683 175.306 37.3233 175.306 36.04V5.24C175.306 3.95666 175.654 2.96666 176.351 2.27C177.048 1.57333 178.038 1.225 179.321 1.225H198.241C199.634 1.225 200.661 1.5 201.321 2.05C201.981 2.6 202.311 3.46167 202.311 4.635C202.311 5.77166 201.981 6.615 201.321 7.165C200.661 7.715 199.634 7.99 198.241 7.99H183.776V16.9H197.141C198.534 16.9 199.561 17.175 200.221 17.725C200.881 18.275 201.211 19.1367 201.211 20.31C201.211 21.4467 200.881 22.29 200.221 22.84C199.561 23.39 198.534 23.665 197.141 23.665H183.776V36.04C183.776 37.36 183.391 38.405 182.621 39.175C181.888 39.945 180.879 40.33 179.596 40.33ZM222.071 40.33C220.751 40.33 219.706 39.945 218.936 39.175C218.166 38.405 217.781 37.36 217.781 36.04V5.185C217.781 3.90166 218.166 2.875 218.936 2.105C219.706 1.335 220.751 0.949998 222.071 0.949998C223.391 0.949998 224.436 1.335 225.206 2.105C225.976 2.875 226.361 3.90166 226.361 5.185V36.04C226.361 37.36 225.976 38.405 225.206 39.175C224.436 39.945 223.391 40.33 222.071 40.33ZM262.875 40.495C259.062 40.495 255.725 39.6883 252.865 38.075C250.005 36.4617 247.805 34.1517 246.265 31.145C244.725 28.1383 243.955 24.6183 243.955 20.585C243.955 16.5517 244.725 13.05 246.265 10.08C247.805 7.07333 250.005 4.76333 252.865 3.15C255.725 1.53666 259.062 0.729997 262.875 0.729997C267.678 0.729997 271.822 2.05 275.305 4.69C275.855 5.13 276.24 5.57 276.46 6.01C276.68 6.45 276.79 7 276.79 7.66C276.79 8.61333 276.515 9.43833 275.965 10.135C275.452 10.795 274.81 11.125 274.04 11.125C273.527 11.125 273.068 11.07 272.665 10.96C272.298 10.8133 271.877 10.575 271.4 10.245C269.933 9.29167 268.577 8.61333 267.33 8.21C266.083 7.77 264.745 7.55 263.315 7.55C259.795 7.55 257.137 8.65 255.34 10.85C253.58 13.0133 252.7 16.2583 252.7 20.585C252.7 29.3117 256.238 33.675 263.315 33.675C264.672 33.675 265.955 33.4733 267.165 33.07C268.375 32.63 269.787 31.9333 271.4 30.98C271.95 30.65 272.408 30.43 272.775 30.32C273.142 30.1733 273.563 30.1 274.04 30.1C274.81 30.1 275.452 30.4483 275.965 31.145C276.515 31.805 276.79 32.6117 276.79 33.565C276.79 34.225 276.662 34.7933 276.405 35.27C276.185 35.71 275.818 36.1317 275.305 36.535C271.822 39.175 267.678 40.495 262.875 40.495ZM328.928 34.775C329.222 35.435 329.368 36.0217 329.368 36.535C329.368 37.5617 328.947 38.4417 328.103 39.175C327.297 39.8717 326.362 40.22 325.298 40.22C324.602 40.22 323.942 40.0367 323.318 39.67C322.695 39.2667 322.218 38.68 321.888 37.91L318.973 31.42H300.328L297.413 37.91C297.083 38.68 296.607 39.2667 295.983 39.67C295.397 40.0367 294.737 40.22 294.003 40.22C292.94 40.22 291.987 39.8717 291.143 39.175C290.3 38.4417 289.878 37.5617 289.878 36.535C289.878 36.0217 290.025 35.435 290.318 34.775L305.168 3.59C305.572 2.71 306.177 2.05 306.983 1.61C307.79 1.13333 308.652 0.894999 309.568 0.894999C310.522 0.894999 311.402 1.13333 312.208 1.61C313.015 2.08666 313.638 2.74666 314.078 3.59L328.928 34.775ZM303.243 24.93H316.058L309.678 10.63L303.243 24.93ZM353.411 40.275C352.127 40.275 351.082 39.89 350.276 39.12C349.506 38.35 349.121 37.3233 349.121 36.04V8.21H340.211C337.497 8.21 336.141 7.03667 336.141 4.69C336.141 2.38 337.497 1.225 340.211 1.225H366.611C369.324 1.225 370.681 2.38 370.681 4.69C370.681 7.03667 369.324 8.21 366.611 8.21H357.701V36.04C357.701 37.3233 357.316 38.35 356.546 39.12C355.776 39.89 354.731 40.275 353.411 40.275ZM389.66 40.33C388.34 40.33 387.295 39.945 386.525 39.175C385.755 38.405 385.37 37.36 385.37 36.04V5.185C385.37 3.90166 385.755 2.875 386.525 2.105C387.295 1.335 388.34 0.949998 389.66 0.949998C390.98 0.949998 392.025 1.335 392.795 2.105C393.565 2.875 393.95 3.90166 393.95 5.185V36.04C393.95 37.36 393.565 38.405 392.795 39.175C392.025 39.945 390.98 40.33 389.66 40.33ZM430.464 40.495C426.614 40.495 423.259 39.6883 420.399 38.075C417.576 36.425 415.394 34.115 413.854 31.145C412.314 28.1383 411.544 24.6183 411.544 20.585C411.544 16.5517 412.314 13.05 413.854 10.08C415.394 7.07333 417.576 4.76333 420.399 3.15C423.259 1.53666 426.614 0.729997 430.464 0.729997C434.314 0.729997 437.651 1.53666 440.474 3.15C443.334 4.76333 445.534 7.07333 447.074 10.08C448.614 13.05 449.384 16.5517 449.384 20.585C449.384 24.6183 448.614 28.1383 447.074 31.145C445.534 34.115 443.334 36.425 440.474 38.075C437.651 39.6883 434.314 40.495 430.464 40.495ZM430.464 33.84C433.691 33.84 436.221 32.7033 438.054 30.43C439.924 28.1567 440.859 24.875 440.859 20.585C440.859 16.295 439.942 13.0317 438.109 10.795C436.276 8.52166 433.727 7.385 430.464 7.385C427.201 7.385 424.652 8.52166 422.819 10.795C421.022 13.0317 420.124 16.295 420.124 20.585C420.124 24.875 421.041 28.1567 422.874 30.43C424.707 32.7033 427.237 33.84 430.464 33.84ZM496.525 0.949998C497.735 0.949998 498.707 1.35333 499.44 2.16C500.21 2.93 500.595 3.93833 500.595 5.185V36.04C500.595 37.3233 500.21 38.3683 499.44 39.175C498.707 39.945 497.735 40.33 496.525 40.33C495.205 40.33 494.142 39.8533 493.335 38.9L474.91 15.305V36.04C474.91 37.3233 474.543 38.3683 473.81 39.175C473.113 39.945 472.16 40.33 470.95 40.33C469.74 40.33 468.768 39.945 468.035 39.175C467.302 38.3683 466.935 37.3233 466.935 36.04V5.185C466.935 3.93833 467.302 2.93 468.035 2.16C468.805 1.35333 469.795 0.949998 471.005 0.949998C472.362 0.949998 473.407 1.42666 474.14 2.38L492.565 25.81V5.185C492.565 3.93833 492.932 2.93 493.665 2.16C494.398 1.35333 495.352 0.949998 496.525 0.949998Z" fill="url(#paint0_linear)" fill-opacity="0.54"/>
<defs>
<linearGradient id="paint0_linear" x1="597.612" y1="63.5154" x2="566.836" y2="-121.555" gradientUnits="userSpaceOnUse">
<stop stop-color="#652C90"/>
<stop offset="0.458333" stop-color="#91268F"/>
<stop offset="1" stop-color="#D91B5B"/>
</linearGradient>
</defs>
</svg>
